<?xml version="1.0" encoding="UTF-8" standalone="no"?>
<!DOCTYPE svg PUBLIC "-//W3C//DTD SVG 1.1//EN"
 "http://www.w3.org/Graphics/SVG/1.1/DTD/svg11.dtd">
<!-- Generated by graphviz version 2.50.0 (0)
 -->
<!-- Title: case1_4 Pages: 1 -->
<svg width="2241pt" height="1341pt"
 viewBox="0.00 0.00 2240.70 1340.68" xmlns="http://www.w3.org/2000/svg" xmlns:xlink="http://www.w3.org/1999/xlink">
<g id="graph0" class="graph" transform="scale(1 1) rotate(0) translate(4 1336.68)">
<title>case1_4</title>
<polygon fill="white" stroke="transparent" points="-4,4 -4,-1336.68 2236.7,-1336.68 2236.7,4 -4,4"/>
<!-- 0 -->
<g id="node1" class="node">
<title>0</title>
<polygon fill="none" stroke="black" points="449.68,-1067.68 92.09,-1067.68 0.11,-1031.68 357.69,-1031.68 449.68,-1067.68"/>
<text text-anchor="middle" x="224.89" y="-1045.98" font-family="Times New Roman,serif" font-size="14.00">128.55.12.73&#45;80&#45;&gt;25.159.96.207&#45;58625</text>
</g>
<!-- 1 -->
<g id="node2" class="node">
<title>1</title>
<polygon fill="none" stroke="black" points="690.79,-1083.68 622.79,-1083.68 622.79,-1015.68 690.79,-1015.68 690.79,-1083.68"/>
<text text-anchor="middle" x="656.79" y="-1045.98" font-family="Times New Roman,serif" font-size="14.00">893nginx</text>
</g>
<!-- 0&#45;&gt;1 -->
<g id="edge1" class="edge">
<title>0&#45;&gt;1</title>
<path fill="none" stroke="Red" d="M357.66,-1067.71C430.83,-1074.6 523.28,-1078.16 604.79,-1065.68 607.45,-1065.27 610.16,-1064.75 612.88,-1064.15"/>
<polygon fill="Red" stroke="Red" points="613.83,-1067.51 622.66,-1061.66 612.11,-1060.73 613.83,-1067.51"/>
<text text-anchor="middle" x="536.29" y="-1077.48" font-family="Times New Roman,serif" font-size="14.00">0 EVENT_RECVFROM</text>
</g>
<!-- 1&#45;&gt;0 -->
<g id="edge2" class="edge">
<title>1&#45;&gt;0</title>
<path fill="none" stroke="Red" d="M622.6,-1047.44C616.67,-1047.12 610.55,-1046.85 604.79,-1046.68 539.25,-1044.75 467.31,-1044.78 403.89,-1045.53"/>
<polygon fill="Red" stroke="Red" points="403.75,-1042.03 393.79,-1045.66 403.83,-1049.03 403.75,-1042.03"/>
<text text-anchor="middle" x="536.29" y="-1050.48" font-family="Times New Roman,serif" font-size="14.00">1 EVENT_WRITE</text>
</g>
<!-- 1&#45;&gt;0 -->
<g id="edge3" class="edge">
<title>1&#45;&gt;0</title>
<path fill="none" stroke="Red" d="M622.51,-1031.5C616.75,-1029.09 610.71,-1027 604.79,-1025.68 507.98,-1004.04 394.05,-1016.13 316.59,-1029.78"/>
<polygon fill="Red" stroke="Red" points="315.6,-1026.4 306.38,-1031.63 316.84,-1033.29 315.6,-1026.4"/>
<text text-anchor="middle" x="536.29" y="-1029.48" font-family="Times New Roman,serif" font-size="14.00">2 EVENT_CLOSE</text>
</g>
<!-- 4 -->
<g id="node3" class="node">
<title>4</title>
<polygon fill="none" stroke="black" points="1308.03,-1277.68 959.09,-1277.68 869.33,-1241.68 1218.27,-1241.68 1308.03,-1277.68"/>
<text text-anchor="middle" x="1088.68" y="-1255.98" font-family="Times New Roman,serif" font-size="14.00">128.55.12.73&#45;49722&#45;&gt;76.56.184.25&#45;80</text>
</g>
<!-- 1&#45;&gt;4 -->
<g id="edge4" class="edge">
<title>1&#45;&gt;4</title>
<path fill="none" stroke="Red" d="M660.42,-1084.05C665.59,-1141.25 679.26,-1252.07 708.79,-1275.68 802.61,-1350.69 955.15,-1310.65 1035.06,-1281.46"/>
<polygon fill="Red" stroke="Red" points="1036.76,-1284.56 1044.9,-1277.78 1034.31,-1278 1036.76,-1284.56"/>
<text text-anchor="middle" x="777.29" y="-1321.48" font-family="Times New Roman,serif" font-size="14.00">3 EVENT_CONNECT</text>
</g>
<!-- 1&#45;&gt;4 -->
<g id="edge5" class="edge">
<title>1&#45;&gt;4</title>
<path fill="none" stroke="Red" d="M662.3,-1084.07C669.46,-1132.87 685.09,-1218.44 708.79,-1237.68 724.61,-1250.52 813.65,-1256.09 901.43,-1258.42"/>
<polygon fill="Red" stroke="Red" points="901.49,-1261.92 911.57,-1258.67 901.66,-1254.92 901.49,-1261.92"/>
<text text-anchor="middle" x="777.29" y="-1259.48" font-family="Times New Roman,serif" font-size="14.00">4 EVENT_SENDTO</text>
</g>
<!-- 7 -->
<g id="node4" class="node">
<title>7</title>
<polygon fill="none" stroke="black" points="1313.47,-1163.68 955.88,-1163.68 863.89,-1127.68 1221.48,-1127.68 1313.47,-1163.68"/>
<text text-anchor="middle" x="1088.68" y="-1141.98" font-family="Times New Roman,serif" font-size="14.00">128.55.12.73&#45;27115&#45;&gt;155.162.39.48&#45;80</text>
</g>
<!-- 1&#45;&gt;7 -->
<g id="edge7" class="edge">
<title>1&#45;&gt;7</title>
<path fill="none" stroke="Red" d="M663.22,-1083.79C669.39,-1110.04 682.29,-1144.62 708.79,-1161.68 750.63,-1188.6 875.15,-1178.15 970.13,-1165.08"/>
<polygon fill="Red" stroke="Red" points="970.68,-1168.54 980.1,-1163.68 969.71,-1161.6 970.68,-1168.54"/>
<text text-anchor="middle" x="777.29" y="-1181.48" font-family="Times New Roman,serif" font-size="14.00">6 EVENT_CONNECT</text>
</g>
<!-- 1&#45;&gt;7 -->
<g id="edge8" class="edge">
<title>1&#45;&gt;7</title>
<path fill="none" stroke="Red" d="M672.71,-1083.9C681.06,-1098.77 693.02,-1114.8 708.79,-1123.68 725.69,-1133.19 807.16,-1138.6 890.24,-1141.68"/>
<polygon fill="Red" stroke="Red" points="890.26,-1145.18 900.38,-1142.04 890.51,-1138.19 890.26,-1145.18"/>
<text text-anchor="middle" x="777.29" y="-1142.48" font-family="Times New Roman,serif" font-size="14.00">7 EVENT_SENDTO</text>
</g>
<!-- 10 -->
<g id="node5" class="node">
<title>10</title>
<ellipse fill="none" stroke="black" cx="2001.14" cy="-1003.68" rx="55.79" ry="18"/>
<text text-anchor="middle" x="2001.14" y="-999.98" font-family="Times New Roman,serif" font-size="14.00">/dev/random</text>
</g>
<!-- 1&#45;&gt;10 -->
<g id="edge10" class="edge">
<title>1&#45;&gt;10</title>
<path fill="none" stroke="Blue" d="M690.94,-1050.11C824.18,-1051.62 1333.57,-1055.31 1751.57,-1029.68 1815.59,-1025.75 1888.55,-1017.69 1938.78,-1011.58"/>
<polygon fill="Blue" stroke="Blue" points="1939.33,-1015.04 1948.83,-1010.35 1938.48,-1008.09 1939.33,-1015.04"/>
<text text-anchor="middle" x="1396.57" y="-1049.48" font-family="Times New Roman,serif" font-size="14.00">9 EVENT_OPEN</text>
</g>
<!-- 1&#45;&gt;10 -->
<g id="edge12" class="edge">
<title>1&#45;&gt;10</title>
<path fill="none" stroke="Blue" d="M690.97,-1046.87C696.9,-1046.42 703.02,-1046 708.79,-1045.68 1178.56,-1018.97 1745.5,-1007.83 1934.96,-1004.68"/>
<polygon fill="Blue" stroke="Blue" points="1935.09,-1008.18 1945.03,-1004.51 1934.97,-1001.18 1935.09,-1008.18"/>
<text text-anchor="middle" x="1396.57" y="-1022.48" font-family="Times New Roman,serif" font-size="14.00">11 EVENT_CLOSE</text>
</g>
<!-- 13 -->
<g id="node6" class="node">
<title>13</title>
<ellipse fill="none" stroke="black" cx="2001.14" cy="-136.68" rx="51.99" ry="18"/>
<text text-anchor="middle" x="2001.14" y="-132.98" font-family="Times New Roman,serif" font-size="14.00">/etc/passwd</text>
</g>
<!-- 1&#45;&gt;13 -->
<g id="edge13" class="edge">
<title>1&#45;&gt;13</title>
<path fill="none" stroke="Blue" d="M660.97,-1015.57C665.95,-976.58 678.41,-912.16 708.79,-865.68 990.62,-434.42 1122.19,-306.33 1607.57,-133.68 1722.96,-92.64 1869.76,-110.68 1947.04,-125.09"/>
<polygon fill="Blue" stroke="Blue" points="1946.54,-128.56 1957.02,-127.01 1947.86,-121.69 1946.54,-128.56"/>
<text text-anchor="middle" x="1396.57" y="-246.48" font-family="Times New Roman,serif" font-size="14.00">12 EVENT_OPEN</text>
</g>
<!-- 1&#45;&gt;13 -->
<g id="edge15" class="edge">
<title>1&#45;&gt;13</title>
<path fill="none" stroke="Blue" d="M659.75,-1015.46C664.2,-948.03 677.19,-793.57 708.79,-667.68 756.51,-477.52 714.19,-381.4 863.79,-254.68 1168.91,3.78 1352.33,-86.26 1751.57,-108.68 1817.49,-112.38 1892.78,-121.56 1943.06,-128.4"/>
<polygon fill="Blue" stroke="Blue" points="1942.7,-131.89 1953.08,-129.78 1943.65,-124.95 1942.7,-131.89"/>
<text text-anchor="middle" x="1396.57" y="-87.48" font-family="Times New Roman,serif" font-size="14.00">14 EVENT_CLOSE</text>
</g>
<!-- 16 -->
<g id="node7" class="node">
<title>16</title>
<ellipse fill="none" stroke="black" cx="1088.68" cy="-924.68" rx="68.49" ry="18"/>
<text text-anchor="middle" x="1088.68" y="-920.98" font-family="Times New Roman,serif" font-size="14.00">/tmp/pEja72mA</text>
</g>
<!-- 1&#45;&gt;16 -->
<g id="edge16" class="edge">
<title>1&#45;&gt;16</title>
<path fill="none" stroke="Black" d="M676.31,-1015.43C684.64,-1003.2 695.59,-990.52 708.79,-982.68 715.4,-978.75 910.39,-950.2 1017.99,-934.67"/>
<polygon fill="Black" stroke="Black" points="1018.73,-938.1 1028.13,-933.21 1017.73,-931.17 1018.73,-938.1"/>
<text text-anchor="middle" x="777.29" y="-986.48" font-family="Times New Roman,serif" font-size="14.00">15 EVENT_OPEN</text>
</g>
<!-- 1&#45;&gt;16 -->
<g id="edge17" class="edge">
<title>1&#45;&gt;16</title>
<path fill="none" stroke="Black" d="M664.36,-1015.58C671.06,-990.89 684.11,-959.08 708.79,-942.68 733.17,-926.47 906.5,-924.09 1010.09,-924.15"/>
<polygon fill="Black" stroke="Black" points="1010.19,-927.65 1020.2,-924.17 1010.2,-920.65 1010.19,-927.65"/>
<text text-anchor="middle" x="777.29" y="-946.48" font-family="Times New Roman,serif" font-size="14.00">16 EVENT_WRITE</text>
</g>
<!-- 1&#45;&gt;16 -->
<g id="edge18" class="edge">
<title>1&#45;&gt;16</title>
<path fill="none" stroke="Black" d="M659.51,-1015.47C663.22,-982 674.59,-932.68 708.79,-908.68 809.31,-838.14 964.49,-878.88 1041.32,-906.19"/>
<polygon fill="Black" stroke="Black" points="1040.14,-909.49 1050.74,-909.61 1042.53,-902.91 1040.14,-909.49"/>
<text text-anchor="middle" x="777.29" y="-912.48" font-family="Times New Roman,serif" font-size="14.00">17 EVENT_CLOSE</text>
</g>
<!-- 4&#45;&gt;1 -->
<g id="edge6" class="edge">
<title>4&#45;&gt;1</title>
<path fill="none" stroke="Red" d="M982.64,-1241.67C940.16,-1234.44 890.65,-1226.08 845.79,-1218.68 815.36,-1213.66 732.41,-1216.49 708.79,-1196.68 678.59,-1171.34 666.25,-1127.14 661.22,-1093.8"/>
<polygon fill="Red" stroke="Red" points="664.68,-1093.28 659.88,-1083.83 657.74,-1094.21 664.68,-1093.28"/>
<text text-anchor="middle" x="777.29" y="-1222.48" font-family="Times New Roman,serif" font-size="14.00">5 EVENT_RECVFROM</text>
</g>
<!-- 7&#45;&gt;1 -->
<g id="edge9" class="edge">
<title>7&#45;&gt;1</title>
<path fill="none" stroke="Red" d="M981.46,-1127.64C918.16,-1116.89 849.39,-1105.23 845.79,-1104.68 785.03,-1095.32 765.96,-1108.26 708.79,-1085.68 705.76,-1084.48 702.75,-1083.07 699.78,-1081.52"/>
<polygon fill="Red" stroke="Red" points="701.47,-1078.45 691.06,-1076.47 697.96,-1084.51 701.47,-1078.45"/>
<text text-anchor="middle" x="777.29" y="-1108.48" font-family="Times New Roman,serif" font-size="14.00">8 EVENT_RECVFROM</text>
</g>
<!-- 10&#45;&gt;1 -->
<g id="edge11" class="edge">
<title>10&#45;&gt;1</title>
<path fill="none" stroke="Blue" d="M1950.84,-1011.78C1897.57,-1023.24 1814.31,-1049.55 1769.57,-1106.68 1741.73,-1142.23 1786.22,-1177.71 1751.57,-1206.68 1702.47,-1247.73 1670.9,-1215.95 1607.57,-1206.68 1472.62,-1186.91 1447.43,-1144.87 1313.57,-1118.68 1048.57,-1066.83 975.62,-1102.1 708.79,-1060.68 706.15,-1060.27 703.45,-1059.81 700.72,-1059.31"/>
<polygon fill="Blue" stroke="Blue" points="701.36,-1055.87 690.88,-1057.4 700.03,-1062.74 701.36,-1055.87"/>
<text text-anchor="middle" x="1396.57" y="-1168.48" font-family="Times New Roman,serif" font-size="14.00">10 EVENT_READ</text>
</g>
<!-- 19 -->
<g id="node8" class="node">
<title>19</title>
<polygon fill="none" stroke="black" points="1589.57,-720.68 1479.57,-720.68 1479.57,-610.68 1589.57,-610.68 1589.57,-720.68"/>
<text text-anchor="middle" x="1534.57" y="-661.98" font-family="Times New Roman,serif" font-size="14.00">36112pEja72mA</text>
</g>
<!-- 10&#45;&gt;19 -->
<g id="edge26" class="edge">
<title>10&#45;&gt;19</title>
<path fill="none" stroke="yellow" d="M1946.04,-1000.24C1841.35,-993.36 1620.17,-977.62 1607.57,-966.68 1572.58,-936.29 1552.05,-810.18 1542.39,-731.15"/>
<polygon fill="yellow" stroke="yellow" points="1545.81,-730.32 1541.15,-720.8 1538.86,-731.15 1545.81,-730.32"/>
<text text-anchor="middle" x="1679.57" y="-989.48" font-family="Times New Roman,serif" font-size="14.00">25 EVENT_READ</text>
</g>
<!-- 13&#45;&gt;1 -->
<g id="edge14" class="edge">
<title>13&#45;&gt;1</title>
<path fill="none" stroke="Blue" d="M1959.57,-125.66C1910.64,-112.82 1825.71,-91.91 1751.57,-80.68 1522.46,-45.96 873.92,81.89 708.79,-80.68 675.43,-113.52 661.55,-820.06 658.47,-1005.45"/>
<polygon fill="Blue" stroke="Blue" points="654.97,-1005.6 658.3,-1015.65 661.97,-1005.71 654.97,-1005.6"/>
<text text-anchor="middle" x="1396.57" y="-38.48" font-family="Times New Roman,serif" font-size="14.00">13 EVENT_READ</text>
</g>
<!-- 13&#45;&gt;19 -->
<g id="edge29" class="edge">
<title>13&#45;&gt;19</title>
<path fill="none" stroke="yellow" d="M1949.26,-135.06C1848.76,-132.37 1632.34,-129.3 1607.57,-151.68 1542.72,-210.3 1534.81,-475.37 1534.79,-600.23"/>
<polygon fill="yellow" stroke="yellow" points="1531.29,-600.43 1534.8,-610.42 1538.29,-600.42 1531.29,-600.43"/>
<text text-anchor="middle" x="1679.57" y="-155.48" font-family="Times New Roman,serif" font-size="14.00">28 EVENT_READ</text>
</g>
<!-- 16&#45;&gt;19 -->
<g id="edge19" class="edge">
<title>16&#45;&gt;19</title>
<path fill="none" stroke="Black" d="M1117.79,-908.28C1188.01,-867.3 1372.53,-759.64 1470.45,-702.51"/>
<polygon fill="Black" stroke="Black" points="1472.48,-705.37 1479.36,-697.31 1468.96,-699.33 1472.48,-705.37"/>
<text text-anchor="middle" x="1396.57" y="-783.48" font-family="Times New Roman,serif" font-size="14.00">18 EVENT_EXECUTE</text>
</g>
<!-- 19&#45;&gt;10 -->
<g id="edge25" class="edge">
<title>19&#45;&gt;10</title>
<path fill="none" stroke="yellow" d="M1538.05,-720.83C1543.44,-771.81 1559.66,-845.83 1607.57,-887.68 1656.56,-930.46 1688.78,-896.77 1751.57,-913.68 1825.32,-933.53 1908.22,-965.6 1957.21,-985.62"/>
<polygon fill="yellow" stroke="yellow" points="1955.97,-988.89 1966.55,-989.45 1958.63,-982.42 1955.97,-988.89"/>
<text text-anchor="middle" x="1679.57" y="-917.48" font-family="Times New Roman,serif" font-size="14.00">24 EVENT_OPEN</text>
</g>
<!-- 19&#45;&gt;10 -->
<g id="edge27" class="edge">
<title>19&#45;&gt;10</title>
<path fill="none" stroke="yellow" d="M1543.4,-720.71C1554.37,-789.51 1576.5,-901.56 1607.57,-928.68 1631.9,-949.9 1719.8,-942.01 1751.57,-947.68 1819.41,-959.77 1896.72,-977.88 1946.86,-990.21"/>
<polygon fill="yellow" stroke="yellow" points="1946.28,-993.67 1956.83,-992.67 1947.96,-986.87 1946.28,-993.67"/>
<text text-anchor="middle" x="1679.57" y="-951.48" font-family="Times New Roman,serif" font-size="14.00">26 EVENT_CLOSE</text>
</g>
<!-- 19&#45;&gt;13 -->
<g id="edge28" class="edge">
<title>19&#45;&gt;13</title>
<path fill="none" stroke="yellow" d="M1536,-610.51C1538.09,-498.3 1549.34,-249.24 1607.57,-191.68 1610.54,-188.75 1833.88,-158.75 1942.32,-144.33"/>
<polygon fill="yellow" stroke="yellow" points="1942.99,-147.77 1952.44,-142.99 1942.07,-140.83 1942.99,-147.77"/>
<text text-anchor="middle" x="1679.57" y="-195.48" font-family="Times New Roman,serif" font-size="14.00">27 EVENT_OPEN</text>
</g>
<!-- 19&#45;&gt;13 -->
<g id="edge30" class="edge">
<title>19&#45;&gt;13</title>
<path fill="none" stroke="yellow" d="M1537.37,-610.62C1541.89,-507.38 1557.27,-290.31 1607.57,-237.68 1652.8,-190.35 1688.04,-222.45 1751.57,-206.68 1821.39,-189.35 1901.33,-166.25 1951.28,-151.41"/>
<polygon fill="yellow" stroke="yellow" points="1952.58,-154.68 1961.16,-148.47 1950.58,-147.97 1952.58,-154.68"/>
<text text-anchor="middle" x="1679.57" y="-241.48" font-family="Times New Roman,serif" font-size="14.00">29 EVENT_CLOSE</text>
</g>
<!-- 20 -->
<g id="node9" class="node">
<title>20</title>
<ellipse fill="none" stroke="black" cx="2001.14" cy="-551.68" rx="48.19" ry="18"/>
<text text-anchor="middle" x="2001.14" y="-547.98" font-family="Times New Roman,serif" font-size="14.00">/dev/hpet0</text>
</g>
<!-- 19&#45;&gt;20 -->
<g id="edge20" class="edge">
<title>19&#45;&gt;20</title>
<path fill="none" stroke="Orange" d="M1569.94,-610.36C1580.44,-597.86 1593.1,-586.11 1607.57,-578.68 1664.47,-549.48 1848.13,-548.55 1942.69,-550.15"/>
<polygon fill="Orange" stroke="Orange" points="1942.88,-553.66 1952.94,-550.34 1943.01,-546.66 1942.88,-553.66"/>
<text text-anchor="middle" x="1679.57" y="-582.48" font-family="Times New Roman,serif" font-size="14.00">19 EVENT_OPEN</text>
</g>
<!-- 19&#45;&gt;20 -->
<g id="edge21" class="edge">
<title>19&#45;&gt;20</title>
<path fill="none" stroke="Orange" d="M1551.28,-610.59C1562.26,-582.93 1580.01,-551.92 1607.57,-535.68 1663.51,-502.72 1853.33,-527.62 1946.98,-542.56"/>
<polygon fill="Orange" stroke="Orange" points="1946.67,-546.05 1957.1,-544.19 1947.79,-539.14 1946.67,-546.05"/>
<text text-anchor="middle" x="1679.57" y="-539.48" font-family="Times New Roman,serif" font-size="14.00">20 EVENT_CLOSE</text>
</g>
<!-- 22 -->
<g id="node10" class="node">
<title>22</title>
<polygon fill="none" stroke="black" points="2232.77,-474.68 1864.3,-474.68 1769.51,-438.68 2137.98,-438.68 2232.77,-474.68"/>
<text text-anchor="middle" x="2001.14" y="-452.98" font-family="Times New Roman,serif" font-size="14.00">128.55.12.73&#45;63341&#45;&gt;53.158.101.118&#45;80</text>
</g>
<!-- 19&#45;&gt;22 -->
<g id="edge22" class="edge">
<title>19&#45;&gt;22</title>
<path fill="none" stroke="Green" d="M1544.94,-610.34C1554.26,-573.23 1572.49,-526.56 1607.57,-500.68 1626.25,-486.9 1734.92,-475.39 1833.19,-467.61"/>
<polygon fill="Green" stroke="Green" points="1833.58,-471.09 1843.28,-466.82 1833.03,-464.11 1833.58,-471.09"/>
<text text-anchor="middle" x="1679.57" y="-504.48" font-family="Times New Roman,serif" font-size="14.00">21 EVENT_CONNECT</text>
</g>
<!-- 19&#45;&gt;22 -->
<g id="edge23" class="edge">
<title>19&#45;&gt;22</title>
<path fill="none" stroke="Green" d="M1537.69,-610.36C1542.86,-561 1558.99,-491.33 1607.57,-456.68 1622.94,-445.72 1698.5,-444.24 1779.28,-446.1"/>
<polygon fill="Green" stroke="Green" points="1779.59,-449.6 1789.67,-446.35 1779.76,-442.61 1779.59,-449.6"/>
<text text-anchor="middle" x="1679.57" y="-460.48" font-family="Times New Roman,serif" font-size="14.00">22 EVENT_SENDTO</text>
</g>
<!-- 31 -->
<g id="node11" class="node">
<title>31</title>
<ellipse fill="none" stroke="black" cx="2001.14" cy="-342.68" rx="46.29" ry="18"/>
<text text-anchor="middle" x="2001.14" y="-338.98" font-family="Times New Roman,serif" font-size="14.00">/etc/group</text>
</g>
<!-- 19&#45;&gt;31 -->
<g id="edge31" class="edge">
<title>19&#45;&gt;31</title>
<path fill="none" stroke="yellow" d="M1542.65,-610.57C1553.04,-538.86 1574.83,-419.3 1607.57,-390.68 1632.54,-368.86 1843.23,-352.65 1945.24,-345.99"/>
<polygon fill="yellow" stroke="yellow" points="1945.59,-349.48 1955.35,-345.34 1945.14,-342.49 1945.59,-349.48"/>
<text text-anchor="middle" x="1679.57" y="-394.48" font-family="Times New Roman,serif" font-size="14.00">30 EVENT_OPEN</text>
</g>
<!-- 19&#45;&gt;31 -->
<g id="edge33" class="edge">
<title>19&#45;&gt;31</title>
<path fill="none" stroke="yellow" d="M1539.8,-610.41C1547.42,-527.35 1566.65,-376.54 1607.57,-343.68 1633.23,-323.07 1843.57,-332.99 1945.36,-339.1"/>
<polygon fill="yellow" stroke="yellow" points="1945.26,-342.6 1955.45,-339.71 1945.68,-335.61 1945.26,-342.6"/>
<text text-anchor="middle" x="1679.57" y="-347.48" font-family="Times New Roman,serif" font-size="14.00">32 EVENT_CLOSE</text>
</g>
<!-- 34 -->
<g id="node12" class="node">
<title>34</title>
<ellipse fill="none" stroke="black" cx="2001.14" cy="-266.68" rx="42.49" ry="18"/>
<text text-anchor="middle" x="2001.14" y="-262.98" font-family="Times New Roman,serif" font-size="14.00">/dev/null</text>
</g>
<!-- 19&#45;&gt;34 -->
<g id="edge34" class="edge">
<title>19&#45;&gt;34</title>
<path fill="none" stroke="yellow" d="M1537.27,-610.36C1541.56,-511.93 1556.5,-312.63 1607.57,-269.68 1633.05,-248.25 1848.21,-257.78 1948.75,-263.49"/>
<polygon fill="yellow" stroke="yellow" points="1948.79,-267 1958.98,-264.08 1949.2,-260.01 1948.79,-267"/>
<text text-anchor="middle" x="1679.57" y="-273.48" font-family="Times New Roman,serif" font-size="14.00">33 EVENT_WRITE</text>
</g>
<!-- 35 -->
<g id="node13" class="node">
<title>35</title>
<ellipse fill="none" stroke="black" cx="2001.14" cy="-1133.68" rx="73.39" ry="18"/>
<text text-anchor="middle" x="2001.14" y="-1129.98" font-family="Times New Roman,serif" font-size="14.00">/tmp/memhelp.so</text>
</g>
<!-- 19&#45;&gt;35 -->
<g id="edge35" class="edge">
<title>19&#45;&gt;35</title>
<path fill="none" stroke="Indigo" d="M1540.65,-720.92C1549.53,-805.95 1570.56,-963.42 1607.57,-1004.68 1651.46,-1053.59 1833.59,-1098.56 1933.62,-1120.18"/>
<polygon fill="Indigo" stroke="Indigo" points="1933.11,-1123.65 1943.62,-1122.33 1934.58,-1116.81 1933.11,-1123.65"/>
<text text-anchor="middle" x="1679.57" y="-1076.48" font-family="Times New Roman,serif" font-size="14.00">34 EVENT_OPEN</text>
</g>
<!-- 19&#45;&gt;35 -->
<g id="edge36" class="edge">
<title>19&#45;&gt;35</title>
<path fill="none" stroke="Indigo" d="M1534.83,-720.83C1534.54,-839.13 1541.26,-1111.18 1607.57,-1168.68 1707.8,-1255.58 1881.36,-1190.79 1959.7,-1154.22"/>
<polygon fill="Indigo" stroke="Indigo" points="1961.24,-1157.36 1968.77,-1149.91 1958.24,-1151.04 1961.24,-1157.36"/>
<text text-anchor="middle" x="1679.57" y="-1215.48" font-family="Times New Roman,serif" font-size="14.00">35 EVENT_WRITE</text>
</g>
<!-- 19&#45;&gt;35 -->
<g id="edge37" class="edge">
<title>19&#45;&gt;35</title>
<path fill="none" stroke="Indigo" d="M1535.59,-720.86C1536.92,-832.32 1546.83,-1078.21 1607.57,-1130.68 1630.53,-1150.5 1811.37,-1144.21 1919.42,-1138.53"/>
<polygon fill="Indigo" stroke="Indigo" points="1919.85,-1142.01 1929.64,-1137.98 1919.47,-1135.02 1919.85,-1142.01"/>
<text text-anchor="middle" x="1679.57" y="-1147.48" font-family="Times New Roman,serif" font-size="14.00">36 EVENT_CLOSE</text>
</g>
<!-- 39 -->
<g id="node14" class="node">
<title>39</title>
<ellipse fill="none" stroke="black" cx="2001.14" cy="-722.68" rx="75.29" ry="18"/>
<text text-anchor="middle" x="2001.14" y="-718.98" font-family="Times New Roman,serif" font-size="14.00">/tmp/injectLog.txt</text>
</g>
<!-- 19&#45;&gt;39 -->
<g id="edge39" class="edge">
<title>19&#45;&gt;39</title>
<path fill="none" stroke="Indigo" d="M1589.62,-680.94C1595.65,-682.34 1601.72,-683.63 1607.57,-684.68 1713.41,-703.64 1837.12,-713.63 1916.95,-718.53"/>
<polygon fill="Indigo" stroke="Indigo" points="1916.75,-722.03 1926.94,-719.13 1917.17,-715.04 1916.75,-722.03"/>
<text text-anchor="middle" x="1679.57" y="-708.48" font-family="Times New Roman,serif" font-size="14.00">38 EVENT_WRITE</text>
</g>
<!-- 40 -->
<g id="node15" class="node">
<title>40</title>
<ellipse fill="none" stroke="black" cx="2001.14" cy="-817.68" rx="59.29" ry="18"/>
<text text-anchor="middle" x="2001.14" y="-813.98" font-family="Times New Roman,serif" font-size="14.00">/tmp/eraseme</text>
</g>
<!-- 19&#45;&gt;40 -->
<g id="edge40" class="edge">
<title>19&#45;&gt;40</title>
<path fill="none" stroke="Indigo" d="M1546.88,-720.92C1556.84,-754.23 1575.04,-794.09 1607.57,-814.68 1660.35,-848.07 1838.74,-835.19 1935.86,-825.17"/>
<polygon fill="Indigo" stroke="Indigo" points="1936.27,-828.65 1945.85,-824.12 1935.54,-821.69 1936.27,-828.65"/>
<text text-anchor="middle" x="1679.57" y="-840.48" font-family="Times New Roman,serif" font-size="14.00">39 EVENT_OPEN</text>
</g>
<!-- 19&#45;&gt;40 -->
<g id="edge41" class="edge">
<title>19&#45;&gt;40</title>
<path fill="none" stroke="Indigo" d="M1558.57,-720.79C1570.15,-741.73 1586.32,-763.66 1607.57,-776.68 1614.46,-780.9 1824.29,-801.15 1934.29,-811.53"/>
<polygon fill="Indigo" stroke="Indigo" points="1934,-815.02 1944.29,-812.47 1934.66,-808.05 1934,-815.02"/>
<text text-anchor="middle" x="1679.57" y="-797.48" font-family="Times New Roman,serif" font-size="14.00">40 EVENT_WRITE</text>
</g>
<!-- 19&#45;&gt;40 -->
<g id="edge42" class="edge">
<title>19&#45;&gt;40</title>
<path fill="none" stroke="Indigo" d="M1589.7,-713.29C1595.51,-717.16 1601.52,-720.71 1607.57,-723.68 1666.64,-752.58 1687.61,-742.41 1751.57,-757.68 1817.82,-773.49 1893.95,-791.9 1944.31,-804.12"/>
<polygon fill="Indigo" stroke="Indigo" points="1943.8,-807.59 1954.34,-806.55 1945.45,-800.79 1943.8,-807.59"/>
<text text-anchor="middle" x="1679.57" y="-761.48" font-family="Times New Roman,serif" font-size="14.00">41 EVENT_CLOSE</text>
</g>
<!-- 44 -->
<g id="node16" class="node">
<title>44</title>
<ellipse fill="none" stroke="black" cx="2001.14" cy="-646.68" rx="57.39" ry="18"/>
<text text-anchor="middle" x="2001.14" y="-642.98" font-family="Times New Roman,serif" font-size="14.00">/tmp/done.so</text>
</g>
<!-- 19&#45;&gt;44 -->
<g id="edge44" class="edge">
<title>19&#45;&gt;44</title>
<path fill="none" stroke="Indigo" d="M1589.74,-665.68C1633.44,-665.5 1696.49,-664.83 1751.57,-662.68 1814.03,-660.23 1885.2,-655.45 1935.33,-651.75"/>
<polygon fill="Indigo" stroke="Indigo" points="1935.67,-655.23 1945.38,-651 1935.15,-648.25 1935.67,-655.23"/>
<text text-anchor="middle" x="1679.57" y="-669.48" font-family="Times New Roman,serif" font-size="14.00">43 EVENT_OPEN</text>
</g>
<!-- 19&#45;&gt;44 -->
<g id="edge45" class="edge">
<title>19&#45;&gt;44</title>
<path fill="none" stroke="Indigo" d="M1589.83,-647.25C1595.76,-645.79 1601.76,-644.55 1607.57,-643.68 1722.57,-626.5 1858.62,-633.55 1936.61,-640.16"/>
<polygon fill="Indigo" stroke="Indigo" points="1936.49,-643.66 1946.75,-641.05 1937.09,-636.69 1936.49,-643.66"/>
<text text-anchor="middle" x="1679.57" y="-647.48" font-family="Times New Roman,serif" font-size="14.00">44 EVENT_WRITE</text>
</g>
<!-- 19&#45;&gt;44 -->
<g id="edge46" class="edge">
<title>19&#45;&gt;44</title>
<path fill="none" stroke="Indigo" d="M1589.96,-622.21C1595.68,-619.18 1601.59,-616.58 1607.57,-614.68 1726.52,-576.82 1875.45,-609.22 1951.11,-630.94"/>
<polygon fill="Indigo" stroke="Indigo" points="1950.27,-634.34 1960.85,-633.79 1952.24,-627.62 1950.27,-634.34"/>
<text text-anchor="middle" x="1679.57" y="-618.48" font-family="Times New Roman,serif" font-size="14.00">45 EVENT_CLOSE</text>
</g>
<!-- 22&#45;&gt;19 -->
<g id="edge24" class="edge">
<title>22&#45;&gt;19</title>
<path fill="none" stroke="Green" d="M1920.66,-438.68C1820.45,-417.97 1655.44,-391.1 1607.57,-426.68 1579.47,-447.56 1558.16,-537.32 1546.26,-600.67"/>
<polygon fill="Green" stroke="Green" points="1542.8,-600.13 1544.43,-610.6 1549.68,-601.4 1542.8,-600.13"/>
<text text-anchor="middle" x="1679.57" y="-430.48" font-family="Times New Roman,serif" font-size="14.00">23 EVENT_RECVFROM</text>
</g>
<!-- 31&#45;&gt;19 -->
<g id="edge32" class="edge">
<title>31&#45;&gt;19</title>
<path fill="none" stroke="yellow" d="M1962.57,-332.66C1875.08,-310.34 1661.11,-261.79 1607.57,-305.68 1562.97,-342.24 1545.45,-507 1539.01,-600.45"/>
<polygon fill="yellow" stroke="yellow" points="1535.5,-600.44 1538.33,-610.65 1542.49,-600.9 1535.5,-600.44"/>
<text text-anchor="middle" x="1679.57" y="-309.48" font-family="Times New Roman,serif" font-size="14.00">31 EVENT_READ</text>
</g>
<!-- 35&#45;&gt;19 -->
<g id="edge38" class="edge">
<title>35&#45;&gt;19</title>
<path fill="none" stroke="Indigo" d="M1932.12,-1127.45C1821.29,-1117.15 1613.42,-1097.18 1607.57,-1091.68 1556.44,-1043.56 1541.59,-838 1537.3,-731"/>
<polygon fill="Indigo" stroke="Indigo" points="1540.8,-730.82 1536.92,-720.96 1533.8,-731.09 1540.8,-730.82"/>
<text text-anchor="middle" x="1679.57" y="-1113.48" font-family="Times New Roman,serif" font-size="14.00">37 EVENT_READ</text>
</g>
<!-- 40&#45;&gt;19 -->
<g id="edge43" class="edge">
<title>40&#45;&gt;19</title>
<path fill="none" stroke="Indigo" d="M1954.32,-828.88C1863.09,-850.05 1662.79,-890.58 1607.57,-852.68 1568.01,-825.52 1550.18,-773.33 1542.15,-730.98"/>
<polygon fill="Indigo" stroke="Indigo" points="1545.57,-730.24 1540.4,-721 1538.68,-731.45 1545.57,-730.24"/>
<text text-anchor="middle" x="1679.57" y="-872.48" font-family="Times New Roman,serif" font-size="14.00">42 EVENT_READ</text>
</g>
</g>
</svg>
