<?xml version="1.0" encoding="UTF-8" standalone="no"?>
<!DOCTYPE svg PUBLIC "-//W3C//DTD SVG 1.1//EN"
 "http://www.w3.org/Graphics/SVG/1.1/DTD/svg11.dtd">
<!-- Generated by graphviz version 10.0.1 (20240210.2158)
 -->
<!-- Title: att Pages: 1 -->
<svg width="2287pt" height="753pt"
 viewBox="0.00 0.00 2286.51 753.02" xmlns="http://www.w3.org/2000/svg" xmlns:xlink="http://www.w3.org/1999/xlink">
<g id="graph0" class="graph" transform="scale(1 1) rotate(0) translate(4 749.02)">
<title>att</title>
<polygon fill="white" stroke="none" points="-4,4 -4,-749.02 2282.51,-749.02 2282.51,4 -4,4"/>
<!-- 0 -->
<g id="node1" class="node">
<title>0</title>
<polygon fill="none" stroke="black" points="459.95,-391.27 94.11,-391.27 0,-355.27 365.84,-355.27 459.95,-391.27"/>
<text text-anchor="middle" x="229.97" y="-367.85" font-family="Times New Roman,serif" font-size="14.00">128.55.12.73&#45;80&#45;&gt;81.49.200.166&#45;44623</text>
</g>
<!-- 1 -->
<g id="node2" class="node">
<title>1</title>
<polygon fill="none" stroke="black" points="716.7,-413.15 636.95,-413.15 636.95,-333.4 716.7,-333.4 716.7,-413.15"/>
<text text-anchor="middle" x="676.82" y="-367.85" font-family="Times New Roman,serif" font-size="14.00">59764nginx</text>
</g>
<!-- 0&#45;&gt;1 -->
<g id="edge1" class="edge">
<title>0&#45;&gt;1</title>
<path fill="none" stroke="Red" d="M367.17,-391.74C441.86,-398.73 535.89,-402.42 618.95,-390.27 621.13,-389.96 623.34,-389.57 625.56,-389.13"/>
<polygon fill="Red" stroke="Red" points="626.25,-392.57 635.21,-386.92 624.68,-385.75 626.25,-392.57"/>
<text text-anchor="middle" x="548.45" y="-400.72" font-family="Times New Roman,serif" font-size="14.00">0 EVENT_RECVFROM</text>
</g>
<!-- 1&#45;&gt;0 -->
<g id="edge5" class="edge">
<title>1&#45;&gt;0</title>
<path fill="none" stroke="Red" d="M636.67,-371.13C630.73,-370.88 624.68,-370.66 618.95,-370.52 552.88,-368.93 480.47,-368.96 416.28,-369.6"/>
<polygon fill="Red" stroke="Red" points="416.29,-366.1 406.33,-369.71 416.36,-373.1 416.29,-366.1"/>
<text text-anchor="middle" x="548.45" y="-373.72" font-family="Times New Roman,serif" font-size="14.00">4 EVENT_WRITE</text>
</g>
<!-- 1&#45;&gt;0 -->
<g id="edge6" class="edge">
<title>1&#45;&gt;0</title>
<path fill="none" stroke="Red" d="M636.68,-354.59C630.85,-352.5 624.82,-350.7 618.95,-349.52 522.73,-330.24 410.65,-340.53 331.76,-353.01"/>
<polygon fill="Red" stroke="Red" points="331.66,-349.48 322.35,-354.54 332.78,-356.39 331.66,-349.48"/>
<text text-anchor="middle" x="548.45" y="-352.72" font-family="Times New Roman,serif" font-size="14.00">5 EVENT_CLOSE</text>
</g>
<!-- 2 -->
<g id="node3" class="node">
<title>2</title>
<polygon fill="none" stroke="black" points="1366.98,-684.27 1001.14,-684.27 907.03,-648.27 1272.87,-648.27 1366.98,-684.27"/>
<text text-anchor="middle" x="1137" y="-660.85" font-family="Times New Roman,serif" font-size="14.00">128.55.12.73&#45;54698&#45;&gt;78.205.235.65&#45;80</text>
</g>
<!-- 1&#45;&gt;2 -->
<g id="edge2" class="edge">
<title>1&#45;&gt;2</title>
<path fill="none" stroke="Red" d="M679.06,-413.62C682.34,-489.62 694.03,-649.39 734.7,-683.27 833.5,-765.6 998.21,-720.49 1082.59,-688.83"/>
<polygon fill="Red" stroke="Red" points="1083.72,-692.15 1091.8,-685.3 1081.21,-685.61 1083.72,-692.15"/>
<text text-anchor="middle" x="808.57" y="-731.72" font-family="Times New Roman,serif" font-size="14.00">1 EVENT_CONNECT</text>
</g>
<!-- 1&#45;&gt;2 -->
<g id="edge3" class="edge">
<title>1&#45;&gt;2</title>
<path fill="none" stroke="Red" d="M680.41,-413.43C685.69,-481.43 700.27,-614.72 734.7,-644.27 742.73,-651.17 833.45,-656.48 926.6,-660.15"/>
<polygon fill="Red" stroke="Red" points="926.32,-663.64 936.45,-660.53 926.59,-656.64 926.32,-663.64"/>
<text text-anchor="middle" x="808.57" y="-659.72" font-family="Times New Roman,serif" font-size="14.00">2 EVENT_SENDTO</text>
</g>
<!-- 3 -->
<g id="node4" class="node">
<title>3</title>
<polygon fill="none" stroke="black" points="1373.56,-547.27 997.25,-547.27 900.45,-511.27 1276.76,-511.27 1373.56,-547.27"/>
<text text-anchor="middle" x="1137" y="-523.85" font-family="Times New Roman,serif" font-size="14.00">128.55.12.73&#45;38265&#45;&gt;200.36.109.214&#45;80</text>
</g>
<!-- 1&#45;&gt;3 -->
<g id="edge7" class="edge">
<title>1&#45;&gt;3</title>
<path fill="none" stroke="blue" d="M683.95,-413.51C692.63,-464.5 710.22,-547.97 734.7,-566.27 782.88,-602.31 947.44,-573.23 1050.27,-550.26"/>
<polygon fill="blue" stroke="blue" points="1050.8,-553.73 1059.78,-548.11 1049.26,-546.9 1050.8,-553.73"/>
<text text-anchor="middle" x="808.57" y="-584.72" font-family="Times New Roman,serif" font-size="14.00">6 EVENT_CONNECT</text>
</g>
<!-- 1&#45;&gt;3 -->
<g id="edge8" class="edge">
<title>1&#45;&gt;3</title>
<path fill="none" stroke="blue" d="M680.36,-413.39C685.04,-449.83 698.16,-501.69 734.7,-527.27 753.52,-540.46 859.5,-540.58 957.82,-537.61"/>
<polygon fill="blue" stroke="blue" points="957.75,-541.11 967.64,-537.3 957.53,-534.12 957.75,-541.11"/>
<text text-anchor="middle" x="808.57" y="-540.72" font-family="Times New Roman,serif" font-size="14.00">7 EVENT_SENDTO</text>
</g>
<!-- 1&#45;&gt;3 -->
<g id="edge28" class="edge">
<title>1&#45;&gt;3</title>
<path fill="none" stroke="orange" d="M687.01,-413.44C695.1,-439.16 709.63,-470.88 734.7,-488.27 739.06,-491.3 829.41,-500.67 923.28,-509.68"/>
<polygon fill="orange" stroke="orange" points="922.94,-513.17 933.23,-510.64 923.61,-506.2 922.94,-513.17"/>
<text text-anchor="middle" x="808.57" y="-507.72" font-family="Times New Roman,serif" font-size="14.00">27 EVENT_CLOSE</text>
</g>
<!-- 4 -->
<g id="node5" class="node">
<title>4</title>
<polygon fill="none" stroke="black" points="1366.98,-430.27 1001.14,-430.27 907.03,-394.27 1272.87,-394.27 1366.98,-430.27"/>
<text text-anchor="middle" x="1137" y="-406.85" font-family="Times New Roman,serif" font-size="14.00">128.55.12.73&#45;80&#45;&gt;81.49.200.166&#45;43530</text>
</g>
<!-- 1&#45;&gt;4 -->
<g id="edge9" class="edge">
<title>1&#45;&gt;4</title>
<path fill="none" stroke="blue" d="M717.11,-402.8C722.77,-405.85 728.72,-408.48 734.7,-410.27 816.44,-434.75 911.83,-436.26 989.09,-431.18"/>
<polygon fill="blue" stroke="blue" points="989.11,-434.69 998.84,-430.49 988.62,-427.71 989.11,-434.69"/>
<text text-anchor="middle" x="808.57" y="-435.72" font-family="Times New Roman,serif" font-size="14.00">8 EVENT_WRITE</text>
</g>
<!-- 1&#45;&gt;4 -->
<g id="edge10" class="edge">
<title>1&#45;&gt;4</title>
<path fill="none" stroke="blue" d="M717.05,-376.56C758.24,-380.02 824.9,-385.63 882.45,-390.52 891.37,-391.28 900.46,-392.06 909.65,-392.84"/>
<polygon fill="blue" stroke="blue" points="909.13,-396.31 919.39,-393.67 909.73,-389.33 909.13,-396.31"/>
<text text-anchor="middle" x="808.57" y="-393.72" font-family="Times New Roman,serif" font-size="14.00">9 EVENT_CLOSE</text>
</g>
<!-- 5 -->
<g id="node6" class="node">
<title>5</title>
<ellipse fill="none" stroke="black" cx="1137" cy="-312.27" rx="55.06" ry="18"/>
<text text-anchor="middle" x="1137" y="-306.85" font-family="Times New Roman,serif" font-size="14.00">/etc/passwd</text>
</g>
<!-- 1&#45;&gt;5 -->
<g id="edge12" class="edge">
<title>1&#45;&gt;5</title>
<path fill="none" stroke="blue" d="M717.13,-362.32C722.99,-360.91 728.98,-359.59 734.7,-358.52 852.49,-336.57 991.8,-323.32 1071.44,-316.93"/>
<polygon fill="blue" stroke="blue" points="1071.54,-320.44 1081.24,-316.16 1070.99,-313.46 1071.54,-320.44"/>
<text text-anchor="middle" x="808.57" y="-361.72" font-family="Times New Roman,serif" font-size="14.00">11 EVENT_OPEN</text>
</g>
<!-- 1&#45;&gt;5 -->
<g id="edge14" class="edge">
<title>1&#45;&gt;5</title>
<path fill="none" stroke="blue" d="M710.74,-333.08C717.93,-326.76 726.02,-321.14 734.7,-317.52 793.66,-292.99 973.92,-300.9 1071.56,-307.37"/>
<polygon fill="blue" stroke="blue" points="1071.32,-310.86 1081.53,-308.05 1071.79,-303.88 1071.32,-310.86"/>
<text text-anchor="middle" x="808.57" y="-320.72" font-family="Times New Roman,serif" font-size="14.00">13 EVENT_CLOSE</text>
</g>
<!-- 6 -->
<g id="node7" class="node">
<title>6</title>
<ellipse fill="none" stroke="black" cx="1137" cy="-200.27" rx="58.55" ry="18"/>
<text text-anchor="middle" x="1137" y="-194.85" font-family="Times New Roman,serif" font-size="14.00">/tmp/vUgefal</text>
</g>
<!-- 1&#45;&gt;6 -->
<g id="edge15" class="edge">
<title>1&#45;&gt;6</title>
<path fill="none" stroke="black" d="M684.58,-333.15C691.76,-303.72 706.21,-265.39 734.7,-244.52 760.95,-225.29 960.35,-210.67 1067.83,-204.1"/>
<polygon fill="black" stroke="black" points="1067.92,-207.6 1077.69,-203.5 1067.5,-200.61 1067.92,-207.6"/>
<text text-anchor="middle" x="808.57" y="-247.72" font-family="Times New Roman,serif" font-size="14.00">14 EVENT_OPEN</text>
</g>
<!-- 1&#45;&gt;6 -->
<g id="edge16" class="edge">
<title>1&#45;&gt;6</title>
<path fill="none" stroke="black" d="M678.3,-333.16C681.2,-292.03 692.81,-229.89 734.7,-199.52 786.72,-161.81 972.1,-178.83 1071.67,-191.29"/>
<polygon fill="black" stroke="black" points="1071.22,-194.76 1081.58,-192.56 1072.1,-187.82 1071.22,-194.76"/>
<text text-anchor="middle" x="808.57" y="-202.72" font-family="Times New Roman,serif" font-size="14.00">15 EVENT_WRITE</text>
</g>
<!-- 1&#45;&gt;6 -->
<g id="edge17" class="edge">
<title>1&#45;&gt;6</title>
<path fill="none" stroke="black" d="M682.58,-333.15C690.18,-276.82 707.08,-178.8 734.7,-157.52 787.62,-116.75 984.38,-160.44 1081.32,-185.39"/>
<polygon fill="black" stroke="black" points="1080.33,-188.75 1090.89,-187.88 1082.09,-181.97 1080.33,-188.75"/>
<text text-anchor="middle" x="808.57" y="-160.72" font-family="Times New Roman,serif" font-size="14.00">16 EVENT_CLOSE</text>
</g>
<!-- 7 -->
<g id="node8" class="node">
<title>7</title>
<ellipse fill="none" stroke="black" cx="1137" cy="-81.27" rx="48.57" ry="18"/>
<text text-anchor="middle" x="1137" y="-75.85" font-family="Times New Roman,serif" font-size="14.00">/etc/group</text>
</g>
<!-- 1&#45;&gt;7 -->
<g id="edge18" class="edge">
<title>1&#45;&gt;7</title>
<path fill="none" stroke="blue" d="M681.28,-333.04C687.65,-269.2 703.53,-149.1 734.7,-121.52 747.36,-110.32 969.5,-93.1 1077.71,-85.33"/>
<polygon fill="blue" stroke="blue" points="1077.83,-88.83 1087.56,-84.62 1077.33,-81.85 1077.83,-88.83"/>
<text text-anchor="middle" x="808.57" y="-124.72" font-family="Times New Roman,serif" font-size="14.00">17 EVENT_OPEN</text>
</g>
<!-- 1&#45;&gt;7 -->
<g id="edge20" class="edge">
<title>1&#45;&gt;7</title>
<path fill="none" stroke="blue" d="M679.6,-333.18C683.74,-261.02 696.73,-113.89 734.7,-82.52 760.42,-61.27 972.37,-71.13 1077.43,-77.43"/>
<polygon fill="blue" stroke="blue" points="1077.07,-80.92 1087.27,-78.03 1077.5,-73.93 1077.07,-80.92"/>
<text text-anchor="middle" x="808.57" y="-85.72" font-family="Times New Roman,serif" font-size="14.00">19 EVENT_CLOSE</text>
</g>
<!-- 2&#45;&gt;1 -->
<g id="edge4" class="edge">
<title>2&#45;&gt;1</title>
<path fill="none" stroke="Red" d="M1025.92,-647.81C981.39,-640.43 929.49,-631.94 882.45,-624.52 849.65,-619.35 759.25,-624.62 734.7,-602.27 708.8,-578.7 692.12,-484.46 683.9,-424.47"/>
<polygon fill="Red" stroke="Red" points="687.41,-424.28 682.62,-414.83 680.47,-425.2 687.41,-424.28"/>
<text text-anchor="middle" x="808.57" y="-626.72" font-family="Times New Roman,serif" font-size="14.00">3 EVENT_RECVFROM</text>
</g>
<!-- 3&#45;&gt;1 -->
<g id="edge11" class="edge">
<title>3&#45;&gt;1</title>
<path fill="none" stroke="blue" d="M1059.43,-510.79C1009.26,-499.02 942.16,-483.89 882.45,-472.52 817.14,-460.09 791.64,-483.58 734.7,-449.27 723.56,-442.56 713.89,-432.77 705.83,-422.44"/>
<polygon fill="blue" stroke="blue" points="708.77,-420.53 700.06,-414.5 703.11,-424.65 708.77,-420.53"/>
<text text-anchor="middle" x="808.57" y="-474.72" font-family="Times New Roman,serif" font-size="14.00">10 EVENT_RECVFROM</text>
</g>
<!-- 5&#45;&gt;1 -->
<g id="edge13" class="edge">
<title>5&#45;&gt;1</title>
<path fill="none" stroke="blue" d="M1091.07,-302.08C999.42,-282.3 794.49,-243.5 734.7,-277.52 717.14,-287.52 704.44,-305.3 695.55,-322.86"/>
<polygon fill="blue" stroke="blue" points="692.47,-321.2 691.4,-331.74 698.81,-324.16 692.47,-321.2"/>
<text text-anchor="middle" x="808.57" y="-280.72" font-family="Times New Roman,serif" font-size="14.00">12 EVENT_READ</text>
</g>
<!-- 8 -->
<g id="node9" class="node">
<title>8</title>
<polygon fill="none" stroke="black" points="1634.81,-333.52 1542.31,-333.52 1542.31,-241.02 1634.81,-241.02 1634.81,-333.52"/>
<text text-anchor="middle" x="1588.56" y="-281.85" font-family="Times New Roman,serif" font-size="14.00">76833vUgefal</text>
</g>
<!-- 5&#45;&gt;8 -->
<g id="edge26" class="edge">
<title>5&#45;&gt;8</title>
<path fill="none" stroke="orange" d="M1186.67,-320.45C1260.71,-331.22 1405.55,-345.81 1524.31,-318.27 1526.59,-317.75 1528.89,-317.12 1531.18,-316.42"/>
<polygon fill="orange" stroke="orange" points="1532.14,-319.79 1540.4,-313.15 1529.81,-313.19 1532.14,-319.79"/>
<text text-anchor="middle" x="1457.94" y="-336.72" font-family="Times New Roman,serif" font-size="14.00">25 EVENT_READ</text>
</g>
<!-- 6&#45;&gt;8 -->
<g id="edge21" class="edge">
<title>6&#45;&gt;8</title>
<path fill="none" stroke="black" d="M1195.76,-199.58C1272.88,-200.37 1412.73,-207.88 1524.31,-247.52 1526.84,-248.42 1529.37,-249.43 1531.89,-250.54"/>
<polygon fill="black" stroke="black" points="1530.24,-253.62 1540.76,-254.85 1533.3,-247.33 1530.24,-253.62"/>
<text text-anchor="middle" x="1457.94" y="-250.72" font-family="Times New Roman,serif" font-size="14.00">20 EVENT_EXECUTE</text>
</g>
<!-- 7&#45;&gt;1 -->
<g id="edge19" class="edge">
<title>7&#45;&gt;1</title>
<path fill="none" stroke="blue" d="M1107.9,-66.5C1036.22,-31.1 844.55,49.01 734.7,-43.52 693.16,-78.51 681.96,-238.26 678.94,-321.89"/>
<polygon fill="blue" stroke="blue" points="675.45,-321.54 678.61,-331.65 682.44,-321.77 675.45,-321.54"/>
<text text-anchor="middle" x="808.57" y="-46.72" font-family="Times New Roman,serif" font-size="14.00">18 EVENT_READ</text>
</g>
<!-- 8&#45;&gt;5 -->
<g id="edge25" class="edge">
<title>8&#45;&gt;5</title>
<path fill="none" stroke="orange" d="M1541.85,-289.82C1461.66,-294.28 1295.42,-303.52 1203.2,-308.65"/>
<polygon fill="orange" stroke="orange" points="1203.09,-305.15 1193.3,-309.2 1203.48,-312.14 1203.09,-305.15"/>
<text text-anchor="middle" x="1457.94" y="-300.72" font-family="Times New Roman,serif" font-size="14.00">24 EVENT_OPEN</text>
</g>
<!-- 8&#45;&gt;5 -->
<g id="edge27" class="edge">
<title>8&#45;&gt;5</title>
<path fill="none" stroke="orange" d="M1541.86,-274.5C1536,-273.27 1530.04,-272.23 1524.31,-271.52 1406.21,-257.04 1267.39,-281.88 1192.52,-298.72"/>
<polygon fill="orange" stroke="orange" points="1191.95,-295.26 1182.99,-300.9 1193.51,-302.08 1191.95,-295.26"/>
<text text-anchor="middle" x="1457.94" y="-274.72" font-family="Times New Roman,serif" font-size="14.00">26 EVENT_CLOSE</text>
</g>
<!-- 9 -->
<g id="node10" class="node">
<title>9</title>
<polygon fill="none" stroke="black" points="2278.51,-422.27 1912.67,-422.27 1818.56,-386.27 2184.4,-386.27 2278.51,-422.27"/>
<text text-anchor="middle" x="2048.54" y="-398.85" font-family="Times New Roman,serif" font-size="14.00">128.55.12.73&#45;19857&#45;&gt;139.123.0.113&#45;80</text>
</g>
<!-- 8&#45;&gt;9 -->
<g id="edge22" class="edge">
<title>8&#45;&gt;9</title>
<path fill="none" stroke="black" d="M1598.29,-333.99C1606.67,-364.54 1622.72,-402.2 1652.81,-421.27 1755.84,-486.57 1906.19,-452.95 1988.41,-426.33"/>
<polygon fill="black" stroke="black" points="1989.48,-429.66 1997.87,-423.19 1987.28,-423.02 1989.48,-429.66"/>
<text text-anchor="middle" x="1726.69" y="-460.72" font-family="Times New Roman,serif" font-size="14.00">21 EVENT_CONNECT</text>
</g>
<!-- 8&#45;&gt;9 -->
<g id="edge23" class="edge">
<title>8&#45;&gt;9</title>
<path fill="none" stroke="black" d="M1609.08,-333.67C1619.29,-352.04 1633.72,-371.35 1652.81,-382.27 1670.56,-392.42 1757.3,-397.89 1844.96,-400.84"/>
<polygon fill="black" stroke="black" points="1844.59,-404.33 1854.7,-401.15 1844.81,-397.33 1844.59,-404.33"/>
<text text-anchor="middle" x="1726.69" y="-401.72" font-family="Times New Roman,serif" font-size="14.00">22 EVENT_SENDTO</text>
</g>
<!-- 10 -->
<g id="node11" class="node">
<title>10</title>
<polygon fill="none" stroke="black" points="2278.51,-305.27 1912.67,-305.27 1818.56,-269.27 2184.4,-269.27 2278.51,-305.27"/>
<text text-anchor="middle" x="2048.54" y="-281.85" font-family="Times New Roman,serif" font-size="14.00">128.55.12.73&#45;17330&#45;&gt;61.167.39.128&#45;80</text>
</g>
<!-- 8&#45;&gt;10 -->
<g id="edge29" class="edge">
<title>8&#45;&gt;10</title>
<path fill="none" stroke="orange" d="M1635.22,-301.06C1641.09,-302.38 1647.06,-303.51 1652.81,-304.27 1733.83,-314.97 1824.92,-312.03 1899.17,-305.83"/>
<polygon fill="orange" stroke="orange" points="1899.3,-309.33 1908.96,-304.98 1898.7,-302.36 1899.3,-309.33"/>
<text text-anchor="middle" x="1726.69" y="-314.72" font-family="Times New Roman,serif" font-size="14.00">28 EVENT_CONNECT</text>
</g>
<!-- 8&#45;&gt;10 -->
<g id="edge30" class="edge">
<title>8&#45;&gt;10</title>
<path fill="none" stroke="orange" d="M1635.16,-285.05C1641.1,-284.84 1647.1,-284.65 1652.81,-284.52 1714.81,-283.18 1782.3,-283.13 1843.65,-283.62"/>
<polygon fill="orange" stroke="orange" points="1843.49,-287.12 1853.52,-283.71 1843.55,-280.12 1843.49,-287.12"/>
<text text-anchor="middle" x="1726.69" y="-287.72" font-family="Times New Roman,serif" font-size="14.00">29 EVENT_SENDTO</text>
</g>
<!-- 8&#45;&gt;10 -->
<g id="edge31" class="edge">
<title>8&#45;&gt;10</title>
<path fill="none" stroke="orange" d="M1635,-268.84C1640.91,-267.06 1646.95,-265.55 1652.81,-264.52 1747.27,-248.05 1856.16,-256.33 1935.62,-267.25"/>
<polygon fill="orange" stroke="orange" points="1934.74,-270.66 1945.13,-268.59 1935.72,-263.73 1934.74,-270.66"/>
<text text-anchor="middle" x="1726.69" y="-267.72" font-family="Times New Roman,serif" font-size="14.00">30 EVENT_CLOSE</text>
</g>
<!-- 11 -->
<g id="node12" class="node">
<title>11</title>
<ellipse fill="none" stroke="black" cx="2048.54" cy="-170.27" rx="59.05" ry="18"/>
<text text-anchor="middle" x="2048.54" y="-164.85" font-family="Times New Roman,serif" font-size="14.00">/var/log/devc</text>
</g>
<!-- 8&#45;&gt;11 -->
<g id="edge32" class="edge">
<title>8&#45;&gt;11</title>
<path fill="none" stroke="orange" d="M1635.05,-245.61C1640.76,-241.76 1646.74,-238.27 1652.81,-235.52 1759.49,-187.27 1896.83,-174.27 1978.19,-171.02"/>
<polygon fill="orange" stroke="orange" points="1977.91,-174.54 1987.78,-170.68 1977.66,-167.54 1977.91,-174.54"/>
<text text-anchor="middle" x="1726.69" y="-238.72" font-family="Times New Roman,serif" font-size="14.00">31 EVENT_OPEN</text>
</g>
<!-- 8&#45;&gt;11 -->
<g id="edge33" class="edge">
<title>8&#45;&gt;11</title>
<path fill="none" stroke="orange" d="M1602.3,-240.64C1611.81,-215.45 1627.63,-186.52 1652.81,-171.52 1706.55,-139.53 1884.32,-152.53 1981.93,-162.62"/>
<polygon fill="orange" stroke="orange" points="1981.32,-166.07 1991.63,-163.64 1982.05,-159.11 1981.32,-166.07"/>
<text text-anchor="middle" x="1726.69" y="-174.72" font-family="Times New Roman,serif" font-size="14.00">32 EVENT_WRITE</text>
</g>
<!-- 8&#45;&gt;11 -->
<g id="edge34" class="edge">
<title>8&#45;&gt;11</title>
<path fill="none" stroke="orange" d="M1594.64,-240.75C1601.34,-204.26 1616.86,-155.73 1652.81,-131.52 1762.33,-57.8 1929.21,-116.24 2006.1,-150.23"/>
<polygon fill="orange" stroke="orange" points="2004.4,-153.31 2014.96,-154.23 2007.28,-146.93 2004.4,-153.31"/>
<text text-anchor="middle" x="1726.69" y="-134.72" font-family="Times New Roman,serif" font-size="14.00">33 EVENT_CLOSE</text>
</g>
<!-- 9&#45;&gt;8 -->
<g id="edge24" class="edge">
<title>9&#45;&gt;8</title>
<path fill="none" stroke="black" d="M1939.66,-385.79C1827.41,-366.37 1666.1,-337.88 1652.81,-332.27 1650.21,-331.17 1647.6,-329.95 1645.01,-328.63"/>
<polygon fill="black" stroke="black" points="1646.93,-325.7 1636.49,-323.88 1643.52,-331.81 1646.93,-325.7"/>
<text text-anchor="middle" x="1726.69" y="-362.72" font-family="Times New Roman,serif" font-size="14.00">23 EVENT_RECVFROM</text>
</g>
</g>
</svg>
