<?xml version="1.0" encoding="UTF-8" standalone="no"?>
<!DOCTYPE svg PUBLIC "-//W3C//DTD SVG 1.1//EN"
 "http://www.w3.org/Graphics/SVG/1.1/DTD/svg11.dtd">
<!-- Generated by graphviz version 10.0.1 (20240210.2158)
 -->
<!-- Title: att Pages: 1 -->
<svg width="2289pt" height="1373pt"
 viewBox="0.00 0.00 2288.76 1373.43" xmlns="http://www.w3.org/2000/svg" xmlns:xlink="http://www.w3.org/1999/xlink">
<g id="graph0" class="graph" transform="scale(1 1) rotate(0) translate(4 1369.43)">
<title>att</title>
<polygon fill="white" stroke="none" points="-4,4 -4,-1369.43 2284.76,-1369.43 2284.76,4 -4,4"/>
<!-- 0 -->
<g id="node1" class="node">
<title>0</title>
<polygon fill="none" stroke="black" points="459.95,-1092.68 94.11,-1092.68 0,-1056.68 365.84,-1056.68 459.95,-1092.68"/>
<text text-anchor="middle" x="229.97" y="-1069.25" font-family="Times New Roman,serif" font-size="14.00">128.55.12.73&#45;80&#45;&gt;25.159.96.207&#45;58625</text>
</g>
<!-- 1 -->
<g id="node2" class="node">
<title>1</title>
<polygon fill="none" stroke="black" points="703.2,-1107.8 636.95,-1107.8 636.95,-1041.55 703.2,-1041.55 703.2,-1107.8"/>
<text text-anchor="middle" x="670.07" y="-1069.25" font-family="Times New Roman,serif" font-size="14.00">893nginx</text>
</g>
<!-- 0&#45;&gt;1 -->
<g id="edge1" class="edge">
<title>0&#45;&gt;1</title>
<path fill="none" stroke="red" d="M355.81,-1093.16C432.25,-1101.26 531.8,-1106.05 618.95,-1091.68 621.12,-1091.32 623.33,-1090.88 625.55,-1090.37"/>
<polygon fill="red" stroke="red" points="626.36,-1093.78 635.11,-1087.8 624.54,-1087.02 626.36,-1093.78"/>
<text text-anchor="middle" x="548.45" y="-1104.13" font-family="Times New Roman,serif" font-size="14.00">0 EVENT_RECVFROM</text>
</g>
<!-- 1&#45;&gt;0 -->
<g id="edge10" class="edge">
<title>1&#45;&gt;0</title>
<path fill="none" stroke="red" d="M636.46,-1072.63C630.63,-1072.34 624.61,-1072.08 618.95,-1071.93 552.73,-1070.11 480.13,-1070.1 415.83,-1070.77"/>
<polygon fill="red" stroke="red" points="415.81,-1067.27 405.85,-1070.88 415.89,-1074.27 415.81,-1067.27"/>
<text text-anchor="middle" x="548.45" y="-1075.13" font-family="Times New Roman,serif" font-size="14.00">9 EVENT_WRITE</text>
</g>
<!-- 1&#45;&gt;0 -->
<g id="edge11" class="edge">
<title>1&#45;&gt;0</title>
<path fill="none" stroke="red" d="M636.65,-1056.8C630.91,-1054.37 624.87,-1052.26 618.95,-1050.93 520.54,-1028.79 404.79,-1040.6 325.49,-1054.26"/>
<polygon fill="red" stroke="red" points="325.27,-1050.75 316.04,-1055.93 326.49,-1057.64 325.27,-1050.75"/>
<text text-anchor="middle" x="548.45" y="-1054.13" font-family="Times New Roman,serif" font-size="14.00">10 EVENT_CLOSE</text>
</g>
<!-- 2 -->
<g id="node3" class="node">
<title>2</title>
<polygon fill="none" stroke="black" points="1340.31,-1306.68 984.95,-1306.68 893.53,-1270.68 1248.89,-1270.68 1340.31,-1306.68"/>
<text text-anchor="middle" x="1116.92" y="-1283.25" font-family="Times New Roman,serif" font-size="14.00">128.55.12.73&#45;49722&#45;&gt;76.56.184.25&#45;80</text>
</g>
<!-- 1&#45;&gt;2 -->
<g id="edge2" class="edge">
<title>1&#45;&gt;2</title>
<path fill="none" stroke="red" d="M673.3,-1107.94C677.94,-1165.81 690.85,-1281.21 721.2,-1305.68 819.06,-1384.58 979.1,-1341.8 1062.14,-1311.12"/>
<polygon fill="red" stroke="red" points="1063.32,-1314.42 1071.43,-1307.61 1060.84,-1307.87 1063.32,-1314.42"/>
<text text-anchor="middle" x="795.07" y="-1352.13" font-family="Times New Roman,serif" font-size="14.00">1 EVENT_CONNECT</text>
</g>
<!-- 1&#45;&gt;2 -->
<g id="edge3" class="edge">
<title>1&#45;&gt;2</title>
<path fill="none" stroke="red" d="M675.08,-1108.15C681.75,-1157.67 696.86,-1246.77 721.2,-1266.68 729.32,-1273.32 819.74,-1278.63 911.98,-1282.38"/>
<polygon fill="red" stroke="red" points="911.59,-1285.86 921.72,-1282.76 911.87,-1278.87 911.59,-1285.86"/>
<text text-anchor="middle" x="795.07" y="-1282.13" font-family="Times New Roman,serif" font-size="14.00">2 EVENT_SENDTO</text>
</g>
<!-- 3 -->
<g id="node4" class="node">
<title>3</title>
<polygon fill="none" stroke="black" points="1346.89,-1189.68 981.06,-1189.68 886.95,-1153.68 1252.78,-1153.68 1346.89,-1189.68"/>
<text text-anchor="middle" x="1116.92" y="-1166.25" font-family="Times New Roman,serif" font-size="14.00">128.55.12.73&#45;27115&#45;&gt;155.162.39.48&#45;80</text>
</g>
<!-- 1&#45;&gt;3 -->
<g id="edge5" class="edge">
<title>1&#45;&gt;3</title>
<path fill="none" stroke="red" d="M675.83,-1108.28C681.58,-1135.1 694.13,-1171.01 721.2,-1188.68 765.03,-1217.29 896.89,-1205.74 996.24,-1191.75"/>
<polygon fill="red" stroke="red" points="996.67,-1195.22 1006.08,-1190.34 995.68,-1188.3 996.67,-1195.22"/>
<text text-anchor="middle" x="795.07" y="-1208.13" font-family="Times New Roman,serif" font-size="14.00">4 EVENT_CONNECT</text>
</g>
<!-- 1&#45;&gt;3 -->
<g id="edge6" class="edge">
<title>1&#45;&gt;3</title>
<path fill="none" stroke="red" d="M684.87,-1108.19C693.04,-1123.58 705.01,-1140.44 721.2,-1149.68 738.95,-1159.81 825.69,-1165.28 913.35,-1168.23"/>
<polygon fill="red" stroke="red" points="912.98,-1171.72 923.09,-1168.54 913.21,-1164.72 912.98,-1171.72"/>
<text text-anchor="middle" x="795.07" y="-1168.13" font-family="Times New Roman,serif" font-size="14.00">5 EVENT_SENDTO</text>
</g>
<!-- 4 -->
<g id="node5" class="node">
<title>4</title>
<ellipse fill="none" stroke="black" cx="2044.2" cy="-1027.68" rx="57.55" ry="18"/>
<text text-anchor="middle" x="2044.2" y="-1022.25" font-family="Times New Roman,serif" font-size="14.00">/dev/random</text>
</g>
<!-- 1&#45;&gt;4 -->
<g id="edge7" class="edge">
<title>1&#45;&gt;4</title>
<path fill="none" stroke="blue" d="M703.6,-1075.14C837.7,-1076.84 1360.74,-1081.29 1789.64,-1054.68 1854.55,-1050.65 1928.45,-1042.35 1979.65,-1036.01"/>
<polygon fill="blue" stroke="blue" points="1979.88,-1039.51 1989.37,-1034.8 1979.01,-1032.57 1979.88,-1039.51"/>
<text text-anchor="middle" x="1431.27" y="-1074.13" font-family="Times New Roman,serif" font-size="14.00">6 EVENT_OPEN</text>
</g>
<!-- 1&#45;&gt;4 -->
<g id="edge9" class="edge">
<title>1&#45;&gt;4</title>
<path fill="none" stroke="blue" d="M703.69,-1072.61C709.52,-1072.27 715.54,-1071.95 721.2,-1071.68 1201.12,-1048.84 1779.62,-1033.94 1974.99,-1029.26"/>
<polygon fill="blue" stroke="blue" points="1975.06,-1032.76 1984.97,-1029.02 1974.89,-1025.76 1975.06,-1032.76"/>
<text text-anchor="middle" x="1431.27" y="-1049.13" font-family="Times New Roman,serif" font-size="14.00">8 EVENT_CLOSE</text>
</g>
<!-- 5 -->
<g id="node6" class="node">
<title>5</title>
<ellipse fill="none" stroke="black" cx="2044.2" cy="-138.68" rx="55.06" ry="18"/>
<text text-anchor="middle" x="2044.2" y="-133.25" font-family="Times New Roman,serif" font-size="14.00">/etc/passwd</text>
</g>
<!-- 1&#45;&gt;5 -->
<g id="edge13" class="edge">
<title>1&#45;&gt;5</title>
<path fill="none" stroke="black" d="M673.6,-1041.26C677.97,-1001.21 689.76,-933.41 721.2,-884.68 1007.14,-441.4 1144.85,-312.32 1641.89,-135.68 1758.75,-94.15 1907.11,-111.82 1986.68,-126.44"/>
<polygon fill="black" stroke="black" points="1985.94,-129.87 1996.42,-128.29 1987.25,-122.99 1985.94,-129.87"/>
<text text-anchor="middle" x="1431.27" y="-250.13" font-family="Times New Roman,serif" font-size="14.00">12 EVENT_OPEN</text>
</g>
<!-- 1&#45;&gt;5 -->
<g id="edge15" class="edge">
<title>1&#45;&gt;5</title>
<path fill="none" stroke="black" d="M672.21,-1041.26C675.25,-970.77 685.91,-802.12 721.2,-665.68 770.41,-475.39 735.13,-380.51 886.95,-255.68 1200.8,2.41 1383.92,-88.34 1789.64,-110.68 1855.63,-114.31 1930.83,-123.22 1982.1,-130.02"/>
<polygon fill="black" stroke="black" points="1981.42,-133.46 1991.8,-131.32 1982.36,-126.52 1981.42,-133.46"/>
<text text-anchor="middle" x="1431.27" y="-88.13" font-family="Times New Roman,serif" font-size="14.00">14 EVENT_CLOSE</text>
</g>
<!-- 6 -->
<g id="node7" class="node">
<title>6</title>
<ellipse fill="none" stroke="black" cx="1116.92" cy="-946.68" rx="69.03" ry="18"/>
<text text-anchor="middle" x="1116.92" y="-941.25" font-family="Times New Roman,serif" font-size="14.00">/tmp/pEja72mA</text>
</g>
<!-- 1&#45;&gt;6 -->
<g id="edge16" class="edge">
<title>1&#45;&gt;6</title>
<path fill="none" stroke="orange" d="M687.83,-1041.32C696.09,-1028.23 707.3,-1014.35 721.2,-1005.93 724.64,-1003.84 931.69,-973.47 1044.49,-957.05"/>
<polygon fill="orange" stroke="orange" points="1044.88,-960.53 1054.27,-955.62 1043.87,-953.6 1044.88,-960.53"/>
<text text-anchor="middle" x="795.07" y="-1009.13" font-family="Times New Roman,serif" font-size="14.00">15 EVENT_OPEN</text>
</g>
<!-- 1&#45;&gt;6 -->
<g id="edge17" class="edge">
<title>1&#45;&gt;6</title>
<path fill="none" stroke="orange" d="M676.72,-1041.31C682.94,-1015.8 695.68,-982.17 721.2,-964.93 746.56,-947.79 928.45,-945.68 1036.26,-945.97"/>
<polygon fill="orange" stroke="orange" points="1036.22,-949.47 1046.23,-946 1036.24,-942.47 1036.22,-949.47"/>
<text text-anchor="middle" x="795.07" y="-968.13" font-family="Times New Roman,serif" font-size="14.00">16 EVENT_WRITE</text>
</g>
<!-- 1&#45;&gt;6 -->
<g id="edge18" class="edge">
<title>1&#45;&gt;6</title>
<path fill="none" stroke="orange" d="M672.03,-1041.29C675.01,-1006.74 685.58,-954.34 721.2,-928.93 825.59,-854.43 988.03,-898.21 1068.05,-927.24"/>
<polygon fill="orange" stroke="orange" points="1066.77,-930.5 1077.36,-930.7 1069.21,-923.94 1066.77,-930.5"/>
<text text-anchor="middle" x="795.07" y="-932.13" font-family="Times New Roman,serif" font-size="14.00">17 EVENT_CLOSE</text>
</g>
<!-- 2&#45;&gt;1 -->
<g id="edge4" class="edge">
<title>2&#45;&gt;1</title>
<path fill="none" stroke="red" d="M1010.25,-1270.23C966.55,-1262.75 915.35,-1254.18 868.95,-1246.93 836.17,-1241.8 746.64,-1246.96 721.2,-1225.68 690.07,-1199.64 678.16,-1153.77 673.67,-1119.39"/>
<polygon fill="red" stroke="red" points="677.17,-1119.27 672.58,-1109.73 670.22,-1120.06 677.17,-1119.27"/>
<text text-anchor="middle" x="795.07" y="-1249.13" font-family="Times New Roman,serif" font-size="14.00">3 EVENT_RECVFROM</text>
</g>
<!-- 3&#45;&gt;1 -->
<g id="edge12" class="edge">
<title>3&#45;&gt;1</title>
<path fill="none" stroke="red" d="M998.98,-1153.22C962.99,-1147.28 923.29,-1140.47 886.95,-1133.68 878.91,-1132.17 877,-1131.29 868.95,-1129.93 803.65,-1118.89 782.79,-1135.01 721.2,-1110.68 718.54,-1109.63 715.89,-1108.4 713.27,-1107.06"/>
<polygon fill="red" stroke="red" points="715.15,-1104.1 704.74,-1102.1 711.63,-1110.15 715.15,-1104.1"/>
<text text-anchor="middle" x="795.07" y="-1132.13" font-family="Times New Roman,serif" font-size="14.00">11 EVENT_RECVFROM</text>
</g>
<!-- 4&#45;&gt;1 -->
<g id="edge8" class="edge">
<title>4&#45;&gt;1</title>
<path fill="none" stroke="blue" d="M1992.78,-1035.86C1938.31,-1047.48 1853.21,-1074.24 1807.64,-1132.68 1779.07,-1169.32 1825.22,-1205.78 1789.64,-1235.68 1739.37,-1277.92 1706.83,-1245.46 1641.89,-1235.68 1506.22,-1215.23 1481.46,-1171.48 1346.89,-1144.68 1072.95,-1090.11 997.17,-1128.8 721.2,-1085.68 719.05,-1085.34 716.86,-1084.97 714.65,-1084.57"/>
<polygon fill="blue" stroke="blue" points="715.56,-1081.18 705.07,-1082.71 714.22,-1088.05 715.56,-1081.18"/>
<text text-anchor="middle" x="1431.27" y="-1195.13" font-family="Times New Roman,serif" font-size="14.00">7 EVENT_READ</text>
</g>
<!-- 7 -->
<g id="node8" class="node">
<title>7</title>
<polygon fill="none" stroke="black" points="1623.89,-734.8 1515.64,-734.8 1515.64,-626.55 1623.89,-626.55 1623.89,-734.8"/>
<text text-anchor="middle" x="1569.77" y="-675.25" font-family="Times New Roman,serif" font-size="14.00">36112pEja72mA</text>
</g>
<!-- 4&#45;&gt;7 -->
<g id="edge25" class="edge">
<title>4&#45;&gt;7</title>
<path fill="none" stroke="orange" d="M1996.6,-1017.27C1945.84,-1006.09 1862.18,-988.17 1789.64,-974.93 1756.95,-968.96 1666.55,-973.97 1641.89,-951.68 1611.75,-924.43 1590.66,-817.33 1579.64,-746.21"/>
<polygon fill="orange" stroke="orange" points="1583.15,-745.98 1578.19,-736.62 1576.23,-747.03 1583.15,-745.98"/>
<text text-anchor="middle" x="1715.77" y="-978.13" font-family="Times New Roman,serif" font-size="14.00">24 EVENT_READ</text>
</g>
<!-- 5&#45;&gt;1 -->
<g id="edge14" class="edge">
<title>5&#45;&gt;1</title>
<path fill="none" stroke="black" d="M2000.47,-127.37C1950.33,-114.54 1864.54,-93.94 1789.64,-82.68 1554.85,-47.37 890.23,84.07 721.2,-82.68 687.06,-116.35 674.4,-840.71 671.67,-1029.84"/>
<polygon fill="black" stroke="black" points="668.17,-1029.69 671.53,-1039.74 675.17,-1029.79 668.17,-1029.69"/>
<text text-anchor="middle" x="1431.27" y="-40.13" font-family="Times New Roman,serif" font-size="14.00">13 EVENT_READ</text>
</g>
<!-- 5&#45;&gt;7 -->
<g id="edge29" class="edge">
<title>5&#45;&gt;7</title>
<path fill="none" stroke="green" d="M2003.03,-151C1953.22,-166.07 1865.6,-191.88 1789.64,-210.68 1724.49,-226.8 1688.21,-193.35 1641.89,-241.93 1591.88,-294.38 1576.97,-506.1 1572.57,-615.11"/>
<polygon fill="green" stroke="green" points="1569.09,-614.64 1572.2,-624.77 1576.08,-614.91 1569.09,-614.64"/>
<text text-anchor="middle" x="1715.77" y="-245.13" font-family="Times New Roman,serif" font-size="14.00">28 EVENT_READ</text>
</g>
<!-- 6&#45;&gt;7 -->
<g id="edge19" class="edge">
<title>6&#45;&gt;7</title>
<path fill="none" stroke="orange" d="M1146.12,-930.04C1217.41,-887.98 1406.2,-776.59 1505.57,-717.96"/>
<polygon fill="orange" stroke="orange" points="1507.35,-720.98 1514.18,-712.88 1503.79,-714.95 1507.35,-720.98"/>
<text text-anchor="middle" x="1431.27" y="-801.13" font-family="Times New Roman,serif" font-size="14.00">18 EVENT_EXECUTE</text>
</g>
<!-- 7&#45;&gt;4 -->
<g id="edge24" class="edge">
<title>7&#45;&gt;4</title>
<path fill="none" stroke="orange" d="M1572.24,-735.04C1576.74,-787.67 1592.09,-865.76 1641.89,-909.68 1691.91,-953.79 1725.22,-918.68 1789.64,-935.93 1864.43,-955.94 1948.4,-988.38 1998.48,-1008.84"/>
<polygon fill="orange" stroke="orange" points="1996.96,-1012 2007.54,-1012.57 1999.62,-1005.53 1996.96,-1012"/>
<text text-anchor="middle" x="1715.77" y="-939.13" font-family="Times New Roman,serif" font-size="14.00">23 EVENT_OPEN</text>
</g>
<!-- 7&#45;&gt;4 -->
<g id="edge26" class="edge">
<title>7&#45;&gt;4</title>
<path fill="none" stroke="orange" d="M1575.68,-735.12C1584.08,-814.87 1604.07,-957.6 1641.89,-990.68 1654.28,-1001.51 1865.11,-1016.4 1976.08,-1023.53"/>
<polygon fill="orange" stroke="orange" points="1975.76,-1027.02 1985.97,-1024.16 1976.21,-1020.03 1975.76,-1027.02"/>
<text text-anchor="middle" x="1715.77" y="-1012.13" font-family="Times New Roman,serif" font-size="14.00">25 EVENT_CLOSE</text>
</g>
<!-- 7&#45;&gt;5 -->
<g id="edge28" class="edge">
<title>7&#45;&gt;5</title>
<path fill="none" stroke="green" d="M1570.85,-626.33C1572.23,-512.46 1582.05,-254.41 1641.89,-194.93 1644.89,-191.94 1870.04,-161.67 1981.74,-146.82"/>
<polygon fill="green" stroke="green" points="1981.89,-150.33 1991.34,-145.54 1980.96,-143.39 1981.89,-150.33"/>
<text text-anchor="middle" x="1715.77" y="-198.13" font-family="Times New Roman,serif" font-size="14.00">27 EVENT_OPEN</text>
</g>
<!-- 7&#45;&gt;5 -->
<g id="edge30" class="edge">
<title>7&#45;&gt;5</title>
<path fill="none" stroke="green" d="M1574.19,-626.34C1582.81,-498.18 1607.22,-185.41 1641.89,-153.93 1666.11,-131.94 1870.47,-133.99 1977.85,-136.65"/>
<polygon fill="green" stroke="green" points="1977.59,-140.15 1987.68,-136.91 1977.77,-133.15 1977.59,-140.15"/>
<text text-anchor="middle" x="1715.77" y="-157.13" font-family="Times New Roman,serif" font-size="14.00">29 EVENT_CLOSE</text>
</g>
<!-- 8 -->
<g id="node9" class="node">
<title>8</title>
<ellipse fill="none" stroke="black" cx="2044.2" cy="-563.68" rx="49.57" ry="18"/>
<text text-anchor="middle" x="2044.2" y="-558.25" font-family="Times New Roman,serif" font-size="14.00">/dev/hpet0</text>
</g>
<!-- 7&#45;&gt;8 -->
<g id="edge20" class="edge">
<title>7&#45;&gt;8</title>
<path fill="none" stroke="orange" d="M1602.09,-626.44C1612.87,-612.52 1626.23,-599.16 1641.89,-590.93 1699.5,-560.62 1886.02,-560 1983.15,-561.91"/>
<polygon fill="orange" stroke="orange" points="1982.95,-565.4 1993.02,-562.12 1983.1,-558.4 1982.95,-565.4"/>
<text text-anchor="middle" x="1715.77" y="-594.13" font-family="Times New Roman,serif" font-size="14.00">19 EVENT_OPEN</text>
</g>
<!-- 7&#45;&gt;8 -->
<g id="edge21" class="edge">
<title>7&#45;&gt;8</title>
<path fill="none" stroke="orange" d="M1584.71,-626.07C1595.25,-596.83 1613.01,-563.34 1641.89,-545.93 1698.57,-511.76 1891.77,-538.01 1987.92,-553.87"/>
<polygon fill="orange" stroke="orange" points="1987.22,-557.3 1997.66,-555.5 1988.37,-550.4 1987.22,-557.3"/>
<text text-anchor="middle" x="1715.77" y="-549.13" font-family="Times New Roman,serif" font-size="14.00">20 EVENT_CLOSE</text>
</g>
<!-- 9 -->
<g id="node10" class="node">
<title>9</title>
<polygon fill="none" stroke="black" points="2280.76,-484.68 1904.45,-484.68 1807.64,-448.68 2183.95,-448.68 2280.76,-484.68"/>
<text text-anchor="middle" x="2044.2" y="-461.25" font-family="Times New Roman,serif" font-size="14.00">128.55.12.73&#45;63341&#45;&gt;53.158.101.118&#45;80</text>
</g>
<!-- 7&#45;&gt;9 -->
<g id="edge22" class="edge">
<title>7&#45;&gt;9</title>
<path fill="none" stroke="orange" d="M1578.61,-626.31C1587.23,-587.47 1605.11,-537.41 1641.89,-509.93 1660.69,-495.88 1769.71,-484.69 1869.37,-477.21"/>
<polygon fill="orange" stroke="orange" points="1869.63,-480.71 1879.34,-476.48 1869.11,-473.72 1869.63,-480.71"/>
<text text-anchor="middle" x="1715.77" y="-513.13" font-family="Times New Roman,serif" font-size="14.00">21 EVENT_CONNECT</text>
</g>
<!-- 7&#45;&gt;9 -->
<g id="edge23" class="edge">
<title>7&#45;&gt;9</title>
<path fill="none" stroke="orange" d="M1571.86,-626.09C1576.14,-575.07 1591.4,-501.45 1641.89,-464.93 1657.16,-453.89 1731.16,-452.49 1811.55,-454.55"/>
<polygon fill="orange" stroke="orange" points="1811.32,-458.05 1821.41,-454.83 1811.51,-451.05 1811.32,-458.05"/>
<text text-anchor="middle" x="1715.77" y="-468.13" font-family="Times New Roman,serif" font-size="14.00">22 EVENT_SENDTO</text>
</g>
<!-- 10 -->
<g id="node11" class="node">
<title>10</title>
<ellipse fill="none" stroke="black" cx="2044.2" cy="-349.68" rx="48.57" ry="18"/>
<text text-anchor="middle" x="2044.2" y="-344.25" font-family="Times New Roman,serif" font-size="14.00">/etc/group</text>
</g>
<!-- 7&#45;&gt;10 -->
<g id="edge31" class="edge">
<title>7&#45;&gt;10</title>
<path fill="none" stroke="green" d="M1577.14,-626.22C1586.91,-552.77 1608.08,-427.7 1641.89,-397.93 1667.12,-375.72 1879.31,-359.73 1984.53,-353.09"/>
<polygon fill="green" stroke="green" points="1984.62,-356.59 1994.38,-352.47 1984.19,-349.6 1984.62,-356.59"/>
<text text-anchor="middle" x="1715.77" y="-401.13" font-family="Times New Roman,serif" font-size="14.00">30 EVENT_OPEN</text>
</g>
<!-- 7&#45;&gt;10 -->
<g id="edge33" class="edge">
<title>7&#45;&gt;10</title>
<path fill="none" stroke="green" d="M1574.4,-626.35C1581.31,-541.6 1599.64,-384.08 1641.89,-349.93 1667.84,-328.95 1879.68,-339.23 1984.67,-345.73"/>
<polygon fill="green" stroke="green" points="1984.3,-349.21 1994.5,-346.35 1984.74,-342.23 1984.3,-349.21"/>
<text text-anchor="middle" x="1715.77" y="-353.13" font-family="Times New Roman,serif" font-size="14.00">32 EVENT_CLOSE</text>
</g>
<!-- 11 -->
<g id="node12" class="node">
<title>11</title>
<ellipse fill="none" stroke="black" cx="2044.2" cy="-271.68" rx="42.08" ry="18"/>
<text text-anchor="middle" x="2044.2" y="-266.25" font-family="Times New Roman,serif" font-size="14.00">/dev/null</text>
</g>
<!-- 7&#45;&gt;11 -->
<g id="edge34" class="edge">
<title>7&#45;&gt;11</title>
<path fill="none" stroke="green" d="M1572.03,-626.38C1575.62,-526.42 1589.36,-319.41 1641.89,-274.93 1667.88,-252.92 1888.14,-262.63 1990.86,-268.44"/>
<polygon fill="green" stroke="green" points="1990.49,-271.93 2000.68,-269.01 1990.9,-264.94 1990.49,-271.93"/>
<text text-anchor="middle" x="1715.77" y="-278.13" font-family="Times New Roman,serif" font-size="14.00">33 EVENT_WRITE</text>
</g>
<!-- 12 -->
<g id="node13" class="node">
<title>12</title>
<ellipse fill="none" stroke="black" cx="2044.2" cy="-1159.68" rx="75.02" ry="18"/>
<text text-anchor="middle" x="2044.2" y="-1154.25" font-family="Times New Roman,serif" font-size="14.00">/tmp/memhelp.so</text>
</g>
<!-- 7&#45;&gt;12 -->
<g id="edge35" class="edge">
<title>7&#45;&gt;12</title>
<path fill="none" stroke="green" d="M1575.22,-735.07C1583.39,-821.99 1603.57,-986.8 1641.89,-1029.68 1686.4,-1079.48 1871.23,-1124.31 1973.82,-1145.97"/>
<polygon fill="green" stroke="green" points="1973.01,-1149.38 1983.52,-1148 1974.44,-1142.53 1973.01,-1149.38"/>
<text text-anchor="middle" x="1715.77" y="-1102.13" font-family="Times New Roman,serif" font-size="14.00">34 EVENT_OPEN</text>
</g>
<!-- 7&#45;&gt;12 -->
<g id="edge36" class="edge">
<title>7&#45;&gt;12</title>
<path fill="none" stroke="green" d="M1574.27,-734.92C1582.97,-861.24 1607.38,-1166.6 1641.89,-1196.68 1743.86,-1285.55 1920.68,-1219.1 2001.15,-1181.23"/>
<polygon fill="green" stroke="green" points="2002.52,-1184.45 2010.02,-1176.97 1999.49,-1178.14 2002.52,-1184.45"/>
<text text-anchor="middle" x="1715.77" y="-1243.13" font-family="Times New Roman,serif" font-size="14.00">35 EVENT_WRITE</text>
</g>
<!-- 7&#45;&gt;12 -->
<g id="edge37" class="edge">
<title>7&#45;&gt;12</title>
<path fill="none" stroke="green" d="M1570.42,-735.11C1570.98,-848.38 1579.32,-1103.47 1641.89,-1157.68 1665.26,-1177.92 1849.09,-1171.06 1959.67,-1164.94"/>
<polygon fill="green" stroke="green" points="1959.83,-1168.44 1969.62,-1164.38 1959.44,-1161.45 1959.83,-1168.44"/>
<text text-anchor="middle" x="1715.77" y="-1173.13" font-family="Times New Roman,serif" font-size="14.00">36 EVENT_CLOSE</text>
</g>
<!-- 13 -->
<g id="node14" class="node">
<title>13</title>
<ellipse fill="none" stroke="black" cx="2044.2" cy="-739.68" rx="76.51" ry="18"/>
<text text-anchor="middle" x="2044.2" y="-734.25" font-family="Times New Roman,serif" font-size="14.00">/tmp/injectLog.txt</text>
</g>
<!-- 7&#45;&gt;13 -->
<g id="edge38" class="edge">
<title>7&#45;&gt;13</title>
<path fill="none" stroke="green" d="M1624.09,-697.62C1630.06,-699.16 1636.08,-700.55 1641.89,-701.68 1749.25,-722.41 1875.04,-731.99 1956.77,-736.31"/>
<polygon fill="green" stroke="green" points="1956.58,-739.8 1966.75,-736.82 1956.94,-732.81 1956.58,-739.8"/>
<text text-anchor="middle" x="1715.77" y="-725.13" font-family="Times New Roman,serif" font-size="14.00">37 EVENT_WRITE</text>
</g>
<!-- 14 -->
<g id="node15" class="node">
<title>14</title>
<ellipse fill="none" stroke="black" cx="2044.2" cy="-836.68" rx="60.05" ry="18"/>
<text text-anchor="middle" x="2044.2" y="-831.25" font-family="Times New Roman,serif" font-size="14.00">/tmp/eraseme</text>
</g>
<!-- 7&#45;&gt;14 -->
<g id="edge40" class="edge">
<title>7&#45;&gt;14</title>
<path fill="none" stroke="green" d="M1580.49,-735.04C1589.85,-769.97 1607.84,-812.77 1641.89,-834.68 1695.44,-869.12 1877.07,-855.4 1976.61,-844.73"/>
<polygon fill="green" stroke="green" points="1976.97,-848.22 1986.53,-843.65 1976.21,-841.26 1976.97,-848.22"/>
<text text-anchor="middle" x="1715.77" y="-859.13" font-family="Times New Roman,serif" font-size="14.00">39 EVENT_OPEN</text>
</g>
<!-- 7&#45;&gt;14 -->
<g id="edge41" class="edge">
<title>7&#45;&gt;14</title>
<path fill="none" stroke="green" d="M1591.51,-735.06C1602.92,-757.54 1619.41,-781.6 1641.89,-795.68 1648.87,-800.04 1862.12,-820.12 1974.85,-830.47"/>
<polygon fill="green" stroke="green" points="1974.31,-833.93 1984.59,-831.36 1974.95,-826.96 1974.31,-833.93"/>
<text text-anchor="middle" x="1715.77" y="-816.13" font-family="Times New Roman,serif" font-size="14.00">40 EVENT_WRITE</text>
</g>
<!-- 7&#45;&gt;14 -->
<g id="edge42" class="edge">
<title>7&#45;&gt;14</title>
<path fill="none" stroke="green" d="M1624.33,-731.99C1630.01,-735.99 1635.9,-739.64 1641.89,-742.68 1701.93,-773.11 1724.08,-760.7 1789.64,-775.93 1857.01,-791.58 1934.28,-810.18 1985.64,-822.65"/>
<polygon fill="green" stroke="green" points="1984.5,-825.97 1995.04,-824.93 1986.15,-819.17 1984.5,-825.97"/>
<text text-anchor="middle" x="1715.77" y="-779.13" font-family="Times New Roman,serif" font-size="14.00">41 EVENT_CLOSE</text>
</g>
<!-- 15 -->
<g id="node16" class="node">
<title>15</title>
<ellipse fill="none" stroke="black" cx="2044.2" cy="-661.68" rx="60.05" ry="18"/>
<text text-anchor="middle" x="2044.2" y="-656.25" font-family="Times New Roman,serif" font-size="14.00">/tmp/done.so</text>
</g>
<!-- 7&#45;&gt;15 -->
<g id="edge44" class="edge">
<title>7&#45;&gt;15</title>
<path fill="none" stroke="green" d="M1624.31,-681.05C1668.64,-681.15 1733.25,-680.82 1789.64,-678.68 1852.35,-676.29 1923.66,-671.31 1974.64,-667.35"/>
<polygon fill="green" stroke="green" points="1974.65,-670.86 1984.34,-666.59 1974.1,-663.88 1974.65,-670.86"/>
<text text-anchor="middle" x="1715.77" y="-684.13" font-family="Times New Roman,serif" font-size="14.00">43 EVENT_OPEN</text>
</g>
<!-- 7&#45;&gt;15 -->
<g id="edge45" class="edge">
<title>7&#45;&gt;15</title>
<path fill="none" stroke="green" d="M1624.36,-662.46C1630.22,-661.01 1636.15,-659.79 1641.89,-658.93 1758.14,-641.55 1895.45,-648.27 1975.58,-654.87"/>
<polygon fill="green" stroke="green" points="1975.21,-658.35 1985.48,-655.71 1975.81,-651.38 1975.21,-658.35"/>
<text text-anchor="middle" x="1715.77" y="-662.13" font-family="Times New Roman,serif" font-size="14.00">44 EVENT_WRITE</text>
</g>
<!-- 7&#45;&gt;15 -->
<g id="edge46" class="edge">
<title>7&#45;&gt;15</title>
<path fill="none" stroke="green" d="M1623.99,-636.81C1629.78,-633.64 1635.79,-630.91 1641.89,-628.93 1762.59,-589.66 1913.95,-622.57 1991.77,-645.02"/>
<polygon fill="green" stroke="green" points="1990.67,-648.35 2001.25,-647.82 1992.65,-641.64 1990.67,-648.35"/>
<text text-anchor="middle" x="1715.77" y="-632.13" font-family="Times New Roman,serif" font-size="14.00">45 EVENT_CLOSE</text>
</g>
<!-- 9&#45;&gt;7 -->
<g id="edge27" class="edge">
<title>9&#45;&gt;7</title>
<path fill="none" stroke="orange" d="M1963.22,-448.21C1860.84,-426.59 1690.85,-398.13 1641.89,-434.93 1613.03,-456.62 1592.14,-549.89 1580.74,-615.07"/>
<polygon fill="orange" stroke="orange" points="1577.35,-614.14 1579.11,-624.58 1584.25,-615.32 1577.35,-614.14"/>
<text text-anchor="middle" x="1715.77" y="-438.13" font-family="Times New Roman,serif" font-size="14.00">26 EVENT_RECVFROM</text>
</g>
<!-- 10&#45;&gt;7 -->
<g id="edge32" class="edge">
<title>10&#45;&gt;7</title>
<path fill="none" stroke="green" d="M2004.11,-339.25C1914.21,-316.32 1696.33,-266.99 1641.89,-311.93 1596.24,-349.62 1579.56,-519.42 1573.73,-614.92"/>
<polygon fill="green" stroke="green" points="1570.25,-614.48 1573.16,-624.67 1577.24,-614.89 1570.25,-614.48"/>
<text text-anchor="middle" x="1715.77" y="-315.13" font-family="Times New Roman,serif" font-size="14.00">31 EVENT_READ</text>
</g>
<!-- 12&#45;&gt;7 -->
<g id="edge39" class="edge">
<title>12&#45;&gt;7</title>
<path fill="none" stroke="green" d="M1973.21,-1153.61C1859.8,-1143.63 1647.86,-1124.3 1641.89,-1118.68 1589.17,-1068.98 1575.53,-855.86 1572,-746.29"/>
<polygon fill="green" stroke="green" points="1575.5,-746.46 1571.71,-736.57 1568.51,-746.67 1575.5,-746.46"/>
<text text-anchor="middle" x="1715.77" y="-1138.13" font-family="Times New Roman,serif" font-size="14.00">38 EVENT_READ</text>
</g>
<!-- 14&#45;&gt;7 -->
<g id="edge43" class="edge">
<title>14&#45;&gt;7</title>
<path fill="none" stroke="green" d="M1997.03,-848.2C1904.02,-870.26 1698.21,-912.94 1641.89,-873.68 1600.93,-845.12 1583.5,-790.18 1576.11,-746.2"/>
<polygon fill="green" stroke="green" points="1579.6,-745.84 1574.63,-736.48 1572.68,-746.89 1579.6,-745.84"/>
<text text-anchor="middle" x="1715.77" y="-892.13" font-family="Times New Roman,serif" font-size="14.00">42 EVENT_READ</text>
</g>
</g>
</svg>
