<?xml version="1.0" encoding="UTF-8" standalone="no"?>
<!DOCTYPE svg PUBLIC "-//W3C//DTD SVG 1.1//EN"
 "http://www.w3.org/Graphics/SVG/1.1/DTD/svg11.dtd">
<!-- Generated by graphviz version 2.50.0 (0)
 -->
<!-- Title: case1_tmp_split_2 Pages: 1 -->
<svg width="3138pt" height="1306pt"
 viewBox="0.00 0.00 3138.40 1305.87" xmlns="http://www.w3.org/2000/svg" xmlns:xlink="http://www.w3.org/1999/xlink">
<g id="graph0" class="graph" transform="scale(1 1) rotate(0) translate(4 1301.87)">
<title>case1_tmp_split_2</title>
<polygon fill="white" stroke="transparent" points="-4,4 -4,-1301.87 3134.4,-1301.87 3134.4,4 -4,4"/>
<!-- 0 -->
<g id="node1" class="node">
<title>0</title>
<polygon fill="none" stroke="black" points="449.68,-410.87 92.09,-410.87 0.11,-374.87 357.69,-374.87 449.68,-410.87"/>
<text text-anchor="middle" x="224.89" y="-389.17" font-family="Times New Roman,serif" font-size="14.00">128.55.12.73&#45;80&#45;&gt;25.159.96.207&#45;45203</text>
</g>
<!-- 1 -->
<g id="node2" class="node">
<title>1</title>
<polygon fill="none" stroke="black" points="690.79,-426.87 622.79,-426.87 622.79,-358.87 690.79,-358.87 690.79,-426.87"/>
<text text-anchor="middle" x="656.79" y="-389.17" font-family="Times New Roman,serif" font-size="14.00">892nginx</text>
</g>
<!-- 0&#45;&gt;1 -->
<g id="edge1" class="edge">
<title>0&#45;&gt;1</title>
<path fill="none" stroke="Red" d="M357.66,-410.9C430.83,-417.8 523.28,-421.36 604.79,-408.87 607.45,-408.46 610.16,-407.94 612.88,-407.34"/>
<polygon fill="Red" stroke="Red" points="613.83,-410.71 622.66,-404.85 612.11,-403.93 613.83,-410.71"/>
<text text-anchor="middle" x="536.29" y="-420.67" font-family="Times New Roman,serif" font-size="14.00">0 EVENT_RECVFROM</text>
</g>
<!-- 1&#45;&gt;0 -->
<g id="edge2" class="edge">
<title>1&#45;&gt;0</title>
<path fill="none" stroke="Red" d="M622.6,-390.64C616.67,-390.32 610.55,-390.04 604.79,-389.87 539.25,-387.95 467.31,-387.97 403.89,-388.73"/>
<polygon fill="Red" stroke="Red" points="403.75,-385.23 393.79,-388.85 403.83,-392.23 403.75,-385.23"/>
<text text-anchor="middle" x="536.29" y="-393.67" font-family="Times New Roman,serif" font-size="14.00">1 EVENT_WRITE</text>
</g>
<!-- 1&#45;&gt;0 -->
<g id="edge3" class="edge">
<title>1&#45;&gt;0</title>
<path fill="none" stroke="Red" d="M622.73,-375.56C616.9,-373.2 610.77,-371.16 604.79,-369.87 509.37,-349.35 397.54,-360.27 320.23,-373.12"/>
<polygon fill="Red" stroke="Red" points="319.3,-369.73 310.03,-374.86 320.48,-376.63 319.3,-369.73"/>
<text text-anchor="middle" x="536.29" y="-373.67" font-family="Times New Roman,serif" font-size="14.00">2 EVENT_CLOSE</text>
</g>
<!-- 4 -->
<g id="node3" class="node">
<title>4</title>
<polygon fill="none" stroke="black" points="1302.32,-1238.87 953.38,-1238.87 863.61,-1202.87 1212.55,-1202.87 1302.32,-1238.87"/>
<text text-anchor="middle" x="1082.96" y="-1217.17" font-family="Times New Roman,serif" font-size="14.00">128.55.12.73&#45;46517&#45;&gt;76.56.184.25&#45;80</text>
</g>
<!-- 1&#45;&gt;4 -->
<g id="edge4" class="edge">
<title>1&#45;&gt;4</title>
<path fill="none" stroke="Red" d="M658.56,-427.04C662.2,-581.55 678.81,-1208.65 708.79,-1236.87 796.36,-1319.31 952.9,-1273.9 1032.52,-1242.62"/>
<polygon fill="Red" stroke="Red" points="1033.86,-1245.86 1041.84,-1238.89 1031.26,-1239.36 1033.86,-1245.86"/>
<text text-anchor="middle" x="777.29" y="-1286.67" font-family="Times New Roman,serif" font-size="14.00">3 EVENT_CONNECT</text>
</g>
<!-- 1&#45;&gt;4 -->
<g id="edge5" class="edge">
<title>1&#45;&gt;4</title>
<path fill="none" stroke="Red" d="M658.7,-426.96C662.85,-576.85 681.01,-1171.22 708.79,-1198.87 715.69,-1205.74 798.11,-1211 883.74,-1214.66"/>
<polygon fill="Red" stroke="Red" points="883.79,-1218.16 893.93,-1215.08 884.08,-1211.17 883.79,-1218.16"/>
<text text-anchor="middle" x="777.29" y="-1215.67" font-family="Times New Roman,serif" font-size="14.00">4 EVENT_SENDTO</text>
</g>
<!-- 7 -->
<g id="node4" class="node">
<title>7</title>
<ellipse fill="none" stroke="black" cx="1989.7" cy="-1078.87" rx="51.99" ry="18"/>
<text text-anchor="middle" x="1989.7" y="-1075.17" font-family="Times New Roman,serif" font-size="14.00">/etc/passwd</text>
</g>
<!-- 1&#45;&gt;7 -->
<g id="edge7" class="edge">
<title>1&#45;&gt;7</title>
<path fill="none" stroke="Blue" d="M657.48,-426.91C656.58,-565.75 656.74,-1084.13 708.79,-1132.87 750.61,-1172.04 1683.19,-1139.19 1740.14,-1132.87 1810.15,-1125.11 1889.42,-1106.06 1939.23,-1092.8"/>
<polygon fill="Blue" stroke="Blue" points="1940.34,-1096.12 1949.09,-1090.14 1938.52,-1089.36 1940.34,-1096.12"/>
<text text-anchor="middle" x="1385.14" y="-1151.67" font-family="Times New Roman,serif" font-size="14.00">6 EVENT_OPEN</text>
</g>
<!-- 1&#45;&gt;7 -->
<g id="edge9" class="edge">
<title>1&#45;&gt;7</title>
<path fill="none" stroke="Blue" d="M660.03,-427.23C664.35,-478.55 676.46,-577.48 708.79,-654.87 755.87,-767.6 767.81,-806.29 863.79,-881.87 1179.21,-1130.24 1339.06,-1118.59 1740.14,-1100.87 1805.33,-1097.99 1879.86,-1090.89 1930.16,-1085.52"/>
<polygon fill="Blue" stroke="Blue" points="1930.64,-1088.99 1940.21,-1084.44 1929.89,-1082.03 1930.64,-1088.99"/>
<text text-anchor="middle" x="1385.14" y="-1111.67" font-family="Times New Roman,serif" font-size="14.00">8 EVENT_CLOSE</text>
</g>
<!-- 10 -->
<g id="node5" class="node">
<title>10</title>
<ellipse fill="none" stroke="black" cx="1082.96" cy="-295.87" rx="44.39" ry="18"/>
<text text-anchor="middle" x="1082.96" y="-292.17" font-family="Times New Roman,serif" font-size="14.00">/tmp/font</text>
</g>
<!-- 1&#45;&gt;10 -->
<g id="edge10" class="edge">
<title>1&#45;&gt;10</title>
<path fill="none" stroke="Blue" d="M683.07,-358.79C690.49,-351.03 699.22,-343.67 708.79,-338.87 736.81,-324.84 933.19,-307.63 1029.27,-299.93"/>
<polygon fill="Blue" stroke="Blue" points="1029.67,-303.41 1039.36,-299.13 1029.11,-296.43 1029.67,-303.41"/>
<text text-anchor="middle" x="777.29" y="-342.67" font-family="Times New Roman,serif" font-size="14.00">9 EVENT_OPEN</text>
</g>
<!-- 1&#45;&gt;10 -->
<g id="edge11" class="edge">
<title>1&#45;&gt;10</title>
<path fill="none" stroke="Blue" d="M666.91,-358.75C674.45,-337.82 687.46,-312.65 708.79,-299.87 761.38,-268.35 940.16,-281.25 1029.82,-290.12"/>
<polygon fill="Blue" stroke="Blue" points="1029.73,-293.63 1040.03,-291.15 1030.43,-286.66 1029.73,-293.63"/>
<text text-anchor="middle" x="777.29" y="-303.67" font-family="Times New Roman,serif" font-size="14.00">10 EVENT_WRITE</text>
</g>
<!-- 1&#45;&gt;10 -->
<g id="edge12" class="edge">
<title>1&#45;&gt;10</title>
<path fill="none" stroke="Blue" d="M660.5,-358.7C665,-327.39 676.98,-282.68 708.79,-260.87 760.66,-225.31 946.96,-263.41 1035.11,-284.2"/>
<polygon fill="Blue" stroke="Blue" points="1034.31,-287.61 1044.85,-286.52 1035.93,-280.8 1034.31,-287.61"/>
<text text-anchor="middle" x="777.29" y="-264.67" font-family="Times New Roman,serif" font-size="14.00">11 EVENT_CLOSE</text>
</g>
<!-- 13 -->
<g id="node6" class="node">
<title>13</title>
<ellipse fill="none" stroke="black" cx="1989.7" cy="-414.87" rx="46.29" ry="18"/>
<text text-anchor="middle" x="1989.7" y="-411.17" font-family="Times New Roman,serif" font-size="14.00">/etc/group</text>
</g>
<!-- 1&#45;&gt;13 -->
<g id="edge13" class="edge">
<title>1&#45;&gt;13</title>
<path fill="none" stroke="Blue" d="M690.82,-401.02C696.77,-402.2 702.94,-403.23 708.79,-403.87 822.69,-416.46 1625.55,-410.74 1740.14,-411.87 1806.55,-412.53 1882.95,-413.48 1933.32,-414.14"/>
<polygon fill="Blue" stroke="Blue" points="1933.3,-417.64 1943.35,-414.27 1933.39,-410.64 1933.3,-417.64"/>
<text text-anchor="middle" x="1385.14" y="-415.67" font-family="Times New Roman,serif" font-size="14.00">12 EVENT_OPEN</text>
</g>
<!-- 1&#45;&gt;13 -->
<g id="edge15" class="edge">
<title>1&#45;&gt;13</title>
<path fill="none" stroke="Blue" d="M691.01,-392.39C799.88,-390.9 1155.82,-386.86 1450.14,-392.87 1626.84,-396.48 1835.95,-406.74 1933.48,-411.87"/>
<polygon fill="Blue" stroke="Blue" points="1933.51,-415.38 1943.68,-412.41 1933.88,-408.39 1933.51,-415.38"/>
<text text-anchor="middle" x="1385.14" y="-396.67" font-family="Times New Roman,serif" font-size="14.00">14 EVENT_CLOSE</text>
</g>
<!-- 16 -->
<g id="node7" class="node">
<title>16</title>
<ellipse fill="none" stroke="black" cx="1082.96" cy="-186.87" rx="48.19" ry="18"/>
<text text-anchor="middle" x="1082.96" y="-183.17" font-family="Times New Roman,serif" font-size="14.00">/tmp/grain</text>
</g>
<!-- 1&#45;&gt;16 -->
<g id="edge16" class="edge">
<title>1&#45;&gt;16</title>
<path fill="none" stroke="Blue" d="M657.97,-358.81C660.18,-320.62 670.06,-259.85 708.79,-227.87 732.66,-208.16 926.71,-195.12 1025.14,-189.71"/>
<polygon fill="Blue" stroke="Blue" points="1025.42,-193.2 1035.22,-189.16 1025.04,-186.21 1025.42,-193.2"/>
<text text-anchor="middle" x="777.29" y="-231.67" font-family="Times New Roman,serif" font-size="14.00">15 EVENT_OPEN</text>
</g>
<!-- 1&#45;&gt;16 -->
<g id="edge17" class="edge">
<title>1&#45;&gt;16</title>
<path fill="none" stroke="Blue" d="M661.14,-358.65C667.14,-305.27 681.73,-206.1 708.79,-184.87 733.03,-165.85 927.38,-176.21 1025.58,-182.78"/>
<polygon fill="Blue" stroke="Blue" points="1025.42,-186.28 1035.64,-183.46 1025.9,-179.3 1025.42,-186.28"/>
<text text-anchor="middle" x="777.29" y="-188.67" font-family="Times New Roman,serif" font-size="14.00">16 EVENT_WRITE</text>
</g>
<!-- 1&#45;&gt;16 -->
<g id="edge18" class="edge">
<title>1&#45;&gt;16</title>
<path fill="none" stroke="Blue" d="M660.01,-358.75C664.66,-299.38 677.68,-181 708.79,-155.87 757.3,-116.69 942.7,-153.65 1032.56,-174.63"/>
<polygon fill="Blue" stroke="Blue" points="1031.97,-178.09 1042.51,-176.98 1033.58,-171.27 1031.97,-178.09"/>
<text text-anchor="middle" x="777.29" y="-159.67" font-family="Times New Roman,serif" font-size="14.00">17 EVENT_CLOSE</text>
</g>
<!-- 20 -->
<g id="node9" class="node">
<title>20</title>
<ellipse fill="none" stroke="black" cx="1082.96" cy="-70.87" rx="58.49" ry="18"/>
<text text-anchor="middle" x="1082.96" y="-67.17" font-family="Times New Roman,serif" font-size="14.00">/tmp/minions</text>
</g>
<!-- 1&#45;&gt;20 -->
<g id="edge20" class="edge">
<title>1&#45;&gt;20</title>
<path fill="none" stroke="Blue" d="M659.31,-358.76C662.99,-292.95 674.75,-152.12 708.79,-119.87 730.63,-99.18 914.19,-82.9 1015.48,-75.39"/>
<polygon fill="Blue" stroke="Blue" points="1015.89,-78.87 1025.61,-74.65 1015.38,-71.89 1015.89,-78.87"/>
<text text-anchor="middle" x="777.29" y="-123.67" font-family="Times New Roman,serif" font-size="14.00">19 EVENT_OPEN</text>
</g>
<!-- 1&#45;&gt;20 -->
<g id="edge21" class="edge">
<title>1&#45;&gt;20</title>
<path fill="none" stroke="Blue" d="M657.92,-358.61C659,-283.77 666.14,-109.46 708.79,-72.87 731.4,-53.47 914.16,-60.92 1015.27,-66.65"/>
<polygon fill="Blue" stroke="Blue" points="1015.2,-70.15 1025.39,-67.23 1015.6,-63.16 1015.2,-70.15"/>
<text text-anchor="middle" x="777.29" y="-76.67" font-family="Times New Roman,serif" font-size="14.00">20 EVENT_WRITE</text>
</g>
<!-- 1&#45;&gt;20 -->
<g id="edge22" class="edge">
<title>1&#45;&gt;20</title>
<path fill="none" stroke="Blue" d="M657.36,-358.64C657.17,-278.55 661.64,-82.67 708.79,-41.87 803.51,40.08 967.16,-17.82 1042.23,-51.43"/>
<polygon fill="Blue" stroke="Blue" points="1040.82,-54.63 1051.37,-55.6 1043.72,-48.26 1040.82,-54.63"/>
<text text-anchor="middle" x="777.29" y="-45.67" font-family="Times New Roman,serif" font-size="14.00">21 EVENT_CLOSE</text>
</g>
<!-- 24 -->
<g id="node11" class="node">
<title>24</title>
<ellipse fill="none" stroke="black" cx="1082.96" cy="-506.87" rx="47.39" ry="18"/>
<text text-anchor="middle" x="1082.96" y="-503.17" font-family="Times New Roman,serif" font-size="14.00">/tmp/XIM</text>
</g>
<!-- 1&#45;&gt;24 -->
<g id="edge24" class="edge">
<title>1&#45;&gt;24</title>
<path fill="none" stroke="Blue" d="M663.25,-426.95C669.43,-453.18 682.33,-487.75 708.79,-504.87 809.95,-570.35 961.11,-541.74 1036.21,-521.19"/>
<polygon fill="Blue" stroke="Blue" points="1037.61,-524.43 1046.29,-518.36 1035.72,-517.7 1037.61,-524.43"/>
<text text-anchor="middle" x="777.29" y="-547.67" font-family="Times New Roman,serif" font-size="14.00">23 EVENT_OPEN</text>
</g>
<!-- 1&#45;&gt;24 -->
<g id="edge25" class="edge">
<title>1&#45;&gt;24</title>
<path fill="none" stroke="Blue" d="M673.13,-427.13C681.51,-441.83 693.37,-457.69 708.79,-466.87 722.23,-474.88 925.74,-493.4 1026.41,-502.14"/>
<polygon fill="Blue" stroke="Blue" points="1026.14,-505.63 1036.41,-503.01 1026.75,-498.66 1026.14,-505.63"/>
<text text-anchor="middle" x="777.29" y="-487.67" font-family="Times New Roman,serif" font-size="14.00">24 EVENT_WRITE</text>
</g>
<!-- 1&#45;&gt;24 -->
<g id="edge26" class="edge">
<title>1&#45;&gt;24</title>
<path fill="none" stroke="Blue" d="M691.06,-419.66C696.72,-423.24 702.74,-426.48 708.79,-428.87 765.96,-451.46 785.44,-436.18 845.79,-447.87 912.03,-460.7 987.5,-480.47 1034.93,-493.54"/>
<polygon fill="Blue" stroke="Blue" points="1034.04,-496.93 1044.61,-496.22 1035.91,-490.18 1034.04,-496.93"/>
<text text-anchor="middle" x="777.29" y="-451.67" font-family="Times New Roman,serif" font-size="14.00">25 EVENT_CLOSE</text>
</g>
<!-- 4&#45;&gt;1 -->
<g id="edge6" class="edge">
<title>4&#45;&gt;1</title>
<path fill="none" stroke="Red" d="M982.69,-1202.86C940.53,-1195.42 890.81,-1186.9 845.79,-1179.87 815.42,-1175.13 729.73,-1183.37 708.79,-1160.87 659.39,-1107.81 657.09,-592.82 657.54,-437.19"/>
<polygon fill="Red" stroke="Red" points="661.04,-437.05 657.57,-427.04 654.04,-437.03 661.04,-437.05"/>
<text text-anchor="middle" x="777.29" y="-1183.67" font-family="Times New Roman,serif" font-size="14.00">5 EVENT_RECVFROM</text>
</g>
<!-- 7&#45;&gt;1 -->
<g id="edge8" class="edge">
<title>7&#45;&gt;1</title>
<path fill="none" stroke="Blue" d="M1942.35,-1086.37C1867.84,-1096.73 1717.52,-1110.71 1596.14,-1077.87 1155.97,-958.79 991.3,-920.8 708.79,-562.87 679.99,-526.39 667.43,-473.89 661.96,-436.91"/>
<polygon fill="Blue" stroke="Blue" points="665.42,-436.35 660.6,-426.91 658.48,-437.3 665.42,-436.35"/>
<text text-anchor="middle" x="1385.14" y="-1039.67" font-family="Times New Roman,serif" font-size="14.00">7 EVENT_READ</text>
</g>
<!-- 33 -->
<g id="node14" class="node">
<title>33</title>
<polygon fill="none" stroke="black" points="1561.64,-855.37 1484.64,-855.37 1484.64,-778.37 1561.64,-778.37 1561.64,-855.37"/>
<text text-anchor="middle" x="1523.14" y="-813.17" font-family="Times New Roman,serif" font-size="14.00">20408XIM</text>
</g>
<!-- 7&#45;&gt;33 -->
<g id="edge38" class="edge">
<title>7&#45;&gt;33</title>
<path fill="none" stroke="Black" d="M1955.88,-1065.05C1908.84,-1045.69 1819.17,-1010.44 1740.14,-988.87 1677.32,-971.73 1648.07,-1001.16 1596.14,-961.87 1564.96,-938.28 1546.4,-897.52 1535.96,-865.2"/>
<polygon fill="Black" stroke="Black" points="1539.26,-864.01 1532.98,-855.48 1532.56,-866.06 1539.26,-864.01"/>
<text text-anchor="middle" x="1668.14" y="-992.67" font-family="Times New Roman,serif" font-size="14.00">37 EVENT_READ</text>
</g>
<!-- 13&#45;&gt;1 -->
<g id="edge14" class="edge">
<title>13&#45;&gt;1</title>
<path fill="none" stroke="Blue" d="M1951.58,-404.47C1903.3,-391.42 1816.15,-369.46 1740.14,-358.87 1354.36,-305.15 1252.15,-336.06 863.79,-365.87 794.74,-371.17 777.18,-371 708.79,-381.87 706.15,-382.29 703.45,-382.76 700.73,-383.26"/>
<polygon fill="Blue" stroke="Blue" points="700.03,-379.83 690.88,-385.18 701.37,-386.7 700.03,-379.83"/>
<text text-anchor="middle" x="1385.14" y="-334.67" font-family="Times New Roman,serif" font-size="14.00">13 EVENT_READ</text>
</g>
<!-- 27 -->
<g id="node12" class="node">
<title>27</title>
<polygon fill="none" stroke="black" points="1561.64,-545.37 1484.64,-545.37 1484.64,-468.37 1561.64,-468.37 1561.64,-545.37"/>
<text text-anchor="middle" x="1523.14" y="-503.17" font-family="Times New Roman,serif" font-size="14.00">20367XIM</text>
</g>
<!-- 13&#45;&gt;27 -->
<g id="edge29" class="edge">
<title>13&#45;&gt;27</title>
<path fill="none" stroke="Blue" d="M1954.17,-426.65C1906.57,-442.41 1817.87,-470.08 1740.14,-484.87 1682.89,-495.76 1616.01,-501.52 1572.01,-504.38"/>
<polygon fill="Blue" stroke="Blue" points="1571.65,-500.89 1561.88,-505.01 1572.08,-507.88 1571.65,-500.89"/>
<text text-anchor="middle" x="1668.14" y="-505.67" font-family="Times New Roman,serif" font-size="14.00">28 EVENT_READ</text>
</g>
<!-- 19 -->
<g id="node8" class="node">
<title>19</title>
<polygon fill="none" stroke="black" points="1578.14,-243.87 1468.14,-243.87 1468.14,-133.87 1578.14,-133.87 1578.14,-243.87"/>
<text text-anchor="middle" x="1523.14" y="-185.17" font-family="Times New Roman,serif" font-size="14.00">20026tmux&#45;1002</text>
</g>
<!-- 16&#45;&gt;19 -->
<g id="edge19" class="edge">
<title>16&#45;&gt;19</title>
<path fill="none" stroke="Blue" d="M1131.27,-187.09C1210.14,-187.45 1368.59,-188.17 1457.63,-188.58"/>
<polygon fill="Blue" stroke="Blue" points="1457.85,-192.08 1467.87,-188.62 1457.88,-185.08 1457.85,-192.08"/>
<text text-anchor="middle" x="1385.14" y="-192.67" font-family="Times New Roman,serif" font-size="14.00">18 EVENT_EXECUTE</text>
</g>
<!-- 23 -->
<g id="node10" class="node">
<title>23</title>
<polygon fill="none" stroke="black" points="1570.64,-115.37 1475.64,-115.37 1475.64,-20.37 1570.64,-20.37 1570.64,-115.37"/>
<text text-anchor="middle" x="1523.14" y="-64.17" font-family="Times New Roman,serif" font-size="14.00">20227minions</text>
</g>
<!-- 20&#45;&gt;23 -->
<g id="edge23" class="edge">
<title>20&#45;&gt;23</title>
<path fill="none" stroke="Blue" d="M1141.7,-70.48C1225.91,-69.9 1381.5,-68.83 1465.24,-68.26"/>
<polygon fill="Blue" stroke="Blue" points="1465.36,-71.76 1475.33,-68.19 1465.31,-64.76 1465.36,-71.76"/>
<text text-anchor="middle" x="1385.14" y="-73.67" font-family="Times New Roman,serif" font-size="14.00">22 EVENT_EXECUTE</text>
</g>
<!-- 24&#45;&gt;27 -->
<g id="edge27" class="edge">
<title>24&#45;&gt;27</title>
<path fill="none" stroke="Blue" d="M1130.44,-506.87C1214.17,-506.87 1389.49,-506.87 1474.24,-506.87"/>
<polygon fill="Blue" stroke="Blue" points="1474.36,-510.37 1484.36,-506.87 1474.36,-503.37 1474.36,-510.37"/>
<text text-anchor="middle" x="1385.14" y="-510.67" font-family="Times New Roman,serif" font-size="14.00">26 EVENT_EXECUTE</text>
</g>
<!-- 24&#45;&gt;33 -->
<g id="edge33" class="edge">
<title>24&#45;&gt;33</title>
<path fill="none" stroke="Black" d="M1106.29,-522.67C1174.79,-571.13 1382.88,-718.35 1476.11,-784.31"/>
<polygon fill="Black" stroke="Black" points="1474.31,-787.32 1484.5,-790.24 1478.36,-781.61 1474.31,-787.32"/>
<text text-anchor="middle" x="1385.14" y="-768.67" font-family="Times New Roman,serif" font-size="14.00">32 EVENT_EXECUTE</text>
</g>
<!-- 27&#45;&gt;13 -->
<g id="edge28" class="edge">
<title>27&#45;&gt;13</title>
<path fill="none" stroke="Blue" d="M1551.03,-468.31C1563.08,-454.23 1578.54,-439.83 1596.14,-431.87 1654.78,-405.36 1840.22,-408.7 1933.7,-412.28"/>
<polygon fill="Blue" stroke="Blue" points="1933.68,-415.78 1943.82,-412.68 1933.96,-408.79 1933.68,-415.78"/>
<text text-anchor="middle" x="1668.14" y="-435.67" font-family="Times New Roman,serif" font-size="14.00">27 EVENT_OPEN</text>
</g>
<!-- 27&#45;&gt;13 -->
<g id="edge30" class="edge">
<title>27&#45;&gt;13</title>
<path fill="none" stroke="Blue" d="M1561.7,-481.85C1572.44,-475.72 1584.41,-469.8 1596.14,-465.87 1598.14,-465.2 1828.73,-435.47 1935.52,-421.71"/>
<polygon fill="Blue" stroke="Blue" points="1935.99,-425.18 1945.46,-420.44 1935.09,-418.24 1935.99,-425.18"/>
<text text-anchor="middle" x="1668.14" y="-469.67" font-family="Times New Roman,serif" font-size="14.00">29 EVENT_CLOSE</text>
</g>
<!-- 31 -->
<g id="node13" class="node">
<title>31</title>
<polygon fill="none" stroke="black" points="2221.33,-569.87 1852.86,-569.87 1758.08,-533.87 2126.54,-533.87 2221.33,-569.87"/>
<text text-anchor="middle" x="1989.7" y="-548.17" font-family="Times New Roman,serif" font-size="14.00">128.55.12.73&#45;60746&#45;&gt;53.158.101.118&#45;80</text>
</g>
<!-- 27&#45;&gt;31 -->
<g id="edge31" class="edge">
<title>27&#45;&gt;31</title>
<path fill="none" stroke="Black" d="M1561.86,-542.18C1572.23,-549.82 1583.98,-556.82 1596.14,-560.87 1693.82,-593.43 1812.89,-584.44 1894.11,-571.59"/>
<polygon fill="Black" stroke="Black" points="1895.01,-574.99 1904.31,-569.92 1893.88,-568.08 1895.01,-574.99"/>
<text text-anchor="middle" x="1668.14" y="-586.67" font-family="Times New Roman,serif" font-size="14.00">30 EVENT_CONNECT</text>
</g>
<!-- 27&#45;&gt;31 -->
<g id="edge32" class="edge">
<title>27&#45;&gt;31</title>
<path fill="none" stroke="Black" d="M1561.69,-516.3C1572.73,-518.77 1584.86,-521.21 1596.14,-522.87 1652.03,-531.1 1712.75,-537.04 1769.36,-541.31"/>
<polygon fill="Black" stroke="Black" points="1769.28,-544.81 1779.52,-542.06 1769.8,-537.83 1769.28,-544.81"/>
<text text-anchor="middle" x="1668.14" y="-541.67" font-family="Times New Roman,serif" font-size="14.00">31 EVENT_SENDTO</text>
</g>
<!-- 33&#45;&gt;7 -->
<g id="edge37" class="edge">
<title>33&#45;&gt;7</title>
<path fill="none" stroke="Black" d="M1524.36,-855.8C1526.96,-907.24 1539.9,-996.62 1596.14,-1041.87 1608.88,-1052.12 1821.32,-1067.69 1928.24,-1074.92"/>
<polygon fill="Black" stroke="Black" points="1928.03,-1078.41 1938.25,-1075.59 1928.5,-1071.43 1928.03,-1078.41"/>
<text text-anchor="middle" x="1668.14" y="-1062.67" font-family="Times New Roman,serif" font-size="14.00">36 EVENT_OPEN</text>
</g>
<!-- 33&#45;&gt;7 -->
<g id="edge39" class="edge">
<title>33&#45;&gt;7</title>
<path fill="none" stroke="Black" d="M1527.59,-855.54C1533.67,-898.89 1550.37,-967.81 1596.14,-1003.87 1621.49,-1023.85 1708.36,-1017.21 1740.14,-1022.87 1808.79,-1035.11 1887.14,-1053.51 1937.22,-1065.84"/>
<polygon fill="Black" stroke="Black" points="1936.61,-1069.3 1947.16,-1068.3 1938.29,-1062.5 1936.61,-1069.3"/>
<text text-anchor="middle" x="1668.14" y="-1026.67" font-family="Times New Roman,serif" font-size="14.00">38 EVENT_CLOSE</text>
</g>
<!-- 34 -->
<g id="node15" class="node">
<title>34</title>
<polygon fill="none" stroke="black" points="2221.33,-929.87 1852.86,-929.87 1758.08,-893.87 2126.54,-893.87 2221.33,-929.87"/>
<text text-anchor="middle" x="1989.7" y="-908.17" font-family="Times New Roman,serif" font-size="14.00">128.55.12.73&#45;39242&#45;&gt;53.158.101.118&#45;80</text>
</g>
<!-- 33&#45;&gt;34 -->
<g id="edge34" class="edge">
<title>33&#45;&gt;34</title>
<path fill="none" stroke="Black" d="M1537.81,-855.41C1549.13,-880.99 1567.98,-912.57 1596.14,-927.87 1640.13,-951.77 1762.77,-943 1859.38,-931.17"/>
<polygon fill="Black" stroke="Black" points="1860.04,-934.61 1869.53,-929.9 1859.18,-927.67 1860.04,-934.61"/>
<text text-anchor="middle" x="1668.14" y="-946.67" font-family="Times New Roman,serif" font-size="14.00">33 EVENT_CONNECT</text>
</g>
<!-- 33&#45;&gt;34 -->
<g id="edge35" class="edge">
<title>33&#45;&gt;34</title>
<path fill="none" stroke="Black" d="M1552.3,-855.46C1564.22,-868.78 1579.27,-882.25 1596.14,-889.87 1614.3,-898.07 1697.54,-903.37 1782.73,-906.7"/>
<polygon fill="Black" stroke="Black" points="1782.73,-910.21 1792.86,-907.09 1783,-903.21 1782.73,-910.21"/>
<text text-anchor="middle" x="1668.14" y="-907.67" font-family="Times New Roman,serif" font-size="14.00">34 EVENT_SENDTO</text>
</g>
<!-- 40 -->
<g id="node16" class="node">
<title>40</title>
<ellipse fill="none" stroke="black" cx="1989.7" cy="-798.87" rx="72.59" ry="18"/>
<text text-anchor="middle" x="1989.7" y="-795.17" font-family="Times New Roman,serif" font-size="14.00">/var/log/sendmail</text>
</g>
<!-- 33&#45;&gt;40 -->
<g id="edge40" class="edge">
<title>33&#45;&gt;40</title>
<path fill="none" stroke="Orange" d="M1562,-816.88C1605.14,-816.76 1677.74,-816.19 1740.14,-813.87 1796.81,-811.77 1860.66,-807.88 1909.46,-804.59"/>
<polygon fill="Orange" stroke="Orange" points="1909.9,-808.07 1919.64,-803.9 1909.42,-801.09 1909.9,-808.07"/>
<text text-anchor="middle" x="1668.14" y="-819.67" font-family="Times New Roman,serif" font-size="14.00">39 EVENT_OPEN</text>
</g>
<!-- 33&#45;&gt;40 -->
<g id="edge41" class="edge">
<title>33&#45;&gt;40</title>
<path fill="none" stroke="Orange" d="M1561.77,-803.08C1572.7,-799.7 1584.76,-796.57 1596.14,-794.87 1705,-778.61 1832.75,-784.46 1912.22,-790.99"/>
<polygon fill="Orange" stroke="Orange" points="1912.37,-794.52 1922.63,-791.87 1912.96,-787.54 1912.37,-794.52"/>
<text text-anchor="middle" x="1668.14" y="-798.67" font-family="Times New Roman,serif" font-size="14.00">40 EVENT_WRITE</text>
</g>
<!-- 33&#45;&gt;40 -->
<g id="edge42" class="edge">
<title>33&#45;&gt;40</title>
<path fill="none" stroke="Orange" d="M1561.66,-783.12C1572.11,-775.66 1583.96,-768.81 1596.14,-764.87 1713.1,-727.05 1859.27,-759.07 1936.02,-781.53"/>
<polygon fill="Orange" stroke="Orange" points="1935.35,-784.98 1945.93,-784.48 1937.35,-778.27 1935.35,-784.98"/>
<text text-anchor="middle" x="1668.14" y="-768.67" font-family="Times New Roman,serif" font-size="14.00">41 EVENT_CLOSE</text>
</g>
<!-- 44 -->
<g id="node18" class="node">
<title>44</title>
<ellipse fill="none" stroke="black" cx="1989.7" cy="-683.87" rx="42.49" ry="18"/>
<text text-anchor="middle" x="1989.7" y="-680.17" font-family="Times New Roman,serif" font-size="14.00">/tmp/test</text>
</g>
<!-- 33&#45;&gt;44 -->
<g id="edge44" class="edge">
<title>33&#45;&gt;44</title>
<path fill="none" stroke="Green" d="M1545.49,-778.36C1557.81,-759.94 1575.05,-739.42 1596.14,-727.87 1625.48,-711.8 1838.09,-694.67 1937.6,-687.43"/>
<polygon fill="Green" stroke="Green" points="1938,-690.91 1947.73,-686.7 1937.5,-683.93 1938,-690.91"/>
<text text-anchor="middle" x="1668.14" y="-731.67" font-family="Times New Roman,serif" font-size="14.00">43 EVENT_OPEN</text>
</g>
<!-- 33&#45;&gt;44 -->
<g id="edge45" class="edge">
<title>33&#45;&gt;44</title>
<path fill="none" stroke="Green" d="M1533.55,-778.33C1543.43,-747.06 1562.38,-704.97 1596.14,-684.87 1652.58,-651.27 1846.62,-667.71 1939.02,-677.88"/>
<polygon fill="Green" stroke="Green" points="1938.65,-681.35 1948.97,-678.99 1939.43,-674.4 1938.65,-681.35"/>
<text text-anchor="middle" x="1668.14" y="-688.67" font-family="Times New Roman,serif" font-size="14.00">44 EVENT_WRITE</text>
</g>
<!-- 33&#45;&gt;44 -->
<g id="edge46" class="edge">
<title>33&#45;&gt;44</title>
<path fill="none" stroke="Green" d="M1528.11,-778.34C1534.62,-737.36 1551.67,-674.46 1596.14,-644.87 1652.06,-607.66 1852.75,-650.37 1943.53,-672.37"/>
<polygon fill="Green" stroke="Green" points="1942.72,-675.78 1953.26,-674.75 1944.38,-668.98 1942.72,-675.78"/>
<text text-anchor="middle" x="1668.14" y="-648.67" font-family="Times New Roman,serif" font-size="14.00">45 EVENT_CLOSE</text>
</g>
<!-- 48 -->
<g id="node20" class="node">
<title>48</title>
<polygon fill="none" stroke="black" points="2471.77,-645.37 2402.77,-645.37 2402.77,-576.37 2471.77,-576.37 2471.77,-645.37"/>
<text text-anchor="middle" x="2437.27" y="-607.17" font-family="Times New Roman,serif" font-size="14.00">20708test</text>
</g>
<!-- 33&#45;&gt;48 -->
<g id="edge48" class="edge">
<title>33&#45;&gt;48</title>
<path fill="none" stroke="Green" d="M1526.5,-778.25C1531.55,-733.44 1547.26,-661.31 1596.14,-626.87 1661.34,-580.93 2228.28,-601.81 2392.11,-608.87"/>
<polygon fill="Green" stroke="Green" points="2392.16,-612.37 2402.31,-609.31 2392.47,-605.38 2392.16,-612.37"/>
<text text-anchor="middle" x="1989.7" y="-605.67" font-family="Times New Roman,serif" font-size="14.00">47 EVENT_FORK</text>
</g>
<!-- 34&#45;&gt;33 -->
<g id="edge36" class="edge">
<title>34&#45;&gt;33</title>
<path fill="none" stroke="Black" d="M1889.19,-893.81C1809.66,-879.03 1695.45,-857.01 1596.14,-834.87 1588.18,-833.1 1579.76,-831.1 1571.59,-829.1"/>
<polygon fill="Black" stroke="Black" points="1572.34,-825.68 1561.79,-826.67 1570.66,-832.48 1572.34,-825.68"/>
<text text-anchor="middle" x="1668.14" y="-867.67" font-family="Times New Roman,serif" font-size="14.00">35 EVENT_RECVFROM</text>
</g>
<!-- 43 -->
<g id="node17" class="node">
<title>43</title>
<polygon fill="none" stroke="black" points="2487.27,-850.87 2387.27,-850.87 2387.27,-750.87 2487.27,-750.87 2487.27,-850.87"/>
<text text-anchor="middle" x="2437.27" y="-797.17" font-family="Times New Roman,serif" font-size="14.00">20490sendmail</text>
</g>
<!-- 40&#45;&gt;43 -->
<g id="edge43" class="edge">
<title>40&#45;&gt;43</title>
<path fill="none" stroke="Orange" d="M2062.79,-799.2C2150.18,-799.59 2295.81,-800.24 2376.99,-800.61"/>
<polygon fill="Orange" stroke="Orange" points="2377.03,-804.11 2387.05,-800.65 2377.06,-797.11 2377.03,-804.11"/>
<text text-anchor="middle" x="2304.27" y="-803.67" font-family="Times New Roman,serif" font-size="14.00">42 EVENT_EXECUTE</text>
</g>
<!-- 47 -->
<g id="node19" class="node">
<title>47</title>
<polygon fill="none" stroke="black" points="2471.77,-732.37 2402.77,-732.37 2402.77,-663.37 2471.77,-663.37 2471.77,-732.37"/>
<text text-anchor="middle" x="2437.27" y="-694.17" font-family="Times New Roman,serif" font-size="14.00">20586test</text>
</g>
<!-- 44&#45;&gt;47 -->
<g id="edge47" class="edge">
<title>44&#45;&gt;47</title>
<path fill="none" stroke="Green" d="M2032.22,-685.18C2116.42,-687.82 2306.56,-693.8 2392.56,-696.5"/>
<polygon fill="Green" stroke="Green" points="2392.66,-700 2402.76,-696.82 2392.88,-693.01 2392.66,-700"/>
<text text-anchor="middle" x="2304.27" y="-698.67" font-family="Times New Roman,serif" font-size="14.00">46 EVENT_EXECUTE</text>
</g>
<!-- 44&#45;&gt;48 -->
<g id="edge49" class="edge">
<title>44&#45;&gt;48</title>
<path fill="none" stroke="Green" d="M2030.41,-679.02C2099.55,-670.33 2246.45,-650.74 2369.27,-626.87 2376.94,-625.38 2385.07,-623.61 2392.92,-621.79"/>
<polygon fill="Green" stroke="Green" points="2393.72,-625.2 2402.65,-619.49 2392.11,-618.39 2393.72,-625.2"/>
<text text-anchor="middle" x="2304.27" y="-651.67" font-family="Times New Roman,serif" font-size="14.00">48 EVENT_EXECUTE</text>
</g>
<!-- 50 -->
<g id="node21" class="node">
<title>50</title>
<polygon fill="none" stroke="black" points="3130.46,-704.87 2761.99,-704.87 2667.2,-668.87 3035.67,-668.87 3130.46,-704.87"/>
<text text-anchor="middle" x="2898.83" y="-683.17" font-family="Times New Roman,serif" font-size="14.00">128.55.12.73&#45;34345&#45;&gt;192.113.144.28&#45;80</text>
</g>
<!-- 48&#45;&gt;50 -->
<g id="edge50" class="edge">
<title>48&#45;&gt;50</title>
<path fill="none" stroke="yellow" d="M2471.9,-636.24C2477.68,-641.85 2483.14,-648.15 2487.27,-654.87 2503.4,-681.15 2480.8,-703.11 2505.27,-721.87 2607.8,-800.49 2772.65,-744.09 2852.11,-709.08"/>
<polygon fill="yellow" stroke="yellow" points="2853.67,-712.21 2861.36,-704.92 2850.81,-705.82 2853.67,-712.21"/>
<text text-anchor="middle" x="2577.27" y="-764.67" font-family="Times New Roman,serif" font-size="14.00">49 EVENT_CONNECT</text>
</g>
<!-- 48&#45;&gt;50 -->
<g id="edge52" class="edge">
<title>48&#45;&gt;50</title>
<path fill="none" stroke="yellow" d="M2471.94,-638.77C2477.33,-643.88 2482.64,-649.35 2487.27,-654.87 2497.01,-666.5 2492.04,-676.45 2505.27,-683.87 2524.62,-694.74 2625.93,-695.32 2720.77,-693.27"/>
<polygon fill="yellow" stroke="yellow" points="2720.89,-696.77 2730.81,-693.05 2720.73,-689.77 2720.89,-696.77"/>
<text text-anchor="middle" x="2577.27" y="-697.67" font-family="Times New Roman,serif" font-size="14.00">51 EVENT_SENDTO</text>
</g>
<!-- 48&#45;&gt;50 -->
<g id="edge53" class="edge">
<title>48&#45;&gt;50</title>
<path fill="none" stroke="yellow" d="M2471.98,-631.64C2482.32,-637.13 2493.96,-642.46 2505.27,-645.87 2523.71,-651.43 2601.67,-660.01 2683.31,-667.89"/>
<polygon fill="yellow" stroke="yellow" points="2682.99,-671.38 2693.28,-668.85 2683.66,-664.41 2682.99,-671.38"/>
<text text-anchor="middle" x="2577.27" y="-666.67" font-family="Times New Roman,serif" font-size="14.00">52 EVENT_CLOSE</text>
</g>
<!-- 54 -->
<g id="node22" class="node">
<title>54</title>
<polygon fill="none" stroke="black" points="3118.18,-625.87 2769.24,-625.87 2679.48,-589.87 3028.42,-589.87 3118.18,-625.87"/>
<text text-anchor="middle" x="2898.83" y="-604.17" font-family="Times New Roman,serif" font-size="14.00">128.55.12.73&#45;34300&#45;&gt;128.55.12.67&#45;22</text>
</g>
<!-- 48&#45;&gt;54 -->
<g id="edge54" class="edge">
<title>48&#45;&gt;54</title>
<path fill="none" stroke="yellow" d="M2472,-599.96C2482.54,-597.05 2494.28,-594.32 2505.27,-592.87 2579.22,-583.11 2661.64,-584.43 2731.79,-589.14"/>
<polygon fill="yellow" stroke="yellow" points="2731.83,-592.65 2742.05,-589.86 2732.31,-585.67 2731.83,-592.65"/>
<text text-anchor="middle" x="2577.27" y="-596.67" font-family="Times New Roman,serif" font-size="14.00">53 EVENT_CLOSE</text>
</g>
<!-- 55 -->
<g id="node23" class="node">
<title>55</title>
<polygon fill="none" stroke="black" points="3123.62,-571.87 2766.03,-571.87 2674.04,-535.87 3031.63,-535.87 3123.62,-571.87"/>
<text text-anchor="middle" x="2898.83" y="-550.17" font-family="Times New Roman,serif" font-size="14.00">128.55.12.73&#45;46262&#45;&gt;128.55.12.110&#45;22</text>
</g>
<!-- 48&#45;&gt;55 -->
<g id="edge55" class="edge">
<title>48&#45;&gt;55</title>
<path fill="none" stroke="yellow" d="M2471.79,-583.04C2481.94,-576.14 2493.53,-569.65 2505.27,-565.87 2557.67,-549.03 2616.06,-541.61 2671.45,-539.36"/>
<polygon fill="yellow" stroke="yellow" points="2671.88,-542.84 2681.75,-539 2671.64,-535.85 2671.88,-542.84"/>
<text text-anchor="middle" x="2577.27" y="-569.67" font-family="Times New Roman,serif" font-size="14.00">54 EVENT_CLOSE</text>
</g>
<!-- 56 -->
<g id="node24" class="node">
<title>56</title>
<polygon fill="none" stroke="black" points="3118.18,-517.87 2769.24,-517.87 2679.48,-481.87 3028.42,-481.87 3118.18,-517.87"/>
<text text-anchor="middle" x="2898.83" y="-496.17" font-family="Times New Roman,serif" font-size="14.00">128.55.12.73&#45;58251&#45;&gt;128.55.12.10&#45;53</text>
</g>
<!-- 48&#45;&gt;56 -->
<g id="edge56" class="edge">
<title>48&#45;&gt;56</title>
<path fill="none" stroke="yellow" d="M2454.87,-576.03C2466.16,-556.49 2483.09,-533.72 2505.27,-521.87 2587.11,-478.14 2692.72,-474.65 2773.79,-480.99"/>
<polygon fill="yellow" stroke="yellow" points="2773.79,-484.51 2784.05,-481.86 2774.38,-477.53 2773.79,-484.51"/>
<text text-anchor="middle" x="2577.27" y="-525.67" font-family="Times New Roman,serif" font-size="14.00">55 EVENT_CLOSE</text>
</g>
<!-- 57 -->
<g id="node25" class="node">
<title>57</title>
<polygon fill="none" stroke="black" points="3123.62,-463.87 2766.03,-463.87 2674.04,-427.87 3031.63,-427.87 3123.62,-463.87"/>
<text text-anchor="middle" x="2898.83" y="-442.17" font-family="Times New Roman,serif" font-size="14.00">128.55.12.73&#45;22&#45;&gt;128.55.12.122&#45;44306</text>
</g>
<!-- 48&#45;&gt;57 -->
<g id="edge57" class="edge">
<title>48&#45;&gt;57</title>
<path fill="none" stroke="yellow" d="M2443.27,-576.09C2450.38,-540.76 2467.09,-487.69 2505.27,-461.87 2597.27,-399.68 2731.02,-410.12 2816.21,-425.96"/>
<polygon fill="yellow" stroke="yellow" points="2815.61,-429.41 2826.09,-427.86 2816.94,-422.54 2815.61,-429.41"/>
<text text-anchor="middle" x="2577.27" y="-465.67" font-family="Times New Roman,serif" font-size="14.00">56 EVENT_WRITE</text>
</g>
<!-- 50&#45;&gt;48 -->
<g id="edge51" class="edge">
<title>50&#45;&gt;48</title>
<path fill="none" stroke="yellow" d="M2817.94,-668.84C2745.68,-652.54 2650.35,-631.04 2649.27,-630.87 2591.86,-621.72 2524.96,-616.25 2482.14,-613.4"/>
<polygon fill="yellow" stroke="yellow" points="2482.26,-609.9 2472.05,-612.75 2481.81,-616.89 2482.26,-609.9"/>
<text text-anchor="middle" x="2577.27" y="-634.67" font-family="Times New Roman,serif" font-size="14.00">50 EVENT_RECVFROM</text>
</g>
</g>
</svg>
