<?xml version="1.0" encoding="UTF-8" standalone="no"?>
<!DOCTYPE svg PUBLIC "-//W3C//DTD SVG 1.1//EN"
 "http://www.w3.org/Graphics/SVG/1.1/DTD/svg11.dtd">
<!-- Generated by graphviz version 2.50.0 (0)
 -->
<!-- Title: case1_tmp_split_1 Pages: 1 -->
<svg width="2238pt" height="930pt"
 viewBox="0.00 0.00 2237.70 929.65" xmlns="http://www.w3.org/2000/svg" xmlns:xlink="http://www.w3.org/1999/xlink">
<g id="graph0" class="graph" transform="scale(1 1) rotate(0) translate(4 925.65)">
<title>case1_tmp_split_1</title>
<polygon fill="white" stroke="transparent" points="-4,4 -4,-925.65 2233.7,-925.65 2233.7,4 -4,4"/>
<!-- 0 -->
<g id="node1" class="node">
<title>0</title>
<polygon fill="none" stroke="black" points="449.68,-581.65 92.09,-581.65 0.11,-545.65 357.69,-545.65 449.68,-581.65"/>
<text text-anchor="middle" x="224.89" y="-559.95" font-family="Times New Roman,serif" font-size="14.00">128.55.12.73&#45;80&#45;&gt;81.49.200.166&#45;44623</text>
</g>
<!-- 1 -->
<g id="node2" class="node">
<title>1</title>
<polygon fill="none" stroke="black" points="703.79,-604.15 622.79,-604.15 622.79,-523.15 703.79,-523.15 703.79,-604.15"/>
<text text-anchor="middle" x="663.29" y="-559.95" font-family="Times New Roman,serif" font-size="14.00">59764nginx</text>
</g>
<!-- 0&#45;&gt;1 -->
<g id="edge1" class="edge">
<title>0&#45;&gt;1</title>
<path fill="none" stroke="Red" d="M369.49,-581.67C440.56,-587.56 527.49,-590.2 604.79,-579.65 607.44,-579.29 610.14,-578.84 612.86,-578.32"/>
<polygon fill="Red" stroke="Red" points="613.65,-581.73 622.68,-576.18 612.16,-574.89 613.65,-581.73"/>
<text text-anchor="middle" x="536.29" y="-590.45" font-family="Times New Roman,serif" font-size="14.00">0 EVENT_RECVFROM</text>
</g>
<!-- 1&#45;&gt;0 -->
<g id="edge2" class="edge">
<title>1&#45;&gt;0</title>
<path fill="none" stroke="Red" d="M622.71,-561.31C616.7,-561.04 610.58,-560.8 604.79,-560.65 539.4,-558.95 467.65,-559.02 404.34,-559.74"/>
<polygon fill="Red" stroke="Red" points="404.21,-556.25 394.25,-559.87 404.3,-563.24 404.21,-556.25"/>
<text text-anchor="middle" x="536.29" y="-564.45" font-family="Times New Roman,serif" font-size="14.00">1 EVENT_WRITE</text>
</g>
<!-- 1&#45;&gt;0 -->
<g id="edge3" class="edge">
<title>1&#45;&gt;0</title>
<path fill="none" stroke="Red" d="M622.66,-545.56C616.78,-543.53 610.7,-541.79 604.79,-540.65 511.58,-522.7 403.32,-532.23 326.44,-544"/>
<polygon fill="Red" stroke="Red" points="325.62,-540.59 316.28,-545.6 326.7,-547.5 325.62,-540.59"/>
<text text-anchor="middle" x="536.29" y="-544.45" font-family="Times New Roman,serif" font-size="14.00">2 EVENT_CLOSE</text>
</g>
<!-- 4 -->
<g id="node3" class="node">
<title>4</title>
<polygon fill="none" stroke="black" points="1333.14,-864.65 975.55,-864.65 883.56,-828.65 1241.15,-828.65 1333.14,-864.65"/>
<text text-anchor="middle" x="1108.35" y="-842.95" font-family="Times New Roman,serif" font-size="14.00">128.55.12.73&#45;54698&#45;&gt;78.205.235.65&#45;80</text>
</g>
<!-- 1&#45;&gt;4 -->
<g id="edge4" class="edge">
<title>1&#45;&gt;4</title>
<path fill="none" stroke="Red" d="M665.94,-604.31C669.88,-678.3 682.66,-830.33 721.79,-862.65 816.84,-941.16 974.46,-898.54 1055.59,-868.36"/>
<polygon fill="Red" stroke="Red" points="1056.99,-871.57 1065.1,-864.75 1054.5,-865.02 1056.99,-871.57"/>
<text text-anchor="middle" x="790.29" y="-910.45" font-family="Times New Roman,serif" font-size="14.00">3 EVENT_CONNECT</text>
</g>
<!-- 1&#45;&gt;4 -->
<g id="edge5" class="edge">
<title>1&#45;&gt;4</title>
<path fill="none" stroke="Red" d="M667.37,-604.18C673.3,-670.22 688.76,-796.52 721.79,-824.65 729.47,-831.19 815.15,-836.44 903.8,-840.18"/>
<polygon fill="Red" stroke="Red" points="903.92,-843.68 914.06,-840.6 904.21,-836.69 903.92,-843.68"/>
<text text-anchor="middle" x="790.29" y="-841.45" font-family="Times New Roman,serif" font-size="14.00">4 EVENT_SENDTO</text>
</g>
<!-- 7 -->
<g id="node4" class="node">
<title>7</title>
<polygon fill="none" stroke="black" points="1339.98,-731.65 971.51,-731.65 876.72,-695.65 1245.19,-695.65 1339.98,-731.65"/>
<text text-anchor="middle" x="1108.35" y="-709.95" font-family="Times New Roman,serif" font-size="14.00">128.55.12.73&#45;38265&#45;&gt;200.36.109.214&#45;80</text>
</g>
<!-- 1&#45;&gt;7 -->
<g id="edge7" class="edge">
<title>1&#45;&gt;7</title>
<path fill="none" stroke="Red" d="M663.96,-604.29C666.06,-647.99 676.96,-715.64 721.79,-748.65 768.1,-782.75 924.77,-755.62 1023.58,-733.89"/>
<polygon fill="Red" stroke="Red" points="1024.54,-737.26 1033.55,-731.67 1023.02,-730.42 1024.54,-737.26"/>
<text text-anchor="middle" x="790.29" y="-768.45" font-family="Times New Roman,serif" font-size="14.00">6 EVENT_CONNECT</text>
</g>
<!-- 1&#45;&gt;7 -->
<g id="edge8" class="edge">
<title>1&#45;&gt;7</title>
<path fill="none" stroke="Red" d="M667.95,-604.35C673.46,-639.01 687.25,-686.88 721.79,-710.65 739.74,-723.01 839.24,-723.57 932.66,-721.14"/>
<polygon fill="Red" stroke="Red" points="932.94,-724.63 942.84,-720.86 932.75,-717.63 932.94,-724.63"/>
<text text-anchor="middle" x="790.29" y="-725.45" font-family="Times New Roman,serif" font-size="14.00">7 EVENT_SENDTO</text>
</g>
<!-- 1&#45;&gt;7 -->
<g id="edge10" class="edge">
<title>1&#45;&gt;7</title>
<path fill="none" stroke="Red" d="M675.14,-604.17C683.74,-628.1 698.32,-656.75 721.79,-672.65 726.12,-675.59 817.38,-685.36 910.02,-694.63"/>
<polygon fill="Red" stroke="Red" points="909.85,-698.13 920.15,-695.64 910.54,-691.16 909.85,-698.13"/>
<text text-anchor="middle" x="790.29" y="-691.45" font-family="Times New Roman,serif" font-size="14.00">9 EVENT_CLOSE</text>
</g>
<!-- 11 -->
<g id="node5" class="node">
<title>11</title>
<polygon fill="none" stroke="black" points="1333.14,-630.65 975.55,-630.65 883.56,-594.65 1241.15,-594.65 1333.14,-630.65"/>
<text text-anchor="middle" x="1108.35" y="-608.95" font-family="Times New Roman,serif" font-size="14.00">128.55.12.73&#45;80&#45;&gt;81.49.200.166&#45;43530</text>
</g>
<!-- 1&#45;&gt;11 -->
<g id="edge11" class="edge">
<title>1&#45;&gt;11</title>
<path fill="none" stroke="Red" d="M704.04,-589.64C709.81,-592.46 715.82,-594.93 721.79,-596.65 759.13,-607.44 841.84,-611.73 921.11,-613.21"/>
<polygon fill="Red" stroke="Red" points="921.2,-616.71 931.26,-613.38 921.32,-609.71 921.2,-616.71"/>
<text text-anchor="middle" x="790.29" y="-614.45" font-family="Times New Roman,serif" font-size="14.00">10 EVENT_WRITE</text>
</g>
<!-- 1&#45;&gt;11 -->
<g id="edge12" class="edge">
<title>1&#45;&gt;11</title>
<path fill="none" stroke="Red" d="M703.84,-565.71C743.19,-567.94 805.26,-571.96 858.79,-577.65 898.57,-581.88 941.78,-587.57 980.85,-593.14"/>
<polygon fill="Red" stroke="Red" points="980.82,-596.67 991.22,-594.63 981.81,-589.74 980.82,-596.67"/>
<text text-anchor="middle" x="790.29" y="-581.45" font-family="Times New Roman,serif" font-size="14.00">11 EVENT_CLOSE</text>
</g>
<!-- 13 -->
<g id="node6" class="node">
<title>13</title>
<ellipse fill="none" stroke="black" cx="2004.81" cy="-469.65" rx="51.99" ry="18"/>
<text text-anchor="middle" x="2004.81" y="-465.95" font-family="Times New Roman,serif" font-size="14.00">/etc/passwd</text>
</g>
<!-- 1&#45;&gt;13 -->
<g id="edge13" class="edge">
<title>1&#45;&gt;13</title>
<path fill="none" stroke="Blue" d="M704.01,-563.25C888.34,-561.32 1655.86,-552.4 1761.92,-536.65 1831.88,-526.26 1910.37,-502.11 1958.45,-485.83"/>
<polygon fill="Blue" stroke="Blue" points="1959.61,-489.13 1967.94,-482.58 1957.34,-482.51 1959.61,-489.13"/>
<text text-anchor="middle" x="1422.92" y="-557.45" font-family="Times New Roman,serif" font-size="14.00">12 EVENT_OPEN</text>
</g>
<!-- 1&#45;&gt;13 -->
<g id="edge15" class="edge">
<title>1&#45;&gt;13</title>
<path fill="none" stroke="Blue" d="M703.86,-559.32C709.86,-558.72 715.99,-558.15 721.79,-557.65 1183.41,-518.27 1299.83,-522.12 1761.92,-488.65 1823.89,-484.16 1894.76,-478.54 1943.69,-474.58"/>
<polygon fill="Blue" stroke="Blue" points="1944.1,-478.05 1953.79,-473.76 1943.54,-471.08 1944.1,-478.05"/>
<text text-anchor="middle" x="1422.92" y="-518.45" font-family="Times New Roman,serif" font-size="14.00">14 EVENT_CLOSE</text>
</g>
<!-- 16 -->
<g id="node7" class="node">
<title>16</title>
<ellipse fill="none" stroke="black" cx="1108.35" cy="-315.65" rx="46.29" ry="18"/>
<text text-anchor="middle" x="1108.35" y="-311.95" font-family="Times New Roman,serif" font-size="14.00">/etc/group</text>
</g>
<!-- 1&#45;&gt;16 -->
<g id="edge16" class="edge">
<title>1&#45;&gt;16</title>
<path fill="none" stroke="Blue" d="M670.14,-522.77C678.76,-468.77 696.6,-377.99 721.79,-356.65 734.23,-346.11 948.89,-328.02 1052.4,-319.86"/>
<polygon fill="Blue" stroke="Blue" points="1052.96,-323.33 1062.66,-319.06 1052.42,-316.35 1052.96,-323.33"/>
<text text-anchor="middle" x="790.29" y="-360.45" font-family="Times New Roman,serif" font-size="14.00">15 EVENT_OPEN</text>
</g>
<!-- 1&#45;&gt;16 -->
<g id="edge18" class="edge">
<title>1&#45;&gt;16</title>
<path fill="none" stroke="Blue" d="M667.84,-523.13C674.29,-460.27 690.25,-343.84 721.79,-318.65 771.63,-278.83 960.99,-296.64 1054.48,-308.34"/>
<polygon fill="Blue" stroke="Blue" points="1054.22,-311.84 1064.58,-309.63 1055.1,-304.89 1054.22,-311.84"/>
<text text-anchor="middle" x="790.29" y="-322.45" font-family="Times New Roman,serif" font-size="14.00">17 EVENT_CLOSE</text>
</g>
<!-- 19 -->
<g id="node8" class="node">
<title>19</title>
<ellipse fill="none" stroke="black" cx="1108.35" cy="-410.65" rx="57.69" ry="18"/>
<text text-anchor="middle" x="1108.35" y="-406.95" font-family="Times New Roman,serif" font-size="14.00">/tmp/vUgefal</text>
</g>
<!-- 1&#45;&gt;19 -->
<g id="edge19" class="edge">
<title>1&#45;&gt;19</title>
<path fill="none" stroke="Black" d="M679.2,-523.05C688.47,-503.52 702.38,-481.59 721.79,-468.65 728.48,-464.19 937.88,-434.37 1045.22,-419.31"/>
<polygon fill="Black" stroke="Black" points="1045.86,-422.76 1055.27,-417.9 1044.89,-415.82 1045.86,-422.76"/>
<text text-anchor="middle" x="790.29" y="-472.45" font-family="Times New Roman,serif" font-size="14.00">18 EVENT_OPEN</text>
</g>
<!-- 1&#45;&gt;19 -->
<g id="edge20" class="edge">
<title>1&#45;&gt;19</title>
<path fill="none" stroke="Black" d="M669.89,-523.01C676.54,-491.65 690.93,-450.1 721.79,-428.65 747.22,-410.98 936.94,-409.44 1040.44,-409.95"/>
<polygon fill="Black" stroke="Black" points="1040.47,-413.45 1050.49,-410.01 1040.51,-406.45 1040.47,-413.45"/>
<text text-anchor="middle" x="790.29" y="-432.45" font-family="Times New Roman,serif" font-size="14.00">19 EVENT_WRITE</text>
</g>
<!-- 1&#45;&gt;19 -->
<g id="edge21" class="edge">
<title>1&#45;&gt;19</title>
<path fill="none" stroke="Black" d="M665.33,-522.87C668.79,-482.59 681.03,-422.89 721.79,-393.65 772.54,-357.24 953.9,-382.89 1048.69,-399.51"/>
<polygon fill="Black" stroke="Black" points="1048.23,-402.98 1058.69,-401.28 1049.46,-396.09 1048.23,-402.98"/>
<text text-anchor="middle" x="790.29" y="-397.45" font-family="Times New Roman,serif" font-size="14.00">20 EVENT_CLOSE</text>
</g>
<!-- 4&#45;&gt;1 -->
<g id="edge6" class="edge">
<title>4&#45;&gt;1</title>
<path fill="none" stroke="Red" d="M998.78,-828.64C955.26,-821.45 904.65,-813.12 858.79,-805.65 828.35,-800.7 744.62,-804.38 721.79,-783.65 697.04,-761.18 679.87,-672.18 671.09,-614.5"/>
<polygon fill="Red" stroke="Red" points="674.53,-613.84 669.6,-604.47 667.6,-614.87 674.53,-613.84"/>
<text text-anchor="middle" x="790.29" y="-809.45" font-family="Times New Roman,serif" font-size="14.00">5 EVENT_RECVFROM</text>
</g>
<!-- 7&#45;&gt;1 -->
<g id="edge9" class="edge">
<title>7&#45;&gt;1</title>
<path fill="none" stroke="Red" d="M1029.08,-695.59C980.18,-684.42 915.88,-669.91 858.79,-657.65 798.03,-644.6 775.48,-660.95 721.79,-629.65 713.69,-624.93 706.15,-618.65 699.38,-611.84"/>
<polygon fill="Red" stroke="Red" points="701.72,-609.22 692.34,-604.29 696.6,-613.99 701.72,-609.22"/>
<text text-anchor="middle" x="790.29" y="-661.45" font-family="Times New Roman,serif" font-size="14.00">8 EVENT_RECVFROM</text>
</g>
<!-- 13&#45;&gt;1 -->
<g id="edge14" class="edge">
<title>13&#45;&gt;1</title>
<path fill="none" stroke="Blue" d="M1952.6,-470.33C1720.91,-473.55 779.6,-488.02 721.79,-511.65 718.04,-513.18 714.38,-515.07 710.84,-517.21"/>
<polygon fill="Blue" stroke="Blue" points="708.61,-514.49 702.29,-523 712.54,-520.29 708.61,-514.49"/>
<text text-anchor="middle" x="1422.92" y="-485.45" font-family="Times New Roman,serif" font-size="14.00">13 EVENT_READ</text>
</g>
<!-- 22 -->
<g id="node9" class="node">
<title>22</title>
<polygon fill="none" stroke="black" points="1599.92,-311.65 1505.92,-311.65 1505.92,-217.65 1599.92,-217.65 1599.92,-311.65"/>
<text text-anchor="middle" x="1552.92" y="-260.95" font-family="Times New Roman,serif" font-size="14.00">76833vUgefal</text>
</g>
<!-- 13&#45;&gt;22 -->
<g id="edge27" class="edge">
<title>13&#45;&gt;22</title>
<path fill="none" stroke="Green" d="M1962.97,-458.93C1915.08,-446.65 1833.17,-426.57 1761.92,-413.65 1730.16,-407.89 1644.14,-413.46 1617.92,-394.65 1593.52,-377.15 1577.96,-347.72 1568.3,-321.27"/>
<polygon fill="Green" stroke="Green" points="1571.57,-320.01 1565,-311.7 1564.95,-322.29 1571.57,-320.01"/>
<text text-anchor="middle" x="1689.92" y="-417.45" font-family="Times New Roman,serif" font-size="14.00">26 EVENT_READ</text>
</g>
<!-- 16&#45;&gt;1 -->
<g id="edge17" class="edge">
<title>16&#45;&gt;1</title>
<path fill="none" stroke="Blue" d="M1079.99,-301.31C1011.09,-267.4 828.34,-191.45 721.79,-278.65 686.3,-307.69 672.22,-439.09 667.04,-512.91"/>
<polygon fill="Blue" stroke="Blue" points="663.54,-512.71 666.36,-522.93 670.53,-513.18 663.54,-512.71"/>
<text text-anchor="middle" x="790.29" y="-282.45" font-family="Times New Roman,serif" font-size="14.00">16 EVENT_READ</text>
</g>
<!-- 19&#45;&gt;22 -->
<g id="edge22" class="edge">
<title>19&#45;&gt;22</title>
<path fill="none" stroke="Black" d="M1152.53,-398.83C1199.06,-385.88 1275.14,-364.09 1339.92,-342.65 1393.57,-324.89 1453.99,-302.41 1496.56,-286.15"/>
<polygon fill="Black" stroke="Black" points="1497.82,-289.42 1505.9,-282.57 1495.31,-282.88 1497.82,-289.42"/>
<text text-anchor="middle" x="1422.92" y="-339.45" font-family="Times New Roman,serif" font-size="14.00">21 EVENT_EXECUTE</text>
</g>
<!-- 22&#45;&gt;13 -->
<g id="edge26" class="edge">
<title>22&#45;&gt;13</title>
<path fill="none" stroke="Green" d="M1558.47,-311.84C1564.9,-350.77 1580.43,-404.08 1617.92,-432.65 1630.66,-442.36 1837.93,-458.1 1943.3,-465.52"/>
<polygon fill="Green" stroke="Green" points="1943.26,-469.03 1953.48,-466.23 1943.75,-462.04 1943.26,-469.03"/>
<text text-anchor="middle" x="1689.92" y="-455.45" font-family="Times New Roman,serif" font-size="14.00">25 EVENT_OPEN</text>
</g>
<!-- 22&#45;&gt;13 -->
<g id="edge28" class="edge">
<title>22&#45;&gt;13</title>
<path fill="none" stroke="Green" d="M1576.24,-311.82C1586.57,-328.64 1600.47,-346.02 1617.92,-356.65 1673.05,-390.23 1699.38,-359.62 1761.92,-375.65 1835.62,-394.54 1917.34,-429.41 1964.43,-450.96"/>
<polygon fill="Green" stroke="Green" points="1963.11,-454.2 1973.66,-455.21 1966.04,-447.85 1963.11,-454.2"/>
<text text-anchor="middle" x="1689.92" y="-379.45" font-family="Times New Roman,serif" font-size="14.00">27 EVENT_CLOSE</text>
</g>
<!-- 23 -->
<g id="node10" class="node">
<title>23</title>
<polygon fill="none" stroke="black" points="2229.6,-320.65 1872.01,-320.65 1780.02,-284.65 2137.61,-284.65 2229.6,-320.65"/>
<text text-anchor="middle" x="2004.81" y="-298.95" font-family="Times New Roman,serif" font-size="14.00">128.55.12.73&#45;19857&#45;&gt;139.123.0.113&#45;80</text>
</g>
<!-- 22&#45;&gt;23 -->
<g id="edge23" class="edge">
<title>22&#45;&gt;23</title>
<path fill="none" stroke="Orange" d="M1600.16,-309.65C1605.81,-313.28 1611.77,-316.4 1617.92,-318.65 1719.53,-355.79 1846.35,-339.76 1926.23,-322.83"/>
<polygon fill="Orange" stroke="Orange" points="1927.19,-326.2 1936.22,-320.65 1925.71,-319.36 1927.19,-326.2"/>
<text text-anchor="middle" x="1689.92" y="-345.45" font-family="Times New Roman,serif" font-size="14.00">22 EVENT_CONNECT</text>
</g>
<!-- 22&#45;&gt;23 -->
<g id="edge24" class="edge">
<title>22&#45;&gt;23</title>
<path fill="none" stroke="Orange" d="M1600.2,-277.31C1606.13,-278.61 1612.14,-279.77 1617.92,-280.65 1678.87,-289.92 1745.79,-295.37 1806.53,-298.55"/>
<polygon fill="Orange" stroke="Orange" points="1806.45,-302.05 1816.61,-299.06 1806.8,-295.06 1806.45,-302.05"/>
<text text-anchor="middle" x="1689.92" y="-299.45" font-family="Times New Roman,serif" font-size="14.00">23 EVENT_SENDTO</text>
</g>
<!-- 29 -->
<g id="node11" class="node">
<title>29</title>
<polygon fill="none" stroke="black" points="2229.6,-206.65 1872.01,-206.65 1780.02,-170.65 2137.61,-170.65 2229.6,-206.65"/>
<text text-anchor="middle" x="2004.81" y="-184.95" font-family="Times New Roman,serif" font-size="14.00">128.55.12.73&#45;17330&#45;&gt;61.167.39.128&#45;80</text>
</g>
<!-- 22&#45;&gt;29 -->
<g id="edge29" class="edge">
<title>22&#45;&gt;29</title>
<path fill="none" stroke="yellow" d="M1600.02,-245.97C1605.98,-243.97 1612.05,-242.13 1617.92,-240.65 1691.81,-222.07 1775.43,-209.77 1845.9,-201.82"/>
<polygon fill="yellow" stroke="yellow" points="1846.64,-205.26 1856.2,-200.68 1845.87,-198.3 1846.64,-205.26"/>
<text text-anchor="middle" x="1689.92" y="-244.45" font-family="Times New Roman,serif" font-size="14.00">28 EVENT_CONNECT</text>
</g>
<!-- 22&#45;&gt;29 -->
<g id="edge30" class="edge">
<title>22&#45;&gt;29</title>
<path fill="none" stroke="yellow" d="M1587.88,-217.45C1596.6,-208.65 1606.73,-200.65 1617.92,-195.65 1649.46,-181.54 1718.24,-177.67 1789.12,-178.07"/>
<polygon fill="yellow" stroke="yellow" points="1789.1,-181.57 1799.13,-178.15 1789.16,-174.57 1789.1,-181.57"/>
<text text-anchor="middle" x="1689.92" y="-199.45" font-family="Times New Roman,serif" font-size="14.00">29 EVENT_SENDTO</text>
</g>
<!-- 22&#45;&gt;29 -->
<g id="edge31" class="edge">
<title>22&#45;&gt;29</title>
<path fill="none" stroke="yellow" d="M1570.13,-217.58C1580.25,-195.85 1595.67,-172.14 1617.92,-159.65 1665.21,-133.09 1806.34,-151.57 1904.14,-168.84"/>
<polygon fill="yellow" stroke="yellow" points="1903.59,-172.3 1914.05,-170.61 1904.82,-165.41 1903.59,-172.3"/>
<text text-anchor="middle" x="1689.92" y="-163.45" font-family="Times New Roman,serif" font-size="14.00">30 EVENT_CLOSE</text>
</g>
<!-- 32 -->
<g id="node12" class="node">
<title>32</title>
<ellipse fill="none" stroke="black" cx="2004.81" cy="-74.65" rx="57.39" ry="18"/>
<text text-anchor="middle" x="2004.81" y="-70.95" font-family="Times New Roman,serif" font-size="14.00">/var/log/devc</text>
</g>
<!-- 22&#45;&gt;32 -->
<g id="edge32" class="edge">
<title>22&#45;&gt;32</title>
<path fill="none" stroke="Indigo" d="M1563.68,-217.53C1572.55,-187 1588.86,-149.07 1617.92,-127.65 1643.27,-108.96 1836.08,-89.41 1939.2,-80.14"/>
<polygon fill="Indigo" stroke="Indigo" points="1939.55,-83.63 1949.19,-79.25 1938.92,-76.65 1939.55,-83.63"/>
<text text-anchor="middle" x="1689.92" y="-131.45" font-family="Times New Roman,serif" font-size="14.00">31 EVENT_OPEN</text>
</g>
<!-- 22&#45;&gt;32 -->
<g id="edge33" class="edge">
<title>22&#45;&gt;32</title>
<path fill="none" stroke="Indigo" d="M1555.92,-217.34C1560.56,-173.91 1574.88,-111.75 1617.92,-80.65 1667.82,-44.58 1844.99,-57.21 1940.95,-67.21"/>
<polygon fill="Indigo" stroke="Indigo" points="1940.79,-70.71 1951.11,-68.29 1941.53,-63.75 1940.79,-70.71"/>
<text text-anchor="middle" x="1689.92" y="-84.45" font-family="Times New Roman,serif" font-size="14.00">32 EVENT_WRITE</text>
</g>
<!-- 22&#45;&gt;32 -->
<g id="edge34" class="edge">
<title>22&#45;&gt;32</title>
<path fill="none" stroke="Indigo" d="M1560.53,-217.56C1570,-157.88 1589.45,-60.17 1617.92,-38.65 1721.75,39.87 1889.05,-20.86 1964.58,-55.21"/>
<polygon fill="Indigo" stroke="Indigo" points="1963.21,-58.43 1973.75,-59.46 1966.15,-52.08 1963.21,-58.43"/>
<text text-anchor="middle" x="1689.92" y="-42.45" font-family="Times New Roman,serif" font-size="14.00">33 EVENT_CLOSE</text>
</g>
<!-- 23&#45;&gt;22 -->
<g id="edge25" class="edge">
<title>23&#45;&gt;22</title>
<path fill="none" stroke="Orange" d="M1918.61,-284.61C1872.47,-275.76 1814.33,-266.06 1761.92,-261.65 1698.14,-256.28 1681.9,-260.15 1617.92,-261.65 1615.39,-261.71 1612.8,-261.78 1610.19,-261.86"/>
<polygon fill="Orange" stroke="Orange" points="1609.92,-258.37 1600.05,-262.23 1610.17,-265.37 1609.92,-258.37"/>
<text text-anchor="middle" x="1689.92" y="-265.45" font-family="Times New Roman,serif" font-size="14.00">24 EVENT_RECVFROM</text>
</g>
</g>
</svg>
