<?xml version="1.0" encoding="UTF-8" standalone="no"?>
<!DOCTYPE svg PUBLIC "-//W3C//DTD SVG 1.1//EN"
 "http://www.w3.org/Graphics/SVG/1.1/DTD/svg11.dtd">
<!-- Generated by graphviz version 10.0.1 (20240210.2158)
 -->
<!-- Title: att Pages: 1 -->
<svg width="3194pt" height="1336pt"
 viewBox="0.00 0.00 3193.71 1336.46" xmlns="http://www.w3.org/2000/svg" xmlns:xlink="http://www.w3.org/1999/xlink">
<g id="graph0" class="graph" transform="scale(1 1) rotate(0) translate(4 1332.46)">
<title>att</title>
<polygon fill="white" stroke="none" points="-4,4 -4,-1332.46 3189.71,-1332.46 3189.71,4 -4,4"/>
<!-- 0 -->
<g id="node1" class="node">
<title>0</title>
<polygon fill="none" stroke="black" points="459.95,-420.71 94.11,-420.71 0,-384.71 365.84,-384.71 459.95,-420.71"/>
<text text-anchor="middle" x="229.97" y="-397.28" font-family="Times New Roman,serif" font-size="14.00">128.55.12.73&#45;80&#45;&gt;25.159.96.207&#45;45203</text>
</g>
<!-- 1 -->
<g id="node2" class="node">
<title>1</title>
<polygon fill="none" stroke="black" points="703.2,-435.83 636.95,-435.83 636.95,-369.58 703.2,-369.58 703.2,-435.83"/>
<text text-anchor="middle" x="670.07" y="-397.28" font-family="Times New Roman,serif" font-size="14.00">892nginx</text>
</g>
<!-- 0&#45;&gt;1 -->
<g id="edge1" class="edge">
<title>0&#45;&gt;1</title>
<path fill="none" stroke="red" d="M355.81,-421.19C432.25,-429.29 531.8,-434.08 618.95,-419.71 621.12,-419.35 623.33,-418.91 625.55,-418.4"/>
<polygon fill="red" stroke="red" points="626.36,-421.81 635.11,-415.83 624.54,-415.05 626.36,-421.81"/>
<text text-anchor="middle" x="548.45" y="-431.16" font-family="Times New Roman,serif" font-size="14.00">0 EVENT_RECVFROM</text>
</g>
<!-- 1&#45;&gt;0 -->
<g id="edge2" class="edge">
<title>1&#45;&gt;0</title>
<path fill="none" stroke="red" d="M636.46,-400.66C630.63,-400.37 624.61,-400.11 618.95,-399.96 552.73,-398.14 480.13,-398.13 415.83,-398.8"/>
<polygon fill="red" stroke="red" points="415.81,-395.3 405.85,-398.91 415.89,-402.3 415.81,-395.3"/>
<text text-anchor="middle" x="548.45" y="-403.16" font-family="Times New Roman,serif" font-size="14.00">1 EVENT_WRITE</text>
</g>
<!-- 1&#45;&gt;0 -->
<g id="edge3" class="edge">
<title>1&#45;&gt;0</title>
<path fill="none" stroke="red" d="M636.65,-384.83C630.91,-382.4 624.87,-380.29 618.95,-378.96 520.54,-356.82 404.79,-368.63 325.49,-382.29"/>
<polygon fill="red" stroke="red" points="325.27,-378.78 316.04,-383.97 326.49,-385.67 325.27,-378.78"/>
<text text-anchor="middle" x="548.45" y="-382.16" font-family="Times New Roman,serif" font-size="14.00">2 EVENT_CLOSE</text>
</g>
<!-- 2 -->
<g id="node3" class="node">
<title>2</title>
<polygon fill="none" stroke="black" points="1326.97,-1266.71 971.61,-1266.71 880.2,-1230.71 1235.56,-1230.71 1326.97,-1266.71"/>
<text text-anchor="middle" x="1103.59" y="-1243.28" font-family="Times New Roman,serif" font-size="14.00">128.55.12.73&#45;46517&#45;&gt;76.56.184.25&#45;80</text>
</g>
<!-- 1&#45;&gt;2 -->
<g id="edge4" class="edge">
<title>1&#45;&gt;2</title>
<path fill="none" stroke="blue" d="M671.74,-436.07C675.02,-591.33 690.48,-1236.72 721.2,-1265.71 810.35,-1349.83 969.75,-1303.53 1051.36,-1271.35"/>
<polygon fill="blue" stroke="blue" points="1052.5,-1274.67 1060.46,-1267.68 1049.88,-1268.17 1052.5,-1274.67"/>
<text text-anchor="middle" x="791.7" y="-1315.16" font-family="Times New Roman,serif" font-size="14.00">3 EVENT_CONNECT</text>
</g>
<!-- 1&#45;&gt;2 -->
<g id="edge5" class="edge">
<title>1&#45;&gt;2</title>
<path fill="none" stroke="blue" d="M671.88,-436.28C675.68,-587.39 692.74,-1198.34 721.2,-1226.71 728.21,-1233.7 811.8,-1238.96 898.93,-1242.58"/>
<polygon fill="blue" stroke="blue" points="898.76,-1246.08 908.89,-1242.98 899.04,-1239.08 898.76,-1246.08"/>
<text text-anchor="middle" x="791.7" y="-1243.16" font-family="Times New Roman,serif" font-size="14.00">4 EVENT_SENDTO</text>
</g>
<!-- 3 -->
<g id="node4" class="node">
<title>3</title>
<ellipse fill="none" stroke="black" cx="2025.03" cy="-1103.71" rx="55.06" ry="18"/>
<text text-anchor="middle" x="2025.03" y="-1098.28" font-family="Times New Roman,serif" font-size="14.00">/etc/passwd</text>
</g>
<!-- 1&#45;&gt;3 -->
<g id="edge7" class="edge">
<title>1&#45;&gt;3</title>
<path fill="none" stroke="black" d="M670.68,-436.05C669.38,-575.7 667.96,-1108.64 721.2,-1158.71 763.66,-1198.64 1712.55,-1165.22 1770.47,-1158.71 1840.8,-1150.8 1920.31,-1131.88 1971.25,-1118.45"/>
<polygon fill="black" stroke="black" points="1972.07,-1121.85 1980.83,-1115.89 1970.27,-1115.09 1972.07,-1121.85"/>
<text text-anchor="middle" x="1411.35" y="-1176.16" font-family="Times New Roman,serif" font-size="14.00">6 EVENT_OPEN</text>
</g>
<!-- 1&#45;&gt;3 -->
<g id="edge9" class="edge">
<title>1&#45;&gt;3</title>
<path fill="none" stroke="black" d="M672.9,-436.13C676.72,-488.1 688.12,-590.65 721.2,-670.71 769.08,-786.57 781.91,-825.87 880.2,-903.71 1200.06,-1157.01 1362.92,-1146.95 1770.47,-1127.71 1835.97,-1124.61 1910.66,-1117.05 1961.92,-1111.24"/>
<polygon fill="black" stroke="black" points="1962.1,-1114.74 1971.63,-1110.12 1961.3,-1107.78 1962.1,-1114.74"/>
<text text-anchor="middle" x="1411.35" y="-1138.16" font-family="Times New Roman,serif" font-size="14.00">8 EVENT_CLOSE</text>
</g>
<!-- 4 -->
<g id="node5" class="node">
<title>4</title>
<ellipse fill="none" stroke="black" cx="1103.59" cy="-305.71" rx="45.08" ry="18"/>
<text text-anchor="middle" x="1103.59" y="-300.28" font-family="Times New Roman,serif" font-size="14.00">/tmp/font</text>
</g>
<!-- 1&#45;&gt;4 -->
<g id="edge10" class="edge">
<title>1&#45;&gt;4</title>
<path fill="none" stroke="yellow" d="M694.69,-369.27C702.21,-360.98 711.2,-353.03 721.2,-347.96 749.62,-333.52 948.78,-317.05 1047.45,-309.66"/>
<polygon fill="yellow" stroke="yellow" points="1047.45,-313.17 1057.17,-308.94 1046.94,-306.19 1047.45,-313.17"/>
<text text-anchor="middle" x="791.7" y="-351.16" font-family="Times New Roman,serif" font-size="14.00">9 EVENT_OPEN</text>
</g>
<!-- 1&#45;&gt;4 -->
<g id="edge11" class="edge">
<title>1&#45;&gt;4</title>
<path fill="none" stroke="yellow" d="M678.94,-369.47C686.04,-347.56 698.91,-320.5 721.2,-306.96 774.65,-274.48 956.91,-289.26 1048.76,-299.23"/>
<polygon fill="yellow" stroke="yellow" points="1048.2,-302.69 1058.53,-300.31 1048.97,-295.73 1048.2,-302.69"/>
<text text-anchor="middle" x="791.7" y="-310.16" font-family="Times New Roman,serif" font-size="14.00">10 EVENT_WRITE</text>
</g>
<!-- 1&#45;&gt;4 -->
<g id="edge12" class="edge">
<title>1&#45;&gt;4</title>
<path fill="none" stroke="yellow" d="M673.17,-369.08C677.16,-337.1 688.61,-290.61 721.2,-267.96 773.86,-231.36 963.44,-271.28 1053.9,-293.23"/>
<polygon fill="yellow" stroke="yellow" points="1052.93,-296.6 1063.47,-295.58 1054.59,-289.8 1052.93,-296.6"/>
<text text-anchor="middle" x="791.7" y="-271.16" font-family="Times New Roman,serif" font-size="14.00">11 EVENT_CLOSE</text>
</g>
<!-- 5 -->
<g id="node6" class="node">
<title>5</title>
<ellipse fill="none" stroke="black" cx="2025.03" cy="-423.71" rx="48.57" ry="18"/>
<text text-anchor="middle" x="2025.03" y="-418.28" font-family="Times New Roman,serif" font-size="14.00">/etc/group</text>
</g>
<!-- 1&#45;&gt;5 -->
<g id="edge13" class="edge">
<title>1&#45;&gt;5</title>
<path fill="none" stroke="black" d="M703.53,-410.86C709.38,-412.04 715.44,-413.06 721.2,-413.71 779.13,-420.18 1712.18,-420.17 1770.47,-420.71 1837.18,-421.32 1913.76,-422.26 1965.15,-422.92"/>
<polygon fill="black" stroke="black" points="1964.81,-426.42 1974.85,-423.05 1964.9,-419.42 1964.81,-426.42"/>
<text text-anchor="middle" x="1411.35" y="-422.16" font-family="Times New Roman,serif" font-size="14.00">12 EVENT_OPEN</text>
</g>
<!-- 1&#45;&gt;5 -->
<g id="edge15" class="edge">
<title>1&#45;&gt;5</title>
<path fill="none" stroke="black" d="M703.35,-402.01C812.34,-399.8 1176.7,-393.42 1477.72,-399.96 1655.3,-403.81 1865.11,-414.72 1965.19,-420.31"/>
<polygon fill="black" stroke="black" points="1964.86,-423.8 1975.05,-420.86 1965.26,-416.81 1964.86,-423.8"/>
<text text-anchor="middle" x="1411.35" y="-403.16" font-family="Times New Roman,serif" font-size="14.00">14 EVENT_CLOSE</text>
</g>
<!-- 6 -->
<g id="node7" class="node">
<title>6</title>
<ellipse fill="none" stroke="black" cx="1103.59" cy="-190.71" rx="48.07" ry="18"/>
<text text-anchor="middle" x="1103.59" y="-185.28" font-family="Times New Roman,serif" font-size="14.00">/tmp/grain</text>
</g>
<!-- 1&#45;&gt;6 -->
<g id="edge16" class="edge">
<title>1&#45;&gt;6</title>
<path fill="none" stroke="yellow" d="M670.77,-369.32C672.39,-330.42 681.49,-267.23 721.2,-233.96 733.44,-223.69 941.44,-204.53 1044.98,-195.57"/>
<polygon fill="yellow" stroke="yellow" points="1045,-199.08 1054.66,-194.73 1044.4,-192.1 1045,-199.08"/>
<text text-anchor="middle" x="791.7" y="-237.16" font-family="Times New Roman,serif" font-size="14.00">15 EVENT_OPEN</text>
</g>
<!-- 1&#45;&gt;6 -->
<g id="edge17" class="edge">
<title>1&#45;&gt;6</title>
<path fill="none" stroke="yellow" d="M674.21,-369.42C679.98,-316.38 694.21,-216.45 721.2,-194.96 769.92,-156.15 953.04,-172.09 1046.69,-183.27"/>
<polygon fill="yellow" stroke="yellow" points="1046.07,-186.72 1056.42,-184.45 1046.91,-179.77 1046.07,-186.72"/>
<text text-anchor="middle" x="791.7" y="-198.16" font-family="Times New Roman,serif" font-size="14.00">16 EVENT_WRITE</text>
</g>
<!-- 1&#45;&gt;6 -->
<g id="edge18" class="edge">
<title>1&#45;&gt;6</title>
<path fill="none" stroke="yellow" d="M672.64,-369.43C676.34,-307.47 687.95,-178.24 721.2,-150.96 770.79,-110.27 961.84,-153.36 1053.27,-177.16"/>
<polygon fill="yellow" stroke="yellow" points="1052.15,-180.48 1062.71,-179.64 1053.93,-173.71 1052.15,-180.48"/>
<text text-anchor="middle" x="791.7" y="-154.16" font-family="Times New Roman,serif" font-size="14.00">17 EVENT_CLOSE</text>
</g>
<!-- 8 -->
<g id="node9" class="node">
<title>8</title>
<ellipse fill="none" stroke="black" cx="1103.59" cy="-72.71" rx="59.05" ry="18"/>
<text text-anchor="middle" x="1103.59" y="-67.28" font-family="Times New Roman,serif" font-size="14.00">/tmp/minions</text>
</g>
<!-- 1&#45;&gt;8 -->
<g id="edge20" class="edge">
<title>1&#45;&gt;8</title>
<path fill="none" stroke="green" d="M672.04,-369.09C674.76,-300.74 684.84,-149.12 721.2,-114.96 732.47,-104.37 928.14,-86.9 1034.7,-78.12"/>
<polygon fill="green" stroke="green" points="1034.8,-81.62 1044.48,-77.31 1034.22,-74.64 1034.8,-81.62"/>
<text text-anchor="middle" x="791.7" y="-118.16" font-family="Times New Roman,serif" font-size="14.00">19 EVENT_OPEN</text>
</g>
<!-- 1&#45;&gt;8 -->
<g id="edge21" class="edge">
<title>1&#45;&gt;8</title>
<path fill="none" stroke="green" d="M670.95,-369.34C671.47,-293.7 677.36,-112.82 721.2,-74.96 744.23,-55.06 930.9,-62.58 1034.28,-68.4"/>
<polygon fill="green" stroke="green" points="1033.85,-71.88 1044.03,-68.96 1034.25,-64.89 1033.85,-71.88"/>
<text text-anchor="middle" x="791.7" y="-78.16" font-family="Times New Roman,serif" font-size="14.00">20 EVENT_WRITE</text>
</g>
<!-- 1&#45;&gt;8 -->
<g id="edge22" class="edge">
<title>1&#45;&gt;8</title>
<path fill="none" stroke="green" d="M670.43,-369.14C669.66,-288.06 672.74,-85.13 721.2,-42.96 817.49,40.85 984.19,-17.96 1061.28,-52.47"/>
<polygon fill="green" stroke="green" points="1059.62,-55.56 1070.17,-56.54 1062.53,-49.2 1059.62,-55.56"/>
<text text-anchor="middle" x="791.7" y="-46.16" font-family="Times New Roman,serif" font-size="14.00">21 EVENT_CLOSE</text>
</g>
<!-- 10 -->
<g id="node11" class="node">
<title>10</title>
<ellipse fill="none" stroke="black" cx="1103.59" cy="-517.71" rx="47.57" ry="18"/>
<text text-anchor="middle" x="1103.59" y="-512.28" font-family="Times New Roman,serif" font-size="14.00">/tmp/XIM</text>
</g>
<!-- 1&#45;&gt;10 -->
<g id="edge24" class="edge">
<title>1&#45;&gt;10</title>
<path fill="none" stroke="orange" d="M675.84,-436.29C681.6,-463.1 694.15,-499 721.2,-516.71 824.3,-584.19 979.04,-554.09 1055.87,-532.62"/>
<polygon fill="orange" stroke="orange" points="1056.52,-536.07 1065.17,-529.94 1054.59,-529.35 1056.52,-536.07"/>
<text text-anchor="middle" x="791.7" y="-559.16" font-family="Times New Roman,serif" font-size="14.00">23 EVENT_OPEN</text>
</g>
<!-- 1&#45;&gt;10 -->
<g id="edge25" class="edge">
<title>1&#45;&gt;10</title>
<path fill="none" stroke="orange" d="M685.27,-436.27C693.49,-451.48 705.38,-468.16 721.2,-477.71 734.87,-485.96 942.26,-504.31 1045.33,-512.99"/>
<polygon fill="orange" stroke="orange" points="1045,-516.47 1055.25,-513.82 1045.58,-509.49 1045,-516.47"/>
<text text-anchor="middle" x="791.7" y="-497.16" font-family="Times New Roman,serif" font-size="14.00">24 EVENT_WRITE</text>
</g>
<!-- 1&#45;&gt;10 -->
<g id="edge26" class="edge">
<title>1&#45;&gt;10</title>
<path fill="none" stroke="orange" d="M703.45,-429.34C709.1,-432.98 715.13,-436.29 721.2,-438.71 779.95,-462.12 800.08,-446.03 862.2,-457.96 929.06,-470.79 1005.15,-490.6 1053.49,-503.85"/>
<polygon fill="orange" stroke="orange" points="1052.53,-507.22 1063.11,-506.5 1054.4,-500.47 1052.53,-507.22"/>
<text text-anchor="middle" x="791.7" y="-460.16" font-family="Times New Roman,serif" font-size="14.00">25 EVENT_CLOSE</text>
</g>
<!-- 2&#45;&gt;1 -->
<g id="edge6" class="edge">
<title>2&#45;&gt;1</title>
<path fill="none" stroke="blue" d="M1000.96,-1230.22C958.18,-1222.65 907.82,-1214.03 862.2,-1206.96 830.95,-1202.11 742.74,-1210.86 721.2,-1187.71 670.66,-1133.39 669.8,-605.63 670.7,-447.35"/>
<polygon fill="blue" stroke="blue" points="674.19,-447.71 670.76,-437.69 667.2,-447.67 674.19,-447.71"/>
<text text-anchor="middle" x="791.7" y="-1209.16" font-family="Times New Roman,serif" font-size="14.00">5 EVENT_RECVFROM</text>
</g>
<!-- 3&#45;&gt;1 -->
<g id="edge8" class="edge">
<title>3&#45;&gt;1</title>
<path fill="none" stroke="black" d="M1975.39,-1111.96C1898.8,-1123.15 1746.11,-1138.18 1622.72,-1104.71 1174.58,-983.13 1006.16,-943.32 721.2,-576.71 692,-539.14 679.8,-485.18 674.71,-447.34"/>
<polygon fill="black" stroke="black" points="678.22,-447.15 673.54,-437.65 671.27,-448 678.22,-447.15"/>
<text text-anchor="middle" x="1411.35" y="-1065.16" font-family="Times New Roman,serif" font-size="14.00">7 EVENT_READ</text>
</g>
<!-- 13 -->
<g id="node14" class="node">
<title>13</title>
<polygon fill="none" stroke="black" points="1588.22,-872.71 1512.22,-872.71 1512.22,-796.71 1588.22,-796.71 1588.22,-872.71"/>
<text text-anchor="middle" x="1550.22" y="-829.28" font-family="Times New Roman,serif" font-size="14.00">20408XIM</text>
</g>
<!-- 3&#45;&gt;13 -->
<g id="edge38" class="edge">
<title>3&#45;&gt;13</title>
<path fill="none" stroke="Purple" d="M1970.43,-1100.34C1864.2,-1093.46 1636.03,-1077.51 1622.72,-1066.71 1568.46,-1022.66 1554.5,-938.32 1551.39,-884.38"/>
<polygon fill="Purple" stroke="Purple" points="1554.89,-884.37 1550.94,-874.54 1547.9,-884.69 1554.89,-884.37"/>
<text text-anchor="middle" x="1696.6" y="-1087.16" font-family="Times New Roman,serif" font-size="14.00">37 EVENT_READ</text>
</g>
<!-- 5&#45;&gt;1 -->
<g id="edge14" class="edge">
<title>5&#45;&gt;1</title>
<path fill="none" stroke="black" d="M1985.29,-413.12C1935.85,-400.07 1847.51,-378.35 1770.47,-367.71 1378.5,-313.56 1274.73,-345.37 880.2,-375.71 809.38,-381.15 791.33,-380.52 721.2,-391.71 719.05,-392.05 716.86,-392.43 714.65,-392.83"/>
<polygon fill="black" stroke="black" points="714.22,-389.35 705.08,-394.71 715.57,-396.21 714.22,-389.35"/>
<text text-anchor="middle" x="1411.35" y="-342.16" font-family="Times New Roman,serif" font-size="14.00">13 EVENT_READ</text>
</g>
<!-- 11 -->
<g id="node12" class="node">
<title>11</title>
<polygon fill="none" stroke="black" points="1588.22,-555.71 1512.22,-555.71 1512.22,-479.71 1588.22,-479.71 1588.22,-555.71"/>
<text text-anchor="middle" x="1550.22" y="-512.28" font-family="Times New Roman,serif" font-size="14.00">20367XIM</text>
</g>
<!-- 5&#45;&gt;11 -->
<g id="edge29" class="edge">
<title>5&#45;&gt;11</title>
<path fill="none" stroke="orange" d="M1978.75,-429.63C1877.35,-442.95 1639.54,-474.52 1622.72,-479.96 1614.64,-482.57 1606.39,-486.05 1598.5,-489.85"/>
<polygon fill="orange" stroke="orange" points="1597.06,-486.66 1589.72,-494.3 1600.22,-492.9 1597.06,-486.66"/>
<text text-anchor="middle" x="1696.6" y="-482.16" font-family="Times New Roman,serif" font-size="14.00">28 EVENT_READ</text>
</g>
<!-- 7 -->
<g id="node8" class="node">
<title>7</title>
<polygon fill="none" stroke="black" points="1604.72,-245.21 1495.72,-245.21 1495.72,-136.21 1604.72,-136.21 1604.72,-245.21"/>
<text text-anchor="middle" x="1550.22" y="-185.28" font-family="Times New Roman,serif" font-size="14.00">20026tmux&#45;1002</text>
</g>
<!-- 6&#45;&gt;7 -->
<g id="edge19" class="edge">
<title>6&#45;&gt;7</title>
<path fill="none" stroke="green" d="M1151.75,-190.71C1231.51,-190.71 1393.17,-190.71 1483.83,-190.71"/>
<polygon fill="green" stroke="green" points="1483.81,-194.21 1493.81,-190.71 1483.81,-187.21 1483.81,-194.21"/>
<text text-anchor="middle" x="1411.35" y="-193.16" font-family="Times New Roman,serif" font-size="14.00">18 EVENT_EXECUTE</text>
</g>
<!-- 9 -->
<g id="node10" class="node">
<title>9</title>
<polygon fill="none" stroke="black" points="1596.85,-118.33 1503.6,-118.33 1503.6,-25.08 1596.85,-25.08 1596.85,-118.33"/>
<text text-anchor="middle" x="1550.22" y="-66.28" font-family="Times New Roman,serif" font-size="14.00">20227minions</text>
</g>
<!-- 8&#45;&gt;9 -->
<g id="edge23" class="edge">
<title>8&#45;&gt;9</title>
<path fill="none" stroke="green" d="M1162.71,-72.58C1248.15,-72.38 1406.67,-72.03 1491.74,-71.84"/>
<polygon fill="green" stroke="green" points="1491.73,-75.34 1501.72,-71.81 1491.72,-68.34 1491.73,-75.34"/>
<text text-anchor="middle" x="1411.35" y="-75.16" font-family="Times New Roman,serif" font-size="14.00">22 EVENT_EXECUTE</text>
</g>
<!-- 10&#45;&gt;11 -->
<g id="edge27" class="edge">
<title>10&#45;&gt;11</title>
<path fill="none" stroke="orange" d="M1151.33,-517.71C1236.17,-517.71 1414.67,-517.71 1500.76,-517.71"/>
<polygon fill="orange" stroke="orange" points="1500.52,-521.21 1510.52,-517.71 1500.52,-514.21 1500.52,-521.21"/>
<text text-anchor="middle" x="1411.35" y="-520.16" font-family="Times New Roman,serif" font-size="14.00">26 EVENT_EXECUTE</text>
</g>
<!-- 10&#45;&gt;13 -->
<g id="edge33" class="edge">
<title>10&#45;&gt;13</title>
<path fill="none" stroke="gray" d="M1126.94,-533.64C1196.15,-582.99 1407.91,-733.96 1502.61,-801.47"/>
<polygon fill="gray" stroke="gray" points="1500.54,-804.29 1510.71,-807.25 1504.6,-798.59 1500.54,-804.29"/>
<text text-anchor="middle" x="1411.35" y="-783.16" font-family="Times New Roman,serif" font-size="14.00">32 EVENT_EXECUTE</text>
</g>
<!-- 11&#45;&gt;5 -->
<g id="edge28" class="edge">
<title>11&#45;&gt;5</title>
<path fill="none" stroke="orange" d="M1576.71,-479.47C1588.77,-464.69 1604.53,-449.34 1622.72,-440.96 1681.99,-413.64 1869.06,-417.05 1965.41,-420.85"/>
<polygon fill="orange" stroke="orange" points="1965.05,-424.34 1975.19,-421.25 1965.34,-417.35 1965.05,-424.34"/>
<text text-anchor="middle" x="1696.6" y="-443.16" font-family="Times New Roman,serif" font-size="14.00">27 EVENT_OPEN</text>
</g>
<!-- 11&#45;&gt;5 -->
<g id="edge30" class="edge">
<title>11&#45;&gt;5</title>
<path fill="none" stroke="orange" d="M1588.36,-515.98C1632.2,-513.49 1707.15,-507.78 1770.47,-495.71 1844.03,-481.69 1927.14,-456.18 1977.55,-439.59"/>
<polygon fill="orange" stroke="orange" points="1978.58,-442.94 1986.97,-436.46 1976.37,-436.29 1978.58,-442.94"/>
<text text-anchor="middle" x="1696.6" y="-515.16" font-family="Times New Roman,serif" font-size="14.00">29 EVENT_CLOSE</text>
</g>
<!-- 12 -->
<g id="node13" class="node">
<title>12</title>
<polygon fill="none" stroke="black" points="2261.59,-582.71 1885.28,-582.71 1788.47,-546.71 2164.79,-546.71 2261.59,-582.71"/>
<text text-anchor="middle" x="2025.03" y="-559.28" font-family="Times New Roman,serif" font-size="14.00">128.55.12.73&#45;60746&#45;&gt;53.158.101.118&#45;80</text>
</g>
<!-- 11&#45;&gt;12 -->
<g id="edge31" class="edge">
<title>11&#45;&gt;12</title>
<path fill="none" stroke="gray" d="M1588.48,-554.31C1598.77,-562.23 1610.5,-569.49 1622.72,-573.71 1666,-588.64 1770.58,-585.87 1862.12,-579.64"/>
<polygon fill="gray" stroke="gray" points="1862.26,-583.14 1871.99,-578.95 1861.77,-576.16 1862.26,-583.14"/>
<text text-anchor="middle" x="1696.6" y="-586.16" font-family="Times New Roman,serif" font-size="14.00">30 EVENT_CONNECT</text>
</g>
<!-- 11&#45;&gt;12 -->
<g id="edge32" class="edge">
<title>11&#45;&gt;12</title>
<path fill="none" stroke="gray" d="M1588.48,-527.75C1599.44,-530.38 1611.5,-532.96 1622.72,-534.71 1679.2,-543.47 1740.55,-549.7 1797.9,-554.12"/>
<polygon fill="gray" stroke="gray" points="1797.57,-557.6 1807.81,-554.86 1798.1,-550.62 1797.57,-557.6"/>
<text text-anchor="middle" x="1696.6" y="-553.16" font-family="Times New Roman,serif" font-size="14.00">31 EVENT_SENDTO</text>
</g>
<!-- 13&#45;&gt;3 -->
<g id="edge37" class="edge">
<title>13&#45;&gt;3</title>
<path fill="none" stroke="Purple" d="M1554.2,-873.17C1559.81,-917.6 1576,-989.45 1622.72,-1027.71 1674.16,-1069.82 1705.08,-1039.02 1770.47,-1050.96 1838.53,-1063.38 1916.37,-1079.93 1967.65,-1091.15"/>
<polygon fill="Purple" stroke="Purple" points="1966.82,-1094.55 1977.34,-1093.28 1968.32,-1087.71 1966.82,-1094.55"/>
<text text-anchor="middle" x="1696.6" y="-1053.16" font-family="Times New Roman,serif" font-size="14.00">36 EVENT_OPEN</text>
</g>
<!-- 13&#45;&gt;3 -->
<g id="edge39" class="edge">
<title>13&#45;&gt;3</title>
<path fill="none" stroke="Purple" d="M1558.92,-873.17C1567.99,-907.98 1586.65,-957.79 1622.72,-984.71 1676,-1024.46 1706.21,-990.96 1770.47,-1007.96 1846.76,-1028.13 1931.9,-1062.96 1981.57,-1084.59"/>
<polygon fill="Purple" stroke="Purple" points="1979.96,-1087.71 1990.52,-1088.52 1982.77,-1081.3 1979.96,-1087.71"/>
<text text-anchor="middle" x="1696.6" y="-1010.16" font-family="Times New Roman,serif" font-size="14.00">38 EVENT_CLOSE</text>
</g>
<!-- 14 -->
<g id="node15" class="node">
<title>14</title>
<polygon fill="none" stroke="black" points="2261.59,-950.71 1885.28,-950.71 1788.47,-914.71 2164.79,-914.71 2261.59,-950.71"/>
<text text-anchor="middle" x="2025.03" y="-927.28" font-family="Times New Roman,serif" font-size="14.00">128.55.12.73&#45;39242&#45;&gt;53.158.101.118&#45;80</text>
</g>
<!-- 13&#45;&gt;14 -->
<g id="edge34" class="edge">
<title>13&#45;&gt;14</title>
<path fill="none" stroke="gray" d="M1563.77,-873.16C1574.74,-899.88 1593.54,-933.49 1622.72,-949.71 1667.77,-974.74 1794.57,-965.2 1893.71,-952.67"/>
<polygon fill="gray" stroke="gray" points="1894.07,-956.15 1903.54,-951.4 1893.18,-949.21 1894.07,-956.15"/>
<text text-anchor="middle" x="1696.6" y="-967.16" font-family="Times New Roman,serif" font-size="14.00">33 EVENT_CONNECT</text>
</g>
<!-- 13&#45;&gt;14 -->
<g id="edge35" class="edge">
<title>13&#45;&gt;14</title>
<path fill="none" stroke="gray" d="M1577.17,-872.87C1589.2,-887.37 1604.82,-902.38 1622.72,-910.71 1641.1,-919.25 1725.42,-924.57 1812.06,-927.83"/>
<polygon fill="gray" stroke="gray" points="1811.83,-931.33 1821.95,-928.2 1812.08,-924.33 1811.83,-931.33"/>
<text text-anchor="middle" x="1696.6" y="-928.16" font-family="Times New Roman,serif" font-size="14.00">34 EVENT_SENDTO</text>
</g>
<!-- 15 -->
<g id="node16" class="node">
<title>15</title>
<ellipse fill="none" stroke="black" cx="2025.03" cy="-815.71" rx="73.52" ry="18"/>
<text text-anchor="middle" x="2025.03" y="-810.28" font-family="Times New Roman,serif" font-size="14.00">/var/log/sendmail</text>
</g>
<!-- 13&#45;&gt;15 -->
<g id="edge40" class="edge">
<title>13&#45;&gt;15</title>
<path fill="none" stroke="Purple" d="M1588.48,-835.02C1632.12,-835.24 1706.57,-835.14 1770.47,-832.71 1828.35,-830.5 1893.54,-826.09 1943.33,-822.31"/>
<polygon fill="Purple" stroke="Purple" points="1943.46,-825.81 1953.17,-821.56 1942.93,-818.83 1943.46,-825.81"/>
<text text-anchor="middle" x="1696.6" y="-837.16" font-family="Times New Roman,serif" font-size="14.00">39 EVENT_OPEN</text>
</g>
<!-- 13&#45;&gt;15 -->
<g id="edge41" class="edge">
<title>13&#45;&gt;15</title>
<path fill="none" stroke="Purple" d="M1588.6,-821.07C1599.45,-817.73 1611.43,-814.64 1622.72,-812.96 1733.79,-796.44 1864.07,-801.81 1945.35,-808.05"/>
<polygon fill="Purple" stroke="Purple" points="1944.73,-811.52 1954.98,-808.82 1945.29,-804.54 1944.73,-811.52"/>
<text text-anchor="middle" x="1696.6" y="-815.16" font-family="Times New Roman,serif" font-size="14.00">40 EVENT_WRITE</text>
</g>
<!-- 13&#45;&gt;15 -->
<g id="edge42" class="edge">
<title>13&#45;&gt;15</title>
<path fill="none" stroke="Purple" d="M1588.39,-800.48C1598.77,-792.91 1610.56,-785.96 1622.72,-781.96 1741.82,-742.78 1890.97,-775.04 1969.64,-797.89"/>
<polygon fill="Purple" stroke="Purple" points="1968.23,-801.12 1978.81,-800.61 1970.22,-794.41 1968.23,-801.12"/>
<text text-anchor="middle" x="1696.6" y="-784.16" font-family="Times New Roman,serif" font-size="14.00">41 EVENT_CLOSE</text>
</g>
<!-- 17 -->
<g id="node18" class="node">
<title>17</title>
<ellipse fill="none" stroke="black" cx="2025.03" cy="-698.71" rx="43.08" ry="18"/>
<text text-anchor="middle" x="2025.03" y="-693.28" font-family="Times New Roman,serif" font-size="14.00">/tmp/test</text>
</g>
<!-- 13&#45;&gt;17 -->
<g id="edge44" class="edge">
<title>13&#45;&gt;17</title>
<path fill="none" stroke="pink" d="M1571.21,-796.42C1583.4,-777.07 1600.86,-755.17 1622.72,-742.96 1652.48,-726.34 1868.68,-709.43 1970.84,-702.26"/>
<polygon fill="pink" stroke="pink" points="1970.88,-705.77 1980.61,-701.58 1970.39,-698.79 1970.88,-705.77"/>
<text text-anchor="middle" x="1696.6" y="-745.16" font-family="Times New Roman,serif" font-size="14.00">43 EVENT_OPEN</text>
</g>
<!-- 13&#45;&gt;17 -->
<g id="edge45" class="edge">
<title>13&#45;&gt;17</title>
<path fill="none" stroke="pink" d="M1559.78,-796.38C1569.24,-764.11 1587.95,-719.96 1622.72,-698.96 1679.98,-664.38 1877.07,-681.53 1972.05,-692.26"/>
<polygon fill="pink" stroke="pink" points="1971.55,-695.73 1981.88,-693.39 1972.35,-688.77 1971.55,-695.73"/>
<text text-anchor="middle" x="1696.6" y="-701.16" font-family="Times New Roman,serif" font-size="14.00">44 EVENT_WRITE</text>
</g>
<!-- 13&#45;&gt;17 -->
<g id="edge46" class="edge">
<title>13&#45;&gt;17</title>
<path fill="none" stroke="pink" d="M1554.57,-796.3C1560.53,-754.27 1577.03,-688.77 1622.72,-657.96 1679.44,-619.72 1883.28,-663.57 1976.68,-686.49"/>
<polygon fill="pink" stroke="pink" points="1975.76,-689.87 1986.31,-688.88 1977.44,-683.07 1975.76,-689.87"/>
<text text-anchor="middle" x="1696.6" y="-660.16" font-family="Times New Roman,serif" font-size="14.00">45 EVENT_CLOSE</text>
</g>
<!-- 19 -->
<g id="node20" class="node">
<title>19</title>
<polygon fill="none" stroke="black" points="2514.22,-661.33 2444.97,-661.33 2444.97,-592.08 2514.22,-592.08 2514.22,-661.33"/>
<text text-anchor="middle" x="2479.59" y="-621.28" font-family="Times New Roman,serif" font-size="14.00">20708test</text>
</g>
<!-- 13&#45;&gt;19 -->
<g id="edge48" class="edge">
<title>13&#45;&gt;19</title>
<path fill="none" stroke="pink" d="M1553.08,-796.49C1557.58,-750.85 1572.66,-676.22 1622.72,-640.71 1688.93,-593.74 2265.64,-616.75 2433.15,-624.5"/>
<polygon fill="pink" stroke="pink" points="2432.83,-627.99 2442.98,-624.96 2433.15,-620.99 2432.83,-627.99"/>
<text text-anchor="middle" x="2025.03" y="-619.16" font-family="Times New Roman,serif" font-size="14.00">47 EVENT_FORK</text>
</g>
<!-- 14&#45;&gt;13 -->
<g id="edge36" class="edge">
<title>14&#45;&gt;13</title>
<path fill="none" stroke="gray" d="M1916.64,-914.27C1835.53,-899.75 1721.66,-878.12 1622.72,-854.71 1615.22,-852.93 1607.33,-850.9 1599.63,-848.82"/>
<polygon fill="gray" stroke="gray" points="1600.59,-845.45 1590.01,-846.17 1598.72,-852.2 1600.59,-845.45"/>
<text text-anchor="middle" x="1696.6" y="-887.16" font-family="Times New Roman,serif" font-size="14.00">35 EVENT_RECVFROM</text>
</g>
<!-- 16 -->
<g id="node17" class="node">
<title>16</title>
<polygon fill="none" stroke="black" points="2528.84,-864.96 2430.34,-864.96 2430.34,-766.46 2528.84,-766.46 2528.84,-864.96"/>
<text text-anchor="middle" x="2479.59" y="-810.28" font-family="Times New Roman,serif" font-size="14.00">20490sendmail</text>
</g>
<!-- 15&#45;&gt;16 -->
<g id="edge43" class="edge">
<title>15&#45;&gt;16</title>
<path fill="none" stroke="Purple" d="M2098.99,-815.71C2187.85,-815.71 2336.25,-815.71 2418.72,-815.71"/>
<polygon fill="Purple" stroke="Purple" points="2418.63,-819.21 2428.63,-815.71 2418.63,-812.21 2418.63,-819.21"/>
<text text-anchor="middle" x="2345.97" y="-818.16" font-family="Times New Roman,serif" font-size="14.00">42 EVENT_EXECUTE</text>
</g>
<!-- 18 -->
<g id="node19" class="node">
<title>18</title>
<polygon fill="none" stroke="black" points="2514.22,-748.33 2444.97,-748.33 2444.97,-679.08 2514.22,-679.08 2514.22,-748.33"/>
<text text-anchor="middle" x="2479.59" y="-708.28" font-family="Times New Roman,serif" font-size="14.00">20586test</text>
</g>
<!-- 17&#45;&gt;18 -->
<g id="edge47" class="edge">
<title>17&#45;&gt;18</title>
<path fill="none" stroke="pink" d="M2068.2,-700.1C2153.37,-702.93 2345.27,-709.29 2433.12,-712.2"/>
<polygon fill="pink" stroke="pink" points="2432.94,-715.7 2443.05,-712.53 2433.17,-708.7 2432.94,-715.7"/>
<text text-anchor="middle" x="2345.97" y="-713.16" font-family="Times New Roman,serif" font-size="14.00">46 EVENT_EXECUTE</text>
</g>
<!-- 17&#45;&gt;19 -->
<g id="edge49" class="edge">
<title>17&#45;&gt;19</title>
<path fill="none" stroke="pink" d="M2066.76,-693.4C2137.35,-684.02 2286.87,-663.36 2412.34,-640.71 2419.17,-639.47 2426.37,-638.07 2433.4,-636.63"/>
<polygon fill="pink" stroke="pink" points="2434.07,-640.07 2443.14,-634.6 2432.64,-633.21 2434.07,-640.07"/>
<text text-anchor="middle" x="2345.97" y="-664.16" font-family="Times New Roman,serif" font-size="14.00">48 EVENT_EXECUTE</text>
</g>
<!-- 20 -->
<g id="node21" class="node">
<title>20</title>
<polygon fill="none" stroke="black" points="3185.71,-722.71 2809.4,-722.71 2712.59,-686.71 3088.9,-686.71 3185.71,-722.71"/>
<text text-anchor="middle" x="2949.15" y="-699.28" font-family="Times New Roman,serif" font-size="14.00">128.55.12.73&#45;34345&#45;&gt;192.113.144.28&#45;80</text>
</g>
<!-- 19&#45;&gt;20 -->
<g id="edge50" class="edge">
<title>19&#45;&gt;20</title>
<path fill="none" stroke="Brown" d="M2514.54,-652.13C2519.94,-657.44 2525.01,-663.37 2528.84,-669.71 2545.91,-697.93 2520.84,-721.41 2546.84,-741.71 2650.95,-822.99 2819.73,-764.28 2901.2,-727.84"/>
<polygon fill="Brown" stroke="Brown" points="2902.61,-731.04 2910.25,-723.71 2899.7,-724.67 2902.61,-731.04"/>
<text text-anchor="middle" x="2620.72" y="-784.16" font-family="Times New Roman,serif" font-size="14.00">49 EVENT_CONNECT</text>
</g>
<!-- 19&#45;&gt;20 -->
<g id="edge52" class="edge">
<title>19&#45;&gt;20</title>
<path fill="none" stroke="Brown" d="M2514.52,-654.22C2519.62,-659.1 2524.58,-664.35 2528.84,-669.71 2539.23,-682.79 2532.5,-694.14 2546.84,-702.71 2566.35,-714.36 2670.2,-714.65 2767.35,-712.14"/>
<polygon fill="Brown" stroke="Brown" points="2767.44,-715.64 2777.34,-711.87 2767.25,-708.64 2767.44,-715.64"/>
<text text-anchor="middle" x="2620.72" y="-715.16" font-family="Times New Roman,serif" font-size="14.00">51 EVENT_SENDTO</text>
</g>
<!-- 19&#45;&gt;20 -->
<g id="edge53" class="edge">
<title>19&#45;&gt;20</title>
<path fill="none" stroke="Brown" d="M2514.45,-649.09C2524.5,-654.76 2535.78,-660.22 2546.84,-663.71 2564.88,-669.4 2639.17,-677.59 2719.03,-685.15"/>
<polygon fill="Brown" stroke="Brown" points="2718.53,-688.62 2728.82,-686.08 2719.19,-681.65 2718.53,-688.62"/>
<text text-anchor="middle" x="2620.72" y="-684.16" font-family="Times New Roman,serif" font-size="14.00">52 EVENT_CLOSE</text>
</g>
<!-- 21 -->
<g id="node22" class="node">
<title>21</title>
<polygon fill="none" stroke="black" points="3172.54,-640.71 2817.18,-640.71 2725.76,-604.71 3081.12,-604.71 3172.54,-640.71"/>
<text text-anchor="middle" x="2949.15" y="-617.28" font-family="Times New Roman,serif" font-size="14.00">128.55.12.73&#45;34300&#45;&gt;128.55.12.67&#45;22</text>
</g>
<!-- 19&#45;&gt;21 -->
<g id="edge54" class="edge">
<title>19&#45;&gt;21</title>
<path fill="none" stroke="Indigo" d="M2514.63,-615.76C2524.87,-612.96 2536.22,-610.36 2546.84,-608.96 2616.73,-599.76 2694.02,-599.97 2761.96,-603.6"/>
<polygon fill="Indigo" stroke="Indigo" points="2761.53,-607.08 2771.71,-604.15 2761.92,-600.09 2761.53,-607.08"/>
<text text-anchor="middle" x="2620.72" y="-611.16" font-family="Times New Roman,serif" font-size="14.00">53 EVENT_CLOSE</text>
</g>
<!-- 22 -->
<g id="node23" class="node">
<title>22</title>
<polygon fill="none" stroke="black" points="3179.12,-586.71 2813.29,-586.71 2719.17,-550.71 3085.01,-550.71 3179.12,-586.71"/>
<text text-anchor="middle" x="2949.15" y="-563.28" font-family="Times New Roman,serif" font-size="14.00">128.55.12.73&#45;46262&#45;&gt;128.55.12.110&#45;22</text>
</g>
<!-- 19&#45;&gt;22 -->
<g id="edge55" class="edge">
<title>19&#45;&gt;22</title>
<path fill="none" stroke="Indigo" d="M2514.67,-597.7C2524.46,-590.95 2535.55,-584.67 2546.84,-580.96 2599.11,-563.78 2657.31,-556.03 2712.8,-553.53"/>
<polygon fill="Indigo" stroke="Indigo" points="2712.85,-557.03 2722.71,-553.15 2712.58,-550.04 2712.85,-557.03"/>
<text text-anchor="middle" x="2620.72" y="-583.16" font-family="Times New Roman,serif" font-size="14.00">54 EVENT_CLOSE</text>
</g>
<!-- 23 -->
<g id="node24" class="node">
<title>23</title>
<polygon fill="none" stroke="black" points="3172.54,-532.71 2817.18,-532.71 2725.76,-496.71 3081.12,-496.71 3172.54,-532.71"/>
<text text-anchor="middle" x="2949.15" y="-509.28" font-family="Times New Roman,serif" font-size="14.00">128.55.12.73&#45;58251&#45;&gt;128.55.12.10&#45;53</text>
</g>
<!-- 19&#45;&gt;23 -->
<g id="edge56" class="edge">
<title>19&#45;&gt;23</title>
<path fill="none" stroke="Indigo" d="M2496.13,-591.7C2507.15,-571.35 2524.05,-547.34 2546.84,-534.96 2633.86,-487.66 2747.79,-486.59 2832.01,-495.03"/>
<polygon fill="Indigo" stroke="Indigo" points="2831.61,-498.5 2841.93,-496.09 2832.36,-491.54 2831.61,-498.5"/>
<text text-anchor="middle" x="2620.72" y="-537.16" font-family="Times New Roman,serif" font-size="14.00">55 EVENT_CLOSE</text>
</g>
<!-- 24 -->
<g id="node25" class="node">
<title>24</title>
<polygon fill="none" stroke="black" points="3179.12,-478.71 2813.29,-478.71 2719.17,-442.71 3085.01,-442.71 3179.12,-478.71"/>
<text text-anchor="middle" x="2949.15" y="-455.28" font-family="Times New Roman,serif" font-size="14.00">128.55.12.73&#45;22&#45;&gt;128.55.12.122&#45;44306</text>
</g>
<!-- 19&#45;&gt;24 -->
<g id="edge57" class="edge">
<title>19&#45;&gt;24</title>
<path fill="none" stroke="violet" d="M2484.98,-591.7C2491.58,-555.47 2507.76,-500.54 2546.84,-473.96 2641.82,-409.36 2780.79,-422.43 2867.77,-439.95"/>
<polygon fill="violet" stroke="violet" points="2866.92,-443.34 2877.42,-441.96 2868.35,-436.49 2866.92,-443.34"/>
<text text-anchor="middle" x="2620.72" y="-476.16" font-family="Times New Roman,serif" font-size="14.00">56 EVENT_WRITE</text>
</g>
<!-- 20&#45;&gt;19 -->
<g id="edge51" class="edge">
<title>20&#45;&gt;19</title>
<path fill="none" stroke="Brown" d="M2876.46,-686.22C2825.93,-673.8 2756.5,-657.92 2694.59,-647.96 2636.68,-638.64 2569.26,-632.75 2525.8,-629.6"/>
<polygon fill="Brown" stroke="Brown" points="2526.21,-626.12 2515.99,-628.91 2525.72,-633.1 2526.21,-626.12"/>
<text text-anchor="middle" x="2620.72" y="-650.16" font-family="Times New Roman,serif" font-size="14.00">50 EVENT_RECVFROM</text>
</g>
</g>
</svg>
