<?xml version="1.0" encoding="UTF-8" standalone="no"?>
<!DOCTYPE svg PUBLIC "-//W3C//DTD SVG 1.1//EN"
 "http://www.w3.org/Graphics/SVG/1.1/DTD/svg11.dtd">
<!-- Generated by graphviz version 10.0.1 (20240210.2158)
 -->
<!-- Title: att Pages: 1 -->
<svg width="3874pt" height="1206pt"
 viewBox="0.00 0.00 3873.65 1205.75" xmlns="http://www.w3.org/2000/svg" xmlns:xlink="http://www.w3.org/1999/xlink">
<g id="graph0" class="graph" transform="scale(1 1) rotate(0) translate(4 1201.75)">
<title>att</title>
<polygon fill="white" stroke="none" points="-4,4 -4,-1201.75 3869.65,-1201.75 3869.65,4 -4,4"/>
<!-- 0 -->
<g id="node1" class="node">
<title>0</title>
<ellipse fill="none" stroke="black" cx="205.1" cy="-525" rx="55.06" ry="18"/>
<text text-anchor="middle" x="205.1" y="-519.58" font-family="Times New Roman,serif" font-size="14.00">/etc/passwd</text>
</g>
<!-- 1 -->
<g id="node2" class="node">
<title>1</title>
<polygon fill="none" stroke="black" points="642.95,-502.5 557.95,-502.5 557.95,-417.5 642.95,-417.5 642.95,-502.5"/>
<text text-anchor="middle" x="600.45" y="-454.57" font-family="Times New Roman,serif" font-size="14.00">3067350java</text>
</g>
<!-- 0&#45;&gt;1 -->
<g id="edge1" class="edge">
<title>0&#45;&gt;1</title>
<path fill="none" stroke="red" d="M259.34,-521.42C325.75,-516.17 442.45,-504.36 539.95,-481 542.1,-480.48 544.29,-479.92 546.49,-479.31"/>
<polygon fill="red" stroke="red" points="547.49,-482.67 556.07,-476.45 545.48,-475.96 547.49,-482.67"/>
<text text-anchor="middle" x="484.07" y="-503.45" font-family="Times New Roman,serif" font-size="14.00">0 FILE_READ</text>
</g>
<!-- 4 -->
<g id="node5" class="node">
<title>4</title>
<polygon fill="none" stroke="black" points="894.4,-555.75 804.9,-555.75 804.9,-466.25 894.4,-466.25 894.4,-555.75"/>
<text text-anchor="middle" x="849.65" y="-505.57" font-family="Times New Roman,serif" font-size="14.00">3074214bash</text>
</g>
<!-- 0&#45;&gt;4 -->
<g id="edge5" class="edge">
<title>0&#45;&gt;4</title>
<path fill="none" stroke="blue" d="M260.34,-524.93C362.24,-524.61 589.22,-522.96 780.2,-515 784.37,-514.83 788.68,-514.62 793.02,-514.41"/>
<polygon fill="blue" stroke="blue" points="793.16,-517.9 802.96,-513.88 792.79,-510.91 793.16,-517.9"/>
<text text-anchor="middle" x="600.45" y="-523.45" font-family="Times New Roman,serif" font-size="14.00">4 FILE_READ</text>
</g>
<!-- 1&#45;&gt;4 -->
<g id="edge4" class="edge">
<title>1&#45;&gt;4</title>
<path fill="none" stroke="blue" d="M643.38,-468.65C684.65,-477.17 747.91,-490.22 793.3,-499.58"/>
<polygon fill="blue" stroke="blue" points="792.44,-502.98 802.94,-501.57 793.86,-496.12 792.44,-502.98"/>
<text text-anchor="middle" x="720.57" y="-497.45" font-family="Times New Roman,serif" font-size="14.00">3 PROCESS_FORK</text>
</g>
<!-- 2 -->
<g id="node3" class="node">
<title>2</title>
<polygon fill="none" stroke="black" points="256.56,-427 174.7,-427 153.64,-391 235.5,-391 256.56,-427"/>
<text text-anchor="middle" x="205.1" y="-403.57" font-family="Times New Roman,serif" font-size="14.00">ip1&#45;&gt;1</text>
</g>
<!-- 2&#45;&gt;1 -->
<g id="edge2" class="edge">
<title>2&#45;&gt;1</title>
<path fill="none" stroke="red" d="M246.88,-409.84C310.23,-411.82 435.83,-418.39 539.95,-440.25 542.1,-440.7 544.29,-441.21 546.49,-441.75"/>
<polygon fill="red" stroke="red" points="545.49,-445.11 556.06,-444.37 547.34,-438.36 545.49,-445.11"/>
<text text-anchor="middle" x="484.07" y="-442.45" font-family="Times New Roman,serif" font-size="14.00">1 NET_CONNECT</text>
</g>
<!-- 3 -->
<g id="node4" class="node">
<title>3</title>
<polygon fill="none" stroke="black" points="410.2,-481 83.93,-481 0,-445 326.27,-445 410.2,-481"/>
<text text-anchor="middle" x="205.1" y="-457.57" font-family="Times New Roman,serif" font-size="14.00">FILE_FIFO@0@13@2860671614</text>
</g>
<!-- 3&#45;&gt;1 -->
<g id="edge3" class="edge">
<title>3&#45;&gt;1</title>
<path fill="none" stroke="red" d="M366.37,-461.78C430.65,-461.29 500.29,-460.76 546.55,-460.4"/>
<polygon fill="red" stroke="red" points="546.3,-463.91 556.28,-460.33 546.25,-456.91 546.3,-463.91"/>
<text text-anchor="middle" x="484.07" y="-463.45" font-family="Times New Roman,serif" font-size="14.00">2 FILE_READ</text>
</g>
<!-- 8 -->
<g id="node9" class="node">
<title>8</title>
<polygon fill="none" stroke="black" points="1158.99,-1045.75 1069.49,-1045.75 1069.49,-956.25 1158.99,-956.25 1158.99,-1045.75"/>
<text text-anchor="middle" x="1114.24" y="-995.58" font-family="Times New Roman,serif" font-size="14.00">3074286wget</text>
</g>
<!-- 4&#45;&gt;8 -->
<g id="edge9" class="edge">
<title>4&#45;&gt;8</title>
<path fill="none" stroke="black" d="M854.4,-556.19C862.33,-643.09 883.1,-829.56 919.11,-882 952.77,-931.03 1013.91,-963.53 1058.61,-981.99"/>
<polygon fill="black" stroke="black" points="1057.03,-985.13 1067.61,-985.6 1059.63,-978.63 1057.03,-985.13"/>
<text text-anchor="middle" x="982.11" y="-977.45" font-family="Times New Roman,serif" font-size="14.00">8 PROCESS_FORK</text>
</g>
<!-- 11 -->
<g id="node12" class="node">
<title>11</title>
<polygon fill="none" stroke="black" points="1165.36,-830.12 1063.11,-830.12 1063.11,-727.88 1165.36,-727.88 1165.36,-830.12"/>
<text text-anchor="middle" x="1114.24" y="-773.58" font-family="Times New Roman,serif" font-size="14.00">3074317chmod</text>
</g>
<!-- 4&#45;&gt;11 -->
<g id="edge12" class="edge">
<title>4&#45;&gt;11</title>
<path fill="none" stroke="orange" d="M865.31,-555.94C876.61,-585.6 894.48,-624.02 919.11,-652 956.35,-694.31 1010.9,-728.32 1052.69,-750.46"/>
<polygon fill="orange" stroke="orange" points="1050.92,-753.48 1061.41,-754.99 1054.15,-747.27 1050.92,-753.48"/>
<text text-anchor="middle" x="982.11" y="-746.45" font-family="Times New Roman,serif" font-size="14.00">11 PROCESS_FORK</text>
</g>
<!-- 12 -->
<g id="node13" class="node">
<title>12</title>
<polygon fill="none" stroke="black" points="2151.28,-759.62 2058.03,-759.62 2058.03,-666.38 2151.28,-666.38 2151.28,-759.62"/>
<text text-anchor="middle" x="2104.66" y="-707.58" font-family="Times New Roman,serif" font-size="14.00">3074526socat</text>
</g>
<!-- 4&#45;&gt;12 -->
<g id="edge14" class="edge">
<title>4&#45;&gt;12</title>
<path fill="none" stroke="orange" d="M894.8,-510.27C1087.17,-507.28 1844.28,-497.7 1881.56,-531 1925.06,-569.86 1860.68,-617.51 1899.56,-661 1936.06,-701.84 1999.74,-712.69 2046.28,-714.66"/>
<polygon fill="orange" stroke="orange" points="2046.11,-718.16 2056.2,-714.94 2046.3,-711.16 2046.11,-718.16"/>
<text text-anchor="middle" x="1246.36" y="-509.45" font-family="Times New Roman,serif" font-size="14.00">13 PROCESS_FORK</text>
</g>
<!-- 13 -->
<g id="node14" class="node">
<title>13</title>
<polygon fill="none" stroke="black" points="2151.28,-516.62 2058.03,-516.62 2058.03,-423.38 2151.28,-423.38 2151.28,-516.62"/>
<text text-anchor="middle" x="2104.66" y="-464.57" font-family="Times New Roman,serif" font-size="14.00">3074649socat</text>
</g>
<!-- 4&#45;&gt;13 -->
<g id="edge17" class="edge">
<title>4&#45;&gt;13</title>
<path fill="none" stroke="green" d="M894.7,-488.1C902.65,-484.83 910.99,-481.93 919.11,-480 1033.48,-452.87 1065.84,-471.64 1183.36,-469.25 1509.97,-462.61 1901.92,-467.05 2046.49,-469.11"/>
<polygon fill="green" stroke="green" points="2046.12,-472.61 2056.17,-469.25 2046.22,-465.61 2046.12,-472.61"/>
<text text-anchor="middle" x="1246.36" y="-471.45" font-family="Times New Roman,serif" font-size="14.00">16 PROCESS_FORK</text>
</g>
<!-- 15 -->
<g id="node16" class="node">
<title>15</title>
<polygon fill="none" stroke="black" points="1158.99,-151.75 1069.49,-151.75 1069.49,-62.25 1158.99,-62.25 1158.99,-151.75"/>
<text text-anchor="middle" x="1114.24" y="-101.58" font-family="Times New Roman,serif" font-size="14.00">3074318bash</text>
</g>
<!-- 4&#45;&gt;15 -->
<g id="edge21" class="edge">
<title>4&#45;&gt;15</title>
<path fill="none" stroke="green" d="M853.16,-465.92C858.91,-379.41 876.03,-194.72 919.11,-150.25 954.73,-113.48 1014.2,-104.8 1057.95,-104"/>
<polygon fill="green" stroke="green" points="1057.77,-107.5 1067.76,-103.96 1057.74,-100.5 1057.77,-107.5"/>
<text text-anchor="middle" x="982.11" y="-153.45" font-family="Times New Roman,serif" font-size="14.00">20 PROCESS_FORK</text>
</g>
<!-- 19 -->
<g id="node20" class="node">
<title>19</title>
<polygon fill="none" stroke="black" points="1158.99,-1153.75 1069.49,-1153.75 1069.49,-1064.25 1158.99,-1064.25 1158.99,-1153.75"/>
<text text-anchor="middle" x="1114.24" y="-1103.58" font-family="Times New Roman,serif" font-size="14.00">3074505bash</text>
</g>
<!-- 4&#45;&gt;19 -->
<g id="edge27" class="edge">
<title>4&#45;&gt;19</title>
<path fill="none" stroke="green" d="M854.22,-556.25C863.86,-674.1 891.56,-983.94 919.11,-1021 952.29,-1065.62 1013.4,-1088.18 1058.22,-1099.2"/>
<polygon fill="green" stroke="green" points="1057.23,-1102.56 1067.77,-1101.42 1058.82,-1095.75 1057.23,-1102.56"/>
<text text-anchor="middle" x="982.11" y="-1096.45" font-family="Times New Roman,serif" font-size="14.00">26 PROCESS_FORK</text>
</g>
<!-- 25 -->
<g id="node26" class="node">
<title>25</title>
<polygon fill="none" stroke="black" points="1158.99,-319.75 1069.49,-319.75 1069.49,-230.25 1158.99,-230.25 1158.99,-319.75"/>
<text text-anchor="middle" x="1114.24" y="-269.57" font-family="Times New Roman,serif" font-size="14.00">3074509bash</text>
</g>
<!-- 4&#45;&gt;25 -->
<g id="edge38" class="edge">
<title>4&#45;&gt;25</title>
<path fill="none" stroke="green" d="M863.44,-466.07C874.12,-435.32 892.01,-395.37 919.11,-368.25 957.89,-329.45 1015.99,-304.49 1058.52,-290.26"/>
<polygon fill="green" stroke="green" points="1059.38,-293.66 1067.81,-287.25 1057.22,-287 1059.38,-293.66"/>
<text text-anchor="middle" x="982.11" y="-371.45" font-family="Times New Roman,serif" font-size="14.00">37 PROCESS_FORK</text>
</g>
<!-- 31 -->
<g id="node32" class="node">
<title>31</title>
<polygon fill="none" stroke="black" points="1158.99,-937.75 1069.49,-937.75 1069.49,-848.25 1158.99,-848.25 1158.99,-937.75"/>
<text text-anchor="middle" x="1114.24" y="-887.58" font-family="Times New Roman,serif" font-size="14.00">3074525bash</text>
</g>
<!-- 4&#45;&gt;31 -->
<g id="edge49" class="edge">
<title>4&#45;&gt;31</title>
<path fill="none" stroke="green" d="M853.33,-556.22C858.54,-610.26 873.9,-701.23 919.11,-764 954.47,-813.09 1014.75,-848.84 1058.77,-870.09"/>
<polygon fill="green" stroke="green" points="1057.12,-873.18 1067.65,-874.27 1060.1,-866.85 1057.12,-873.18"/>
<text text-anchor="middle" x="982.11" y="-864.45" font-family="Times New Roman,serif" font-size="14.00">48 PROCESS_FORK</text>
</g>
<!-- 32 -->
<g id="node33" class="node">
<title>32</title>
<polygon fill="none" stroke="black" points="1160.11,-709.88 1068.36,-709.88 1068.36,-618.12 1160.11,-618.12 1160.11,-709.88"/>
<text text-anchor="middle" x="1114.24" y="-658.58" font-family="Times New Roman,serif" font-size="14.00">3074615sleep</text>
</g>
<!-- 4&#45;&gt;32 -->
<g id="edge50" class="edge">
<title>4&#45;&gt;32</title>
<path fill="none" stroke="green" d="M894.87,-549.53C902.72,-555.68 910.99,-561.74 919.11,-567 963.68,-595.85 1018,-622.33 1057.83,-640.3"/>
<polygon fill="green" stroke="green" points="1056.2,-643.41 1066.76,-644.3 1059.06,-637.02 1056.2,-643.41"/>
<text text-anchor="middle" x="982.11" y="-634.45" font-family="Times New Roman,serif" font-size="14.00">49 PROCESS_FORK</text>
</g>
<!-- 33 -->
<g id="node34" class="node">
<title>33</title>
<polygon fill="none" stroke="black" points="1158.99,-427.75 1069.49,-427.75 1069.49,-338.25 1158.99,-338.25 1158.99,-427.75"/>
<text text-anchor="middle" x="1114.24" y="-377.57" font-family="Times New Roman,serif" font-size="14.00">3074648bash</text>
</g>
<!-- 4&#45;&gt;33 -->
<g id="edge51" class="edge">
<title>4&#45;&gt;33</title>
<path fill="none" stroke="green" d="M878.03,-466.05C889.08,-451.33 903.04,-436.22 919.11,-426.25 961.13,-400.18 1016.88,-389.75 1057.86,-385.61"/>
<polygon fill="green" stroke="green" points="1058.11,-389.1 1067.76,-384.72 1057.48,-382.13 1058.11,-389.1"/>
<text text-anchor="middle" x="982.11" y="-428.45" font-family="Times New Roman,serif" font-size="14.00">50 PROCESS_FORK</text>
</g>
<!-- 34 -->
<g id="node35" class="node">
<title>34</title>
<polygon fill="none" stroke="black" points="1153.36,-600.12 1075.11,-600.12 1075.11,-521.88 1153.36,-521.88 1153.36,-600.12"/>
<text text-anchor="middle" x="1114.24" y="-555.58" font-family="Times New Roman,serif" font-size="14.00">3074650rm</text>
</g>
<!-- 4&#45;&gt;34 -->
<g id="edge53" class="edge">
<title>4&#45;&gt;34</title>
<path fill="none" stroke="yellow" d="M894.9,-519.43C941.58,-528.31 1014.99,-542.29 1063.61,-551.55"/>
<polygon fill="yellow" stroke="yellow" points="1062.83,-554.97 1073.31,-553.4 1064.14,-548.09 1062.83,-554.97"/>
<text text-anchor="middle" x="982.11" y="-549.45" font-family="Times New Roman,serif" font-size="14.00">52 PROCESS_FORK</text>
</g>
<!-- 5 -->
<g id="node6" class="node">
<title>5</title>
<polygon fill="none" stroke="black" points="3110.2,-169 2783.94,-169 2700,-133 3026.27,-133 3110.2,-169"/>
<text text-anchor="middle" x="2905.1" y="-145.57" font-family="Times New Roman,serif" font-size="14.00">FILE_FIFO@0@13@2860674841</text>
</g>
<!-- 5&#45;&gt;4 -->
<g id="edge6" class="edge">
<title>5&#45;&gt;4</title>
<path fill="none" stroke="blue" d="M2775.17,-165.58C2700.55,-172.81 2604.78,-180 2519.38,-180 1113.24,-180 1113.24,-180 1113.24,-180 1013.41,-180 981.41,-215 919.11,-293 881.72,-339.82 864.62,-407.28 856.88,-454.73"/>
<polygon fill="blue" stroke="blue" points="853.43,-454.12 855.38,-464.54 860.35,-455.18 853.43,-454.12"/>
<text text-anchor="middle" x="1818.56" y="-182.45" font-family="Times New Roman,serif" font-size="14.00">5 FILE_READ</text>
</g>
<!-- 6 -->
<g id="node7" class="node">
<title>6</title>
<polygon fill="none" stroke="black" points="3865.65,-1176 3539.38,-1176 3455.45,-1140 3781.72,-1140 3865.65,-1176"/>
<text text-anchor="middle" x="3660.55" y="-1152.58" font-family="Times New Roman,serif" font-size="14.00">FILE_FIFO@0@13@2860674925</text>
</g>
<!-- 6&#45;&gt;4 -->
<g id="edge7" class="edge">
<title>6&#45;&gt;4</title>
<path fill="none" stroke="blue" d="M3525.77,-1170.6C3453.15,-1176.39 3361.77,-1182 3280.08,-1182 1113.24,-1182 1113.24,-1182 1113.24,-1182 1021.82,-1182 976.13,-1185.46 919.11,-1114 914.85,-1108.66 872.48,-715.47 856.61,-566.96"/>
<polygon fill="blue" stroke="blue" points="860.13,-566.94 855.59,-557.36 853.17,-567.68 860.13,-566.94"/>
<text text-anchor="middle" x="2390.75" y="-1184.45" font-family="Times New Roman,serif" font-size="14.00">6 FILE_READ</text>
</g>
<!-- 7 -->
<g id="node8" class="node">
<title>7</title>
<polygon fill="none" stroke="black" points="3865.65,-73 3539.38,-73 3455.45,-37 3781.72,-37 3865.65,-73"/>
<text text-anchor="middle" x="3660.55" y="-49.58" font-family="Times New Roman,serif" font-size="14.00">FILE_FIFO@0@13@2860674926</text>
</g>
<!-- 7&#45;&gt;4 -->
<g id="edge8" class="edge">
<title>7&#45;&gt;4</title>
<path fill="none" stroke="blue" d="M3579.35,-36.53C3502.88,-20.55 3384.26,0 3280.08,0 1113.24,0 1113.24,0 1113.24,0 1015.98,0 976.27,-22.31 919.11,-101 878.77,-156.53 860.58,-355.9 853.9,-454.7"/>
<polygon fill="blue" stroke="blue" points="850.42,-454.23 853.26,-464.43 857.41,-454.69 850.42,-454.23"/>
<text text-anchor="middle" x="2390.75" y="-2.45" font-family="Times New Roman,serif" font-size="14.00">7 FILE_READ</text>
</g>
<!-- 10 -->
<g id="node11" class="node">
<title>10</title>
<ellipse fill="none" stroke="black" cx="1532.46" cy="-674" rx="50.07" ry="18"/>
<text text-anchor="middle" x="1532.46" y="-668.58" font-family="Times New Roman,serif" font-size="14.00">/tmp/socat</text>
</g>
<!-- 8&#45;&gt;10 -->
<g id="edge11" class="edge">
<title>8&#45;&gt;10</title>
<path fill="none" stroke="black" d="M1159.21,-957.04C1167.09,-949.59 1175.35,-942.07 1183.36,-935.25 1294.18,-840.81 1435.39,-740.53 1498.46,-696.7"/>
<polygon fill="black" stroke="black" points="1500.42,-699.6 1506.65,-691.03 1496.43,-693.85 1500.42,-699.6"/>
<text text-anchor="middle" x="1246.36" y="-937.45" font-family="Times New Roman,serif" font-size="14.00">10 FILE_WRITE</text>
</g>
<!-- 9 -->
<g id="node10" class="node">
<title>9</title>
<polygon fill="none" stroke="black" points="901.11,-1019 819.25,-1019 798.2,-983 880.05,-983 901.11,-1019"/>
<text text-anchor="middle" x="849.65" y="-995.58" font-family="Times New Roman,serif" font-size="14.00">ip2&#45;&gt;2</text>
</g>
<!-- 9&#45;&gt;8 -->
<g id="edge10" class="edge">
<title>9&#45;&gt;8</title>
<path fill="none" stroke="black" d="M891.11,-1001C935.82,-1001 1008.1,-1001 1058,-1001"/>
<polygon fill="black" stroke="black" points="1057.72,-1004.5 1067.72,-1001 1057.72,-997.5 1057.72,-1004.5"/>
<text text-anchor="middle" x="982.11" y="-1003.45" font-family="Times New Roman,serif" font-size="14.00">9 NET_CONNECT</text>
</g>
<!-- 10&#45;&gt;12 -->
<g id="edge15" class="edge">
<title>10&#45;&gt;12</title>
<path fill="none" stroke="orange" d="M1581.54,-677.87C1626.51,-681.44 1695.57,-686.81 1755.56,-691 1857.92,-698.15 1977.28,-705.47 2046.29,-709.61"/>
<polygon fill="orange" stroke="orange" points="2046.05,-713.1 2056.24,-710.2 2046.47,-706.11 2046.05,-713.1"/>
<text text-anchor="middle" x="1818.56" y="-701.45" font-family="Times New Roman,serif" font-size="14.00">14 FILE_READ</text>
</g>
<!-- 10&#45;&gt;12 -->
<g id="edge16" class="edge">
<title>10&#45;&gt;12</title>
<path fill="none" stroke="orange" d="M1582.02,-670.54C1649.42,-666.44 1775.05,-661.33 1881.56,-671.25 1938.16,-676.52 2001.83,-689.2 2046.44,-699.21"/>
<polygon fill="orange" stroke="orange" points="2045.64,-702.62 2056.17,-701.42 2047.19,-695.79 2045.64,-702.62"/>
<text text-anchor="middle" x="1818.56" y="-673.45" font-family="Times New Roman,serif" font-size="14.00">15 PROCESS_EXEC</text>
</g>
<!-- 10&#45;&gt;13 -->
<g id="edge18" class="edge">
<title>10&#45;&gt;13</title>
<path fill="none" stroke="green" d="M1550.27,-656.89C1585.02,-622.73 1668.79,-546.42 1755.56,-512.25 1852.54,-474.06 1975.51,-468.06 2046.32,-468.27"/>
<polygon fill="green" stroke="green" points="2046.11,-471.77 2056.13,-468.34 2046.16,-464.77 2046.11,-471.77"/>
<text text-anchor="middle" x="1818.56" y="-514.45" font-family="Times New Roman,serif" font-size="14.00">17 FILE_READ</text>
</g>
<!-- 10&#45;&gt;13 -->
<g id="edge19" class="edge">
<title>10&#45;&gt;13</title>
<path fill="none" stroke="green" d="M1556.57,-657.89C1595.68,-631.43 1678.2,-578.94 1755.56,-551.25 1809.17,-532.06 1825.97,-540.37 1881.56,-528 1938.22,-515.39 2002.3,-498.35 2047.02,-486.01"/>
<polygon fill="green" stroke="green" points="2047.79,-489.43 2056.5,-483.38 2045.92,-482.68 2047.79,-489.43"/>
<text text-anchor="middle" x="1818.56" y="-553.45" font-family="Times New Roman,serif" font-size="14.00">18 PROCESS_EXEC</text>
</g>
<!-- 22 -->
<g id="node23" class="node">
<title>22</title>
<polygon fill="none" stroke="black" points="2565,-1011.62 2471.75,-1011.62 2471.75,-918.38 2565,-918.38 2565,-1011.62"/>
<text text-anchor="middle" x="2518.38" y="-959.58" font-family="Times New Roman,serif" font-size="14.00">3074507socat</text>
</g>
<!-- 10&#45;&gt;22 -->
<g id="edge32" class="edge">
<title>10&#45;&gt;22</title>
<path fill="none" stroke="green" d="M1573.15,-684.84C1640.21,-703.03 1780.28,-740.52 1899.56,-769 2144.77,-827.56 2237.66,-760.14 2453.75,-890 2462.57,-895.3 2470.76,-902.25 2478.12,-909.79"/>
<polygon fill="green" stroke="green" points="2475.43,-912.03 2484.77,-917.04 2480.59,-907.3 2475.43,-912.03"/>
<text text-anchor="middle" x="2104.66" y="-825.45" font-family="Times New Roman,serif" font-size="14.00">31 FILE_READ</text>
</g>
<!-- 10&#45;&gt;22 -->
<g id="edge33" class="edge">
<title>10&#45;&gt;22</title>
<path fill="none" stroke="green" d="M1560.56,-689.28C1620.05,-722.2 1767.33,-800.28 1899.56,-843 2138.35,-920.14 2208.04,-900.03 2453.75,-951 2455.91,-951.45 2458.11,-951.91 2460.33,-952.38"/>
<polygon fill="green" stroke="green" points="2459.54,-955.79 2470.05,-954.46 2461.01,-948.94 2459.54,-955.79"/>
<text text-anchor="middle" x="2104.66" y="-926.45" font-family="Times New Roman,serif" font-size="14.00">32 PROCESS_EXEC</text>
</g>
<!-- 28 -->
<g id="node29" class="node">
<title>28</title>
<polygon fill="none" stroke="black" points="2565,-410.62 2471.75,-410.62 2471.75,-317.38 2565,-317.38 2565,-410.62"/>
<text text-anchor="middle" x="2518.38" y="-358.57" font-family="Times New Roman,serif" font-size="14.00">3074511socat</text>
</g>
<!-- 10&#45;&gt;28 -->
<g id="edge43" class="edge">
<title>10&#45;&gt;28</title>
<path fill="none" stroke="green" d="M1573.37,-663.14C1617.67,-651.31 1691.38,-632.31 1755.56,-619 1763.2,-617.41 2302.61,-529.14 2309.75,-526 2367.97,-500.39 2424.22,-454.78 2463.46,-418.47"/>
<polygon fill="green" stroke="green" points="2465.56,-421.3 2470.46,-411.9 2460.77,-416.19 2465.56,-421.3"/>
<text text-anchor="middle" x="2104.66" y="-596.45" font-family="Times New Roman,serif" font-size="14.00">42 FILE_READ</text>
</g>
<!-- 10&#45;&gt;28 -->
<g id="edge44" class="edge">
<title>10&#45;&gt;28</title>
<path fill="none" stroke="green" d="M1581.41,-669.47C1651.34,-662.92 1785.39,-650.57 1899.56,-641.25 1990.66,-633.82 2225.43,-646.28 2309.75,-611 2388.21,-578.18 2401.08,-551.76 2453.75,-485 2468.98,-465.71 2482.3,-442.22 2492.76,-421.09"/>
<polygon fill="green" stroke="green" points="2495.81,-422.83 2497.01,-412.3 2489.5,-419.79 2495.81,-422.83"/>
<text text-anchor="middle" x="2104.66" y="-643.45" font-family="Times New Roman,serif" font-size="14.00">43 PROCESS_EXEC</text>
</g>
<!-- 11&#45;&gt;10 -->
<g id="edge13" class="edge">
<title>11&#45;&gt;10</title>
<path fill="none" stroke="orange" d="M1165.86,-766.23C1245.52,-746.13 1399.33,-707.33 1479.69,-687.06"/>
<polygon fill="orange" stroke="orange" points="1480.22,-690.53 1489.06,-684.7 1478.51,-683.75 1480.22,-690.53"/>
<text text-anchor="middle" x="1246.36" y="-763.45" font-family="Times New Roman,serif" font-size="14.00">12 FILE_CHMOD</text>
</g>
<!-- 14 -->
<g id="node15" class="node">
<title>14</title>
<polygon fill="none" stroke="black" points="1737.56,-428 1411.29,-428 1327.36,-392 1653.63,-392 1737.56,-428"/>
<text text-anchor="middle" x="1532.46" y="-404.57" font-family="Times New Roman,serif" font-size="14.00">FILE_FIFO@0@13@2860674992</text>
</g>
<!-- 14&#45;&gt;13 -->
<g id="edge20" class="edge">
<title>14&#45;&gt;13</title>
<path fill="none" stroke="green" d="M1697.72,-410.54C1755.95,-412.24 1821.84,-415.88 1881.56,-423.25 1938.34,-430.26 2002.16,-444.35 2046.76,-455.24"/>
<polygon fill="green" stroke="green" points="2045.66,-458.58 2056.2,-457.57 2047.33,-451.78 2045.66,-458.58"/>
<text text-anchor="middle" x="1818.56" y="-425.45" font-family="Times New Roman,serif" font-size="14.00">19 FILE_READ</text>
</g>
<!-- 16 -->
<g id="node17" class="node">
<title>16</title>
<polygon fill="none" stroke="black" points="1574.96,-151.5 1489.96,-151.5 1489.96,-66.5 1574.96,-66.5 1574.96,-151.5"/>
<text text-anchor="middle" x="1532.46" y="-103.58" font-family="Times New Roman,serif" font-size="14.00">3074319find</text>
</g>
<!-- 15&#45;&gt;16 -->
<g id="edge22" class="edge">
<title>15&#45;&gt;16</title>
<path fill="none" stroke="green" d="M1159.39,-107.21C1236.44,-107.58 1395.15,-108.35 1478.18,-108.74"/>
<polygon fill="green" stroke="green" points="1478.09,-112.24 1488.11,-108.79 1478.13,-105.24 1478.09,-112.24"/>
<text text-anchor="middle" x="1246.36" y="-110.45" font-family="Times New Roman,serif" font-size="14.00">21 PROCESS_FORK</text>
</g>
<!-- 18 -->
<g id="node19" class="node">
<title>18</title>
<polygon fill="none" stroke="black" points="2559.75,-150.38 2477,-150.38 2477,-67.62 2559.75,-67.62 2559.75,-150.38"/>
<text text-anchor="middle" x="2518.38" y="-103.58" font-family="Times New Roman,serif" font-size="14.00">3074320sed</text>
</g>
<!-- 15&#45;&gt;18 -->
<g id="edge24" class="edge">
<title>15&#45;&gt;18</title>
<path fill="none" stroke="green" d="M1159.4,-93.43C1201.94,-81.11 1268.36,-63.86 1327.36,-57 1765.17,-6.1 2298.84,-76 2465.28,-100.83"/>
<polygon fill="green" stroke="green" points="2464.72,-104.29 2475.13,-102.32 2465.76,-97.37 2464.72,-104.29"/>
<text text-anchor="middle" x="1818.56" y="-46.45" font-family="Times New Roman,serif" font-size="14.00">23 PROCESS_FORK</text>
</g>
<!-- 17 -->
<g id="node18" class="node">
<title>17</title>
<polygon fill="none" stroke="black" points="2309.75,-127 1983.49,-127 1899.56,-91 2225.82,-91 2309.75,-127"/>
<text text-anchor="middle" x="2104.66" y="-103.58" font-family="Times New Roman,serif" font-size="14.00">FILE_FIFO@0@13@2860684787</text>
</g>
<!-- 16&#45;&gt;17 -->
<g id="edge23" class="edge">
<title>16&#45;&gt;17</title>
<path fill="none" stroke="green" d="M1575.39,-109C1648.96,-109 1805.23,-109 1928.82,-109"/>
<polygon fill="green" stroke="green" points="1928.79,-112.5 1938.79,-109 1928.79,-105.5 1928.79,-112.5"/>
<text text-anchor="middle" x="1818.56" y="-111.45" font-family="Times New Roman,serif" font-size="14.00">22 FILE_WRITE</text>
</g>
<!-- 17&#45;&gt;18 -->
<g id="edge25" class="edge">
<title>17&#45;&gt;18</title>
<path fill="none" stroke="green" d="M2268.97,-109C2339.02,-109 2415.93,-109 2465.34,-109"/>
<polygon fill="green" stroke="green" points="2465.16,-112.5 2475.16,-109 2465.16,-105.5 2465.16,-112.5"/>
<text text-anchor="middle" x="2390.75" y="-111.45" font-family="Times New Roman,serif" font-size="14.00">24 FILE_READ</text>
</g>
<!-- 18&#45;&gt;5 -->
<g id="edge26" class="edge">
<title>18&#45;&gt;5</title>
<path fill="none" stroke="green" d="M2560.19,-113.45C2599.69,-117.77 2662.42,-124.62 2723.56,-131.29"/>
<polygon fill="green" stroke="green" points="2723.12,-134.76 2733.44,-132.37 2723.88,-127.8 2723.12,-134.76"/>
<text text-anchor="middle" x="2632.5" y="-129.45" font-family="Times New Roman,serif" font-size="14.00">25 FILE_WRITE</text>
</g>
<!-- 20 -->
<g id="node21" class="node">
<title>20</title>
<polygon fill="none" stroke="black" points="1577.21,-1082.75 1487.71,-1082.75 1487.71,-993.25 1577.21,-993.25 1577.21,-1082.75"/>
<text text-anchor="middle" x="1532.46" y="-1032.58" font-family="Times New Roman,serif" font-size="14.00">3074506bash</text>
</g>
<!-- 19&#45;&gt;20 -->
<g id="edge28" class="edge">
<title>19&#45;&gt;20</title>
<path fill="none" stroke="green" d="M1159.37,-1089.07C1167.24,-1086.08 1175.45,-1083.31 1183.36,-1081.25 1284.67,-1054.82 1406.91,-1044.38 1476.27,-1040.38"/>
<polygon fill="green" stroke="green" points="1476.05,-1043.9 1485.84,-1039.85 1475.66,-1036.91 1476.05,-1043.9"/>
<text text-anchor="middle" x="1246.36" y="-1083.45" font-family="Times New Roman,serif" font-size="14.00">27 PROCESS_FORK</text>
</g>
<!-- 19&#45;&gt;22 -->
<g id="edge30" class="edge">
<title>19&#45;&gt;22</title>
<path fill="none" stroke="green" d="M1159.15,-1070.34C1166.97,-1064.21 1175.23,-1058.18 1183.36,-1053 1243.21,-1014.86 1258.29,-1000.28 1327.36,-984 1546.23,-932.43 2253.12,-954.82 2460,-962.68"/>
<polygon fill="green" stroke="green" points="2459.83,-966.18 2469.96,-963.06 2460.1,-959.18 2459.83,-966.18"/>
<text text-anchor="middle" x="1818.56" y="-953.45" font-family="Times New Roman,serif" font-size="14.00">29 PROCESS_FORK</text>
</g>
<!-- 24 -->
<g id="node25" class="node">
<title>24</title>
<polygon fill="none" stroke="black" points="3320.45,-1152.38 3237.7,-1152.38 3237.7,-1069.62 3320.45,-1069.62 3320.45,-1152.38"/>
<text text-anchor="middle" x="3279.08" y="-1105.58" font-family="Times New Roman,serif" font-size="14.00">3074508sed</text>
</g>
<!-- 19&#45;&gt;24 -->
<g id="edge35" class="edge">
<title>19&#45;&gt;24</title>
<path fill="none" stroke="green" d="M1159.28,-1109.35C1235.24,-1109.92 1395.79,-1111 1531.46,-1111 1531.46,-1111 1531.46,-1111 2906.1,-1111 3020.19,-1111 3153.96,-1111 3225.92,-1111"/>
<polygon fill="green" stroke="green" points="3225.83,-1114.5 3235.83,-1111 3225.83,-1107.5 3225.83,-1114.5"/>
<text text-anchor="middle" x="2390.75" y="-1113.45" font-family="Times New Roman,serif" font-size="14.00">34 PROCESS_FORK</text>
</g>
<!-- 21 -->
<g id="node22" class="node">
<title>21</title>
<polygon fill="none" stroke="black" points="2309.75,-1041 1983.49,-1041 1899.56,-1005 2225.82,-1005 2309.75,-1041"/>
<text text-anchor="middle" x="2104.66" y="-1017.58" font-family="Times New Roman,serif" font-size="14.00">FILE_FIFO@0@13@2860686482</text>
</g>
<!-- 20&#45;&gt;21 -->
<g id="edge29" class="edge">
<title>20&#45;&gt;21</title>
<path fill="none" stroke="green" d="M1577.26,-1036.85C1653.5,-1034.84 1814.32,-1030.61 1938.26,-1027.35"/>
<polygon fill="green" stroke="green" points="1938.34,-1030.85 1948.24,-1027.09 1938.15,-1023.85 1938.34,-1030.85"/>
<text text-anchor="middle" x="1818.56" y="-1033.45" font-family="Times New Roman,serif" font-size="14.00">28 FILE_WRITE</text>
</g>
<!-- 21&#45;&gt;22 -->
<g id="edge31" class="edge">
<title>21&#45;&gt;22</title>
<path fill="none" stroke="green" d="M2236.66,-1009.29C2302.09,-1001.72 2382.33,-991.35 2453.75,-979 2455.8,-978.65 2457.87,-978.27 2459.97,-977.88"/>
<polygon fill="green" stroke="green" points="2460.63,-981.32 2469.77,-975.96 2459.29,-974.45 2460.63,-981.32"/>
<text text-anchor="middle" x="2390.75" y="-999.45" font-family="Times New Roman,serif" font-size="14.00">30 FILE_READ</text>
</g>
<!-- 23 -->
<g id="node24" class="node">
<title>23</title>
<polygon fill="none" stroke="black" points="3110.2,-1049 2783.94,-1049 2700,-1013 3026.27,-1013 3110.2,-1049"/>
<text text-anchor="middle" x="2905.1" y="-1025.58" font-family="Times New Roman,serif" font-size="14.00">FILE_FIFO@0@13@2860686483</text>
</g>
<!-- 22&#45;&gt;23 -->
<g id="edge34" class="edge">
<title>22&#45;&gt;23</title>
<path fill="none" stroke="green" d="M2565.4,-972.9C2619.38,-982.15 2710.91,-997.86 2785.22,-1010.61"/>
<polygon fill="green" stroke="green" points="2784.59,-1014.05 2795.03,-1012.29 2785.77,-1007.15 2784.59,-1014.05"/>
<text text-anchor="middle" x="2632.5" y="-994.45" font-family="Times New Roman,serif" font-size="14.00">33 FILE_WRITE</text>
</g>
<!-- 23&#45;&gt;24 -->
<g id="edge36" class="edge">
<title>23&#45;&gt;24</title>
<path fill="none" stroke="green" d="M3082.98,-1049.46C3128.22,-1056.86 3176.32,-1067.11 3219.7,-1081.25 3222.07,-1082.02 3224.47,-1082.88 3226.86,-1083.81"/>
<polygon fill="green" stroke="green" points="3225.34,-1086.96 3235.91,-1087.63 3228.06,-1080.51 3225.34,-1086.96"/>
<text text-anchor="middle" x="3173.95" y="-1083.45" font-family="Times New Roman,serif" font-size="14.00">35 FILE_READ</text>
</g>
<!-- 24&#45;&gt;6 -->
<g id="edge37" class="edge">
<title>24&#45;&gt;6</title>
<path fill="none" stroke="green" d="M3320.69,-1116.03C3363.52,-1121.34 3433.75,-1130.03 3499.2,-1138.14"/>
<polygon fill="green" stroke="green" points="3498.65,-1141.6 3509,-1139.35 3499.51,-1134.65 3498.65,-1141.6"/>
<text text-anchor="middle" x="3387.95" y="-1132.45" font-family="Times New Roman,serif" font-size="14.00">36 FILE_WRITE</text>
</g>
<!-- 26 -->
<g id="node27" class="node">
<title>26</title>
<polygon fill="none" stroke="black" points="1577.21,-335.75 1487.71,-335.75 1487.71,-246.25 1577.21,-246.25 1577.21,-335.75"/>
<text text-anchor="middle" x="1532.46" y="-285.57" font-family="Times New Roman,serif" font-size="14.00">3074510bash</text>
</g>
<!-- 25&#45;&gt;26 -->
<g id="edge39" class="edge">
<title>25&#45;&gt;26</title>
<path fill="none" stroke="green" d="M1159.39,-276.7C1235.82,-279.64 1392.6,-285.66 1476.16,-288.87"/>
<polygon fill="green" stroke="green" points="1475.81,-292.36 1485.94,-289.25 1476.08,-285.37 1475.81,-292.36"/>
<text text-anchor="middle" x="1246.36" y="-285.45" font-family="Times New Roman,serif" font-size="14.00">38 PROCESS_FORK</text>
</g>
<!-- 25&#45;&gt;28 -->
<g id="edge41" class="edge">
<title>25&#45;&gt;28</title>
<path fill="none" stroke="green" d="M1159.26,-294.4C1201.44,-311.79 1267.35,-335.94 1327.36,-345 1758.51,-410.11 2287.47,-380.79 2460.02,-368.48"/>
<polygon fill="green" stroke="green" points="2460.11,-371.98 2469.84,-367.76 2459.61,-365 2460.11,-371.98"/>
<text text-anchor="middle" x="1818.56" y="-388.45" font-family="Times New Roman,serif" font-size="14.00">40 PROCESS_FORK</text>
</g>
<!-- 30 -->
<g id="node31" class="node">
<title>30</title>
<polygon fill="none" stroke="black" points="3320.45,-259.38 3237.7,-259.38 3237.7,-176.62 3320.45,-176.62 3320.45,-259.38"/>
<text text-anchor="middle" x="3279.08" y="-212.57" font-family="Times New Roman,serif" font-size="14.00">3074512sed</text>
</g>
<!-- 25&#45;&gt;30 -->
<g id="edge46" class="edge">
<title>25&#45;&gt;30</title>
<path fill="none" stroke="green" d="M1159.32,-264.94C1235,-248.58 1394.71,-218 1531.46,-218 1531.46,-218 1531.46,-218 2906.1,-218 3020.19,-218 3153.96,-218 3225.92,-218"/>
<polygon fill="green" stroke="green" points="3225.83,-221.5 3235.83,-218 3225.83,-214.5 3225.83,-221.5"/>
<text text-anchor="middle" x="2390.75" y="-220.45" font-family="Times New Roman,serif" font-size="14.00">45 PROCESS_FORK</text>
</g>
<!-- 27 -->
<g id="node28" class="node">
<title>27</title>
<polygon fill="none" stroke="black" points="2309.75,-329 1983.49,-329 1899.56,-293 2225.82,-293 2309.75,-329"/>
<text text-anchor="middle" x="2104.66" y="-305.57" font-family="Times New Roman,serif" font-size="14.00">FILE_FIFO@0@13@2860686484</text>
</g>
<!-- 26&#45;&gt;27 -->
<g id="edge40" class="edge">
<title>26&#45;&gt;27</title>
<path fill="none" stroke="green" d="M1577.26,-292.54C1648.76,-295.04 1794.64,-300.16 1914.74,-304.37"/>
<polygon fill="green" stroke="green" points="1914.28,-307.86 1924.39,-304.71 1914.52,-300.86 1914.28,-307.86"/>
<text text-anchor="middle" x="1818.56" y="-305.45" font-family="Times New Roman,serif" font-size="14.00">39 FILE_WRITE</text>
</g>
<!-- 27&#45;&gt;28 -->
<g id="edge42" class="edge">
<title>27&#45;&gt;28</title>
<path fill="none" stroke="green" d="M2264.87,-309.3C2324.86,-311.86 2393.19,-318.65 2453.75,-334.25 2456.15,-334.87 2458.57,-335.57 2460.99,-336.35"/>
<polygon fill="green" stroke="green" points="2459.54,-339.55 2470.13,-339.65 2461.91,-332.96 2459.54,-339.55"/>
<text text-anchor="middle" x="2390.75" y="-337.45" font-family="Times New Roman,serif" font-size="14.00">41 FILE_READ</text>
</g>
<!-- 29 -->
<g id="node30" class="node">
<title>29</title>
<polygon fill="none" stroke="black" points="3110.2,-316 2783.94,-316 2700,-280 3026.27,-280 3110.2,-316"/>
<text text-anchor="middle" x="2905.1" y="-292.57" font-family="Times New Roman,serif" font-size="14.00">FILE_FIFO@0@13@2860686485</text>
</g>
<!-- 28&#45;&gt;29 -->
<g id="edge45" class="edge">
<title>28&#45;&gt;29</title>
<path fill="none" stroke="green" d="M2565.4,-356.1C2619.38,-346.85 2710.91,-331.14 2785.22,-318.39"/>
<polygon fill="green" stroke="green" points="2785.77,-321.85 2795.03,-316.71 2784.59,-314.95 2785.77,-321.85"/>
<text text-anchor="middle" x="2632.5" y="-355.45" font-family="Times New Roman,serif" font-size="14.00">44 FILE_WRITE</text>
</g>
<!-- 29&#45;&gt;30 -->
<g id="edge47" class="edge">
<title>29&#45;&gt;30</title>
<path fill="none" stroke="green" d="M2997.16,-279.54C3059.83,-266.66 3144.93,-248.83 3219.7,-232 3221.84,-231.52 3224.01,-231.02 3226.21,-230.52"/>
<polygon fill="green" stroke="green" points="3226.87,-233.96 3235.81,-228.28 3225.28,-227.14 3226.87,-233.96"/>
<text text-anchor="middle" x="3173.95" y="-253.45" font-family="Times New Roman,serif" font-size="14.00">46 FILE_READ</text>
</g>
<!-- 30&#45;&gt;7 -->
<g id="edge48" class="edge">
<title>30&#45;&gt;7</title>
<path fill="none" stroke="green" d="M3320.69,-200.56C3389.62,-170.95 3529.5,-110.86 3606.23,-77.9"/>
<polygon fill="green" stroke="green" points="3607.43,-81.2 3615.23,-74.04 3604.66,-74.77 3607.43,-81.2"/>
<text text-anchor="middle" x="3387.95" y="-193.45" font-family="Times New Roman,serif" font-size="14.00">47 FILE_WRITE</text>
</g>
<!-- 33&#45;&gt;14 -->
<g id="edge52" class="edge">
<title>33&#45;&gt;14</title>
<path fill="none" stroke="green" d="M1159.39,-385.86C1200.34,-388.52 1264.36,-392.67 1327.83,-396.79"/>
<polygon fill="green" stroke="green" points="1327.54,-400.28 1337.74,-397.43 1327.99,-393.29 1327.54,-400.28"/>
<text text-anchor="middle" x="1246.36" y="-397.45" font-family="Times New Roman,serif" font-size="14.00">51 FILE_WRITE</text>
</g>
<!-- 34&#45;&gt;10 -->
<g id="edge54" class="edge">
<title>34&#45;&gt;10</title>
<path fill="none" stroke="yellow" d="M1153.65,-571.43C1228.97,-591.88 1396.08,-637.25 1480.52,-660.17"/>
<polygon fill="yellow" stroke="yellow" points="1479.59,-663.55 1490.16,-662.79 1481.43,-656.79 1479.59,-663.55"/>
<text text-anchor="middle" x="1246.36" y="-612.45" font-family="Times New Roman,serif" font-size="14.00">53 FILE_REMOVE</text>
</g>
</g>
</svg>
