<?xml version="1.0" encoding="UTF-8" standalone="no"?>
<!DOCTYPE svg PUBLIC "-//W3C//DTD SVG 1.1//EN"
 "http://www.w3.org/Graphics/SVG/1.1/DTD/svg11.dtd">
<!-- Generated by graphviz version 10.0.1 (20240210.2158)
 -->
<!-- Title: att Pages: 1 -->
<svg width="1392pt" height="695pt"
 viewBox="0.00 0.00 1392.22 694.75" xmlns="http://www.w3.org/2000/svg" xmlns:xlink="http://www.w3.org/1999/xlink">
<g id="graph0" class="graph" transform="scale(1 1) rotate(0) translate(4 690.75)">
<title>att</title>
<polygon fill="white" stroke="none" points="-4,4 -4,-690.75 1388.22,-690.75 1388.22,4 -4,4"/>
<!-- 0 -->
<g id="node1" class="node">
<title>0</title>
<polygon fill="none" stroke="black" points="102.91,-267.75 21.06,-267.75 0,-231.75 81.86,-231.75 102.91,-267.75"/>
<text text-anchor="middle" x="51.46" y="-244.33" font-family="Times New Roman,serif" font-size="14.00">ip1&#45;&gt;1</text>
</g>
<!-- 1 -->
<g id="node2" class="node">
<title>1</title>
<polygon fill="none" stroke="black" points="335.66,-292.25 250.66,-292.25 250.66,-207.25 335.66,-207.25 335.66,-292.25"/>
<text text-anchor="middle" x="293.16" y="-244.33" font-family="Times New Roman,serif" font-size="14.00">3116163java</text>
</g>
<!-- 0&#45;&gt;1 -->
<g id="edge1" class="edge">
<title>0&#45;&gt;1</title>
<path fill="none" stroke="red" d="M92.85,-249.75C133.02,-249.75 194.88,-249.75 239.02,-249.75"/>
<polygon fill="red" stroke="red" points="238.88,-253.25 248.88,-249.75 238.88,-246.25 238.88,-253.25"/>
<text text-anchor="middle" x="176.79" y="-252.2" font-family="Times New Roman,serif" font-size="14.00">0 NET_CONNECT</text>
</g>
<!-- 4 -->
<g id="node5" class="node">
<title>4</title>
<polygon fill="none" stroke="black" points="566.91,-507.75 490.91,-507.75 490.91,-431.75 566.91,-431.75 566.91,-507.75"/>
<text text-anchor="middle" x="528.91" y="-464.33" font-family="Times New Roman,serif" font-size="14.00">3127836sh</text>
</g>
<!-- 1&#45;&gt;4 -->
<g id="edge4" class="edge">
<title>1&#45;&gt;4</title>
<path fill="none" stroke="blue" d="M335.95,-289.08C377.2,-327.9 440.07,-387.07 482.52,-427.03"/>
<polygon fill="blue" stroke="blue" points="479.94,-429.41 489.62,-433.71 484.74,-424.31 479.94,-429.41"/>
<text text-anchor="middle" x="413.29" y="-418.2" font-family="Times New Roman,serif" font-size="14.00">3 PROCESS_FORK</text>
</g>
<!-- 9 -->
<g id="node10" class="node">
<title>9</title>
<polygon fill="none" stroke="black" points="566.91,-230.75 490.91,-230.75 490.91,-154.75 566.91,-154.75 566.91,-230.75"/>
<text text-anchor="middle" x="528.91" y="-187.33" font-family="Times New Roman,serif" font-size="14.00">3127999sh</text>
</g>
<!-- 1&#45;&gt;9 -->
<g id="edge10" class="edge">
<title>1&#45;&gt;9</title>
<path fill="none" stroke="orange" d="M335.95,-239.56C376.25,-229.73 437.2,-214.87 479.57,-204.54"/>
<polygon fill="orange" stroke="orange" points="480.37,-207.95 489.25,-202.18 478.71,-201.15 480.37,-207.95"/>
<text text-anchor="middle" x="413.29" y="-236.2" font-family="Times New Roman,serif" font-size="14.00">9 PROCESS_FORK</text>
</g>
<!-- 2 -->
<g id="node3" class="node">
<title>2</title>
<polygon fill="none" stroke="black" points="1384.22,-314.75 1057.96,-314.75 974.03,-278.75 1300.29,-278.75 1384.22,-314.75"/>
<text text-anchor="middle" x="1179.12" y="-291.33" font-family="Times New Roman,serif" font-size="14.00">FILE_FIFO@0@13@2861226596</text>
</g>
<!-- 2&#45;&gt;1 -->
<g id="edge2" class="edge">
<title>2&#45;&gt;1</title>
<path fill="none" stroke="red" d="M994.3,-287.95C827.19,-279.77 573.82,-266.89 353.66,-253.75 351.62,-253.63 349.54,-253.5 347.44,-253.37"/>
<polygon fill="red" stroke="red" points="347.81,-249.89 337.6,-252.74 347.36,-256.87 347.81,-249.89"/>
<text text-anchor="middle" x="647.91" y="-275.2" font-family="Times New Roman,serif" font-size="14.00">1 FILE_READ</text>
</g>
<!-- 3 -->
<g id="node4" class="node">
<title>3</title>
<polygon fill="none" stroke="black" points="1384.22,-38.75 1057.96,-38.75 974.03,-2.75 1300.29,-2.75 1384.22,-38.75"/>
<text text-anchor="middle" x="1179.12" y="-15.33" font-family="Times New Roman,serif" font-size="14.00">FILE_FIFO@0@13@2861236516</text>
</g>
<!-- 3&#45;&gt;1 -->
<g id="edge3" class="edge">
<title>3&#45;&gt;1</title>
<path fill="none" stroke="red" d="M1005.98,-2.26C921.49,2.25 818.79,0.9 728.91,-19.75 548.26,-61.25 510.2,-102.47 353.66,-201.75 350.79,-203.58 347.89,-205.52 345,-207.53"/>
<polygon fill="red" stroke="red" points="343.12,-204.58 337.09,-213.29 347.23,-210.24 343.12,-204.58"/>
<text text-anchor="middle" x="647.91" y="-65.2" font-family="Times New Roman,serif" font-size="14.00">2 FILE_READ</text>
</g>
<!-- 5 -->
<g id="node6" class="node">
<title>5</title>
<ellipse fill="none" stroke="black" cx="783.97" cy="-668.75" rx="55.06" ry="18"/>
<text text-anchor="middle" x="783.97" y="-663.33" font-family="Times New Roman,serif" font-size="14.00">/etc/crontab</text>
</g>
<!-- 4&#45;&gt;5 -->
<g id="edge5" class="edge">
<title>4&#45;&gt;5</title>
<path fill="none" stroke="blue" d="M544.03,-507.94C553.17,-528.57 566.78,-553.31 584.91,-570.75 626.63,-610.87 687.97,-637.74 731.31,-653.04"/>
<polygon fill="blue" stroke="blue" points="730.16,-656.35 740.76,-656.28 732.44,-649.73 730.16,-656.35"/>
<text text-anchor="middle" x="647.91" y="-647.2" font-family="Times New Roman,serif" font-size="14.00">4 FILE_WRITE</text>
</g>
<!-- 6 -->
<g id="node7" class="node">
<title>6</title>
<polygon fill="none" stroke="black" points="831.72,-632.5 736.22,-632.5 736.22,-537 831.72,-537 831.72,-632.5"/>
<text text-anchor="middle" x="783.97" y="-579.33" font-family="Times New Roman,serif" font-size="14.00">3127838mkdir</text>
</g>
<!-- 4&#45;&gt;6 -->
<g id="edge6" class="edge">
<title>4&#45;&gt;6</title>
<path fill="none" stroke="black" d="M567.25,-486.72C609.01,-505.7 677.13,-536.65 725.65,-558.7"/>
<polygon fill="black" stroke="black" points="724.06,-561.83 734.62,-562.78 726.96,-555.45 724.06,-561.83"/>
<text text-anchor="middle" x="647.91" y="-553.2" font-family="Times New Roman,serif" font-size="14.00">5 PROCESS_FORK</text>
</g>
<!-- 7 -->
<g id="node8" class="node">
<title>7</title>
<polygon fill="none" stroke="black" points="833.22,-519 734.72,-519 734.72,-420.5 833.22,-420.5 833.22,-519"/>
<text text-anchor="middle" x="783.97" y="-464.33" font-family="Times New Roman,serif" font-size="14.00">3127839mount</text>
</g>
<!-- 4&#45;&gt;7 -->
<g id="edge7" class="edge">
<title>4&#45;&gt;7</title>
<path fill="none" stroke="black" d="M567.25,-469.75C608.37,-469.75 675.04,-469.75 723.39,-469.75"/>
<polygon fill="black" stroke="black" points="723.13,-473.25 733.13,-469.75 723.13,-466.25 723.13,-473.25"/>
<text text-anchor="middle" x="647.91" y="-472.2" font-family="Times New Roman,serif" font-size="14.00">6 PROCESS_FORK</text>
</g>
<!-- 8 -->
<g id="node9" class="node">
<title>8</title>
<polygon fill="none" stroke="black" points="836.6,-402.38 731.35,-402.38 731.35,-297.13 836.6,-297.13 836.6,-402.38"/>
<text text-anchor="middle" x="783.97" y="-344.33" font-family="Times New Roman,serif" font-size="14.00">3127840umount</text>
</g>
<!-- 4&#45;&gt;8 -->
<g id="edge8" class="edge">
<title>4&#45;&gt;8</title>
<path fill="none" stroke="black" d="M567.25,-452.04C607.6,-432.91 672.57,-402.11 720.67,-379.29"/>
<polygon fill="black" stroke="black" points="722.07,-382.5 729.61,-375.06 719.07,-376.18 722.07,-382.5"/>
<text text-anchor="middle" x="647.91" y="-443.2" font-family="Times New Roman,serif" font-size="14.00">7 PROCESS_FORK</text>
</g>
<!-- 8&#45;&gt;2 -->
<g id="edge9" class="edge">
<title>8&#45;&gt;2</title>
<path fill="none" stroke="black" d="M836.77,-342.77C889.02,-335.72 971.9,-324.55 1042.9,-314.98"/>
<polygon fill="black" stroke="black" points="1043.25,-318.46 1052.69,-313.66 1042.31,-311.53 1043.25,-318.46"/>
<text text-anchor="middle" x="906.53" y="-341.2" font-family="Times New Roman,serif" font-size="14.00">8 FILE_WRITE</text>
</g>
<!-- 10 -->
<g id="node11" class="node">
<title>10</title>
<polygon fill="none" stroke="black" points="831.72,-240.5 736.22,-240.5 736.22,-145 831.72,-145 831.72,-240.5"/>
<text text-anchor="middle" x="783.97" y="-187.33" font-family="Times New Roman,serif" font-size="14.00">3128000mkdir</text>
</g>
<!-- 9&#45;&gt;10 -->
<g id="edge11" class="edge">
<title>9&#45;&gt;10</title>
<path fill="none" stroke="orange" d="M567.25,-192.75C608.75,-192.75 676.28,-192.75 724.73,-192.75"/>
<polygon fill="orange" stroke="orange" points="724.48,-196.25 734.48,-192.75 724.48,-189.25 724.48,-196.25"/>
<text text-anchor="middle" x="647.91" y="-195.2" font-family="Times New Roman,serif" font-size="14.00">10 PROCESS_FORK</text>
</g>
<!-- 11 -->
<g id="node12" class="node">
<title>11</title>
<polygon fill="none" stroke="black" points="833.22,-127 734.72,-127 734.72,-28.5 833.22,-28.5 833.22,-127"/>
<text text-anchor="middle" x="783.97" y="-72.33" font-family="Times New Roman,serif" font-size="14.00">3128004mount</text>
</g>
<!-- 9&#45;&gt;11 -->
<g id="edge12" class="edge">
<title>9&#45;&gt;11</title>
<path fill="none" stroke="orange" d="M567.25,-175.78C608.63,-156.98 675.88,-126.42 724.3,-104.41"/>
<polygon fill="orange" stroke="orange" points="725.61,-107.66 733.26,-100.34 722.71,-101.29 725.61,-107.66"/>
<text text-anchor="middle" x="647.91" y="-167.2" font-family="Times New Roman,serif" font-size="14.00">11 PROCESS_FORK</text>
</g>
<!-- 11&#45;&gt;3 -->
<g id="edge13" class="edge">
<title>11&#45;&gt;3</title>
<path fill="none" stroke="orange" d="M833.57,-70.7C886.14,-63.08 972.21,-50.6 1045.18,-40.03"/>
<polygon fill="orange" stroke="orange" points="1045.41,-43.53 1054.81,-38.63 1044.41,-36.6 1045.41,-43.53"/>
<text text-anchor="middle" x="906.53" y="-69.2" font-family="Times New Roman,serif" font-size="14.00">12 FILE_WRITE</text>
</g>
</g>
</svg>
