<?xml version="1.0" encoding="UTF-8" standalone="no"?>
<!DOCTYPE svg PUBLIC "-//W3C//DTD SVG 1.1//EN"
 "http://www.w3.org/Graphics/SVG/1.1/DTD/svg11.dtd">
<!-- Generated by graphviz version 2.38.0 (20140413.2041)
 -->
<!-- Title: case1_split_case3_1 Pages: 1 -->
<svg width="1257pt" height="694pt"
 viewBox="0.00 0.00 1257.18 693.89" xmlns="http://www.w3.org/2000/svg" xmlns:xlink="http://www.w3.org/1999/xlink">
<g id="graph0" class="graph" transform="scale(1 1) rotate(0) translate(4 689.889)">
<title>case1_split_case3_1</title>
<polygon fill="white" stroke="none" points="-4,4 -4,-689.889 1253.18,-689.889 1253.18,4 -4,4"/>
<!-- 0 -->
<g id="node1" class="node"><title>0</title>
<polygon fill="none" stroke="black" points="101.017,-256.889 20.6648,-256.889 -0.00577781,-220.889 80.3468,-220.889 101.017,-256.889"/>
<text text-anchor="middle" x="50.5058" y="-235.189" font-family="Times New Roman,serif" font-size="14.00">ip1&#45;&gt;1</text>
</g>
<!-- 1 -->
<g id="node2" class="node"><title>1</title>
<polygon fill="none" stroke="black" points="335.012,-281.889 249.012,-281.889 249.012,-195.889 335.012,-195.889 335.012,-281.889"/>
<text text-anchor="middle" x="292.012" y="-235.189" font-family="Times New Roman,serif" font-size="14.00">3116163java</text>
</g>
<!-- 0&#45;&gt;1 -->
<g id="edge1" class="edge"><title>0&#45;&gt;1</title>
<path fill="none" stroke="Red" d="M90.7871,-238.889C131.17,-238.889 194.276,-238.889 238.831,-238.889"/>
<polygon fill="Red" stroke="Red" points="238.886,-242.389 248.886,-238.889 238.886,-235.389 238.886,-242.389"/>
<text text-anchor="middle" x="175.012" y="-242.689" font-family="Times New Roman,serif" font-size="14.00">0 NET_CONNECT</text>
</g>
<!-- 6 -->
<g id="node5" class="node"><title>6</title>
<polygon fill="none" stroke="black" points="568.012,-506.389 491.012,-506.389 491.012,-429.389 568.012,-429.389 568.012,-506.389"/>
<text text-anchor="middle" x="529.512" y="-464.189" font-family="Times New Roman,serif" font-size="14.00">3127836sh</text>
</g>
<!-- 1&#45;&gt;6 -->
<g id="edge4" class="edge"><title>1&#45;&gt;6</title>
<path fill="none" stroke="Blue" d="M335.114,-279.83C376.886,-320.449 440.684,-382.486 483.458,-424.079"/>
<polygon fill="Blue" stroke="Blue" points="481.053,-426.622 490.662,-431.084 485.933,-421.604 481.053,-426.622"/>
<text text-anchor="middle" x="413.012" y="-415.689" font-family="Times New Roman,serif" font-size="14.00">3 PROCESS_FORK</text>
</g>
<!-- 12 -->
<g id="node10" class="node"><title>12</title>
<polygon fill="none" stroke="black" points="568.012,-228.389 491.012,-228.389 491.012,-151.389 568.012,-151.389 568.012,-228.389"/>
<text text-anchor="middle" x="529.512" y="-186.189" font-family="Times New Roman,serif" font-size="14.00">3127999sh</text>
</g>
<!-- 1&#45;&gt;12 -->
<g id="edge10" class="edge"><title>1&#45;&gt;12</title>
<path fill="none" stroke="Blue" d="M335.114,-230.129C376.023,-221.617 438.058,-208.71 480.78,-199.821"/>
<polygon fill="Blue" stroke="Blue" points="481.585,-203.228 490.662,-197.764 480.159,-196.375 481.585,-203.228"/>
<text text-anchor="middle" x="413.012" y="-229.689" font-family="Times New Roman,serif" font-size="14.00">9 PROCESS_FORK</text>
</g>
<!-- 2 -->
<g id="node3" class="node"><title>2</title>
<ellipse fill="none" stroke="black" cx="1112.04" cy="-293.889" rx="137.276" ry="18"/>
<text text-anchor="middle" x="1112.04" y="-290.189" font-family="Times New Roman,serif" font-size="14.00">FILE_FIFO@0@13@2861226596</text>
</g>
<!-- 2&#45;&gt;1 -->
<g id="edge2" class="edge"><title>2&#45;&gt;1</title>
<path fill="none" stroke="Red" d="M984.863,-287.092C834.338,-278.668 575.132,-263.169 353.012,-244.889 350.501,-244.683 347.932,-244.462 345.339,-244.231"/>
<polygon fill="Red" stroke="Red" points="345.56,-240.737 335.281,-243.304 344.917,-247.707 345.56,-240.737"/>
<text text-anchor="middle" x="649.512" y="-273.689" font-family="Times New Roman,serif" font-size="14.00">1 FILE_READ</text>
</g>
<!-- 4 -->
<g id="node4" class="node"><title>4</title>
<ellipse fill="none" stroke="black" cx="1112.04" cy="-23.8892" rx="137.276" ry="18"/>
<text text-anchor="middle" x="1112.04" y="-20.1892" font-family="Times New Roman,serif" font-size="14.00">FILE_FIFO@0@13@2861236516</text>
</g>
<!-- 4&#45;&gt;1 -->
<g id="edge3" class="edge"><title>4&#45;&gt;1</title>
<path fill="none" stroke="Red" d="M1025.3,-9.92176C947.475,-0.0426061 830.073,7.8289 731.012,-14.8892 579.405,-49.6574 421.842,-148.317 343.52,-202.371"/>
<polygon fill="Red" stroke="Red" points="341.494,-199.517 335.279,-208.097 345.488,-205.266 341.494,-199.517"/>
<text text-anchor="middle" x="649.512" y="-67.6892" font-family="Times New Roman,serif" font-size="14.00">2 FILE_READ</text>
</g>
<!-- 7 -->
<g id="node6" class="node"><title>7</title>
<ellipse fill="none" stroke="black" cx="784.957" cy="-667.889" rx="53.8905" ry="18"/>
<text text-anchor="middle" x="784.957" y="-664.189" font-family="Times New Roman,serif" font-size="14.00">/etc/crontab</text>
</g>
<!-- 6&#45;&gt;7 -->
<g id="edge5" class="edge"><title>6&#45;&gt;7</title>
<path fill="none" stroke="Blue" d="M545.408,-506.619C554.691,-526.826 568.267,-550.821 586.012,-567.889 628.707,-608.956 691.585,-636.782 734.962,-652.448"/>
<polygon fill="Blue" stroke="Blue" points="733.857,-655.77 744.452,-655.794 736.185,-649.168 733.857,-655.77"/>
<text text-anchor="middle" x="649.512" y="-646.689" font-family="Times New Roman,serif" font-size="14.00">4 FILE_WRITE</text>
</g>
<!-- 8 -->
<g id="node7" class="node"><title>8</title>
<polygon fill="none" stroke="black" points="832.957,-631.889 736.957,-631.889 736.957,-535.889 832.957,-535.889 832.957,-631.889"/>
<text text-anchor="middle" x="784.957" y="-580.189" font-family="Times New Roman,serif" font-size="14.00">3127838mkdir</text>
</g>
<!-- 6&#45;&gt;8 -->
<g id="edge6" class="edge"><title>6&#45;&gt;8</title>
<path fill="none" stroke="Blue" d="M568.181,-485.13C610.283,-504.4 678.904,-535.807 727.444,-558.024"/>
<polygon fill="Blue" stroke="Blue" points="726.017,-561.22 736.566,-562.199 728.93,-554.855 726.017,-561.22"/>
<text text-anchor="middle" x="649.512" y="-552.689" font-family="Times New Roman,serif" font-size="14.00">5 PROCESS_FORK</text>
</g>
<!-- 9 -->
<g id="node8" class="node"><title>9</title>
<polygon fill="none" stroke="black" points="834.457,-517.389 735.457,-517.389 735.457,-418.389 834.457,-418.389 834.457,-517.389"/>
<text text-anchor="middle" x="784.957" y="-464.189" font-family="Times New Roman,serif" font-size="14.00">3127839mount</text>
</g>
<!-- 6&#45;&gt;9 -->
<g id="edge7" class="edge"><title>6&#45;&gt;9</title>
<path fill="none" stroke="Blue" d="M568.181,-467.889C609.635,-467.889 676.796,-467.889 725.186,-467.889"/>
<polygon fill="Blue" stroke="Blue" points="725.211,-471.389 735.211,-467.889 725.211,-464.389 725.211,-471.389"/>
<text text-anchor="middle" x="649.512" y="-471.689" font-family="Times New Roman,serif" font-size="14.00">6 PROCESS_FORK</text>
</g>
<!-- 10 -->
<g id="node9" class="node"><title>10</title>
<polygon fill="none" stroke="black" points="837.957,-399.889 731.957,-399.889 731.957,-293.889 837.957,-293.889 837.957,-399.889"/>
<text text-anchor="middle" x="784.957" y="-343.189" font-family="Times New Roman,serif" font-size="14.00">3127840umount</text>
</g>
<!-- 6&#45;&gt;10 -->
<g id="edge8" class="edge"><title>6&#45;&gt;10</title>
<path fill="none" stroke="Blue" d="M568.181,-449.905C608.858,-430.485 674.29,-399.247 722.448,-376.255"/>
<polygon fill="Blue" stroke="Blue" points="724.017,-379.384 731.533,-371.917 721.001,-373.067 724.017,-379.384"/>
<text text-anchor="middle" x="649.512" y="-441.689" font-family="Times New Roman,serif" font-size="14.00">7 PROCESS_FORK</text>
</g>
<!-- 10&#45;&gt;2 -->
<g id="edge9" class="edge"><title>10&#45;&gt;2</title>
<path fill="none" stroke="Blue" d="M838.187,-338.374C885.863,-330.601 957.512,-318.92 1015.43,-309.478"/>
<polygon fill="Blue" stroke="Blue" points="1016.03,-312.926 1025.33,-307.862 1014.9,-306.017 1016.03,-312.926"/>
<text text-anchor="middle" x="906.902" y="-337.689" font-family="Times New Roman,serif" font-size="14.00">8 FILE_WRITE</text>
</g>
<!-- 13 -->
<g id="node11" class="node"><title>13</title>
<polygon fill="none" stroke="black" points="832.957,-237.889 736.957,-237.889 736.957,-141.889 832.957,-141.889 832.957,-237.889"/>
<text text-anchor="middle" x="784.957" y="-186.189" font-family="Times New Roman,serif" font-size="14.00">3128000mkdir</text>
</g>
<!-- 12&#45;&gt;13 -->
<g id="edge11" class="edge"><title>12&#45;&gt;13</title>
<path fill="none" stroke="Blue" d="M568.181,-189.889C610.021,-189.889 678.049,-189.889 726.533,-189.889"/>
<polygon fill="Blue" stroke="Blue" points="726.566,-193.389 736.566,-189.889 726.566,-186.389 726.566,-193.389"/>
<text text-anchor="middle" x="649.512" y="-193.689" font-family="Times New Roman,serif" font-size="14.00">10 PROCESS_FORK</text>
</g>
<!-- 14 -->
<g id="node12" class="node"><title>14</title>
<polygon fill="none" stroke="black" points="834.457,-123.389 735.457,-123.389 735.457,-24.3892 834.457,-24.3892 834.457,-123.389"/>
<text text-anchor="middle" x="784.957" y="-70.1892" font-family="Times New Roman,serif" font-size="14.00">3128004mount</text>
</g>
<!-- 12&#45;&gt;14 -->
<g id="edge12" class="edge"><title>12&#45;&gt;14</title>
<path fill="none" stroke="Blue" d="M568.181,-172.648C609.895,-153.556 677.64,-122.55 726.095,-100.372"/>
<polygon fill="Blue" stroke="Blue" points="727.574,-103.544 735.211,-96.1999 724.661,-97.1792 727.574,-103.544"/>
<text text-anchor="middle" x="649.512" y="-165.689" font-family="Times New Roman,serif" font-size="14.00">11 PROCESS_FORK</text>
</g>
<!-- 14&#45;&gt;4 -->
<g id="edge13" class="edge"><title>14&#45;&gt;4</title>
<path fill="none" stroke="Blue" d="M834.625,-66.4037C881.424,-59.2057 953.532,-48.115 1012.37,-39.066"/>
<polygon fill="Blue" stroke="Blue" points="1013.08,-42.4968 1022.44,-37.5172 1012.02,-35.5781 1013.08,-42.4968"/>
<text text-anchor="middle" x="906.902" y="-65.6892" font-family="Times New Roman,serif" font-size="14.00">12 FILE_WRITE</text>
</g>
</g>
</svg>
