<?xml version="1.0" encoding="UTF-8" standalone="no"?>
<!DOCTYPE svg PUBLIC "-//W3C//DTD SVG 1.1//EN"
 "http://www.w3.org/Graphics/SVG/1.1/DTD/svg11.dtd">
<!-- Generated by graphviz version 10.0.1 (20240210.2158)
 -->
<!-- Title: att Pages: 1 -->
<svg width="3555pt" height="590pt"
 viewBox="0.00 0.00 3555.20 589.75" xmlns="http://www.w3.org/2000/svg" xmlns:xlink="http://www.w3.org/1999/xlink">
<g id="graph0" class="graph" transform="scale(1 1) rotate(0) translate(4 585.75)">
<title>att</title>
<polygon fill="white" stroke="none" points="-4,4 -4,-585.75 3551.2,-585.75 3551.2,4 -4,4"/>
<!-- 0 -->
<g id="node1" class="node">
<title>0</title>
<polygon fill="none" stroke="black" points="152.5,-425.25 0,-425.25 0,-272.75 152.5,-272.75 152.5,-425.25"/>
<text text-anchor="middle" x="76.25" y="-343.57" font-family="Times New Roman,serif" font-size="14.00">3030784containerd&#45;shim</text>
</g>
<!-- 1 -->
<g id="node2" class="node">
<title>1</title>
<polygon fill="none" stroke="black" points="392.75,-391.5 307.75,-391.5 307.75,-306.5 392.75,-306.5 392.75,-391.5"/>
<text text-anchor="middle" x="350.25" y="-343.57" font-family="Times New Roman,serif" font-size="14.00">3030801java</text>
</g>
<!-- 0&#45;&gt;1 -->
<g id="edge1" class="edge">
<title>0&#45;&gt;1</title>
<path fill="none" stroke="red" d="M152.66,-349C198.26,-349 255.28,-349 296.16,-349"/>
<polygon fill="red" stroke="red" points="295.98,-352.5 305.98,-349 295.98,-345.5 295.98,-352.5"/>
<text text-anchor="middle" x="230.12" y="-351.45" font-family="Times New Roman,serif" font-size="14.00">0 PROCESS_FORK</text>
</g>
<!-- 2 -->
<g id="node3" class="node">
<title>2</title>
<ellipse fill="none" stroke="black" cx="880.76" cy="-505" rx="192.28" ry="18"/>
<text text-anchor="middle" x="880.76" y="-499.57" font-family="Times New Roman,serif" font-size="14.00">/usr/local/tomcat/webapps/ROOT/tomcatwar.jsp</text>
</g>
<!-- 1&#45;&gt;2 -->
<g id="edge2" class="edge">
<title>1&#45;&gt;2</title>
<path fill="none" stroke="red" d="M370.09,-391.74C379.78,-408.82 393.29,-427.01 410.75,-438 438.1,-455.21 608.57,-476.53 736.17,-490.44"/>
<polygon fill="red" stroke="red" points="735.78,-493.92 746.09,-491.52 736.53,-486.96 735.78,-493.92"/>
<text text-anchor="middle" x="473.75" y="-466.45" font-family="Times New Roman,serif" font-size="14.00">1 FILE_CREATE</text>
</g>
<!-- 1&#45;&gt;2 -->
<g id="edge3" class="edge">
<title>1&#45;&gt;2</title>
<path fill="none" stroke="red" d="M352.66,-391.67C356.56,-432.66 369.51,-492.57 410.75,-522 535.48,-611 730.04,-560.07 824.54,-526.77"/>
<polygon fill="red" stroke="red" points="825.63,-530.09 833.86,-523.41 823.26,-523.5 825.63,-530.09"/>
<text text-anchor="middle" x="473.75" y="-568.45" font-family="Times New Roman,serif" font-size="14.00">2 FILE_WRITE</text>
</g>
<!-- 3 -->
<g id="node4" class="node">
<title>3</title>
<ellipse fill="none" stroke="black" cx="880.76" cy="-388" rx="322.02" ry="18"/>
<text text-anchor="middle" x="880.76" y="-382.57" font-family="Times New Roman,serif" font-size="14.00">/usr/local/tomcat/work/Catalina/localhost/ROOT/org/apache/jsp/tomcatwar_jsp.java</text>
</g>
<!-- 1&#45;&gt;3 -->
<g id="edge5" class="edge">
<title>1&#45;&gt;3</title>
<path fill="none" stroke="red" d="M392.92,-348.06C430.54,-347.5 487.4,-347.38 536.75,-350.25 604.74,-354.21 679.98,-362.1 742.63,-369.64"/>
<polygon fill="red" stroke="red" points="741.92,-373.08 752.27,-370.81 742.76,-366.13 741.92,-373.08"/>
<text text-anchor="middle" x="473.75" y="-352.45" font-family="Times New Roman,serif" font-size="14.00">4 FILE_CREATE</text>
</g>
<!-- 1&#45;&gt;3 -->
<g id="edge6" class="edge">
<title>1&#45;&gt;3</title>
<path fill="none" stroke="red" d="M388.9,-391.97C395.62,-397.28 402.97,-401.91 410.75,-405 467.47,-427.49 618.34,-417.85 733.79,-405.97"/>
<polygon fill="red" stroke="red" points="734.11,-409.46 743.69,-404.94 733.38,-402.5 734.11,-409.46"/>
<text text-anchor="middle" x="473.75" y="-420.45" font-family="Times New Roman,serif" font-size="14.00">5 FILE_WRITE</text>
</g>
<!-- 4 -->
<g id="node5" class="node">
<title>4</title>
<ellipse fill="none" stroke="black" cx="880.76" cy="-274" rx="326.01" ry="18"/>
<text text-anchor="middle" x="880.76" y="-268.57" font-family="Times New Roman,serif" font-size="14.00">/usr/local/tomcat/work/Catalina/localhost/ROOT/org/apache/jsp/tomcatwar_jsp.class</text>
</g>
<!-- 1&#45;&gt;4 -->
<g id="edge8" class="edge">
<title>1&#45;&gt;4</title>
<path fill="none" stroke="red" d="M361.21,-306.23C369.7,-280.23 384.81,-249.08 410.75,-233.25 458.55,-204.08 483.7,-215.31 536.75,-233.25 546.29,-236.48 545.36,-243.38 554.75,-247 568.99,-252.49 583.84,-257.11 599.01,-261.01"/>
<polygon fill="red" stroke="red" points="598.09,-264.39 608.63,-263.36 599.75,-257.59 598.09,-264.39"/>
<text text-anchor="middle" x="473.75" y="-235.45" font-family="Times New Roman,serif" font-size="14.00">7 FILE_CREATE</text>
</g>
<!-- 1&#45;&gt;4 -->
<g id="edge9" class="edge">
<title>1&#45;&gt;4</title>
<path fill="none" stroke="red" d="M393.13,-332.29C398.98,-330.37 404.97,-328.61 410.75,-327.25 488.29,-308.95 574.58,-296.87 651.78,-288.93"/>
<polygon fill="red" stroke="red" points="652,-292.42 661.6,-287.93 651.3,-285.46 652,-292.42"/>
<text text-anchor="middle" x="473.75" y="-329.45" font-family="Times New Roman,serif" font-size="14.00">8 FILE_WRITE</text>
</g>
<!-- 5 -->
<g id="node6" class="node">
<title>5</title>
<polygon fill="none" stroke="black" points="925.51,-237.75 836.01,-237.75 836.01,-148.25 925.51,-148.25 925.51,-237.75"/>
<text text-anchor="middle" x="880.76" y="-187.57" font-family="Times New Roman,serif" font-size="14.00">3033501bash</text>
</g>
<!-- 1&#45;&gt;5 -->
<g id="edge11" class="edge">
<title>1&#45;&gt;5</title>
<path fill="none" stroke="blue" d="M354.94,-306.07C360.57,-269.83 374.8,-220.01 410.75,-195.25 536.73,-108.48 730.38,-147.85 824.54,-174.95"/>
<polygon fill="blue" stroke="blue" points="823.49,-178.29 834.07,-177.76 825.47,-171.58 823.49,-178.29"/>
<text text-anchor="middle" x="473.75" y="-197.45" font-family="Times New Roman,serif" font-size="14.00">10 PROCESS_FORK</text>
</g>
<!-- 8 -->
<g id="node9" class="node">
<title>8</title>
<polygon fill="none" stroke="black" points="1962.64,-174.75 1873.14,-174.75 1873.14,-85.25 1962.64,-85.25 1962.64,-174.75"/>
<text text-anchor="middle" x="1917.89" y="-124.58" font-family="Times New Roman,serif" font-size="14.00">3033504bash</text>
</g>
<!-- 1&#45;&gt;8 -->
<g id="edge15" class="edge">
<title>1&#45;&gt;8</title>
<path fill="none" stroke="blue" d="M357.87,-306.26C367.12,-252.62 385.65,-165.15 410.75,-145 573.65,-14.21 670.86,-114 879.76,-114 879.76,-114 879.76,-114 1693.58,-114 1750.97,-114 1816.44,-119.32 1861.58,-123.83"/>
<polygon fill="blue" stroke="blue" points="1861.08,-127.29 1871.39,-124.83 1861.79,-120.33 1861.08,-127.29"/>
<text text-anchor="middle" x="1431.77" y="-116.45" font-family="Times New Roman,serif" font-size="14.00">14 PROCESS_FORK</text>
</g>
<!-- 2&#45;&gt;1 -->
<g id="edge4" class="edge">
<title>2&#45;&gt;1</title>
<path fill="none" stroke="red" d="M688.12,-505.41C568.93,-504.05 434,-498.91 410.75,-483 384.02,-464.71 369.16,-431.5 360.98,-402.72"/>
<polygon fill="red" stroke="red" points="364.46,-402.19 358.54,-393.41 357.69,-403.97 364.46,-402.19"/>
<text text-anchor="middle" x="473.75" y="-502.45" font-family="Times New Roman,serif" font-size="14.00">3 FILE_READ</text>
</g>
<!-- 3&#45;&gt;1 -->
<g id="edge7" class="edge">
<title>3&#45;&gt;1</title>
<path fill="none" stroke="red" d="M568.08,-383.49C515.35,-379.84 461.33,-374.3 410.75,-366 408.6,-365.65 406.42,-365.25 404.23,-364.8"/>
<polygon fill="red" stroke="red" points="405.23,-361.44 394.71,-362.63 403.68,-368.27 405.23,-361.44"/>
<text text-anchor="middle" x="473.75" y="-382.45" font-family="Times New Roman,serif" font-size="14.00">6 FILE_READ</text>
</g>
<!-- 4&#45;&gt;1 -->
<g id="edge10" class="edge">
<title>4&#45;&gt;1</title>
<path fill="none" stroke="red" d="M620.31,-262.84C533.63,-262.82 449.3,-267.95 410.75,-285.25 403.44,-288.53 396.61,-293.18 390.37,-298.5"/>
<polygon fill="red" stroke="red" points="388.27,-295.67 383.35,-305.05 393.04,-300.79 388.27,-295.67"/>
<text text-anchor="middle" x="473.75" y="-287.45" font-family="Times New Roman,serif" font-size="14.00">9 FILE_READ</text>
</g>
<!-- 6 -->
<g id="node7" class="node">
<title>6</title>
<polygon fill="none" stroke="black" points="1482.9,-250.12 1380.65,-250.12 1380.65,-147.88 1482.9,-147.88 1482.9,-250.12"/>
<text text-anchor="middle" x="1431.77" y="-193.57" font-family="Times New Roman,serif" font-size="14.00">3033503base64</text>
</g>
<!-- 5&#45;&gt;6 -->
<g id="edge12" class="edge">
<title>5&#45;&gt;6</title>
<path fill="none" stroke="blue" d="M925.76,-193.48C1023.08,-194.54 1256.8,-197.1 1368.84,-198.32"/>
<polygon fill="blue" stroke="blue" points="1368.72,-201.82 1378.75,-198.43 1368.79,-194.82 1368.72,-201.82"/>
<text text-anchor="middle" x="1287.77" y="-199.45" font-family="Times New Roman,serif" font-size="14.00">11 PROCESS_FORK</text>
</g>
<!-- 7 -->
<g id="node8" class="node">
<title>7</title>
<ellipse fill="none" stroke="black" cx="1692.58" cy="-160" rx="53.06" ry="18"/>
<text text-anchor="middle" x="1692.58" y="-154.57" font-family="Times New Roman,serif" font-size="14.00">/tmp/run.sh</text>
</g>
<!-- 6&#45;&gt;7 -->
<g id="edge13" class="edge">
<title>6&#45;&gt;7</title>
<path fill="none" stroke="blue" d="M1483.09,-194.82C1521.25,-191.24 1574.92,-185.34 1621.52,-177 1627.15,-175.99 1633.01,-174.8 1638.82,-173.53"/>
<polygon fill="blue" stroke="blue" points="1639.45,-176.98 1648.42,-171.34 1637.89,-170.15 1639.45,-176.98"/>
<text text-anchor="middle" x="1567.15" y="-193.45" font-family="Times New Roman,serif" font-size="14.00">12 FILE_CREATE</text>
</g>
<!-- 6&#45;&gt;7 -->
<g id="edge14" class="edge">
<title>6&#45;&gt;7</title>
<path fill="none" stroke="blue" d="M1482.97,-168.21C1492.55,-163.68 1502.73,-159.71 1512.77,-157.25 1551.82,-147.67 1597.11,-148.49 1632.34,-151.63"/>
<polygon fill="blue" stroke="blue" points="1631.6,-155.08 1641.9,-152.58 1632.29,-148.11 1631.6,-155.08"/>
<text text-anchor="middle" x="1567.15" y="-159.45" font-family="Times New Roman,serif" font-size="14.00">13 FILE_WRITE</text>
</g>
<!-- 7&#45;&gt;8 -->
<g id="edge16" class="edge">
<title>7&#45;&gt;8</title>
<path fill="none" stroke="black" d="M1742.59,-153.42C1777.84,-148.68 1825.42,-142.29 1861.96,-137.38"/>
<polygon fill="black" stroke="black" points="1861.97,-140.91 1871.42,-136.11 1861.04,-133.97 1861.97,-140.91"/>
<text text-anchor="middle" x="1809.39" y="-152.45" font-family="Times New Roman,serif" font-size="14.00">15 FILE_READ</text>
</g>
<!-- 9 -->
<g id="node10" class="node">
<title>9</title>
<ellipse fill="none" stroke="black" cx="2152.7" cy="-130" rx="55.06" ry="18"/>
<text text-anchor="middle" x="2152.7" y="-124.58" font-family="Times New Roman,serif" font-size="14.00">/etc/crontab</text>
</g>
<!-- 8&#45;&gt;9 -->
<g id="edge17" class="edge">
<title>8&#45;&gt;9</title>
<path fill="none" stroke="black" d="M1962.95,-130C1997.63,-130 2046.49,-130 2085.81,-130"/>
<polygon fill="black" stroke="black" points="2085.64,-133.5 2095.64,-130 2085.64,-126.5 2085.64,-133.5"/>
<text text-anchor="middle" x="2030.14" y="-132.45" font-family="Times New Roman,serif" font-size="14.00">16 FILE_WRITE</text>
</g>
<!-- 10 -->
<g id="node11" class="node">
<title>10</title>
<polygon fill="none" stroke="black" points="2411.25,-320 2335.25,-320 2335.25,-244 2411.25,-244 2411.25,-320"/>
<text text-anchor="middle" x="2373.25" y="-276.57" font-family="Times New Roman,serif" font-size="14.00">1950crond</text>
</g>
<!-- 9&#45;&gt;10 -->
<g id="edge18" class="edge">
<title>9&#45;&gt;10</title>
<path fill="none" stroke="black" d="M2163.75,-147.85C2176.03,-168.24 2198.57,-201.44 2225.75,-222 2255.13,-244.22 2293.91,-259.62 2324.19,-269.25"/>
<polygon fill="black" stroke="black" points="2322.89,-272.52 2333.48,-272.1 2324.94,-265.82 2322.89,-272.52"/>
<text text-anchor="middle" x="2271.5" y="-268.45" font-family="Times New Roman,serif" font-size="14.00">17 FILE_READ</text>
</g>
<!-- 13 -->
<g id="node14" class="node">
<title>13</title>
<polygon fill="none" stroke="black" points="3205.13,-147.38 3122.38,-147.38 3122.38,-64.62 3205.13,-64.62 3205.13,-147.38"/>
<text text-anchor="middle" x="3163.75" y="-100.58" font-family="Times New Roman,serif" font-size="14.00">3034568sed</text>
</g>
<!-- 9&#45;&gt;13 -->
<g id="edge22" class="edge">
<title>9&#45;&gt;13</title>
<path fill="none" stroke="black" d="M2178.93,-113.92C2192.42,-105.87 2209.54,-96.48 2225.75,-90 2288.21,-65.03 2304.99,-52 2372.25,-52 2372.25,-52 2372.25,-52 2902.5,-52 2976.23,-52 3059.3,-73.03 3111.34,-88.85"/>
<polygon fill="black" stroke="black" points="3110.24,-92.17 3120.83,-91.79 3112.31,-85.49 3110.24,-92.17"/>
<text text-anchor="middle" x="2629.13" y="-54.45" font-family="Times New Roman,serif" font-size="14.00">21 FILE_READ</text>
</g>
<!-- 11 -->
<g id="node12" class="node">
<title>11</title>
<polygon fill="none" stroke="black" points="2677.25,-338.12 2581,-338.12 2581,-241.88 2677.25,-241.88 2677.25,-338.12"/>
<text text-anchor="middle" x="2629.13" y="-284.57" font-family="Times New Roman,serif" font-size="14.00">3034416crond</text>
</g>
<!-- 10&#45;&gt;11 -->
<g id="edge19" class="edge">
<title>10&#45;&gt;11</title>
<path fill="none" stroke="black" d="M2411.71,-283.18C2453.21,-284.49 2520.67,-286.61 2569.25,-288.14"/>
<polygon fill="black" stroke="black" points="2568.93,-291.64 2579.03,-288.45 2569.15,-284.64 2568.93,-291.64"/>
<text text-anchor="middle" x="2492.25" y="-289.45" font-family="Times New Roman,serif" font-size="14.00">18 PROCESS_FORK</text>
</g>
<!-- 12 -->
<g id="node13" class="node">
<title>12</title>
<polygon fill="none" stroke="black" points="2956,-345.5 2847,-345.5 2847,-236.5 2956,-236.5 2956,-345.5"/>
<text text-anchor="middle" x="2901.5" y="-285.57" font-family="Times New Roman,serif" font-size="14.00">3034422python3</text>
</g>
<!-- 11&#45;&gt;12 -->
<g id="edge20" class="edge">
<title>11&#45;&gt;12</title>
<path fill="none" stroke="black" d="M2677.53,-290.18C2721.28,-290.34 2786.63,-290.58 2835.28,-290.76"/>
<polygon fill="black" stroke="black" points="2835.12,-294.26 2845.13,-290.8 2835.14,-287.26 2835.12,-294.26"/>
<text text-anchor="middle" x="2766" y="-292.45" font-family="Times New Roman,serif" font-size="14.00">19 PROCESS_FORK</text>
</g>
<!-- 12&#45;&gt;13 -->
<g id="edge21" class="edge">
<title>12&#45;&gt;13</title>
<path fill="none" stroke="black" d="M2956.32,-247.25C2962.07,-243.82 2968.02,-240.73 2974,-238.25 3026.32,-216.52 3057.41,-256.35 3100,-219 3119.3,-202.08 3107.44,-185.95 3118.66,-158.16"/>
<polygon fill="black" stroke="black" points="3121.79,-159.7 3123.01,-149.18 3115.5,-156.65 3121.79,-159.7"/>
<text text-anchor="middle" x="3037" y="-240.45" font-family="Times New Roman,serif" font-size="14.00">20 PROCESS_FORK</text>
</g>
<!-- 14 -->
<g id="node15" class="node">
<title>14</title>
<polygon fill="none" stroke="black" points="3208.5,-363.75 3119,-363.75 3119,-274.25 3208.5,-274.25 3208.5,-363.75"/>
<text text-anchor="middle" x="3163.75" y="-313.57" font-family="Times New Roman,serif" font-size="14.00">3034571wget</text>
</g>
<!-- 12&#45;&gt;14 -->
<g id="edge27" class="edge">
<title>12&#45;&gt;14</title>
<path fill="none" stroke="orange" d="M2956.43,-296.8C3000.67,-301.56 3063.05,-308.27 3107.61,-313.07"/>
<polygon fill="orange" stroke="orange" points="3107,-316.52 3117.32,-314.11 3107.75,-309.56 3107,-316.52"/>
<text text-anchor="middle" x="3037" y="-314.45" font-family="Times New Roman,serif" font-size="14.00">26 PROCESS_FORK</text>
</g>
<!-- 16 -->
<g id="node17" class="node">
<title>16</title>
<polygon fill="none" stroke="black" points="3208.5,-255.75 3119,-255.75 3119,-166.25 3208.5,-166.25 3208.5,-255.75"/>
<text text-anchor="middle" x="3163.75" y="-205.57" font-family="Times New Roman,serif" font-size="14.00">3034587wget</text>
</g>
<!-- 12&#45;&gt;16 -->
<g id="edge30" class="edge">
<title>12&#45;&gt;16</title>
<path fill="none" stroke="orange" d="M2956.39,-282.15C3014.3,-272.62 3098.33,-258.72 3100,-258 3102.99,-256.72 3105.97,-255.27 3108.92,-253.69"/>
<polygon fill="orange" stroke="orange" points="3110.62,-256.75 3117.46,-248.66 3107.06,-250.72 3110.62,-256.75"/>
<text text-anchor="middle" x="3037" y="-280.45" font-family="Times New Roman,serif" font-size="14.00">29 PROCESS_FORK</text>
</g>
<!-- 13&#45;&gt;9 -->
<g id="edge23" class="edge">
<title>13&#45;&gt;9</title>
<path fill="none" stroke="black" d="M3121.97,-68.12C3114.98,-62.85 3107.53,-57.92 3100,-54 3019.26,-12.02 2993.5,0 2902.5,0 2372.25,0 2372.25,0 2372.25,0 2302.86,0 2283.7,-15.82 2225.75,-54 2205.57,-67.3 2186.92,-87.27 2173.66,-103.41"/>
<polygon fill="black" stroke="black" points="2170.94,-101.2 2167.44,-111.2 2176.41,-105.57 2170.94,-101.2"/>
<text text-anchor="middle" x="2629.13" y="-2.45" font-family="Times New Roman,serif" font-size="14.00">22 FILE_CHOWN</text>
</g>
<!-- 13&#45;&gt;9 -->
<g id="edge24" class="edge">
<title>13&#45;&gt;9</title>
<path fill="none" stroke="black" d="M3125.6,-147.65C3115.76,-157.79 3106.17,-166.69 3100,-170 3021.25,-212.28 2991.89,-208 2902.5,-208 2372.25,-208 2372.25,-208 2372.25,-208 2304.99,-208 2288.21,-194.97 2225.75,-170 2213.22,-164.99 2200.13,-158.24 2188.61,-151.71"/>
<polygon fill="black" stroke="black" points="2190.64,-148.85 2180.24,-146.84 2187.12,-154.9 2190.64,-148.85"/>
<text text-anchor="middle" x="2629.13" y="-210.45" font-family="Times New Roman,serif" font-size="14.00">23 FILE_CHMOD</text>
</g>
<!-- 13&#45;&gt;9 -->
<g id="edge25" class="edge">
<title>13&#45;&gt;9</title>
<path fill="none" stroke="black" d="M3122.2,-118.75C3071.39,-133.56 2981.41,-156 2902.5,-156 2372.25,-156 2372.25,-156 2372.25,-156 2317.88,-156 2256.44,-147.97 2212.57,-140.83"/>
<polygon fill="black" stroke="black" points="2213.19,-137.39 2202.75,-139.2 2212.04,-144.29 2213.19,-137.39"/>
<text text-anchor="middle" x="2629.13" y="-158.45" font-family="Times New Roman,serif" font-size="14.00">24 FILE_WRITE</text>
</g>
<!-- 13&#45;&gt;9 -->
<g id="edge26" class="edge">
<title>13&#45;&gt;9</title>
<path fill="none" stroke="black" d="M3122.18,-105.5C3070.98,-104.9 2980.22,-104 2902.5,-104 2372.25,-104 2372.25,-104 2372.25,-104 2317.88,-104 2256.44,-112.03 2212.57,-119.17"/>
<polygon fill="black" stroke="black" points="2212.04,-115.71 2202.75,-120.8 2213.19,-122.61 2212.04,-115.71"/>
<text text-anchor="middle" x="2629.13" y="-106.45" font-family="Times New Roman,serif" font-size="14.00">25 FILE_RENAME</text>
</g>
<!-- 15 -->
<g id="node16" class="node">
<title>15</title>
<ellipse fill="none" stroke="black" cx="3450.72" cy="-379" rx="86.99" ry="18"/>
<text text-anchor="middle" x="3450.72" y="-373.57" font-family="Times New Roman,serif" font-size="14.00">/usr/bin/monitord.py</text>
</g>
<!-- 14&#45;&gt;15 -->
<g id="edge28" class="edge">
<title>14&#45;&gt;15</title>
<path fill="none" stroke="orange" d="M3208.97,-328.31C3253.92,-337.77 3324.32,-352.6 3377.4,-363.77"/>
<polygon fill="orange" stroke="orange" points="3376.46,-367.15 3386.97,-365.79 3377.91,-360.3 3376.46,-367.15"/>
<text text-anchor="middle" x="3281.88" y="-356.45" font-family="Times New Roman,serif" font-size="14.00">27 FILE_CREATE</text>
</g>
<!-- 15&#45;&gt;12 -->
<g id="edge29" class="edge">
<title>15&#45;&gt;12</title>
<path fill="none" stroke="orange" d="M3366.07,-383.44C3298.7,-385.59 3201.75,-385.46 3118,-373 3052.18,-363.2 3035.32,-357.85 2974,-332 2971.55,-330.97 2969.09,-329.87 2966.61,-328.72"/>
<polygon fill="orange" stroke="orange" points="2968.34,-325.67 2957.82,-324.42 2965.26,-331.96 2968.34,-325.67"/>
<text text-anchor="middle" x="3163.75" y="-383.45" font-family="Times New Roman,serif" font-size="14.00">28 FILE_READ</text>
</g>
<!-- 17 -->
<g id="node18" class="node">
<title>17</title>
<ellipse fill="none" stroke="black" cx="3450.72" cy="-211" rx="96.47" ry="18"/>
<text text-anchor="middle" x="3450.72" y="-205.57" font-family="Times New Roman,serif" font-size="14.00">/tmp/scapy&#45;2.5.0.tar.gz</text>
</g>
<!-- 16&#45;&gt;17 -->
<g id="edge31" class="edge">
<title>16&#45;&gt;17</title>
<path fill="none" stroke="orange" d="M3208.97,-211C3244.64,-211 3296.34,-211 3342.69,-211"/>
<polygon fill="orange" stroke="orange" points="3342.52,-214.5 3352.52,-211 3342.52,-207.5 3342.52,-214.5"/>
<text text-anchor="middle" x="3281.88" y="-213.45" font-family="Times New Roman,serif" font-size="14.00">30 FILE_CREATE</text>
</g>
</g>
</svg>
