<?xml version="1.0" encoding="UTF-8" standalone="no"?>
<!DOCTYPE svg PUBLIC "-//W3C//DTD SVG 1.1//EN"
 "http://www.w3.org/Graphics/SVG/1.1/DTD/svg11.dtd">
<!-- Generated by graphviz version 10.0.1 (20240210.2158)
 -->
<!-- Title: att Pages: 1 -->
<svg width="4027pt" height="508pt"
 viewBox="0.00 0.00 4027.16 508.25" xmlns="http://www.w3.org/2000/svg" xmlns:xlink="http://www.w3.org/1999/xlink">
<g id="graph0" class="graph" transform="scale(1 1) rotate(0) translate(4 504.25)">
<title>att</title>
<polygon fill="white" stroke="none" points="-4,4 -4,-504.25 4023.16,-504.25 4023.16,4 -4,4"/>
<!-- 0 -->
<g id="node1" class="node">
<title>0</title>
<polygon fill="none" stroke="black" points="102.91,-353.25 21.06,-353.25 0,-317.25 81.86,-317.25 102.91,-353.25"/>
<text text-anchor="middle" x="51.46" y="-329.82" font-family="Times New Roman,serif" font-size="14.00">ip1&#45;&gt;1</text>
</g>
<!-- 1 -->
<g id="node2" class="node">
<title>1</title>
<polygon fill="none" stroke="black" points="340.16,-380 250.66,-380 250.66,-290.5 340.16,-290.5 340.16,-380"/>
<text text-anchor="middle" x="295.41" y="-329.82" font-family="Times New Roman,serif" font-size="14.00">3129410wget</text>
</g>
<!-- 0&#45;&gt;1 -->
<g id="edge1" class="edge">
<title>0&#45;&gt;1</title>
<path fill="none" stroke="red" d="M92.96,-335.25C132.97,-335.25 194.48,-335.25 239,-335.25"/>
<polygon fill="red" stroke="red" points="238.99,-338.75 248.99,-335.25 238.99,-331.75 238.99,-338.75"/>
<text text-anchor="middle" x="176.79" y="-337.7" font-family="Times New Roman,serif" font-size="14.00">0 NET_CONNECT</text>
</g>
<!-- 2 -->
<g id="node3" class="node">
<title>2</title>
<ellipse fill="none" stroke="black" cx="518.48" cy="-335.25" rx="50.07" ry="18"/>
<text text-anchor="middle" x="518.48" y="-329.82" font-family="Times New Roman,serif" font-size="14.00">/tmp/socat</text>
</g>
<!-- 1&#45;&gt;2 -->
<g id="edge2" class="edge">
<title>1&#45;&gt;2</title>
<path fill="none" stroke="red" d="M340.62,-335.25C373.96,-335.25 420.08,-335.25 456.87,-335.25"/>
<polygon fill="red" stroke="red" points="456.45,-338.75 466.45,-335.25 456.45,-331.75 456.45,-338.75"/>
<text text-anchor="middle" x="404.29" y="-337.7" font-family="Times New Roman,serif" font-size="14.00">1 FILE_WRITE</text>
</g>
<!-- 3 -->
<g id="node4" class="node">
<title>3</title>
<polygon fill="none" stroke="black" points="814.8,-381.88 721.55,-381.88 721.55,-288.62 814.8,-288.62 814.8,-381.88"/>
<text text-anchor="middle" x="768.17" y="-329.82" font-family="Times New Roman,serif" font-size="14.00">3129451socat</text>
</g>
<!-- 2&#45;&gt;3 -->
<g id="edge3" class="edge">
<title>2&#45;&gt;3</title>
<path fill="none" stroke="blue" d="M569.01,-335.25C609.62,-335.25 667.14,-335.25 709.75,-335.25"/>
<polygon fill="blue" stroke="blue" points="709.56,-338.75 719.56,-335.25 709.56,-331.75 709.56,-338.75"/>
<text text-anchor="middle" x="645.05" y="-337.7" font-family="Times New Roman,serif" font-size="14.00">2 FILE_READ</text>
</g>
<!-- 2&#45;&gt;3 -->
<g id="edge4" class="edge">
<title>2&#45;&gt;3</title>
<path fill="none" stroke="blue" d="M555.26,-322.66C565.26,-319.71 576.22,-316.99 586.55,-315.5 638.01,-308.08 652.13,-307.7 703.55,-315.5 705.73,-315.83 707.95,-316.22 710.18,-316.67"/>
<polygon fill="blue" stroke="blue" points="709.33,-320.06 719.86,-318.9 710.9,-313.24 709.33,-320.06"/>
<text text-anchor="middle" x="645.05" y="-317.7" font-family="Times New Roman,serif" font-size="14.00">3 PROCESS_EXEC</text>
</g>
<!-- 4 -->
<g id="node5" class="node">
<title>4</title>
<polygon fill="none" stroke="black" points="1353.24,-353.25 1026.98,-353.25 943.05,-317.25 1269.31,-317.25 1353.24,-353.25"/>
<text text-anchor="middle" x="1148.14" y="-329.82" font-family="Times New Roman,serif" font-size="14.00">FILE_FIFO@0@13@2861243164</text>
</g>
<!-- 3&#45;&gt;4 -->
<g id="edge5" class="edge">
<title>3&#45;&gt;4</title>
<path fill="none" stroke="blue" d="M815.14,-335.25C854.79,-335.25 914.65,-335.25 972.68,-335.25"/>
<polygon fill="blue" stroke="blue" points="972.36,-338.75 982.36,-335.25 972.36,-331.75 972.36,-338.75"/>
<text text-anchor="middle" x="878.92" y="-337.7" font-family="Times New Roman,serif" font-size="14.00">4 FILE_WRITE</text>
</g>
<!-- 5 -->
<g id="node6" class="node">
<title>5</title>
<polygon fill="none" stroke="black" points="1559.74,-378.12 1473.99,-378.12 1473.99,-292.38 1559.74,-292.38 1559.74,-378.12"/>
<text text-anchor="middle" x="1516.87" y="-329.82" font-family="Times New Roman,serif" font-size="14.00">3129452awk</text>
</g>
<!-- 4&#45;&gt;5 -->
<g id="edge6" class="edge">
<title>4&#45;&gt;5</title>
<path fill="none" stroke="blue" d="M1312.4,-335.25C1366.21,-335.25 1422.37,-335.25 1462.02,-335.25"/>
<polygon fill="blue" stroke="blue" points="1462,-338.75 1472,-335.25 1462,-331.75 1462,-338.75"/>
<text text-anchor="middle" x="1413.62" y="-337.7" font-family="Times New Roman,serif" font-size="14.00">5 FILE_READ</text>
</g>
<!-- 6 -->
<g id="node7" class="node">
<title>6</title>
<polygon fill="none" stroke="black" points="1804.45,-500.25 1728.45,-500.25 1728.45,-424.25 1804.45,-424.25 1804.45,-500.25"/>
<text text-anchor="middle" x="1766.45" y="-456.82" font-family="Times New Roman,serif" font-size="14.00">3129456sh</text>
</g>
<!-- 5&#45;&gt;6 -->
<g id="edge7" class="edge">
<title>5&#45;&gt;6</title>
<path fill="none" stroke="blue" d="M1560.01,-367.11C1565.85,-371.05 1571.86,-374.87 1577.74,-378.25 1623.43,-404.52 1678.85,-428.42 1717.58,-443.96"/>
<polygon fill="blue" stroke="blue" points="1716.04,-447.11 1726.63,-447.55 1718.63,-440.61 1716.04,-447.11"/>
<text text-anchor="middle" x="1637.37" y="-437.7" font-family="Times New Roman,serif" font-size="14.00">6 PROCESS_FORK</text>
</g>
<!-- 7 -->
<g id="node8" class="node">
<title>7</title>
<polygon fill="none" stroke="black" points="1804.45,-406.25 1728.45,-406.25 1728.45,-330.25 1804.45,-330.25 1804.45,-406.25"/>
<text text-anchor="middle" x="1766.45" y="-362.82" font-family="Times New Roman,serif" font-size="14.00">3129463sh</text>
</g>
<!-- 5&#45;&gt;7 -->
<g id="edge8" class="edge">
<title>5&#45;&gt;7</title>
<path fill="none" stroke="blue" d="M1560.15,-340.89C1603.6,-346.68 1671.17,-355.68 1716.81,-361.77"/>
<polygon fill="blue" stroke="blue" points="1716.33,-365.23 1726.7,-363.09 1717.25,-358.29 1716.33,-365.23"/>
<text text-anchor="middle" x="1637.37" y="-360.7" font-family="Times New Roman,serif" font-size="14.00">7 PROCESS_FORK</text>
</g>
<!-- 8 -->
<g id="node9" class="node">
<title>8</title>
<polygon fill="none" stroke="black" points="1804.45,-231.25 1728.45,-231.25 1728.45,-155.25 1804.45,-155.25 1804.45,-231.25"/>
<text text-anchor="middle" x="1766.45" y="-187.82" font-family="Times New Roman,serif" font-size="14.00">3129470sh</text>
</g>
<!-- 5&#45;&gt;8 -->
<g id="edge9" class="edge">
<title>5&#45;&gt;8</title>
<path fill="none" stroke="blue" d="M1554.34,-292.19C1561.62,-285.05 1569.56,-278.15 1577.74,-272.5 1621.25,-242.47 1677.93,-220.49 1717.58,-207.4"/>
<polygon fill="blue" stroke="blue" points="1718.4,-210.81 1726.84,-204.41 1716.25,-204.15 1718.4,-210.81"/>
<text text-anchor="middle" x="1637.37" y="-274.7" font-family="Times New Roman,serif" font-size="14.00">8 PROCESS_FORK</text>
</g>
<!-- 14 -->
<g id="node15" class="node">
<title>14</title>
<polygon fill="none" stroke="black" points="2631.64,-285.5 2539.14,-285.5 2539.14,-193 2631.64,-193 2631.64,-285.5"/>
<text text-anchor="middle" x="2585.39" y="-233.82" font-family="Times New Roman,serif" font-size="14.00">3129672agent</text>
</g>
<!-- 5&#45;&gt;14 -->
<g id="edge19" class="edge">
<title>5&#45;&gt;14</title>
<path fill="none" stroke="orange" d="M1560.14,-326.15C1609.24,-316.38 1692.82,-302.25 1765.45,-302.25 1765.45,-302.25 1765.45,-302.25 2309.71,-302.25 2398.04,-302.25 2420.21,-291.14 2505.52,-268.25 2512.99,-266.25 2520.75,-263.83 2528.36,-261.25"/>
<polygon fill="orange" stroke="orange" points="2529.26,-264.65 2537.54,-258.04 2526.94,-258.04 2529.26,-264.65"/>
<text text-anchor="middle" x="2042.91" y="-304.7" font-family="Times New Roman,serif" font-size="14.00">18 PROCESS_FORK</text>
</g>
<!-- 9 -->
<g id="node10" class="node">
<title>9</title>
<polygon fill="none" stroke="black" points="2084.28,-234.62 2001.53,-234.62 2001.53,-151.88 2084.28,-151.88 2084.28,-234.62"/>
<text text-anchor="middle" x="2042.91" y="-187.82" font-family="Times New Roman,serif" font-size="14.00">3129477sed</text>
</g>
<!-- 8&#45;&gt;9 -->
<g id="edge10" class="edge">
<title>8&#45;&gt;9</title>
<path fill="none" stroke="black" d="M1804.75,-193.25C1852.54,-193.25 1935.65,-193.25 1989.71,-193.25"/>
<polygon fill="black" stroke="black" points="1989.6,-196.75 1999.6,-193.25 1989.6,-189.75 1989.6,-196.75"/>
<text text-anchor="middle" x="1898.91" y="-195.7" font-family="Times New Roman,serif" font-size="14.00">9 PROCESS_FORK</text>
</g>
<!-- 11 -->
<g id="node12" class="node">
<title>11</title>
<polygon fill="none" stroke="black" points="2087.66,-127 1998.16,-127 1998.16,-37.5 2087.66,-37.5 2087.66,-127"/>
<text text-anchor="middle" x="2042.91" y="-76.83" font-family="Times New Roman,serif" font-size="14.00">3129492wget</text>
</g>
<!-- 8&#45;&gt;11 -->
<g id="edge16" class="edge">
<title>8&#45;&gt;11</title>
<path fill="none" stroke="orange" d="M1804.75,-178.16C1851.88,-159.1 1933.36,-126.15 1987.45,-104.28"/>
<polygon fill="orange" stroke="orange" points="1988.52,-107.62 1996.48,-100.62 1985.9,-101.13 1988.52,-107.62"/>
<text text-anchor="middle" x="1898.91" y="-166.7" font-family="Times New Roman,serif" font-size="14.00">15 PROCESS_FORK</text>
</g>
<!-- 10 -->
<g id="node11" class="node">
<title>10</title>
<ellipse fill="none" stroke="black" cx="2308.71" cy="-193.25" rx="55.06" ry="18"/>
<text text-anchor="middle" x="2308.71" y="-187.82" font-family="Times New Roman,serif" font-size="14.00">/etc/crontab</text>
</g>
<!-- 9&#45;&gt;10 -->
<g id="edge12" class="edge">
<title>9&#45;&gt;10</title>
<path fill="none" stroke="black" d="M2084.75,-156.66C2091.9,-149.97 2099.2,-142.98 2105.91,-136.25 2114.29,-127.83 2113.04,-121.3 2123.91,-116.5 2169.34,-96.44 2190.08,-96.77 2235.66,-116.5 2237.29,-117.2 2263.48,-145.33 2283.82,-167.32"/>
<polygon fill="black" stroke="black" points="2281.16,-169.6 2290.52,-174.57 2286.3,-164.85 2281.16,-169.6"/>
<text text-anchor="middle" x="2179.78" y="-119.7" font-family="Times New Roman,serif" font-size="14.00">11 FILE_CHOWN</text>
</g>
<!-- 9&#45;&gt;10 -->
<g id="edge13" class="edge">
<title>9&#45;&gt;10</title>
<path fill="none" stroke="black" d="M2084.49,-228.74C2096.41,-237.11 2110,-244.87 2123.91,-249.25 2171.28,-264.18 2188.68,-265.36 2235.66,-249.25 2253.68,-243.07 2270.67,-230.34 2283.62,-218.58"/>
<polygon fill="black" stroke="black" points="2285.99,-221.16 2290.81,-211.72 2281.16,-216.09 2285.99,-221.16"/>
<text text-anchor="middle" x="2179.78" y="-262.7" font-family="Times New Roman,serif" font-size="14.00">12 FILE_CHMOD</text>
</g>
<!-- 9&#45;&gt;10 -->
<g id="edge14" class="edge">
<title>9&#45;&gt;10</title>
<path fill="none" stroke="black" d="M2084.75,-203.65C2097.23,-206.36 2111.06,-208.9 2123.91,-210.25 2173.3,-215.44 2186.32,-215.99 2235.66,-210.25 2241.8,-209.54 2248.18,-208.49 2254.49,-207.26"/>
<polygon fill="black" stroke="black" points="2255.17,-210.69 2264.23,-205.2 2253.72,-203.84 2255.17,-210.69"/>
<text text-anchor="middle" x="2179.78" y="-217.7" font-family="Times New Roman,serif" font-size="14.00">13 FILE_WRITE</text>
</g>
<!-- 10&#45;&gt;9 -->
<g id="edge11" class="edge">
<title>10&#45;&gt;9</title>
<path fill="none" stroke="black" d="M2253.28,-193.25C2207.13,-193.25 2141.38,-193.25 2095.93,-193.25"/>
<polygon fill="black" stroke="black" points="2096.06,-189.75 2086.06,-193.25 2096.06,-196.75 2096.06,-189.75"/>
<text text-anchor="middle" x="2179.78" y="-195.7" font-family="Times New Roman,serif" font-size="14.00">10 FILE_READ</text>
</g>
<!-- 10&#45;&gt;9 -->
<g id="edge15" class="edge">
<title>10&#45;&gt;9</title>
<path fill="none" stroke="black" d="M2268.84,-180.55C2258.2,-177.64 2246.59,-174.97 2235.66,-173.5 2186.44,-166.88 2173.21,-167.5 2123.91,-173.5 2114.72,-174.62 2105.07,-176.43 2095.77,-178.52"/>
<polygon fill="black" stroke="black" points="2095.05,-175.09 2086.14,-180.82 2096.67,-181.9 2095.05,-175.09"/>
<text text-anchor="middle" x="2179.78" y="-176.7" font-family="Times New Roman,serif" font-size="14.00">14 FILE_RENAME</text>
</g>
<!-- 13 -->
<g id="node14" class="node">
<title>13</title>
<ellipse fill="none" stroke="black" cx="2308.71" cy="-107.25" rx="49.57" ry="18"/>
<text text-anchor="middle" x="2308.71" y="-101.83" font-family="Times New Roman,serif" font-size="14.00">/tmp/agent</text>
</g>
<!-- 11&#45;&gt;13 -->
<g id="edge18" class="edge">
<title>11&#45;&gt;13</title>
<path fill="none" stroke="orange" d="M2088.04,-78.22C2127.13,-75.62 2185.59,-74.11 2235.66,-82.5 2245.22,-84.1 2255.22,-86.82 2264.61,-89.88"/>
<polygon fill="orange" stroke="orange" points="2263.28,-93.12 2273.87,-93.08 2265.57,-86.5 2263.28,-93.12"/>
<text text-anchor="middle" x="2179.78" y="-85.7" font-family="Times New Roman,serif" font-size="14.00">17 FILE_WRITE</text>
</g>
<!-- 12 -->
<g id="node13" class="node">
<title>12</title>
<polygon fill="none" stroke="black" points="1817.91,-100.25 1736.05,-100.25 1714.99,-64.25 1796.85,-64.25 1817.91,-100.25"/>
<text text-anchor="middle" x="1766.45" y="-76.83" font-family="Times New Roman,serif" font-size="14.00">ip2&#45;&gt;2</text>
</g>
<!-- 12&#45;&gt;11 -->
<g id="edge17" class="edge">
<title>12&#45;&gt;11</title>
<path fill="none" stroke="orange" d="M1807.95,-82.25C1855.32,-82.25 1933.98,-82.25 1986.86,-82.25"/>
<polygon fill="orange" stroke="orange" points="1986.55,-85.75 1996.55,-82.25 1986.55,-78.75 1986.55,-85.75"/>
<text text-anchor="middle" x="1898.91" y="-84.7" font-family="Times New Roman,serif" font-size="14.00">16 NET_CONNECT</text>
</g>
<!-- 13&#45;&gt;14 -->
<g id="edge20" class="edge">
<title>13&#45;&gt;14</title>
<path fill="none" stroke="orange" d="M2324.19,-124.62C2337.59,-139.54 2358.85,-160.45 2381.77,-172.25 2431.84,-198.02 2452.46,-180.62 2505.52,-199.5 2513.17,-202.22 2521.03,-205.52 2528.68,-209.03"/>
<polygon fill="orange" stroke="orange" points="2527.05,-212.13 2537.58,-213.28 2530.06,-205.81 2527.05,-212.13"/>
<text text-anchor="middle" x="2443.64" y="-202.7" font-family="Times New Roman,serif" font-size="14.00">19 FILE_READ</text>
</g>
<!-- 13&#45;&gt;14 -->
<g id="edge21" class="edge">
<title>13&#45;&gt;14</title>
<path fill="none" stroke="orange" d="M2328.5,-124.09C2339.95,-135.16 2354.16,-150.47 2363.77,-166.25 2375.83,-186.07 2363.56,-200.87 2381.77,-215.25 2422.61,-247.49 2483.28,-250.64 2527.59,-247.46"/>
<polygon fill="orange" stroke="orange" points="2527.88,-250.95 2537.54,-246.6 2527.28,-243.97 2527.88,-250.95"/>
<text text-anchor="middle" x="2443.64" y="-250.7" font-family="Times New Roman,serif" font-size="14.00">20 PROCESS_EXEC</text>
</g>
<!-- 17 -->
<g id="node18" class="node">
<title>17</title>
<polygon fill="none" stroke="black" points="2901.77,-153.5 2809.27,-153.5 2809.27,-61 2901.77,-61 2901.77,-153.5"/>
<text text-anchor="middle" x="2855.52" y="-101.83" font-family="Times New Roman,serif" font-size="14.00">3129680agent</text>
</g>
<!-- 13&#45;&gt;17 -->
<g id="edge31" class="edge">
<title>13&#45;&gt;17</title>
<path fill="none" stroke="orange" d="M2352.74,-98.7C2362.29,-96.86 2372.36,-94.95 2381.77,-93.25 2498.35,-72.16 2529.19,-59.83 2647.27,-69.5 2698.75,-73.72 2756.5,-84.77 2797.94,-93.83"/>
<polygon fill="orange" stroke="orange" points="2797.18,-97.25 2807.7,-96 2798.69,-90.41 2797.18,-97.25"/>
<text text-anchor="middle" x="2585.39" y="-72.7" font-family="Times New Roman,serif" font-size="14.00">30 FILE_READ</text>
</g>
<!-- 13&#45;&gt;17 -->
<g id="edge32" class="edge">
<title>13&#45;&gt;17</title>
<path fill="none" stroke="orange" d="M2333.37,-91.25C2346.97,-82.8 2364.69,-73.02 2381.77,-67.25 2493.89,-29.34 2529.24,-37.64 2647.27,-46.5 2711.81,-51.35 2730.5,-45.98 2791.27,-68.25 2793.77,-69.17 2796.29,-70.19 2798.79,-71.3"/>
<polygon fill="orange" stroke="orange" points="2797.09,-74.36 2807.62,-75.59 2800.15,-68.07 2797.09,-74.36"/>
<text text-anchor="middle" x="2585.39" y="-49.7" font-family="Times New Roman,serif" font-size="14.00">31 PROCESS_EXEC</text>
</g>
<!-- 13&#45;&gt;17 -->
<g id="edge34" class="edge">
<title>13&#45;&gt;17</title>
<path fill="none" stroke="green" d="M2351.84,-116.53C2361.62,-118.38 2372.02,-120.1 2381.77,-121.25 2562.52,-142.51 2610.8,-144.8 2791.27,-121.25 2793.44,-120.97 2795.65,-120.64 2797.88,-120.29"/>
<polygon fill="green" stroke="green" points="2798.36,-123.76 2807.6,-118.57 2797.14,-116.87 2798.36,-123.76"/>
<text text-anchor="middle" x="2585.39" y="-140.7" font-family="Times New Roman,serif" font-size="14.00">33 FILE_READ</text>
</g>
<!-- 16 -->
<g id="node17" class="node">
<title>16</title>
<polygon fill="none" stroke="black" points="2901.77,-271.5 2809.27,-271.5 2809.27,-179 2901.77,-179 2901.77,-271.5"/>
<text text-anchor="middle" x="2855.52" y="-219.82" font-family="Times New Roman,serif" font-size="14.00">3129679agent</text>
</g>
<!-- 14&#45;&gt;16 -->
<g id="edge23" class="edge">
<title>14&#45;&gt;16</title>
<path fill="none" stroke="orange" d="M2631.88,-236.88C2677.52,-234.49 2747.97,-230.81 2797.36,-228.23"/>
<polygon fill="orange" stroke="orange" points="2797.5,-231.73 2807.3,-227.72 2797.13,-224.74 2797.5,-231.73"/>
<text text-anchor="middle" x="2728.27" y="-237.7" font-family="Times New Roman,serif" font-size="14.00">22 PROCESS_FORK</text>
</g>
<!-- 14&#45;&gt;17 -->
<g id="edge25" class="edge">
<title>14&#45;&gt;17</title>
<path fill="none" stroke="orange" d="M2632.07,-221.37C2642.9,-217.32 2654.45,-213.13 2665.27,-209.5 2720.63,-190.91 2741.28,-202.44 2791.27,-172.25 2796.49,-169.1 2801.58,-165.41 2806.46,-161.42"/>
<polygon fill="orange" stroke="orange" points="2808.63,-164.17 2813.86,-154.96 2804.03,-158.9 2808.63,-164.17"/>
<text text-anchor="middle" x="2728.27" y="-212.7" font-family="Times New Roman,serif" font-size="14.00">24 PROCESS_FORK</text>
</g>
<!-- 15 -->
<g id="node16" class="node">
<title>15</title>
<polygon fill="none" stroke="black" points="3473.97,-260.25 3147.7,-260.25 3063.77,-224.25 3390.04,-224.25 3473.97,-260.25"/>
<text text-anchor="middle" x="3268.87" y="-236.82" font-family="Times New Roman,serif" font-size="14.00">FILE_FIFO@0@13@2861243242</text>
</g>
<!-- 15&#45;&gt;14 -->
<g id="edge22" class="edge">
<title>15&#45;&gt;14</title>
<path fill="none" stroke="orange" d="M3164.94,-260.71C3071.99,-275.02 2931.45,-290.78 2809.27,-280.25 2752.18,-275.33 2687.9,-262.74 2643.1,-252.79"/>
<polygon fill="orange" stroke="orange" points="2644.15,-249.44 2633.62,-250.66 2642.61,-256.27 2644.15,-249.44"/>
<text text-anchor="middle" x="2855.52" y="-285.7" font-family="Times New Roman,serif" font-size="14.00">21 FILE_READ</text>
</g>
<!-- 16&#45;&gt;15 -->
<g id="edge24" class="edge">
<title>16&#45;&gt;15</title>
<path fill="none" stroke="orange" d="M2902.11,-227.13C2944.73,-228.9 3011.33,-231.65 3076.09,-234.32"/>
<polygon fill="orange" stroke="orange" points="3075.66,-237.81 3085.79,-234.73 3075.95,-230.82 3075.66,-237.81"/>
<text text-anchor="middle" x="2982.77" y="-235.7" font-family="Times New Roman,serif" font-size="14.00">23 FILE_WRITE</text>
</g>
<!-- 17&#45;&gt;13 -->
<g id="edge33" class="edge">
<title>17&#45;&gt;13</title>
<path fill="none" stroke="green" d="M2809.08,-107.25C2711.05,-107.25 2479.69,-107.25 2369.75,-107.25"/>
<polygon fill="green" stroke="green" points="2370.05,-103.75 2360.05,-107.25 2370.05,-110.75 2370.05,-103.75"/>
<text text-anchor="middle" x="2585.39" y="-109.7" font-family="Times New Roman,serif" font-size="14.00">32 FILE_REMOVE</text>
</g>
<!-- 19 -->
<g id="node20" class="node">
<title>19</title>
<ellipse fill="none" stroke="black" cx="3268.87" cy="-128.25" rx="102.46" ry="18"/>
<text text-anchor="middle" x="3268.87" y="-122.83" font-family="Times New Roman,serif" font-size="14.00">/usr/share/at/batch&#45;job.at</text>
</g>
<!-- 17&#45;&gt;19 -->
<g id="edge28" class="edge">
<title>17&#45;&gt;19</title>
<path fill="none" stroke="orange" d="M2902.11,-109.58C2963.51,-112.71 3074.71,-118.39 3158.44,-122.66"/>
<polygon fill="orange" stroke="orange" points="3158.12,-126.15 3168.29,-123.17 3158.48,-119.16 3158.12,-126.15"/>
<text text-anchor="middle" x="2982.77" y="-119.7" font-family="Times New Roman,serif" font-size="14.00">27 FILE_WRITE</text>
</g>
<!-- 20 -->
<g id="node21" class="node">
<title>20</title>
<polygon fill="none" stroke="black" points="3315.12,-92.5 3222.62,-92.5 3222.62,0 3315.12,0 3315.12,-92.5"/>
<text text-anchor="middle" x="3268.87" y="-40.83" font-family="Times New Roman,serif" font-size="14.00">3075901agent</text>
</g>
<!-- 17&#45;&gt;20 -->
<g id="edge29" class="edge">
<title>17&#45;&gt;20</title>
<path fill="none" stroke="orange" d="M2901.97,-76.78C2907.78,-73.9 2913.79,-71.37 2919.77,-69.5 3018.63,-38.66 3140.72,-38.64 3210.9,-42.04"/>
<polygon fill="orange" stroke="orange" points="3210.45,-45.52 3220.62,-42.55 3210.82,-38.53 3210.45,-45.52"/>
<text text-anchor="middle" x="2982.77" y="-72.7" font-family="Times New Roman,serif" font-size="14.00">28 PROCESS_FORK</text>
</g>
<!-- 18 -->
<g id="node19" class="node">
<title>18</title>
<polygon fill="none" stroke="black" points="4019.16,-132.25 3692.9,-132.25 3608.97,-96.25 3935.23,-96.25 4019.16,-132.25"/>
<text text-anchor="middle" x="3814.06" y="-108.83" font-family="Times New Roman,serif" font-size="14.00">FILE_FIFO@0@13@2861251005</text>
</g>
<!-- 18&#45;&gt;17 -->
<g id="edge26" class="edge">
<title>18&#45;&gt;17</title>
<path fill="none" stroke="orange" d="M3692.15,-132.45C3627.57,-141.27 3546.63,-150.87 3473.97,-155.25 3291.99,-166.21 3245.73,-166.58 3063.77,-155.25 2999.4,-151.24 2981.69,-155.3 2919.77,-137.25 2917.49,-136.59 2915.19,-135.85 2912.89,-135.05"/>
<polygon fill="orange" stroke="orange" points="2914.15,-131.79 2903.56,-131.5 2911.66,-138.33 2914.15,-131.79"/>
<text text-anchor="middle" x="3268.87" y="-166.7" font-family="Times New Roman,serif" font-size="14.00">25 FILE_READ</text>
</g>
<!-- 19&#45;&gt;17 -->
<g id="edge27" class="edge">
<title>19&#45;&gt;17</title>
<path fill="none" stroke="orange" d="M3175.59,-120.54C3140.28,-116.42 3099.83,-110.27 3063.77,-101.25 3055.48,-99.18 3054.18,-96.02 3045.77,-94.5 2990.67,-84.51 2975.49,-88.94 2919.77,-94.5 2917.6,-94.72 2915.39,-94.97 2913.16,-95.27"/>
<polygon fill="orange" stroke="orange" points="2912.82,-91.78 2903.46,-96.74 2913.87,-98.7 2912.82,-91.78"/>
<text text-anchor="middle" x="2982.77" y="-97.7" font-family="Times New Roman,serif" font-size="14.00">26 FILE_READ</text>
</g>
<!-- 20&#45;&gt;18 -->
<g id="edge30" class="edge">
<title>20&#45;&gt;18</title>
<path fill="none" stroke="orange" d="M3315.25,-51.93C3389.04,-61.17 3538.47,-79.88 3654.45,-94.39"/>
<polygon fill="orange" stroke="orange" points="3653.71,-97.83 3664.07,-95.6 3654.58,-90.88 3653.71,-97.83"/>
<text text-anchor="middle" x="3541.47" y="-89.7" font-family="Times New Roman,serif" font-size="14.00">29 FILE_WRITE</text>
</g>
</g>
</svg>
