<?xml version="1.0" encoding="UTF-8" standalone="no"?>
<!DOCTYPE svg PUBLIC "-//W3C//DTD SVG 1.1//EN"
 "http://www.w3.org/Graphics/SVG/1.1/DTD/svg11.dtd">
<!-- Generated by graphviz version 2.38.0 (20140413.2041)
 -->
<!-- Title: case1_split_case2_2 Pages: 1 -->
<svg width="2254pt" height="354pt"
 viewBox="0.00 0.00 2254.46 353.50" xmlns="http://www.w3.org/2000/svg" xmlns:xlink="http://www.w3.org/1999/xlink">
<g id="graph0" class="graph" transform="scale(1 1) rotate(0) translate(4 349.5)">
<title>case1_split_case2_2</title>
<polygon fill="white" stroke="none" points="-4,4 -4,-349.5 2250.46,-349.5 2250.46,4 -4,4"/>
<!-- 0 -->
<g id="node1" class="node"><title>0</title>
<polygon fill="none" stroke="black" points="101.017,-204.5 20.6648,-204.5 -0.00577781,-168.5 80.3468,-168.5 101.017,-204.5"/>
<text text-anchor="middle" x="50.5058" y="-182.8" font-family="Times New Roman,serif" font-size="14.00">ip1&#45;&gt;1</text>
</g>
<!-- 1 -->
<g id="node2" class="node"><title>1</title>
<polygon fill="none" stroke="black" points="344.517,-231.5 254.517,-231.5 254.517,-141.5 344.517,-141.5 344.517,-231.5"/>
<text text-anchor="middle" x="299.517" y="-182.8" font-family="Times New Roman,serif" font-size="14.00">3075641bash</text>
</g>
<!-- 0&#45;&gt;1 -->
<g id="edge1" class="edge"><title>0&#45;&gt;1</title>
<path fill="none" stroke="Red" d="M90.9186,-186.5C132.327,-186.5 197.752,-186.5 244.074,-186.5"/>
<polygon fill="Red" stroke="Red" points="244.238,-190 254.238,-186.5 244.238,-183 244.238,-190"/>
<text text-anchor="middle" x="175.012" y="-190.3" font-family="Times New Roman,serif" font-size="14.00">0 NET_CONNECT</text>
</g>
<!-- 2 -->
<g id="node3" class="node"><title>2</title>
<polygon fill="none" stroke="black" points="599.023,-339 516.023,-339 516.023,-256 599.023,-256 599.023,-339"/>
<text text-anchor="middle" x="557.523" y="-293.8" font-family="Times New Roman,serif" font-size="14.00">3075794sed</text>
</g>
<!-- 1&#45;&gt;2 -->
<g id="edge2" class="edge"><title>1&#45;&gt;2</title>
<path fill="none" stroke="Red" d="M344.526,-205.582C389.465,-225.066 459.133,-255.273 506.226,-275.692"/>
<polygon fill="Red" stroke="Red" points="505.055,-278.999 515.622,-279.766 507.84,-272.577 505.055,-278.999"/>
<text text-anchor="middle" x="428.023" y="-271.3" font-family="Times New Roman,serif" font-size="14.00">1 PROCESS_FORK</text>
</g>
<!-- 7 -->
<g id="node5" class="node"><title>7</title>
<polygon fill="none" stroke="black" points="602.523,-116.5 512.523,-116.5 512.523,-26.5 602.523,-26.5 602.523,-116.5"/>
<text text-anchor="middle" x="557.523" y="-67.8" font-family="Times New Roman,serif" font-size="14.00">3075796wget</text>
</g>
<!-- 1&#45;&gt;7 -->
<g id="edge7" class="edge"><title>1&#45;&gt;7</title>
<path fill="none" stroke="Blue" d="M344.526,-166.731C388.395,-147.025 455.829,-116.732 502.824,-95.622"/>
<polygon fill="Blue" stroke="Blue" points="504.544,-98.6865 512.232,-91.3961 501.676,-92.3011 504.544,-98.6865"/>
<text text-anchor="middle" x="428.023" y="-160.3" font-family="Times New Roman,serif" font-size="14.00">6 PROCESS_FORK</text>
</g>
<!-- 11 -->
<g id="node8" class="node"><title>11</title>
<polygon fill="none" stroke="black" points="609.023,-238 506.023,-238 506.023,-135 609.023,-135 609.023,-238"/>
<text text-anchor="middle" x="557.523" y="-182.8" font-family="Times New Roman,serif" font-size="14.00">3075860chmod</text>
</g>
<!-- 1&#45;&gt;11 -->
<g id="edge10" class="edge"><title>1&#45;&gt;11</title>
<path fill="none" stroke="Blue" d="M344.526,-186.5C386.127,-186.5 448.919,-186.5 495.376,-186.5"/>
<polygon fill="Blue" stroke="Blue" points="495.621,-190 505.621,-186.5 495.621,-183 495.621,-190"/>
<text text-anchor="middle" x="428.023" y="-190.3" font-family="Times New Roman,serif" font-size="14.00">9 PROCESS_FORK</text>
</g>
<!-- 3 -->
<g id="node4" class="node"><title>3</title>
<ellipse fill="none" stroke="black" cx="804.968" cy="-288.5" rx="53.8905" ry="18"/>
<text text-anchor="middle" x="804.968" y="-284.8" font-family="Times New Roman,serif" font-size="14.00">/etc/crontab</text>
</g>
<!-- 2&#45;&gt;3 -->
<g id="edge3" class="edge"><title>2&#45;&gt;3</title>
<path fill="none" stroke="Red" d="M599.221,-256.556C611.705,-244.475 623.178,-234.034 627.023,-232.5 670.781,-215.043 688.517,-217.051 733.023,-232.5 751.192,-238.807 768.225,-251.91 781.045,-263.857"/>
<polygon fill="Red" stroke="Red" points="778.851,-266.605 788.456,-271.075 783.735,-261.591 778.851,-266.605"/>
<text text-anchor="middle" x="680.023" y="-236.3" font-family="Times New Roman,serif" font-size="14.00">2 FILE_CHOWN</text>
</g>
<!-- 2&#45;&gt;3 -->
<g id="edge4" class="edge"><title>2&#45;&gt;3</title>
<path fill="none" stroke="Red" d="M599.122,-315.664C608.135,-318.913 617.765,-321.802 627.023,-323.5 673.361,-331.998 687.144,-334.201 733.023,-323.5 745.562,-320.575 758.432,-315.099 769.709,-309.332"/>
<polygon fill="Red" stroke="Red" points="771.61,-312.284 778.764,-304.469 768.298,-306.117 771.61,-312.284"/>
<text text-anchor="middle" x="680.023" y="-334.3" font-family="Times New Roman,serif" font-size="14.00">3 FILE_CHMOD</text>
</g>
<!-- 2&#45;&gt;3 -->
<g id="edge5" class="edge"><title>2&#45;&gt;3</title>
<path fill="none" stroke="Red" d="M599.053,-296.014C637.581,-294.601 696.11,-292.455 740.766,-290.818"/>
<polygon fill="Red" stroke="Red" points="741.067,-294.309 750.932,-290.445 740.811,-287.314 741.067,-294.309"/>
<text text-anchor="middle" x="680.023" y="-298.3" font-family="Times New Roman,serif" font-size="14.00">4 FILE_WRITE</text>
</g>
<!-- 3&#45;&gt;2 -->
<g id="edge6" class="edge"><title>3&#45;&gt;2</title>
<path fill="none" stroke="Red" d="M762.998,-276.954C753.253,-274.69 742.834,-272.659 733.023,-271.5 686.237,-265.973 673.361,-263.002 627.023,-271.5 621.092,-272.588 615.008,-274.164 609.032,-276.011"/>
<polygon fill="Red" stroke="Red" points="607.49,-272.837 599.122,-279.336 609.716,-279.473 607.49,-272.837"/>
<text text-anchor="middle" x="680.023" y="-275.3" font-family="Times New Roman,serif" font-size="14.00">5 FILE_RENAME</text>
</g>
<!-- 10 -->
<g id="node7" class="node"><title>10</title>
<ellipse fill="none" stroke="black" cx="804.968" cy="-138.5" rx="48.9926" ry="18"/>
<text text-anchor="middle" x="804.968" y="-134.8" font-family="Times New Roman,serif" font-size="14.00">/tmp/agent</text>
</g>
<!-- 7&#45;&gt;10 -->
<g id="edge9" class="edge"><title>7&#45;&gt;10</title>
<path fill="none" stroke="Blue" d="M602.687,-83.5556C645.801,-95.3244 711.229,-113.185 755.696,-125.323"/>
<polygon fill="Blue" stroke="Blue" points="754.838,-128.717 765.407,-127.974 756.681,-121.964 754.838,-128.717"/>
<text text-anchor="middle" x="680.023" y="-123.3" font-family="Times New Roman,serif" font-size="14.00">8 FILE_WRITE</text>
</g>
<!-- 8 -->
<g id="node6" class="node"><title>8</title>
<polygon fill="none" stroke="black" points="350.029,-89.5 269.676,-89.5 249.006,-53.5 329.358,-53.5 350.029,-89.5"/>
<text text-anchor="middle" x="299.517" y="-67.8" font-family="Times New Roman,serif" font-size="14.00">ip2&#45;&gt;2</text>
</g>
<!-- 8&#45;&gt;7 -->
<g id="edge8" class="edge"><title>8&#45;&gt;7</title>
<path fill="none" stroke="Blue" d="M339.957,-71.5C383.43,-71.5 453.636,-71.5 502.275,-71.5"/>
<polygon fill="Blue" stroke="Blue" points="502.309,-75.0001 512.309,-71.5 502.309,-68.0001 502.309,-75.0001"/>
<text text-anchor="middle" x="428.023" y="-75.3" font-family="Times New Roman,serif" font-size="14.00">7 NET_CONNECT</text>
</g>
<!-- 13 -->
<g id="node9" class="node"><title>13</title>
<polygon fill="none" stroke="black" points="1127.41,-291 1034.41,-291 1034.41,-198 1127.41,-198 1127.41,-291"/>
<text text-anchor="middle" x="1080.91" y="-240.8" font-family="Times New Roman,serif" font-size="14.00">3075883agent</text>
</g>
<!-- 10&#45;&gt;13 -->
<g id="edge12" class="edge"><title>10&#45;&gt;13</title>
<path fill="none" stroke="Blue" d="M815.94,-156.11C827.801,-175.231 849.49,-204.978 876.914,-219.5 922.284,-243.526 981.155,-248.388 1023.81,-248.069"/>
<polygon fill="Blue" stroke="Blue" points="1024.07,-251.565 1034.01,-247.892 1023.95,-244.566 1024.07,-251.565"/>
<text text-anchor="middle" x="938.914" y="-252.3" font-family="Times New Roman,serif" font-size="14.00">11 FILE_READ</text>
</g>
<!-- 10&#45;&gt;13 -->
<g id="edge13" class="edge"><title>10&#45;&gt;13</title>
<path fill="none" stroke="Blue" d="M829.299,-154.314C842.696,-162.699 860.144,-172.483 876.914,-178.5 929.597,-197.403 948.181,-181.735 1000.91,-200.5 1009.08,-203.406 1017.4,-207.106 1025.43,-211.122"/>
<polygon fill="Blue" stroke="Blue" points="1023.85,-214.249 1034.34,-215.764 1027.09,-208.04 1023.85,-214.249"/>
<text text-anchor="middle" x="938.914" y="-204.3" font-family="Times New Roman,serif" font-size="14.00">12 PROCESS_EXEC</text>
</g>
<!-- 19 -->
<g id="node12" class="node"><title>19</title>
<polygon fill="none" stroke="black" points="1398.91,-160 1305.91,-160 1305.91,-67 1398.91,-67 1398.91,-160"/>
<text text-anchor="middle" x="1352.41" y="-109.8" font-family="Times New Roman,serif" font-size="14.00">3075890agent</text>
</g>
<!-- 10&#45;&gt;19 -->
<g id="edge23" class="edge"><title>10&#45;&gt;19</title>
<path fill="none" stroke="Blue" d="M829.638,-122.808C842.998,-114.652 860.302,-105.22 876.914,-99.5 937.364,-78.6858 955.186,-81.6276 1018.91,-76.5 1138.52,-66.8764 1170.02,-77.1738 1287.91,-99.5 1290.53,-99.9949 1293.2,-100.517 1295.89,-101.058"/>
<polygon fill="Blue" stroke="Blue" points="1295.2,-104.488 1305.7,-103.079 1296.61,-97.6322 1295.2,-104.488"/>
<text text-anchor="middle" x="1080.91" y="-80.3" font-family="Times New Roman,serif" font-size="14.00">22 FILE_READ</text>
</g>
<!-- 10&#45;&gt;19 -->
<g id="edge24" class="edge"><title>10&#45;&gt;19</title>
<path fill="none" stroke="Blue" d="M819.758,-121.264C832.796,-106.275 853.768,-85.3103 876.914,-74.5 934.66,-47.5291 955.335,-58.9553 1018.91,-54.5 1138.47,-46.1216 1175.17,-32.8294 1287.91,-73.5 1290.82,-74.5494 1293.74,-75.748 1296.63,-77.0591"/>
<polygon fill="Blue" stroke="Blue" points="1295.27,-80.2878 1305.78,-81.5848 1298.37,-74.0136 1295.27,-80.2878"/>
<text text-anchor="middle" x="1080.91" y="-58.3" font-family="Times New Roman,serif" font-size="14.00">23 PROCESS_EXEC</text>
</g>
<!-- 10&#45;&gt;19 -->
<g id="edge26" class="edge"><title>10&#45;&gt;19</title>
<path fill="none" stroke="Blue" d="M851.321,-144.381C859.811,-145.264 868.622,-146.034 876.914,-146.5 1059.4,-156.756 1108.09,-165.185 1287.91,-132.5 1290.44,-132.041 1293.01,-131.517 1295.59,-130.944"/>
<polygon fill="Blue" stroke="Blue" points="1296.69,-134.28 1305.58,-128.519 1295.03,-127.478 1296.69,-134.28"/>
<text text-anchor="middle" x="1080.91" y="-160.3" font-family="Times New Roman,serif" font-size="14.00">25 FILE_READ</text>
</g>
<!-- 11&#45;&gt;10 -->
<g id="edge11" class="edge"><title>11&#45;&gt;10</title>
<path fill="none" stroke="Blue" d="M609.082,-176.613C650.698,-168.474 709.484,-156.978 751.59,-148.743"/>
<polygon fill="Blue" stroke="Blue" points="752.504,-152.131 761.647,-146.777 751.161,-145.261 752.504,-152.131"/>
<text text-anchor="middle" x="680.023" y="-176.3" font-family="Times New Roman,serif" font-size="14.00">10 FILE_CHMOD</text>
</g>
<!-- 17 -->
<g id="node11" class="node"><title>17</title>
<polygon fill="none" stroke="black" points="1398.91,-279 1305.91,-279 1305.91,-186 1398.91,-186 1398.91,-279"/>
<text text-anchor="middle" x="1352.41" y="-228.8" font-family="Times New Roman,serif" font-size="14.00">3075889agent</text>
</g>
<!-- 13&#45;&gt;17 -->
<g id="edge15" class="edge"><title>13&#45;&gt;17</title>
<path fill="none" stroke="Blue" d="M1127.63,-242.464C1173.9,-240.404 1245.51,-237.216 1295.22,-235.002"/>
<polygon fill="Blue" stroke="Blue" points="1295.64,-238.487 1305.47,-234.546 1295.33,-231.494 1295.64,-238.487"/>
<text text-anchor="middle" x="1224.41" y="-245.3" font-family="Times New Roman,serif" font-size="14.00">14 PROCESS_FORK</text>
</g>
<!-- 13&#45;&gt;19 -->
<g id="edge17" class="edge"><title>13&#45;&gt;19</title>
<path fill="none" stroke="Blue" d="M1127.73,-227.825C1138.58,-224 1150.12,-220.024 1160.91,-216.5 1216.92,-198.209 1237.5,-208.988 1287.91,-178.5 1293.41,-175.178 1298.76,-171.271 1303.87,-167.047"/>
<polygon fill="Blue" stroke="Blue" points="1306.49,-169.41 1311.7,-160.189 1301.87,-164.144 1306.49,-169.41"/>
<text text-anchor="middle" x="1224.41" y="-220.3" font-family="Times New Roman,serif" font-size="14.00">16 PROCESS_FORK</text>
</g>
<!-- 15 -->
<g id="node10" class="node"><title>15</title>
<ellipse fill="none" stroke="black" cx="1699.05" cy="-256.5" rx="137.276" ry="18"/>
<text text-anchor="middle" x="1699.05" y="-252.8" font-family="Times New Roman,serif" font-size="14.00">FILE_FIFO@0@13@2860712220</text>
</g>
<!-- 15&#45;&gt;13 -->
<g id="edge14" class="edge"><title>15&#45;&gt;13</title>
<path fill="none" stroke="Blue" d="M1619.13,-271.136C1539.9,-283.9 1414.37,-298.875 1305.91,-288.5 1247.78,-282.938 1182.35,-269.201 1137.29,-258.543"/>
<polygon fill="Blue" stroke="Blue" points="1137.97,-255.106 1127.43,-256.182 1136.34,-261.914 1137.97,-255.106"/>
<text text-anchor="middle" x="1352.41" y="-295.3" font-family="Times New Roman,serif" font-size="14.00">13 FILE_READ</text>
</g>
<!-- 17&#45;&gt;15 -->
<g id="edge16" class="edge"><title>17&#45;&gt;15</title>
<path fill="none" stroke="Blue" d="M1399.18,-235.687C1442.02,-238.67 1508.11,-243.273 1567.27,-247.392"/>
<polygon fill="Blue" stroke="Blue" points="1567.24,-250.899 1577.46,-248.102 1567.73,-243.916 1567.24,-250.899"/>
<text text-anchor="middle" x="1480.41" y="-249.3" font-family="Times New Roman,serif" font-size="14.00">15 FILE_WRITE</text>
</g>
<!-- 19&#45;&gt;10 -->
<g id="edge25" class="edge"><title>19&#45;&gt;10</title>
<path fill="none" stroke="Blue" d="M1305.69,-115.287C1241.59,-117.824 1121.35,-122.698 1018.91,-127.5 966.305,-129.966 906.402,-133.089 863.56,-135.376"/>
<polygon fill="Blue" stroke="Blue" points="863.124,-131.894 853.325,-135.924 863.498,-138.884 863.124,-131.894"/>
<text text-anchor="middle" x="1080.91" y="-131.3" font-family="Times New Roman,serif" font-size="14.00">24 FILE_REMOVE</text>
</g>
<!-- 22 -->
<g id="node14" class="node"><title>22</title>
<ellipse fill="none" stroke="black" cx="1699.05" cy="-129.5" rx="100.983" ry="18"/>
<text text-anchor="middle" x="1699.05" y="-125.8" font-family="Times New Roman,serif" font-size="14.00">/usr/share/at/batch&#45;job.at</text>
</g>
<!-- 19&#45;&gt;22 -->
<g id="edge20" class="edge"><title>19&#45;&gt;22</title>
<path fill="none" stroke="Blue" d="M1399.18,-115.625C1447.84,-117.884 1526.52,-121.537 1590.94,-124.527"/>
<polygon fill="Blue" stroke="Blue" points="1591,-128.034 1601.15,-125.001 1591.32,-121.041 1591,-128.034"/>
<text text-anchor="middle" x="1480.41" y="-126.3" font-family="Times New Roman,serif" font-size="14.00">19 FILE_WRITE</text>
</g>
<!-- 25 -->
<g id="node15" class="node"><title>25</title>
<polygon fill="none" stroke="black" points="1745.55,-93 1652.55,-93 1652.55,-0 1745.55,-0 1745.55,-93"/>
<text text-anchor="middle" x="1699.05" y="-42.8" font-family="Times New Roman,serif" font-size="14.00">3075901agent</text>
</g>
<!-- 19&#45;&gt;25 -->
<g id="edge21" class="edge"><title>19&#45;&gt;25</title>
<path fill="none" stroke="Blue" d="M1399.17,-83.8697C1404.98,-81.0067 1410.97,-78.4485 1416.91,-76.5 1492.37,-51.7494 1584.74,-46.3006 1642.51,-45.6422"/>
<polygon fill="Blue" stroke="Blue" points="1642.55,-49.1421 1652.53,-45.5723 1642.5,-42.1423 1642.55,-49.1421"/>
<text text-anchor="middle" x="1480.41" y="-80.3" font-family="Times New Roman,serif" font-size="14.00">20 PROCESS_FORK</text>
</g>
<!-- 20 -->
<g id="node13" class="node"><title>20</title>
<ellipse fill="none" stroke="black" cx="2109.33" cy="-141.5" rx="137.276" ry="18"/>
<text text-anchor="middle" x="2109.33" y="-137.8" font-family="Times New Roman,serif" font-size="14.00">FILE_FIFO@0@13@2860708256</text>
</g>
<!-- 20&#45;&gt;19 -->
<g id="edge18" class="edge"><title>20&#45;&gt;19</title>
<path fill="none" stroke="Blue" d="M1989.15,-150.184C1878.41,-156.969 1708.93,-164.084 1561.91,-156.5 1497.21,-153.162 1479.54,-158.105 1416.91,-141.5 1414.13,-140.762 1411.31,-139.917 1408.49,-138.993"/>
<polygon fill="Blue" stroke="Blue" points="1409.53,-135.646 1398.93,-135.579 1407.17,-142.238 1409.53,-135.646"/>
<text text-anchor="middle" x="1699.05" y="-164.3" font-family="Times New Roman,serif" font-size="14.00">17 FILE_READ</text>
</g>
<!-- 22&#45;&gt;19 -->
<g id="edge19" class="edge"><title>22&#45;&gt;19</title>
<path fill="none" stroke="Blue" d="M1638.42,-115.12C1609.99,-108.979 1575.39,-102.535 1543.91,-99.5 1487.73,-94.0833 1473.03,-93.3878 1416.91,-99.5 1414.36,-99.7781 1411.76,-100.117 1409.14,-100.505"/>
<polygon fill="Blue" stroke="Blue" points="1408.28,-97.0997 1399,-102.209 1409.44,-104.003 1408.28,-97.0997"/>
<text text-anchor="middle" x="1480.41" y="-103.3" font-family="Times New Roman,serif" font-size="14.00">18 FILE_READ</text>
</g>
<!-- 25&#45;&gt;20 -->
<g id="edge22" class="edge"><title>25&#45;&gt;20</title>
<path fill="none" stroke="Blue" d="M1745.7,-57.1212C1814.85,-73.2124 1947.02,-103.966 2031.26,-123.567"/>
<polygon fill="Blue" stroke="Blue" points="2030.5,-126.984 2041.03,-125.841 2032.08,-120.166 2030.5,-126.984"/>
<text text-anchor="middle" x="1904.19" y="-109.3" font-family="Times New Roman,serif" font-size="14.00">21 FILE_WRITE</text>
</g>
</g>
</svg>
