<?xml version="1.0" encoding="UTF-8" standalone="no"?>
<!DOCTYPE svg PUBLIC "-//W3C//DTD SVG 1.1//EN"
 "http://www.w3.org/Graphics/SVG/1.1/DTD/svg11.dtd">
<!-- Generated by graphviz version 10.0.1 (20240210.2158)
 -->
<!-- Title: att Pages: 1 -->
<svg width="2526pt" height="363pt"
 viewBox="0.00 0.00 2526.33 363.00" xmlns="http://www.w3.org/2000/svg" xmlns:xlink="http://www.w3.org/1999/xlink">
<g id="graph0" class="graph" transform="scale(1 1) rotate(0) translate(4 359)">
<title>att</title>
<polygon fill="white" stroke="none" points="-4,4 -4,-359 2522.33,-359 2522.33,4 -4,4"/>
<!-- 0 -->
<g id="node1" class="node">
<title>0</title>
<polygon fill="none" stroke="black" points="102.91,-211.25 21.06,-211.25 0,-175.25 81.86,-175.25 102.91,-211.25"/>
<text text-anchor="middle" x="51.46" y="-187.82" font-family="Times New Roman,serif" font-size="14.00">ip1&#45;&gt;1</text>
</g>
<!-- 1 -->
<g id="node2" class="node">
<title>1</title>
<polygon fill="none" stroke="black" points="346.87,-238 257.37,-238 257.37,-148.5 346.87,-148.5 346.87,-238"/>
<text text-anchor="middle" x="302.12" y="-187.82" font-family="Times New Roman,serif" font-size="14.00">3075641bash</text>
</g>
<!-- 0&#45;&gt;1 -->
<g id="edge1" class="edge">
<title>0&#45;&gt;1</title>
<path fill="none" stroke="red" d="M92.96,-193.25C134.58,-193.25 199.64,-193.25 245.94,-193.25"/>
<polygon fill="red" stroke="red" points="245.77,-196.75 255.77,-193.25 245.77,-189.75 245.77,-196.75"/>
<text text-anchor="middle" x="176.79" y="-195.7" font-family="Times New Roman,serif" font-size="14.00">0 NET_CONNECT</text>
</g>
<!-- 2 -->
<g id="node3" class="node">
<title>2</title>
<polygon fill="none" stroke="black" points="601.33,-345.62 518.58,-345.62 518.58,-262.88 601.33,-262.88 601.33,-345.62"/>
<text text-anchor="middle" x="559.95" y="-298.82" font-family="Times New Roman,serif" font-size="14.00">3075794sed</text>
</g>
<!-- 1&#45;&gt;2 -->
<g id="edge2" class="edge">
<title>1&#45;&gt;2</title>
<path fill="none" stroke="red" d="M347.1,-212.33C391.73,-231.69 460.76,-261.65 507.8,-282.06"/>
<polygon fill="red" stroke="red" points="506.13,-285.14 516.69,-285.91 508.91,-278.72 506.13,-285.14"/>
<text text-anchor="middle" x="431.2" y="-276.7" font-family="Times New Roman,serif" font-size="14.00">1 PROCESS_FORK</text>
</g>
<!-- 4 -->
<g id="node5" class="node">
<title>4</title>
<polygon fill="none" stroke="black" points="604.7,-124 515.2,-124 515.2,-34.5 604.7,-34.5 604.7,-124"/>
<text text-anchor="middle" x="559.95" y="-73.83" font-family="Times New Roman,serif" font-size="14.00">3075796wget</text>
</g>
<!-- 1&#45;&gt;4 -->
<g id="edge7" class="edge">
<title>1&#45;&gt;4</title>
<path fill="none" stroke="blue" d="M347.1,-173.65C390.8,-154.18 457.89,-124.28 504.84,-103.37"/>
<polygon fill="blue" stroke="blue" points="506.03,-106.67 513.74,-99.4 503.18,-100.27 506.03,-106.67"/>
<text text-anchor="middle" x="431.2" y="-164.7" font-family="Times New Roman,serif" font-size="14.00">6 PROCESS_FORK</text>
</g>
<!-- 7 -->
<g id="node8" class="node">
<title>7</title>
<polygon fill="none" stroke="black" points="611.08,-244.38 508.83,-244.38 508.83,-142.12 611.08,-142.12 611.08,-244.38"/>
<text text-anchor="middle" x="559.95" y="-187.82" font-family="Times New Roman,serif" font-size="14.00">3075860chmod</text>
</g>
<!-- 1&#45;&gt;7 -->
<g id="edge10" class="edge">
<title>1&#45;&gt;7</title>
<path fill="none" stroke="black" d="M347.1,-193.25C388.46,-193.25 450.77,-193.25 497.12,-193.25"/>
<polygon fill="black" stroke="black" points="497.02,-196.75 507.02,-193.25 497.02,-189.75 497.02,-196.75"/>
<text text-anchor="middle" x="431.2" y="-195.7" font-family="Times New Roman,serif" font-size="14.00">9 PROCESS_FORK</text>
</g>
<!-- 3 -->
<g id="node4" class="node">
<title>3</title>
<ellipse fill="none" stroke="black" cx="807.89" cy="-295.25" rx="55.06" ry="18"/>
<text text-anchor="middle" x="807.89" y="-289.82" font-family="Times New Roman,serif" font-size="14.00">/etc/crontab</text>
</g>
<!-- 2&#45;&gt;3 -->
<g id="edge3" class="edge">
<title>2&#45;&gt;3</title>
<path fill="none" stroke="red" d="M601.77,-262.47C614.04,-250.41 625.27,-240.04 629.08,-238.5 672.66,-220.9 690.42,-223.11 734.83,-238.5 753.22,-244.87 770.48,-258.1 783.49,-270.18"/>
<polygon fill="red" stroke="red" points="780.7,-272.35 790.31,-276.81 785.58,-267.33 780.7,-272.35"/>
<text text-anchor="middle" x="681.95" y="-240.7" font-family="Times New Roman,serif" font-size="14.00">2 FILE_CHMOD</text>
</g>
<!-- 2&#45;&gt;3 -->
<g id="edge4" class="edge">
<title>2&#45;&gt;3</title>
<path fill="none" stroke="red" d="M601.58,-323.95C610.45,-327.39 619.92,-330.44 629.08,-332.25 675.19,-341.36 689.15,-343.29 734.83,-332.25 747.7,-329.14 760.85,-323.31 772.34,-317.18"/>
<polygon fill="red" stroke="red" points="774.04,-320.24 781.04,-312.28 770.61,-314.14 774.04,-320.24"/>
<text text-anchor="middle" x="681.95" y="-341.7" font-family="Times New Roman,serif" font-size="14.00">3 FILE_WRITE</text>
</g>
<!-- 2&#45;&gt;3 -->
<g id="edge6" class="edge">
<title>2&#45;&gt;3</title>
<path fill="none" stroke="red" d="M601.57,-302.76C639.59,-301.37 697.07,-299.27 741.55,-297.64"/>
<polygon fill="red" stroke="red" points="741.47,-301.15 751.33,-297.28 741.21,-294.15 741.47,-301.15"/>
<text text-anchor="middle" x="681.95" y="-303.7" font-family="Times New Roman,serif" font-size="14.00">5 FILE_CHOWN</text>
</g>
<!-- 3&#45;&gt;2 -->
<g id="edge5" class="edge">
<title>3&#45;&gt;2</title>
<path fill="none" stroke="red" d="M765.67,-283.29C755.66,-280.89 744.93,-278.73 734.83,-277.5 688.17,-271.84 675.26,-268.76 629.08,-277.5 623.53,-278.55 617.85,-280.04 612.25,-281.8"/>
<polygon fill="red" stroke="red" points="611.41,-278.38 603.08,-284.94 613.68,-285.01 611.41,-278.38"/>
<text text-anchor="middle" x="681.95" y="-279.7" font-family="Times New Roman,serif" font-size="14.00">4 FILE_RENAME</text>
</g>
<!-- 6 -->
<g id="node7" class="node">
<title>6</title>
<ellipse fill="none" stroke="black" cx="807.89" cy="-145.25" rx="49.57" ry="18"/>
<text text-anchor="middle" x="807.89" y="-139.82" font-family="Times New Roman,serif" font-size="14.00">/tmp/agent</text>
</g>
<!-- 4&#45;&gt;6 -->
<g id="edge9" class="edge">
<title>4&#45;&gt;6</title>
<path fill="none" stroke="blue" d="M604.92,-91.05C647.46,-102.47 711.88,-119.75 756.47,-131.72"/>
<polygon fill="blue" stroke="blue" points="755.33,-135.04 765.9,-134.25 757.15,-128.28 755.33,-135.04"/>
<text text-anchor="middle" x="681.95" y="-128.7" font-family="Times New Roman,serif" font-size="14.00">8 FILE_WRITE</text>
</g>
<!-- 5 -->
<g id="node6" class="node">
<title>5</title>
<polygon fill="none" stroke="black" points="353.58,-97.25 271.72,-97.25 250.66,-61.25 332.52,-61.25 353.58,-97.25"/>
<text text-anchor="middle" x="302.12" y="-73.83" font-family="Times New Roman,serif" font-size="14.00">ip2&#45;&gt;2</text>
</g>
<!-- 5&#45;&gt;4 -->
<g id="edge8" class="edge">
<title>5&#45;&gt;4</title>
<path fill="none" stroke="blue" d="M343.38,-79.25C386.54,-79.25 455.35,-79.25 503.59,-79.25"/>
<polygon fill="blue" stroke="blue" points="503.56,-82.75 513.56,-79.25 503.56,-75.75 503.56,-82.75"/>
<text text-anchor="middle" x="431.2" y="-81.7" font-family="Times New Roman,serif" font-size="14.00">7 NET_CONNECT</text>
</g>
<!-- 8 -->
<g id="node9" class="node">
<title>8</title>
<polygon fill="none" stroke="black" points="1130.82,-297.5 1038.32,-297.5 1038.32,-205 1130.82,-205 1130.82,-297.5"/>
<text text-anchor="middle" x="1084.57" y="-245.82" font-family="Times New Roman,serif" font-size="14.00">3075883agent</text>
</g>
<!-- 6&#45;&gt;8 -->
<g id="edge12" class="edge">
<title>6&#45;&gt;8</title>
<path fill="none" stroke="black" d="M819.02,-163.1C831.06,-182.48 853.09,-212.61 880.94,-227.25 926.04,-250.95 984.41,-255.6 1026.92,-255.12"/>
<polygon fill="black" stroke="black" points="1026.75,-258.62 1036.67,-254.9 1026.59,-251.62 1026.75,-258.62"/>
<text text-anchor="middle" x="942.82" y="-256.7" font-family="Times New Roman,serif" font-size="14.00">11 FILE_READ</text>
</g>
<!-- 6&#45;&gt;8 -->
<g id="edge13" class="edge">
<title>6&#45;&gt;8</title>
<path fill="none" stroke="black" d="M832.95,-161.24C846.52,-169.57 864.09,-179.25 880.94,-185.25 933.58,-204.01 952.05,-188.75 1004.69,-207.5 1012.4,-210.25 1020.25,-213.69 1027.85,-217.44"/>
<polygon fill="black" stroke="black" points="1026.21,-220.53 1036.7,-222.01 1029.42,-214.31 1026.21,-220.53"/>
<text text-anchor="middle" x="942.82" y="-209.7" font-family="Times New Roman,serif" font-size="14.00">12 PROCESS_EXEC</text>
</g>
<!-- 11 -->
<g id="node12" class="node">
<title>11</title>
<polygon fill="none" stroke="black" points="1400.94,-165.5 1308.44,-165.5 1308.44,-73 1400.94,-73 1400.94,-165.5"/>
<text text-anchor="middle" x="1354.69" y="-113.83" font-family="Times New Roman,serif" font-size="14.00">3075890agent</text>
</g>
<!-- 6&#45;&gt;11 -->
<g id="edge23" class="edge">
<title>6&#45;&gt;11</title>
<path fill="none" stroke="orange" d="M832.59,-129.38C846.2,-120.98 863.92,-111.2 880.94,-105.25 941.24,-84.17 959.03,-86.8 1022.69,-81.5 1141.75,-71.6 1173.14,-82.61 1290.44,-105.25 1292.59,-105.67 1294.79,-106.1 1297,-106.55"/>
<polygon fill="orange" stroke="orange" points="1296.17,-109.95 1306.67,-108.55 1297.59,-103.09 1296.17,-109.95"/>
<text text-anchor="middle" x="1084.57" y="-84.7" font-family="Times New Roman,serif" font-size="14.00">22 FILE_READ</text>
</g>
<!-- 6&#45;&gt;11 -->
<g id="edge24" class="edge">
<title>6&#45;&gt;11</title>
<path fill="none" stroke="orange" d="M822.59,-127.8C835.79,-112.35 857.19,-90.53 880.94,-79.25 938.45,-51.93 959.19,-63.12 1022.69,-58.5 1141.7,-49.84 1178.59,-36.69 1290.44,-78.25 1292.98,-79.19 1295.52,-80.25 1298.04,-81.4"/>
<polygon fill="orange" stroke="orange" points="1296.44,-84.51 1306.94,-85.88 1299.59,-78.26 1296.44,-84.51"/>
<text text-anchor="middle" x="1084.57" y="-61.7" font-family="Times New Roman,serif" font-size="14.00">23 PROCESS_EXEC</text>
</g>
<!-- 6&#45;&gt;11 -->
<g id="edge26" class="edge">
<title>6&#45;&gt;11</title>
<path fill="none" stroke="orange" d="M855.74,-150.46C864.12,-151.21 872.78,-151.85 880.94,-152.25 1062.82,-161.06 1111.55,-173.25 1290.44,-139.25 1292.61,-138.84 1294.8,-138.38 1297.01,-137.88"/>
<polygon fill="orange" stroke="orange" points="1297.77,-141.29 1306.61,-135.45 1296.05,-134.51 1297.77,-141.29"/>
<text text-anchor="middle" x="1084.57" y="-163.7" font-family="Times New Roman,serif" font-size="14.00">25 FILE_READ</text>
</g>
<!-- 7&#45;&gt;6 -->
<g id="edge11" class="edge">
<title>7&#45;&gt;6</title>
<path fill="none" stroke="black" d="M611.32,-183.42C652.38,-175.41 710.27,-164.11 752.41,-155.88"/>
<polygon fill="black" stroke="black" points="752.95,-159.34 762.09,-153.99 751.61,-152.47 752.95,-159.34"/>
<text text-anchor="middle" x="681.95" y="-180.7" font-family="Times New Roman,serif" font-size="14.00">10 FILE_CHMOD</text>
</g>
<!-- 10 -->
<g id="node11" class="node">
<title>10</title>
<polygon fill="none" stroke="black" points="1400.94,-286.5 1308.44,-286.5 1308.44,-194 1400.94,-194 1400.94,-286.5"/>
<text text-anchor="middle" x="1354.69" y="-234.82" font-family="Times New Roman,serif" font-size="14.00">3075889agent</text>
</g>
<!-- 8&#45;&gt;10 -->
<g id="edge15" class="edge">
<title>8&#45;&gt;10</title>
<path fill="none" stroke="orange" d="M1131.05,-249.38C1176.7,-247.51 1247.14,-244.62 1296.53,-242.59"/>
<polygon fill="orange" stroke="orange" points="1296.62,-246.09 1306.47,-242.19 1296.34,-239.1 1296.62,-246.09"/>
<text text-anchor="middle" x="1227.44" y="-249.7" font-family="Times New Roman,serif" font-size="14.00">14 PROCESS_FORK</text>
</g>
<!-- 8&#45;&gt;11 -->
<g id="edge17" class="edge">
<title>8&#45;&gt;11</title>
<path fill="none" stroke="orange" d="M1131.3,-234.1C1142.12,-230.17 1153.66,-226.1 1164.44,-222.5 1219.95,-203.97 1240.45,-214.68 1290.44,-184.25 1295.65,-181.08 1300.74,-177.38 1305.61,-173.38"/>
<polygon fill="orange" stroke="orange" points="1307.78,-176.13 1313,-166.91 1303.17,-170.86 1307.78,-176.13"/>
<text text-anchor="middle" x="1227.44" y="-224.7" font-family="Times New Roman,serif" font-size="14.00">16 PROCESS_FORK</text>
</g>
<!-- 9 -->
<g id="node10" class="node">
<title>9</title>
<polygon fill="none" stroke="black" points="1973.14,-313.25 1646.87,-313.25 1562.94,-277.25 1889.21,-277.25 1973.14,-313.25"/>
<text text-anchor="middle" x="1768.04" y="-289.82" font-family="Times New Roman,serif" font-size="14.00">FILE_FIFO@0@13@2860712220</text>
</g>
<!-- 9&#45;&gt;8 -->
<g id="edge14" class="edge">
<title>9&#45;&gt;8</title>
<path fill="none" stroke="orange" d="M1620.32,-302.39C1530.14,-305.02 1412.36,-305.26 1308.44,-295.25 1251.26,-289.74 1187,-276.26 1142.22,-265.66"/>
<polygon fill="orange" stroke="orange" points="1143.29,-262.31 1132.75,-263.38 1141.65,-269.12 1143.29,-262.31"/>
<text text-anchor="middle" x="1354.69" y="-303.7" font-family="Times New Roman,serif" font-size="14.00">13 FILE_READ</text>
</g>
<!-- 10&#45;&gt;9 -->
<g id="edge16" class="edge">
<title>10&#45;&gt;9</title>
<path fill="none" stroke="orange" d="M1401.28,-246.35C1453.32,-253.3 1541.14,-265.05 1617.68,-275.28"/>
<polygon fill="orange" stroke="orange" points="1617.01,-278.72 1627.38,-276.58 1617.93,-271.78 1617.01,-278.72"/>
<text text-anchor="middle" x="1481.94" y="-266.7" font-family="Times New Roman,serif" font-size="14.00">15 FILE_WRITE</text>
</g>
<!-- 11&#45;&gt;6 -->
<g id="edge25" class="edge">
<title>11&#45;&gt;6</title>
<path fill="none" stroke="orange" d="M1308.17,-121.04C1244.36,-123.58 1124.66,-128.5 1022.69,-133.5 970.65,-136.05 911.51,-139.33 868.64,-141.78"/>
<polygon fill="orange" stroke="orange" points="868.57,-138.27 858.79,-142.34 868.97,-145.26 868.57,-138.27"/>
<text text-anchor="middle" x="1084.57" y="-136.7" font-family="Times New Roman,serif" font-size="14.00">24 FILE_REMOVE</text>
</g>
<!-- 13 -->
<g id="node14" class="node">
<title>13</title>
<ellipse fill="none" stroke="black" cx="1768.04" cy="-128.25" rx="102.46" ry="18"/>
<text text-anchor="middle" x="1768.04" y="-122.83" font-family="Times New Roman,serif" font-size="14.00">/usr/share/at/batch&#45;job.at</text>
</g>
<!-- 11&#45;&gt;13 -->
<g id="edge20" class="edge">
<title>11&#45;&gt;13</title>
<path fill="none" stroke="orange" d="M1401.28,-120.25C1461.98,-121.58 1571.35,-123.97 1654.73,-125.79"/>
<polygon fill="orange" stroke="orange" points="1654.47,-129.29 1664.55,-126.01 1654.63,-122.29 1654.47,-129.29"/>
<text text-anchor="middle" x="1481.94" y="-125.7" font-family="Times New Roman,serif" font-size="14.00">19 FILE_WRITE</text>
</g>
<!-- 14 -->
<g id="node15" class="node">
<title>14</title>
<polygon fill="none" stroke="black" points="1814.29,-92.5 1721.79,-92.5 1721.79,0 1814.29,0 1814.29,-92.5"/>
<text text-anchor="middle" x="1768.04" y="-40.83" font-family="Times New Roman,serif" font-size="14.00">3075901agent</text>
</g>
<!-- 11&#45;&gt;14 -->
<g id="edge21" class="edge">
<title>11&#45;&gt;14</title>
<path fill="none" stroke="orange" d="M1401.3,-85.48C1407.03,-82.36 1412.98,-79.59 1418.94,-77.5 1517.01,-43.2 1639.61,-40.8 1710.06,-42.98"/>
<polygon fill="orange" stroke="orange" points="1709.69,-46.47 1719.81,-43.32 1709.94,-39.47 1709.69,-46.47"/>
<text text-anchor="middle" x="1481.94" y="-80.7" font-family="Times New Roman,serif" font-size="14.00">20 PROCESS_FORK</text>
</g>
<!-- 12 -->
<g id="node13" class="node">
<title>12</title>
<polygon fill="none" stroke="black" points="2518.33,-132.25 2192.07,-132.25 2108.14,-96.25 2434.4,-96.25 2518.33,-132.25"/>
<text text-anchor="middle" x="2313.24" y="-108.83" font-family="Times New Roman,serif" font-size="14.00">FILE_FIFO@0@13@2860708256</text>
</g>
<!-- 12&#45;&gt;11 -->
<g id="edge18" class="edge">
<title>12&#45;&gt;11</title>
<path fill="none" stroke="orange" d="M2191.32,-132.45C2126.74,-141.27 2045.8,-150.87 1973.14,-155.25 1791.16,-166.21 1745.09,-162.83 1562.94,-155.25 1498.78,-152.58 1481.57,-157.45 1418.94,-143.25 1416.66,-142.73 1414.35,-142.15 1412.03,-141.52"/>
<polygon fill="orange" stroke="orange" points="1413.21,-138.22 1402.62,-138.66 1411.18,-144.92 1413.21,-138.22"/>
<text text-anchor="middle" x="1768.04" y="-164.7" font-family="Times New Roman,serif" font-size="14.00">17 FILE_READ</text>
</g>
<!-- 13&#45;&gt;11 -->
<g id="edge19" class="edge">
<title>13&#45;&gt;11</title>
<path fill="none" stroke="orange" d="M1688.61,-116.48C1646.19,-110.7 1592.82,-104.37 1544.94,-101.5 1489.04,-98.15 1474.42,-93.86 1418.94,-101.5 1416.78,-101.8 1414.59,-102.15 1412.39,-102.55"/>
<polygon fill="orange" stroke="orange" points="1411.88,-99.08 1402.81,-104.55 1413.31,-105.93 1411.88,-99.08"/>
<text text-anchor="middle" x="1481.94" y="-104.7" font-family="Times New Roman,serif" font-size="14.00">18 FILE_READ</text>
</g>
<!-- 14&#45;&gt;12 -->
<g id="edge22" class="edge">
<title>14&#45;&gt;12</title>
<path fill="none" stroke="orange" d="M1814.42,-51.93C1888.21,-61.17 2037.65,-79.88 2153.62,-94.39"/>
<polygon fill="orange" stroke="orange" points="2152.88,-97.83 2163.24,-95.6 2153.75,-90.88 2152.88,-97.83"/>
<text text-anchor="middle" x="2040.64" y="-89.7" font-family="Times New Roman,serif" font-size="14.00">21 FILE_WRITE</text>
</g>
</g>
</svg>
