<?xml version="1.0" encoding="UTF-8" standalone="no"?>
<!DOCTYPE svg PUBLIC "-//W3C//DTD SVG 1.1//EN"
 "http://www.w3.org/Graphics/SVG/1.1/DTD/svg11.dtd">
<!-- Generated by graphviz version 2.38.0 (20140413.2041)
 -->
<!-- Title: case1_split_case2_1 Pages: 1 -->
<svg width="3195pt" height="1272pt"
 viewBox="0.00 0.00 3195.28 1272.42" xmlns="http://www.w3.org/2000/svg" xmlns:xlink="http://www.w3.org/1999/xlink">
<g id="graph0" class="graph" transform="scale(1 1) rotate(0) translate(4 1268.42)">
<title>case1_split_case2_1</title>
<polygon fill="white" stroke="none" points="-4,4 -4,-1268.42 3191.28,-1268.42 3191.28,4 -4,4"/>
<!-- 0 -->
<g id="node1" class="node"><title>0</title>
<ellipse fill="none" stroke="black" cx="53.9452" cy="-1237.42" rx="53.8905" ry="18"/>
<text text-anchor="middle" x="53.9452" y="-1233.72" font-family="Times New Roman,serif" font-size="14.00">/etc/passwd</text>
</g>
<!-- 1 -->
<g id="node2" class="node"><title>1</title>
<polygon fill="none" stroke="black" points="329.89,-1214.42 243.89,-1214.42 243.89,-1128.42 329.89,-1128.42 329.89,-1214.42"/>
<text text-anchor="middle" x="286.89" y="-1167.72" font-family="Times New Roman,serif" font-size="14.00">3067350java</text>
</g>
<!-- 0&#45;&gt;1 -->
<g id="edge1" class="edge"><title>0&#45;&gt;1</title>
<path fill="none" stroke="Red" d="M96.873,-1226.38C131.558,-1217.12 182.059,-1203.38 225.89,-1190.42 228.502,-1189.65 231.173,-1188.85 233.869,-1188.03"/>
<polygon fill="Red" stroke="Red" points="235.137,-1191.3 243.667,-1185.02 233.08,-1184.61 235.137,-1191.3"/>
<text text-anchor="middle" x="175.89" y="-1222.22" font-family="Times New Roman,serif" font-size="14.00">0 FILE_READ</text>
</g>
<!-- 6 -->
<g id="node5" class="node"><title>6</title>
<polygon fill="none" stroke="black" points="581.396,-775.424 491.396,-775.424 491.396,-685.424 581.396,-685.424 581.396,-775.424"/>
<text text-anchor="middle" x="536.396" y="-726.724" font-family="Times New Roman,serif" font-size="14.00">3074214bash</text>
</g>
<!-- 0&#45;&gt;6 -->
<g id="edge5" class="edge"><title>0&#45;&gt;6</title>
<path fill="none" stroke="Blue" d="M101.24,-1246.16C158.433,-1254.57 257.084,-1261.08 329.89,-1223.42 410.643,-1181.65 426.905,-1153.58 467.89,-1072.42 514.991,-979.161 529.265,-856.154 533.567,-785.932"/>
<polygon fill="Blue" stroke="Blue" points="537.084,-785.728 534.154,-775.546 530.095,-785.333 537.084,-785.728"/>
<text text-anchor="middle" x="286.89" y="-1253.22" font-family="Times New Roman,serif" font-size="14.00">4 FILE_READ</text>
</g>
<!-- 1&#45;&gt;6 -->
<g id="edge4" class="edge"><title>1&#45;&gt;6</title>
<path fill="none" stroke="Blue" d="M312.073,-1128.34C357.466,-1047.46 455.33,-873.084 505.06,-784.477"/>
<polygon fill="Blue" stroke="Blue" points="508.167,-786.092 510.009,-775.659 502.062,-782.666 508.167,-786.092"/>
<text text-anchor="middle" x="407.89" y="-1057.22" font-family="Times New Roman,serif" font-size="14.00">3 PROCESS_FORK</text>
</g>
<!-- 2 -->
<g id="node3" class="node"><title>2</title>
<polygon fill="none" stroke="black" points="104.457,-1189.42 24.1042,-1189.42 3.43366,-1153.42 83.7862,-1153.42 104.457,-1189.42"/>
<text text-anchor="middle" x="53.9452" y="-1167.72" font-family="Times New Roman,serif" font-size="14.00">ip1&#45;&gt;1</text>
</g>
<!-- 2&#45;&gt;1 -->
<g id="edge2" class="edge"><title>2&#45;&gt;1</title>
<path fill="none" stroke="Red" d="M94.1219,-1171.42C132.523,-1171.42 191.3,-1171.42 233.659,-1171.42"/>
<polygon fill="Red" stroke="Red" points="233.781,-1174.92 243.781,-1171.42 233.781,-1167.92 233.781,-1174.92"/>
<text text-anchor="middle" x="175.89" y="-1175.22" font-family="Times New Roman,serif" font-size="14.00">1 NET_ACCEPT</text>
</g>
<!-- 4 -->
<g id="node4" class="node"><title>4</title>
<ellipse fill="none" stroke="black" cx="887.04" cy="-1217.42" rx="137.276" ry="18"/>
<text text-anchor="middle" x="887.04" y="-1213.72" font-family="Times New Roman,serif" font-size="14.00">FILE_FIFO@0@13@2860671614</text>
</g>
<!-- 4&#45;&gt;1 -->
<g id="edge3" class="edge"><title>4&#45;&gt;1</title>
<path fill="none" stroke="Red" d="M749.702,-1217.37C703.663,-1216.59 652.008,-1214.89 604.902,-1211.42 511.226,-1204.53 402.783,-1189.26 340.089,-1179.71"/>
<polygon fill="Red" stroke="Red" points="340.469,-1176.22 330.054,-1178.17 339.407,-1183.14 340.469,-1176.22"/>
<text text-anchor="middle" x="536.396" y="-1214.22" font-family="Times New Roman,serif" font-size="14.00">2 FILE_READ</text>
</g>
<!-- 6&#45;&gt;4 -->
<g id="edge55" class="edge"><title>6&#45;&gt;4</title>
<path fill="none" stroke="Blue" d="M537.772,-775.689C539.604,-877.125 549.796,-1118.1 604.902,-1173.42 608.172,-1176.71 704.233,-1191.26 783.163,-1202.75"/>
<polygon fill="Blue" stroke="Blue" points="782.789,-1206.23 793.188,-1204.2 783.795,-1199.3 782.789,-1206.23"/>
<text text-anchor="middle" x="668.402" y="-1199.22" font-family="Times New Roman,serif" font-size="14.00">54 FILE_WRITE</text>
</g>
<!-- 14 -->
<g id="node9" class="node"><title>14</title>
<polygon fill="none" stroke="black" points="932.04,-448.424 842.04,-448.424 842.04,-358.424 932.04,-358.424 932.04,-448.424"/>
<text text-anchor="middle" x="887.04" y="-399.724" font-family="Times New Roman,serif" font-size="14.00">3074286wget</text>
</g>
<!-- 6&#45;&gt;14 -->
<g id="edge9" class="edge"><title>6&#45;&gt;14</title>
<path fill="none" stroke="Blue" d="M548.324,-685.102C558.585,-649.37 576.65,-599.688 604.902,-563.424 663.666,-487.996 768.62,-442.126 832.331,-419.862"/>
<polygon fill="Blue" stroke="Blue" points="833.477,-423.169 841.805,-416.619 831.21,-416.546 833.477,-423.169"/>
<text text-anchor="middle" x="668.402" y="-567.224" font-family="Times New Roman,serif" font-size="14.00">8 PROCESS_FORK</text>
</g>
<!-- 18 -->
<g id="node12" class="node"><title>18</title>
<polygon fill="none" stroke="black" points="938.54,-569.924 835.54,-569.924 835.54,-466.924 938.54,-466.924 938.54,-569.924"/>
<text text-anchor="middle" x="887.04" y="-514.724" font-family="Times New Roman,serif" font-size="14.00">3074317chmod</text>
</g>
<!-- 6&#45;&gt;18 -->
<g id="edge12" class="edge"><title>6&#45;&gt;18</title>
<path fill="none" stroke="Blue" d="M574.873,-685.243C584.13,-675.449 594.415,-665.591 604.902,-657.424 673.469,-604.025 765.824,-563.178 825.65,-539.99"/>
<polygon fill="Blue" stroke="Blue" points="827.242,-543.128 835.329,-536.282 824.738,-536.591 827.242,-543.128"/>
<text text-anchor="middle" x="668.402" y="-661.224" font-family="Times New Roman,serif" font-size="14.00">11 PROCESS_FORK</text>
</g>
<!-- 20 -->
<g id="node13" class="node"><title>20</title>
<polygon fill="none" stroke="black" points="1808.59,-309.424 1714.59,-309.424 1714.59,-215.424 1808.59,-215.424 1808.59,-309.424"/>
<text text-anchor="middle" x="1761.59" y="-258.724" font-family="Times New Roman,serif" font-size="14.00">3074526socat</text>
</g>
<!-- 6&#45;&gt;20 -->
<g id="edge14" class="edge"><title>6&#45;&gt;20</title>
<path fill="none" stroke="Blue" d="M542.399,-685.096C555.485,-568.12 590.697,-264.033 604.902,-247.424 648.674,-196.243 683.285,-213.309 749.902,-203.424 951.275,-173.544 1602.57,-244.061 1606.45,-244.424 1638.97,-247.466 1675.25,-251.662 1704.44,-255.238"/>
<polygon fill="Blue" stroke="Blue" points="1704.09,-258.722 1714.45,-256.474 1704.95,-251.775 1704.09,-258.722"/>
<text text-anchor="middle" x="1105.68" y="-211.224" font-family="Times New Roman,serif" font-size="14.00">13 PROCESS_FORK</text>
</g>
<!-- 23 -->
<g id="node14" class="node"><title>23</title>
<polygon fill="none" stroke="black" points="1808.59,-423.424 1714.59,-423.424 1714.59,-329.424 1808.59,-329.424 1808.59,-423.424"/>
<text text-anchor="middle" x="1761.59" y="-372.724" font-family="Times New Roman,serif" font-size="14.00">3074649socat</text>
</g>
<!-- 6&#45;&gt;23 -->
<g id="edge17" class="edge"><title>6&#45;&gt;23</title>
<path fill="none" stroke="Blue" d="M539.872,-685.126C544.849,-628.771 559.829,-531.556 604.902,-462.424 649.525,-393.983 672.726,-376.241 749.902,-349.424 903.046,-296.21 1317.33,-344.98 1479.45,-344.424 1535.9,-344.231 1550.3,-338.657 1606.45,-344.424 1639.29,-347.796 1675.44,-355.108 1704.48,-361.892"/>
<polygon fill="Blue" stroke="Blue" points="1703.9,-365.351 1714.44,-364.262 1705.52,-358.541 1703.9,-365.351"/>
<text text-anchor="middle" x="1105.68" y="-334.224" font-family="Times New Roman,serif" font-size="14.00">16 PROCESS_FORK</text>
</g>
<!-- 28 -->
<g id="node16" class="node"><title>28</title>
<polygon fill="none" stroke="black" points="932.04,-1139.42 842.04,-1139.42 842.04,-1049.42 932.04,-1049.42 932.04,-1139.42"/>
<text text-anchor="middle" x="887.04" y="-1090.72" font-family="Times New Roman,serif" font-size="14.00">3074318bash</text>
</g>
<!-- 6&#45;&gt;28 -->
<g id="edge21" class="edge"><title>6&#45;&gt;28</title>
<path fill="none" stroke="Blue" d="M541.452,-775.66C549.189,-851.498 568.609,-999.527 604.902,-1035.42 664.94,-1094.81 768.549,-1101.45 831.826,-1099.14"/>
<polygon fill="Blue" stroke="Blue" points="832.173,-1102.62 842.004,-1098.67 831.856,-1095.63 832.173,-1102.62"/>
<text text-anchor="middle" x="668.402" y="-1097.22" font-family="Times New Roman,serif" font-size="14.00">20 PROCESS_FORK</text>
</g>
<!-- 34 -->
<g id="node20" class="node"><title>34</title>
<polygon fill="none" stroke="black" points="932.04,-775.424 842.04,-775.424 842.04,-685.424 932.04,-685.424 932.04,-775.424"/>
<text text-anchor="middle" x="887.04" y="-726.724" font-family="Times New Roman,serif" font-size="14.00">3074505bash</text>
</g>
<!-- 6&#45;&gt;34 -->
<g id="edge27" class="edge"><title>6&#45;&gt;34</title>
<path fill="none" stroke="Blue" d="M581.552,-730.424C645.254,-730.424 762.833,-730.424 831.753,-730.424"/>
<polygon fill="Blue" stroke="Blue" points="831.968,-733.924 841.968,-730.424 831.968,-726.924 831.968,-733.924"/>
<text text-anchor="middle" x="668.402" y="-734.224" font-family="Times New Roman,serif" font-size="14.00">26 PROCESS_FORK</text>
</g>
<!-- 45 -->
<g id="node26" class="node"><title>45</title>
<polygon fill="none" stroke="black" points="932.04,-156.424 842.04,-156.424 842.04,-66.4241 932.04,-66.4241 932.04,-156.424"/>
<text text-anchor="middle" x="887.04" y="-107.724" font-family="Times New Roman,serif" font-size="14.00">3074509bash</text>
</g>
<!-- 6&#45;&gt;45 -->
<g id="edge38" class="edge"><title>6&#45;&gt;45</title>
<path fill="none" stroke="Blue" d="M543.23,-685.128C552.77,-610.582 572.125,-457.348 586.902,-327.424 591.245,-289.239 578.429,-183.283 604.902,-155.424 662.686,-94.6162 767.498,-95.1157 831.532,-102.347"/>
<polygon fill="Blue" stroke="Blue" points="831.481,-105.867 841.832,-103.608 832.332,-98.9185 831.481,-105.867"/>
<text text-anchor="middle" x="668.402" y="-159.224" font-family="Times New Roman,serif" font-size="14.00">37 PROCESS_FORK</text>
</g>
<!-- 56 -->
<g id="node32" class="node"><title>56</title>
<polygon fill="none" stroke="black" points="932.04,-993.424 842.04,-993.424 842.04,-903.424 932.04,-903.424 932.04,-993.424"/>
<text text-anchor="middle" x="887.04" y="-944.724" font-family="Times New Roman,serif" font-size="14.00">3074525bash</text>
</g>
<!-- 6&#45;&gt;56 -->
<g id="edge49" class="edge"><title>6&#45;&gt;56</title>
<path fill="none" stroke="Blue" d="M572.697,-775.433C582.497,-786.548 593.576,-797.967 604.902,-807.424 674.581,-865.605 772.321,-907.683 832.293,-930.036"/>
<polygon fill="Blue" stroke="Blue" points="831.352,-933.42 841.946,-933.586 833.768,-926.85 831.352,-933.42"/>
<text text-anchor="middle" x="668.402" y="-889.224" font-family="Times New Roman,serif" font-size="14.00">48 PROCESS_FORK</text>
</g>
<!-- 57 -->
<g id="node33" class="node"><title>57</title>
<polygon fill="none" stroke="black" points="933.04,-885.424 841.04,-885.424 841.04,-793.424 933.04,-793.424 933.04,-885.424"/>
<text text-anchor="middle" x="887.04" y="-835.724" font-family="Times New Roman,serif" font-size="14.00">3074615sleep</text>
</g>
<!-- 6&#45;&gt;57 -->
<g id="edge50" class="edge"><title>6&#45;&gt;57</title>
<path fill="none" stroke="Blue" d="M581.552,-744.229C645.035,-764.076 762.027,-800.653 831.042,-822.229"/>
<polygon fill="Blue" stroke="Blue" points="830.275,-825.657 840.864,-825.3 832.364,-818.976 830.275,-825.657"/>
<text text-anchor="middle" x="668.402" y="-792.224" font-family="Times New Roman,serif" font-size="14.00">49 PROCESS_FORK</text>
</g>
<!-- 58 -->
<g id="node34" class="node"><title>58</title>
<polygon fill="none" stroke="black" points="932.04,-302.424 842.04,-302.424 842.04,-212.424 932.04,-212.424 932.04,-302.424"/>
<text text-anchor="middle" x="887.04" y="-253.724" font-family="Times New Roman,serif" font-size="14.00">3074648bash</text>
</g>
<!-- 6&#45;&gt;58 -->
<g id="edge51" class="edge"><title>6&#45;&gt;58</title>
<path fill="none" stroke="Blue" d="M538.124,-685.083C540.691,-586.548 552.31,-357.464 604.902,-304.424 663.982,-244.84 768.135,-243.568 831.735,-249.501"/>
<polygon fill="Blue" stroke="Blue" points="831.66,-253.012 841.965,-250.551 832.374,-246.049 831.66,-253.012"/>
<text text-anchor="middle" x="668.402" y="-308.224" font-family="Times New Roman,serif" font-size="14.00">50 PROCESS_FORK</text>
</g>
<!-- 60 -->
<g id="node35" class="node"><title>60</title>
<polygon fill="none" stroke="black" points="926.54,-666.924 847.54,-666.924 847.54,-587.924 926.54,-587.924 926.54,-666.924"/>
<text text-anchor="middle" x="887.04" y="-623.724" font-family="Times New Roman,serif" font-size="14.00">3074650rm</text>
</g>
<!-- 6&#45;&gt;60 -->
<g id="edge53" class="edge"><title>6&#45;&gt;60</title>
<path fill="none" stroke="Blue" d="M581.552,-717.379C647.131,-698.005 769.809,-661.762 837.716,-641.7"/>
<polygon fill="Blue" stroke="Blue" points="838.726,-645.052 847.325,-638.862 836.743,-638.338 838.726,-645.052"/>
<text text-anchor="middle" x="668.402" y="-712.224" font-family="Times New Roman,serif" font-size="14.00">52 PROCESS_FORK</text>
</g>
<!-- 8 -->
<g id="node6" class="node"><title>8</title>
<ellipse fill="none" stroke="black" cx="2428.87" cy="-1013.42" rx="137.276" ry="18"/>
<text text-anchor="middle" x="2428.87" y="-1009.72" font-family="Times New Roman,serif" font-size="14.00">FILE_FIFO@0@13@2860674841</text>
</g>
<!-- 8&#45;&gt;6 -->
<g id="edge6" class="edge"><title>8&#45;&gt;6</title>
<path fill="none" stroke="Blue" d="M2328.45,-1001.11C2265.8,-994.389 2183.16,-987.424 2109.73,-987.424 1541.95,-987.424 1541.95,-987.424 1541.95,-987.424 1311.73,-987.424 1254.37,-999.09 1024.18,-1002.42 902.29,-1004.19 866.459,-1038.12 749.902,-1002.42 675.528,-979.648 653.403,-965.234 604.902,-904.424 577.2,-869.692 559.808,-822.252 549.628,-785.679"/>
<polygon fill="Blue" stroke="Blue" points="552.915,-784.424 546.945,-775.672 546.154,-786.237 552.915,-784.424"/>
<text text-anchor="middle" x="1542.95" y="-992.224" font-family="Times New Roman,serif" font-size="14.00">5 FILE_READ</text>
</g>
<!-- 10 -->
<g id="node7" class="node"><title>10</title>
<ellipse fill="none" stroke="black" cx="3050.14" cy="-1068.42" rx="137.276" ry="18"/>
<text text-anchor="middle" x="3050.14" y="-1064.72" font-family="Times New Roman,serif" font-size="14.00">FILE_FIFO@0@13@2860674925</text>
</g>
<!-- 10&#45;&gt;6 -->
<g id="edge7" class="edge"><title>10&#45;&gt;6</title>
<path fill="none" stroke="Blue" d="M3016.9,-1085.9C2961.34,-1114.32 2843.26,-1167.42 2736.5,-1167.42 1104.68,-1167.42 1104.68,-1167.42 1104.68,-1167.42 983.934,-1167.42 673.912,-1186.33 604.902,-1112.42 561.485,-1065.93 545.385,-880.025 539.929,-785.789"/>
<polygon fill="Blue" stroke="Blue" points="543.412,-785.379 539.359,-775.59 536.423,-785.77 543.412,-785.379"/>
<text text-anchor="middle" x="1980.23" y="-1171.22" font-family="Times New Roman,serif" font-size="14.00">6 FILE_READ</text>
</g>
<!-- 12 -->
<g id="node8" class="node"><title>12</title>
<ellipse fill="none" stroke="black" cx="3050.14" cy="-26.4241" rx="137.276" ry="18"/>
<text text-anchor="middle" x="3050.14" y="-22.7241" font-family="Times New Roman,serif" font-size="14.00">FILE_FIFO@0@13@2860674926</text>
</g>
<!-- 12&#45;&gt;6 -->
<g id="edge8" class="edge"><title>12&#45;&gt;6</title>
<path fill="none" stroke="Blue" d="M2950.4,-13.9952C2888.97,-7.31049 2808.26,-0.424054 2736.5,-0.424054 886.04,-0.424054 886.04,-0.424054 886.04,-0.424054 753.716,-0.424054 685.709,6.36081 604.902,-98.4241 589.316,-118.635 589.459,-302.029 586.902,-327.424 574.367,-451.937 555.41,-597.562 544.966,-675.139"/>
<polygon fill="Blue" stroke="Blue" points="541.481,-674.79 543.612,-685.168 548.418,-675.727 541.481,-674.79"/>
<text text-anchor="middle" x="1980.23" y="-4.22405" font-family="Times New Roman,serif" font-size="14.00">7 FILE_READ</text>
</g>
<!-- 17 -->
<g id="node11" class="node"><title>17</title>
<ellipse fill="none" stroke="black" cx="1324.32" cy="-469.424" rx="49.2915" ry="18"/>
<text text-anchor="middle" x="1324.32" y="-465.724" font-family="Times New Roman,serif" font-size="14.00">/tmp/socat</text>
</g>
<!-- 14&#45;&gt;17 -->
<g id="edge11" class="edge"><title>14&#45;&gt;17</title>
<path fill="none" stroke="Blue" d="M932.172,-410.116C1012.21,-422.252 1181.1,-447.861 1268.44,-461.103"/>
<polygon fill="Blue" stroke="Blue" points="1268,-464.577 1278.42,-462.616 1269.05,-457.656 1268,-464.577"/>
<text text-anchor="middle" x="1105.68" y="-448.224" font-family="Times New Roman,serif" font-size="14.00">10 FILE_WRITE</text>
</g>
<!-- 15 -->
<g id="node10" class="node"><title>15</title>
<polygon fill="none" stroke="black" points="586.908,-318.424 506.555,-318.424 485.885,-282.424 566.237,-282.424 586.908,-318.424"/>
<text text-anchor="middle" x="536.396" y="-296.724" font-family="Times New Roman,serif" font-size="14.00">ip2&#45;&gt;2</text>
</g>
<!-- 15&#45;&gt;14 -->
<g id="edge10" class="edge"><title>15&#45;&gt;14</title>
<path fill="none" stroke="Blue" d="M584.779,-314.422C649.284,-333.479 764.437,-367.499 832.156,-387.505"/>
<polygon fill="Blue" stroke="Blue" points="831.21,-390.875 841.792,-390.352 833.193,-384.162 831.21,-390.875"/>
<text text-anchor="middle" x="668.402" y="-359.224" font-family="Times New Roman,serif" font-size="14.00">9 NET_CONNECT</text>
</g>
<!-- 17&#45;&gt;20 -->
<g id="edge15" class="edge"><title>17&#45;&gt;20</title>
<path fill="none" stroke="Blue" d="M1342.23,-452.515C1369.95,-424.11 1425.55,-364.142 1461.45,-305.424 1472.05,-288.098 1462.52,-274.634 1479.45,-263.424 1515,-239.896 1632.91,-248.007 1704.25,-255.537"/>
<polygon fill="Blue" stroke="Blue" points="1704.1,-259.042 1714.42,-256.64 1704.85,-252.082 1704.1,-259.042"/>
<text text-anchor="middle" x="1542.95" y="-267.224" font-family="Times New Roman,serif" font-size="14.00">14 FILE_READ</text>
</g>
<!-- 17&#45;&gt;20 -->
<g id="edge16" class="edge"><title>17&#45;&gt;20</title>
<path fill="none" stroke="Blue" d="M1345.1,-453.06C1373.38,-430.338 1427.68,-389.135 1479.45,-363.424 1532.7,-336.983 1550.45,-341.389 1606.45,-321.424 1639.19,-309.753 1675.5,-295.897 1704.66,-284.547"/>
<polygon fill="Blue" stroke="Blue" points="1706.21,-287.697 1714.26,-280.8 1703.67,-281.176 1706.21,-287.697"/>
<text text-anchor="middle" x="1542.95" y="-367.224" font-family="Times New Roman,serif" font-size="14.00">15 PROCESS_EXEC</text>
</g>
<!-- 17&#45;&gt;23 -->
<g id="edge18" class="edge"><title>17&#45;&gt;23</title>
<path fill="none" stroke="Blue" d="M1352.49,-454.436C1382.57,-438.615 1432.96,-414.352 1479.45,-402.424 1555.66,-382.873 1646.83,-377.618 1704.23,-376.417"/>
<polygon fill="Blue" stroke="Blue" points="1704.61,-379.911 1714.55,-376.238 1704.49,-372.912 1704.61,-379.911"/>
<text text-anchor="middle" x="1542.95" y="-406.224" font-family="Times New Roman,serif" font-size="14.00">17 FILE_READ</text>
</g>
<!-- 17&#45;&gt;23 -->
<g id="edge19" class="edge"><title>17&#45;&gt;23</title>
<path fill="none" stroke="Blue" d="M1368.49,-461.22C1399.38,-455.369 1441.97,-447.345 1479.45,-440.424 1535.86,-430.01 1550.47,-429.918 1606.45,-417.424 1639.09,-410.141 1675.24,-400.605 1704.32,-392.563"/>
<polygon fill="Blue" stroke="Blue" points="1705.6,-395.84 1714.29,-389.787 1703.72,-389.097 1705.6,-395.84"/>
<text text-anchor="middle" x="1542.95" y="-444.224" font-family="Times New Roman,serif" font-size="14.00">18 PROCESS_EXEC</text>
</g>
<!-- 37 -->
<g id="node23" class="node"><title>37</title>
<polygon fill="none" stroke="black" points="2155.73,-704.424 2061.73,-704.424 2061.73,-610.424 2155.73,-610.424 2155.73,-704.424"/>
<text text-anchor="middle" x="2108.73" y="-653.724" font-family="Times New Roman,serif" font-size="14.00">3074507socat</text>
</g>
<!-- 17&#45;&gt;37 -->
<g id="edge32" class="edge"><title>17&#45;&gt;37</title>
<path fill="none" stroke="Blue" d="M1356.23,-483.298C1386.89,-496.466 1435.5,-515.779 1479.45,-526.424 1661.9,-570.612 1712.83,-551.382 1898.73,-577.424 1963.35,-586.476 1984.76,-572.486 2043.73,-600.424 2046.92,-601.935 2050.07,-603.655 2053.15,-605.533"/>
<polygon fill="Blue" stroke="Blue" points="2051.41,-608.576 2061.67,-611.2 2055.28,-602.747 2051.41,-608.576"/>
<text text-anchor="middle" x="1761.59" y="-581.224" font-family="Times New Roman,serif" font-size="14.00">31 FILE_READ</text>
</g>
<!-- 17&#45;&gt;37 -->
<g id="edge33" class="edge"><title>17&#45;&gt;37</title>
<path fill="none" stroke="Blue" d="M1349.53,-484.974C1379.17,-503.443 1431.36,-534.166 1479.45,-553.424 1715.22,-647.825 1793.35,-600.909 2043.73,-643.424 2046.37,-643.873 2049.07,-644.357 2051.79,-644.868"/>
<polygon fill="Blue" stroke="Blue" points="2051.2,-648.318 2061.69,-646.809 2052.55,-641.449 2051.2,-648.318"/>
<text text-anchor="middle" x="1761.59" y="-630.224" font-family="Times New Roman,serif" font-size="14.00">32 PROCESS_EXEC</text>
</g>
<!-- 48 -->
<g id="node29" class="node"><title>48</title>
<polygon fill="none" stroke="black" points="2155.73,-231.424 2061.73,-231.424 2061.73,-137.424 2155.73,-137.424 2155.73,-231.424"/>
<text text-anchor="middle" x="2108.73" y="-180.724" font-family="Times New Roman,serif" font-size="14.00">3074511socat</text>
</g>
<!-- 17&#45;&gt;48 -->
<g id="edge43" class="edge"><title>17&#45;&gt;48</title>
<path fill="none" stroke="Blue" d="M1373.69,-471.167C1494.79,-474.766 1807.78,-479.145 1898.73,-432.424 1981.26,-390.028 2044.14,-299.451 2078.47,-240.29"/>
<polygon fill="Blue" stroke="Blue" points="2081.61,-241.856 2083.53,-231.438 2075.53,-238.382 2081.61,-241.856"/>
<text text-anchor="middle" x="1761.59" y="-475.224" font-family="Times New Roman,serif" font-size="14.00">42 FILE_READ</text>
</g>
<!-- 17&#45;&gt;48 -->
<g id="edge44" class="edge"><title>17&#45;&gt;48</title>
<path fill="none" stroke="Blue" d="M1364.02,-480.37C1458.66,-505.135 1707.95,-558.241 1898.73,-490.424 1977.02,-462.594 1996.27,-440.626 2043.73,-372.424 2071.08,-333.111 2087.6,-281.109 2096.98,-241.764"/>
<polygon fill="Blue" stroke="Blue" points="2100.44,-242.323 2099.27,-231.793 2093.62,-240.756 2100.44,-242.323"/>
<text text-anchor="middle" x="1761.59" y="-528.224" font-family="Times New Roman,serif" font-size="14.00">43 PROCESS_EXEC</text>
</g>
<!-- 18&#45;&gt;17 -->
<g id="edge13" class="edge"><title>18&#45;&gt;17</title>
<path fill="none" stroke="Blue" d="M938.823,-512.707C1020.71,-503.489 1181.37,-485.403 1266.78,-475.788"/>
<polygon fill="Blue" stroke="Blue" points="1267.27,-479.255 1276.82,-474.658 1266.49,-472.299 1267.27,-479.255"/>
<text text-anchor="middle" x="1105.68" y="-504.224" font-family="Times New Roman,serif" font-size="14.00">12 FILE_CHMOD</text>
</g>
<!-- 26 -->
<g id="node15" class="node"><title>26</title>
<ellipse fill="none" stroke="black" cx="1324.32" cy="-278.424" rx="137.276" ry="18"/>
<text text-anchor="middle" x="1324.32" y="-274.724" font-family="Times New Roman,serif" font-size="14.00">FILE_FIFO@0@13@2860674992</text>
</g>
<!-- 26&#45;&gt;23 -->
<g id="edge20" class="edge"><title>26&#45;&gt;23</title>
<path fill="none" stroke="Blue" d="M1460.07,-281.052C1518.79,-283.907 1580.17,-289.713 1606.45,-301.424 1616.5,-305.903 1615.25,-312.396 1624.45,-318.424 1649.23,-334.648 1679.29,-348.021 1704.86,-357.821"/>
<polygon fill="Blue" stroke="Blue" points="1703.83,-361.172 1714.42,-361.401 1706.29,-354.616 1703.83,-361.172"/>
<text text-anchor="middle" x="1542.95" y="-306.224" font-family="Times New Roman,serif" font-size="14.00">19 FILE_READ</text>
</g>
<!-- 29 -->
<g id="node17" class="node"><title>29</title>
<polygon fill="none" stroke="black" points="1367.32,-1101.42 1281.32,-1101.42 1281.32,-1015.42 1367.32,-1015.42 1367.32,-1101.42"/>
<text text-anchor="middle" x="1324.32" y="-1054.72" font-family="Times New Roman,serif" font-size="14.00">3074319find</text>
</g>
<!-- 28&#45;&gt;29 -->
<g id="edge22" class="edge"><title>28&#45;&gt;29</title>
<path fill="none" stroke="Blue" d="M932.172,-1090.77C1013.07,-1084.08 1184.72,-1069.89 1271.2,-1062.73"/>
<polygon fill="Blue" stroke="Blue" points="1271.64,-1066.21 1281.31,-1061.9 1271.06,-1059.23 1271.64,-1066.21"/>
<text text-anchor="middle" x="1105.68" y="-1085.22" font-family="Times New Roman,serif" font-size="14.00">21 PROCESS_FORK</text>
</g>
<!-- 31 -->
<g id="node19" class="node"><title>31</title>
<polygon fill="none" stroke="black" points="2150.23,-1099.92 2067.23,-1099.92 2067.23,-1016.92 2150.23,-1016.92 2150.23,-1099.92"/>
<text text-anchor="middle" x="2108.73" y="-1054.72" font-family="Times New Roman,serif" font-size="14.00">3074320sed</text>
</g>
<!-- 28&#45;&gt;31 -->
<g id="edge24" class="edge"><title>28&#45;&gt;31</title>
<path fill="none" stroke="Blue" d="M932.106,-1097.52C990.424,-1101.45 1096.46,-1108 1187.18,-1110.42 1568.01,-1120.6 1668.42,-1142.85 2043.73,-1077.42 2048.15,-1076.65 2052.7,-1075.68 2057.24,-1074.58"/>
<polygon fill="Blue" stroke="Blue" points="2058.3,-1077.93 2067.1,-1072.02 2056.54,-1071.15 2058.3,-1077.93"/>
<text text-anchor="middle" x="1542.95" y="-1127.22" font-family="Times New Roman,serif" font-size="14.00">23 PROCESS_FORK</text>
</g>
<!-- 30 -->
<g id="node18" class="node"><title>30</title>
<ellipse fill="none" stroke="black" cx="1761.59" cy="-1058.42" rx="137.276" ry="18"/>
<text text-anchor="middle" x="1761.59" y="-1054.72" font-family="Times New Roman,serif" font-size="14.00">FILE_FIFO@0@13@2860684787</text>
</g>
<!-- 29&#45;&gt;30 -->
<g id="edge23" class="edge"><title>29&#45;&gt;30</title>
<path fill="none" stroke="Blue" d="M1367.45,-1058.42C1423.99,-1058.42 1527.32,-1058.42 1613.86,-1058.42"/>
<polygon fill="Blue" stroke="Blue" points="1614.06,-1061.92 1624.06,-1058.42 1614.06,-1054.92 1614.06,-1061.92"/>
<text text-anchor="middle" x="1542.95" y="-1062.22" font-family="Times New Roman,serif" font-size="14.00">22 FILE_WRITE</text>
</g>
<!-- 30&#45;&gt;31 -->
<g id="edge25" class="edge"><title>30&#45;&gt;31</title>
<path fill="none" stroke="Blue" d="M1899,-1058.42C1954.58,-1058.42 2015.41,-1058.42 2056.98,-1058.42"/>
<polygon fill="Blue" stroke="Blue" points="2057.12,-1061.92 2067.12,-1058.42 2057.12,-1054.92 2057.12,-1061.92"/>
<text text-anchor="middle" x="1980.23" y="-1062.22" font-family="Times New Roman,serif" font-size="14.00">24 FILE_READ</text>
</g>
<!-- 31&#45;&gt;8 -->
<g id="edge26" class="edge"><title>31&#45;&gt;8</title>
<path fill="none" stroke="Blue" d="M2150.34,-1052.68C2194.05,-1046.5 2265.28,-1036.42 2324.63,-1028.03"/>
<polygon fill="Blue" stroke="Blue" points="2325.39,-1031.45 2334.8,-1026.59 2324.41,-1024.52 2325.39,-1031.45"/>
<text text-anchor="middle" x="2223.73" y="-1053.22" font-family="Times New Roman,serif" font-size="14.00">25 FILE_WRITE</text>
</g>
<!-- 35 -->
<g id="node21" class="node"><title>35</title>
<polygon fill="none" stroke="black" points="1369.32,-775.424 1279.32,-775.424 1279.32,-685.424 1369.32,-685.424 1369.32,-775.424"/>
<text text-anchor="middle" x="1324.32" y="-726.724" font-family="Times New Roman,serif" font-size="14.00">3074506bash</text>
</g>
<!-- 34&#45;&gt;35 -->
<g id="edge28" class="edge"><title>34&#45;&gt;35</title>
<path fill="none" stroke="Blue" d="M932.172,-730.424C1012.34,-730.424 1181.64,-730.424 1268.85,-730.424"/>
<polygon fill="Blue" stroke="Blue" points="1269.07,-733.924 1279.07,-730.424 1269.07,-726.924 1269.07,-733.924"/>
<text text-anchor="middle" x="1105.68" y="-734.224" font-family="Times New Roman,serif" font-size="14.00">27 PROCESS_FORK</text>
</g>
<!-- 34&#45;&gt;37 -->
<g id="edge30" class="edge"><title>34&#45;&gt;37</title>
<path fill="none" stroke="Blue" d="M932.329,-720.163C990.45,-707.221 1095.81,-685.556 1187.18,-676.424 1513.05,-643.854 1906.91,-651.246 2051.24,-655.498"/>
<polygon fill="Blue" stroke="Blue" points="2051.5,-659.007 2061.6,-655.81 2051.71,-652.01 2051.5,-659.007"/>
<text text-anchor="middle" x="1542.95" y="-661.224" font-family="Times New Roman,serif" font-size="14.00">29 PROCESS_FORK</text>
</g>
<!-- 42 -->
<g id="node25" class="node"><title>42</title>
<polygon fill="none" stroke="black" points="2777,-844.924 2694,-844.924 2694,-761.924 2777,-761.924 2777,-844.924"/>
<text text-anchor="middle" x="2735.5" y="-799.724" font-family="Times New Roman,serif" font-size="14.00">3074508sed</text>
</g>
<!-- 34&#45;&gt;42 -->
<g id="edge35" class="edge"><title>34&#45;&gt;42</title>
<path fill="none" stroke="Blue" d="M932.119,-742.808C1010.26,-763.635 1178.5,-803.424 1323.32,-803.424 1323.32,-803.424 1323.32,-803.424 2429.87,-803.424 2519.11,-803.424 2623.06,-803.424 2683.56,-803.424"/>
<polygon fill="Blue" stroke="Blue" points="2683.61,-806.924 2693.61,-803.424 2683.61,-799.924 2683.61,-806.924"/>
<text text-anchor="middle" x="1980.23" y="-807.224" font-family="Times New Roman,serif" font-size="14.00">34 PROCESS_FORK</text>
</g>
<!-- 36 -->
<g id="node22" class="node"><title>36</title>
<ellipse fill="none" stroke="black" cx="1761.59" cy="-710.424" rx="137.276" ry="18"/>
<text text-anchor="middle" x="1761.59" y="-706.724" font-family="Times New Roman,serif" font-size="14.00">FILE_FIFO@0@13@2860686482</text>
</g>
<!-- 35&#45;&gt;36 -->
<g id="edge29" class="edge"><title>35&#45;&gt;36</title>
<path fill="none" stroke="Blue" d="M1369.45,-728.396C1428.08,-725.702 1534.37,-720.818 1621.37,-716.821"/>
<polygon fill="Blue" stroke="Blue" points="1621.78,-720.306 1631.61,-716.351 1621.46,-713.313 1621.78,-720.306"/>
<text text-anchor="middle" x="1542.95" y="-727.224" font-family="Times New Roman,serif" font-size="14.00">28 FILE_WRITE</text>
</g>
<!-- 36&#45;&gt;37 -->
<g id="edge31" class="edge"><title>36&#45;&gt;37</title>
<path fill="none" stroke="Blue" d="M1863.41,-698.362C1917.1,-691.453 1984.18,-682.051 2043.73,-671.424 2046.37,-670.953 2049.06,-670.45 2051.78,-669.926"/>
<polygon fill="Blue" stroke="Blue" points="2052.55,-673.341 2061.67,-667.946 2051.18,-666.477 2052.55,-673.341"/>
<text text-anchor="middle" x="1980.23" y="-695.224" font-family="Times New Roman,serif" font-size="14.00">30 FILE_READ</text>
</g>
<!-- 41 -->
<g id="node24" class="node"><title>41</title>
<ellipse fill="none" stroke="black" cx="2428.87" cy="-732.424" rx="137.276" ry="18"/>
<text text-anchor="middle" x="2428.87" y="-728.724" font-family="Times New Roman,serif" font-size="14.00">FILE_FIFO@0@13@2860686483</text>
</g>
<!-- 37&#45;&gt;41 -->
<g id="edge34" class="edge"><title>37&#45;&gt;41</title>
<path fill="none" stroke="Blue" d="M2155.99,-668.33C2207.17,-680.395 2290.44,-700.026 2351.36,-714.388"/>
<polygon fill="Blue" stroke="Blue" points="2350.78,-717.848 2361.32,-716.736 2352.39,-711.034 2350.78,-717.848"/>
<text text-anchor="middle" x="2223.73" y="-699.224" font-family="Times New Roman,serif" font-size="14.00">33 FILE_WRITE</text>
</g>
<!-- 41&#45;&gt;42 -->
<g id="edge36" class="edge"><title>41&#45;&gt;42</title>
<path fill="none" stroke="Blue" d="M2536.3,-743.69C2580.25,-750.107 2631.28,-759.869 2676,-774.424 2678.88,-775.359 2681.78,-776.413 2684.69,-777.551"/>
<polygon fill="Blue" stroke="Blue" points="2683.33,-780.779 2693.91,-781.433 2686.05,-774.327 2683.33,-780.779"/>
<text text-anchor="middle" x="2630" y="-778.224" font-family="Times New Roman,serif" font-size="14.00">35 FILE_READ</text>
</g>
<!-- 42&#45;&gt;10 -->
<g id="edge37" class="edge"><title>42&#45;&gt;10</title>
<path fill="none" stroke="Blue" d="M2777.06,-837.797C2841.15,-892.123 2964.31,-996.519 3020.24,-1043.93"/>
<polygon fill="Blue" stroke="Blue" points="3018.1,-1046.7 3027.99,-1050.5 3022.63,-1041.36 3018.1,-1046.7"/>
<text text-anchor="middle" x="2845" y="-940.224" font-family="Times New Roman,serif" font-size="14.00">36 FILE_WRITE</text>
</g>
<!-- 46 -->
<g id="node27" class="node"><title>46</title>
<polygon fill="none" stroke="black" points="1369.32,-156.424 1279.32,-156.424 1279.32,-66.4241 1369.32,-66.4241 1369.32,-156.424"/>
<text text-anchor="middle" x="1324.32" y="-107.724" font-family="Times New Roman,serif" font-size="14.00">3074510bash</text>
</g>
<!-- 45&#45;&gt;46 -->
<g id="edge39" class="edge"><title>45&#45;&gt;46</title>
<path fill="none" stroke="Blue" d="M932.172,-111.424C1012.34,-111.424 1181.64,-111.424 1268.85,-111.424"/>
<polygon fill="Blue" stroke="Blue" points="1269.07,-114.924 1279.07,-111.424 1269.07,-107.924 1269.07,-114.924"/>
<text text-anchor="middle" x="1105.68" y="-115.224" font-family="Times New Roman,serif" font-size="14.00">38 PROCESS_FORK</text>
</g>
<!-- 45&#45;&gt;48 -->
<g id="edge41" class="edge"><title>45&#45;&gt;48</title>
<path fill="none" stroke="Blue" d="M932.329,-121.685C990.45,-134.627 1095.81,-156.292 1187.18,-165.424 1513.05,-197.994 1906.91,-190.602 2051.24,-186.35"/>
<polygon fill="Blue" stroke="Blue" points="2051.71,-189.838 2061.6,-186.038 2051.5,-182.841 2051.71,-189.838"/>
<text text-anchor="middle" x="1542.95" y="-192.224" font-family="Times New Roman,serif" font-size="14.00">40 PROCESS_FORK</text>
</g>
<!-- 53 -->
<g id="node31" class="node"><title>53</title>
<polygon fill="none" stroke="black" points="2777,-111.924 2694,-111.924 2694,-28.9241 2777,-28.9241 2777,-111.924"/>
<text text-anchor="middle" x="2735.5" y="-66.7241" font-family="Times New Roman,serif" font-size="14.00">3074512sed</text>
</g>
<!-- 45&#45;&gt;53 -->
<g id="edge46" class="edge"><title>45&#45;&gt;53</title>
<path fill="none" stroke="Blue" d="M932.119,-99.0406C1010.26,-78.2134 1178.5,-38.4241 1323.32,-38.4241 1323.32,-38.4241 1323.32,-38.4241 2429.87,-38.4241 2519.6,-38.4241 2623.39,-52.3267 2683.73,-61.8046"/>
<polygon fill="Blue" stroke="Blue" points="2683.32,-65.2845 2693.75,-63.4015 2684.43,-58.3717 2683.32,-65.2845"/>
<text text-anchor="middle" x="1980.23" y="-42.2241" font-family="Times New Roman,serif" font-size="14.00">45 PROCESS_FORK</text>
</g>
<!-- 47 -->
<g id="node28" class="node"><title>47</title>
<ellipse fill="none" stroke="black" cx="1761.59" cy="-131.424" rx="137.276" ry="18"/>
<text text-anchor="middle" x="1761.59" y="-127.724" font-family="Times New Roman,serif" font-size="14.00">FILE_FIFO@0@13@2860686484</text>
</g>
<!-- 46&#45;&gt;47 -->
<g id="edge40" class="edge"><title>46&#45;&gt;47</title>
<path fill="none" stroke="Blue" d="M1369.45,-113.452C1428.08,-116.146 1534.37,-121.03 1621.37,-125.027"/>
<polygon fill="Blue" stroke="Blue" points="1621.46,-128.535 1631.61,-125.498 1621.78,-121.542 1621.46,-128.535"/>
<text text-anchor="middle" x="1542.95" y="-128.224" font-family="Times New Roman,serif" font-size="14.00">39 FILE_WRITE</text>
</g>
<!-- 47&#45;&gt;48 -->
<g id="edge42" class="edge"><title>47&#45;&gt;48</title>
<path fill="none" stroke="Blue" d="M1897.88,-133.662C1944.66,-136.877 1997.04,-143.239 2043.73,-155.424 2046.5,-156.146 2049.29,-156.979 2052.09,-157.896"/>
<polygon fill="Blue" stroke="Blue" points="2050.97,-161.213 2061.56,-161.303 2053.34,-154.626 2050.97,-161.213"/>
<text text-anchor="middle" x="1980.23" y="-159.224" font-family="Times New Roman,serif" font-size="14.00">41 FILE_READ</text>
</g>
<!-- 52 -->
<g id="node30" class="node"><title>52</title>
<ellipse fill="none" stroke="black" cx="2428.87" cy="-134.424" rx="137.276" ry="18"/>
<text text-anchor="middle" x="2428.87" y="-130.724" font-family="Times New Roman,serif" font-size="14.00">FILE_FIFO@0@13@2860686485</text>
</g>
<!-- 48&#45;&gt;52 -->
<g id="edge45" class="edge"><title>48&#45;&gt;52</title>
<path fill="none" stroke="Blue" d="M2155.99,-177.154C2201.44,-170.01 2272.21,-158.888 2330.15,-149.782"/>
<polygon fill="Blue" stroke="Blue" points="2330.74,-153.233 2340.07,-148.222 2329.65,-146.318 2330.74,-153.233"/>
<text text-anchor="middle" x="2223.73" y="-178.224" font-family="Times New Roman,serif" font-size="14.00">44 FILE_WRITE</text>
</g>
<!-- 52&#45;&gt;53 -->
<g id="edge47" class="edge"><title>52&#45;&gt;53</title>
<path fill="none" stroke="Blue" d="M2502.45,-119.176C2558.43,-107.415 2634.42,-91.451 2683.95,-81.0454"/>
<polygon fill="Blue" stroke="Blue" points="2684.73,-84.4583 2693.79,-78.9771 2683.29,-77.6079 2684.73,-84.4583"/>
<text text-anchor="middle" x="2630" y="-105.224" font-family="Times New Roman,serif" font-size="14.00">46 FILE_READ</text>
</g>
<!-- 53&#45;&gt;12 -->
<g id="edge48" class="edge"><title>53&#45;&gt;12</title>
<path fill="none" stroke="Blue" d="M2777.06,-64.7169C2819.53,-58.7395 2887.94,-49.1113 2945.54,-41.0051"/>
<polygon fill="Blue" stroke="Blue" points="2946.37,-44.4222 2955.79,-39.5626 2945.4,-37.4905 2946.37,-44.4222"/>
<text text-anchor="middle" x="2845" y="-66.2241" font-family="Times New Roman,serif" font-size="14.00">47 FILE_WRITE</text>
</g>
<!-- 58&#45;&gt;26 -->
<g id="edge52" class="edge"><title>58&#45;&gt;26</title>
<path fill="none" stroke="Blue" d="M932.172,-259.553C991.067,-262.395 1098.07,-267.557 1185.28,-271.765"/>
<polygon fill="Blue" stroke="Blue" points="1185.12,-275.261 1195.28,-272.247 1185.46,-268.269 1185.12,-275.261"/>
<text text-anchor="middle" x="1105.68" y="-274.224" font-family="Times New Roman,serif" font-size="14.00">51 FILE_WRITE</text>
</g>
<!-- 60&#45;&gt;17 -->
<g id="edge54" class="edge"><title>60&#45;&gt;17</title>
<path fill="none" stroke="Blue" d="M926.784,-613.525C954.034,-603.738 991.348,-590.313 1024.18,-578.424 1114.82,-545.598 1220.8,-506.907 1279.15,-485.579"/>
<polygon fill="Blue" stroke="Blue" points="1280.59,-488.777 1288.79,-482.056 1278.19,-482.203 1280.59,-488.777"/>
<text text-anchor="middle" x="1105.68" y="-574.224" font-family="Times New Roman,serif" font-size="14.00">53 FILE_REMOVE</text>
</g>
</g>
</svg>
