<?xml version="1.0" encoding="UTF-8" standalone="no"?>
<!DOCTYPE svg PUBLIC "-//W3C//DTD SVG 1.1//EN"
 "http://www.w3.org/Graphics/SVG/1.1/DTD/svg11.dtd">
<!-- Generated by graphviz version 2.38.0 (20140413.2041)
 -->
<!-- Title: case1_split_case1 Pages: 1 -->
<svg width="3460pt" height="530pt"
 viewBox="0.00 0.00 3459.92 530.00" xmlns="http://www.w3.org/2000/svg" xmlns:xlink="http://www.w3.org/1999/xlink">
<g id="graph0" class="graph" transform="scale(1 1) rotate(0) translate(4 526)">
<title>case1_split_case1</title>
<polygon fill="white" stroke="none" points="-4,4 -4,-526 3455.92,-526 3455.92,4 -4,4"/>
<!-- 0 -->
<g id="node1" class="node"><title>0</title>
<polygon fill="none" stroke="black" points="101.017,-337 20.6648,-337 -0.00577781,-301 80.3468,-301 101.017,-337"/>
<text text-anchor="middle" x="50.5058" y="-315.3" font-family="Times New Roman,serif" font-size="14.00">ip1&#45;&gt;1</text>
</g>
<!-- 1 -->
<g id="node2" class="node"><title>1</title>
<polygon fill="none" stroke="black" points="314.012,-362 228.012,-362 228.012,-276 314.012,-276 314.012,-362"/>
<text text-anchor="middle" x="271.012" y="-315.3" font-family="Times New Roman,serif" font-size="14.00">3030801java</text>
</g>
<!-- 0&#45;&gt;1 -->
<g id="edge1" class="edge"><title>0&#45;&gt;1</title>
<path fill="none" stroke="Red" d="M90.8226,-319C126.239,-319 178.57,-319 217.546,-319"/>
<polygon fill="Red" stroke="Red" points="217.654,-322.5 227.654,-319 217.654,-315.5 217.654,-322.5"/>
<text text-anchor="middle" x="164.512" y="-322.8" font-family="Times New Roman,serif" font-size="14.00">0 NET_CLOSE</text>
</g>
<!-- 2 -->
<g id="node3" class="node"><title>2</title>
<ellipse fill="none" stroke="black" cx="789.133" cy="-452" rx="315.444" ry="18"/>
<text text-anchor="middle" x="789.133" y="-448.3" font-family="Times New Roman,serif" font-size="14.00">/usr/local/tomcat/work/Catalina/localhost/ROOT/org/apache/jsp/tomcatwar_jsp.java</text>
</g>
<!-- 1&#45;&gt;2 -->
<g id="edge2" class="edge"><title>1&#45;&gt;2</title>
<path fill="none" stroke="Red" d="M283.793,-362.176C292.814,-386.445 307.91,-414.832 332.012,-430 346.421,-439.068 402.516,-444.528 470.7,-447.78"/>
<polygon fill="Red" stroke="Red" points="470.694,-451.283 480.844,-448.244 471.014,-444.29 470.694,-451.283"/>
<text text-anchor="middle" x="392.012" y="-449.8" font-family="Times New Roman,serif" font-size="14.00">1 FILE_CREATE</text>
</g>
<!-- 1&#45;&gt;2 -->
<g id="edge3" class="edge"><title>1&#45;&gt;2</title>
<path fill="none" stroke="Red" d="M308.13,-362.089C315.418,-368.635 323.483,-374.646 332.012,-379 360.111,-393.346 526.014,-417.639 649.687,-434.229"/>
<polygon fill="Red" stroke="Red" points="649.262,-437.703 659.638,-435.559 650.19,-430.765 649.262,-437.703"/>
<text text-anchor="middle" x="392.012" y="-408.8" font-family="Times New Roman,serif" font-size="14.00">2 FILE_WRITE</text>
</g>
<!-- 5 -->
<g id="node4" class="node"><title>5</title>
<ellipse fill="none" stroke="black" cx="789.133" cy="-338" rx="319.243" ry="18"/>
<text text-anchor="middle" x="789.133" y="-334.3" font-family="Times New Roman,serif" font-size="14.00">/usr/local/tomcat/work/Catalina/localhost/ROOT/org/apache/jsp/tomcatwar_jsp.class</text>
</g>
<!-- 1&#45;&gt;5 -->
<g id="edge5" class="edge"><title>1&#45;&gt;5</title>
<path fill="none" stroke="Red" d="M314.248,-320.555C359.062,-322.205 433.927,-324.961 511.069,-327.8"/>
<polygon fill="Red" stroke="Red" points="511.349,-331.313 521.471,-328.183 511.606,-324.318 511.349,-331.313"/>
<text text-anchor="middle" x="392.012" y="-329.8" font-family="Times New Roman,serif" font-size="14.00">4 FILE_CREATE</text>
</g>
<!-- 1&#45;&gt;5 -->
<g id="edge6" class="edge"><title>1&#45;&gt;5</title>
<path fill="none" stroke="Red" d="M314.02,-306.323C320.01,-304.948 326.132,-303.77 332.012,-303 455.477,-286.821 598.799,-303.588 691.343,-319.014"/>
<polygon fill="Red" stroke="Red" points="690.81,-322.473 701.254,-320.693 691.979,-315.572 690.81,-322.473"/>
<text text-anchor="middle" x="392.012" y="-306.8" font-family="Times New Roman,serif" font-size="14.00">5 FILE_WRITE</text>
</g>
<!-- 8 -->
<g id="node5" class="node"><title>8</title>
<ellipse fill="none" stroke="black" cx="789.133" cy="-264" rx="188.467" ry="18"/>
<text text-anchor="middle" x="789.133" y="-260.3" font-family="Times New Roman,serif" font-size="14.00">/usr/local/tomcat/webapps/ROOT/tomcatwar.jsp</text>
</g>
<!-- 1&#45;&gt;8 -->
<g id="edge8" class="edge"><title>1&#45;&gt;8</title>
<path fill="none" stroke="Red" d="M314.048,-286.069C319.832,-282.821 325.894,-279.994 332.012,-278 439.21,-243.061 568.183,-242.642 661.592,-249.16"/>
<polygon fill="Red" stroke="Red" points="661.429,-252.657 671.658,-249.899 661.941,-245.676 661.429,-252.657"/>
<text text-anchor="middle" x="392.012" y="-281.8" font-family="Times New Roman,serif" font-size="14.00">7 FILE_WRITE</text>
</g>
<!-- 10 -->
<g id="node6" class="node"><title>10</title>
<polygon fill="none" stroke="black" points="834.133,-228 744.133,-228 744.133,-138 834.133,-138 834.133,-228"/>
<text text-anchor="middle" x="789.133" y="-179.3" font-family="Times New Roman,serif" font-size="14.00">3033501bash</text>
</g>
<!-- 1&#45;&gt;10 -->
<g id="edge10" class="edge"><title>1&#45;&gt;10</title>
<path fill="none" stroke="Red" d="M283.081,-275.836C291.939,-250.676 307.113,-220.863 332.012,-205 457.2,-125.242 643.251,-150.382 734.175,-169.643"/>
<polygon fill="Red" stroke="Red" points="733.476,-173.073 743.991,-171.779 734.964,-166.233 733.476,-173.073"/>
<text text-anchor="middle" x="392.012" y="-208.8" font-family="Times New Roman,serif" font-size="14.00">9 PROCESS_FORK</text>
</g>
<!-- 14 -->
<g id="node9" class="node"><title>14</title>
<polygon fill="none" stroke="black" points="1865.25,-172 1775.25,-172 1775.25,-82 1865.25,-82 1865.25,-172"/>
<text text-anchor="middle" x="1820.25" y="-123.3" font-family="Times New Roman,serif" font-size="14.00">3033504bash</text>
</g>
<!-- 1&#45;&gt;14 -->
<g id="edge14" class="edge"><title>1&#45;&gt;14</title>
<path fill="none" stroke="Blue" d="M276.407,-275.923C282.532,-238.882 297.156,-186.846 332.012,-157 391.168,-106.345 677.47,-107 788.133,-107 788.133,-107 788.133,-107 1596.25,-107 1653.95,-107 1719.71,-113.724 1764.78,-119.375"/>
<polygon fill="Blue" stroke="Blue" points="1764.56,-122.875 1774.93,-120.672 1765.45,-115.931 1764.56,-122.875"/>
<text text-anchor="middle" x="1334.75" y="-110.8" font-family="Times New Roman,serif" font-size="14.00">13 PROCESS_FORK</text>
</g>
<!-- 2&#45;&gt;1 -->
<g id="edge4" class="edge"><title>2&#45;&gt;1</title>
<path fill="none" stroke="Red" d="M740.901,-469.791C652.259,-499.898 458.527,-549.79 332.012,-465 301.272,-444.399 286.268,-404.91 278.951,-372.191"/>
<polygon fill="Red" stroke="Red" points="282.357,-371.375 276.918,-362.282 275.499,-372.782 282.357,-371.375"/>
<text text-anchor="middle" x="392.012" y="-510.8" font-family="Times New Roman,serif" font-size="14.00">3 FILE_READ</text>
</g>
<!-- 5&#45;&gt;1 -->
<g id="edge7" class="edge"><title>5&#45;&gt;1</title>
<path fill="none" stroke="Red" d="M662.361,-354.557C569.972,-363.198 441.935,-367.793 332.012,-345 329.342,-344.446 326.645,-343.768 323.95,-342.993"/>
<polygon fill="Red" stroke="Red" points="324.84,-339.601 314.247,-339.814 322.66,-346.254 324.84,-339.601"/>
<text text-anchor="middle" x="392.012" y="-363.8" font-family="Times New Roman,serif" font-size="14.00">6 FILE_READ</text>
</g>
<!-- 8&#45;&gt;1 -->
<g id="edge9" class="edge"><title>8&#45;&gt;1</title>
<path fill="none" stroke="Red" d="M643.554,-252.527C589.122,-247.998 526.692,-242.553 470.012,-237 462.001,-236.215 460.048,-235.445 452.012,-235 398.76,-232.051 379.434,-210.596 332.012,-235 318.025,-242.198 306.576,-254.335 297.568,-267.178"/>
<polygon fill="Red" stroke="Red" points="294.554,-265.392 292,-275.674 300.409,-269.229 294.554,-265.392"/>
<text text-anchor="middle" x="392.012" y="-239.8" font-family="Times New Roman,serif" font-size="14.00">8 FILE_READ</text>
</g>
<!-- 11 -->
<g id="node7" class="node"><title>11</title>
<polygon fill="none" stroke="black" points="1386.25,-243.5 1283.25,-243.5 1283.25,-140.5 1386.25,-140.5 1386.25,-243.5"/>
<text text-anchor="middle" x="1334.75" y="-188.3" font-family="Times New Roman,serif" font-size="14.00">3033503base64</text>
</g>
<!-- 10&#45;&gt;11 -->
<g id="edge11" class="edge"><title>10&#45;&gt;11</title>
<path fill="none" stroke="Blue" d="M834.16,-183.729C930.883,-185.33 1162.09,-189.158 1272.73,-190.99"/>
<polygon fill="Blue" stroke="Blue" points="1273,-194.495 1283.05,-191.161 1273.11,-187.495 1273,-194.495"/>
<text text-anchor="middle" x="1189.75" y="-194.8" font-family="Times New Roman,serif" font-size="14.00">10 PROCESS_FORK</text>
</g>
<!-- 12 -->
<g id="node8" class="node"><title>12</title>
<ellipse fill="none" stroke="black" cx="1595.25" cy="-154" rx="51.9908" ry="18"/>
<text text-anchor="middle" x="1595.25" y="-150.3" font-family="Times New Roman,serif" font-size="14.00">/tmp/run.sh</text>
</g>
<!-- 11&#45;&gt;12 -->
<g id="edge12" class="edge"><title>11&#45;&gt;12</title>
<path fill="none" stroke="Blue" d="M1386.65,-187.655C1424.93,-184.009 1478.59,-178.093 1525.25,-170 1531,-169.004 1536.98,-167.828 1542.92,-166.573"/>
<polygon fill="Blue" stroke="Blue" points="1543.79,-169.964 1552.81,-164.404 1542.29,-163.127 1543.79,-169.964"/>
<text text-anchor="middle" x="1470.75" y="-188.8" font-family="Times New Roman,serif" font-size="14.00">11 FILE_CREATE</text>
</g>
<!-- 11&#45;&gt;12 -->
<g id="edge13" class="edge"><title>11&#45;&gt;12</title>
<path fill="none" stroke="Blue" d="M1386.33,-161.762C1395.96,-157.311 1406.19,-153.416 1416.25,-151 1455.92,-141.482 1501.99,-142.574 1537.32,-145.867"/>
<polygon fill="Blue" stroke="Blue" points="1537.15,-149.368 1547.46,-146.899 1537.86,-142.404 1537.15,-149.368"/>
<text text-anchor="middle" x="1470.75" y="-154.8" font-family="Times New Roman,serif" font-size="14.00">12 FILE_WRITE</text>
</g>
<!-- 12&#45;&gt;14 -->
<g id="edge15" class="edge"><title>12&#45;&gt;14</title>
<path fill="none" stroke="Black" d="M1644.64,-148.141C1680.11,-143.846 1728.3,-138.011 1765.07,-133.56"/>
<polygon fill="Black" stroke="Black" points="1765.61,-137.02 1775.12,-132.343 1764.77,-130.071 1765.61,-137.02"/>
<text text-anchor="middle" x="1711.25" y="-149.8" font-family="Times New Roman,serif" font-size="14.00">14 FILE_READ</text>
</g>
<!-- 16 -->
<g id="node10" class="node"><title>16</title>
<ellipse fill="none" stroke="black" cx="2055.19" cy="-127" rx="53.8905" ry="18"/>
<text text-anchor="middle" x="2055.19" y="-123.3" font-family="Times New Roman,serif" font-size="14.00">/etc/crontab</text>
</g>
<!-- 14&#45;&gt;16 -->
<g id="edge16" class="edge"><title>14&#45;&gt;16</title>
<path fill="none" stroke="Black" d="M1865.33,-127C1900.77,-127 1951,-127 1990.76,-127"/>
<polygon fill="Black" stroke="Black" points="1990.88,-130.5 2000.88,-127 1990.88,-123.5 1990.88,-130.5"/>
<text text-anchor="middle" x="1933.25" y="-130.8" font-family="Times New Roman,serif" font-size="14.00">15 FILE_WRITE</text>
</g>
<!-- 17 -->
<g id="node11" class="node"><title>17</title>
<polygon fill="none" stroke="black" points="2314.14,-316.5 2237.14,-316.5 2237.14,-239.5 2314.14,-239.5 2314.14,-316.5"/>
<text text-anchor="middle" x="2275.64" y="-274.3" font-family="Times New Roman,serif" font-size="14.00">1950crond</text>
</g>
<!-- 16&#45;&gt;17 -->
<g id="edge17" class="edge"><title>16&#45;&gt;17</title>
<path fill="none" stroke="Black" d="M2066.06,-144.67C2078.13,-164.854 2100.29,-197.7 2127.14,-218 2157.08,-240.645 2196.76,-256.149 2227.43,-265.716"/>
<polygon fill="Black" stroke="Black" points="2226.46,-269.079 2237.04,-268.615 2228.48,-262.377 2226.46,-269.079"/>
<text text-anchor="middle" x="2173.14" y="-266.8" font-family="Times New Roman,serif" font-size="14.00">16 FILE_READ</text>
</g>
<!-- 20 -->
<g id="node14" class="node"><title>20</title>
<polygon fill="none" stroke="black" points="3112.64,-143.5 3029.64,-143.5 3029.64,-60.5 3112.64,-60.5 3112.64,-143.5"/>
<text text-anchor="middle" x="3071.14" y="-98.3" font-family="Times New Roman,serif" font-size="14.00">3034568sed</text>
</g>
<!-- 16&#45;&gt;20 -->
<g id="edge21" class="edge"><title>16&#45;&gt;20</title>
<path fill="none" stroke="Black" d="M2081.36,-111.088C2094.59,-103.269 2111.31,-94.2165 2127.14,-88 2190.05,-63.2951 2207.05,-51 2274.64,-51 2274.64,-51 2274.64,-51 2808.14,-51 2882.8,-51 2967.26,-71.2008 3019.61,-86.1753"/>
<polygon fill="Black" stroke="Black" points="3018.74,-89.5676 3029.32,-88.9986 3020.7,-82.8459 3018.74,-89.5676"/>
<text text-anchor="middle" x="2533.14" y="-54.8" font-family="Times New Roman,serif" font-size="14.00">20 FILE_READ</text>
</g>
<!-- 18 -->
<g id="node12" class="node"><title>18</title>
<polygon fill="none" stroke="black" points="2581.64,-334.5 2484.64,-334.5 2484.64,-237.5 2581.64,-237.5 2581.64,-334.5"/>
<text text-anchor="middle" x="2533.14" y="-282.3" font-family="Times New Roman,serif" font-size="14.00">3034416crond</text>
</g>
<!-- 17&#45;&gt;18 -->
<g id="edge18" class="edge"><title>17&#45;&gt;18</title>
<path fill="none" stroke="Black" d="M2314.34,-279.18C2356.45,-280.499 2425.14,-282.65 2474.12,-284.183"/>
<polygon fill="Black" stroke="Black" points="2474.15,-287.686 2484.25,-284.501 2474.37,-280.689 2474.15,-287.686"/>
<text text-anchor="middle" x="2395.64" y="-287.8" font-family="Times New Roman,serif" font-size="14.00">17 PROCESS_FORK</text>
</g>
<!-- 19 -->
<g id="node13" class="node"><title>19</title>
<polygon fill="none" stroke="black" points="2862.14,-342 2752.14,-342 2752.14,-232 2862.14,-232 2862.14,-342"/>
<text text-anchor="middle" x="2807.14" y="-283.3" font-family="Times New Roman,serif" font-size="14.00">3034422python3</text>
</g>
<!-- 18&#45;&gt;19 -->
<g id="edge19" class="edge"><title>18&#45;&gt;19</title>
<path fill="none" stroke="Black" d="M2581.83,-286.175C2626.21,-286.338 2692.69,-286.583 2741.76,-286.763"/>
<polygon fill="Black" stroke="Black" points="2741.94,-290.264 2751.96,-286.801 2741.97,-283.264 2741.94,-290.264"/>
<text text-anchor="middle" x="2670.64" y="-290.8" font-family="Times New Roman,serif" font-size="14.00">18 PROCESS_FORK</text>
</g>
<!-- 19&#45;&gt;20 -->
<g id="edge20" class="edge"><title>19&#45;&gt;20</title>
<path fill="none" stroke="Black" d="M2862.33,-243.027C2868.12,-239.586 2874.11,-236.488 2880.14,-234 2932.89,-212.221 2964.17,-252.563 3007.14,-215 3028.74,-196.115 3011.31,-178.143 3025.14,-153 3025.3,-152.699 3025.47,-152.399 3025.64,-152.099"/>
<polygon fill="Black" stroke="Black" points="3028.68,-153.833 3031.04,-143.504 3022.76,-150.106 3028.68,-153.833"/>
<text text-anchor="middle" x="2943.64" y="-237.8" font-family="Times New Roman,serif" font-size="14.00">19 PROCESS_FORK</text>
</g>
<!-- 26 -->
<g id="node15" class="node"><title>26</title>
<polygon fill="none" stroke="black" points="3116.14,-360 3026.14,-360 3026.14,-270 3116.14,-270 3116.14,-360"/>
<text text-anchor="middle" x="3071.14" y="-311.3" font-family="Times New Roman,serif" font-size="14.00">3034571wget</text>
</g>
<!-- 19&#45;&gt;26 -->
<g id="edge26" class="edge"><title>19&#45;&gt;26</title>
<path fill="none" stroke="Orange" d="M2862.42,-292.802C2907.34,-297.602 2970.83,-304.387 3015.77,-309.189"/>
<polygon fill="Orange" stroke="Orange" points="3015.6,-312.691 3025.91,-310.274 3016.34,-305.731 3015.6,-312.691"/>
<text text-anchor="middle" x="2943.64" y="-312.8" font-family="Times New Roman,serif" font-size="14.00">25 PROCESS_FORK</text>
</g>
<!-- 29 -->
<g id="node17" class="node"><title>29</title>
<polygon fill="none" stroke="black" points="3116.14,-252 3026.14,-252 3026.14,-162 3116.14,-162 3116.14,-252"/>
<text text-anchor="middle" x="3071.14" y="-203.3" font-family="Times New Roman,serif" font-size="14.00">3034587wget</text>
</g>
<!-- 19&#45;&gt;29 -->
<g id="edge29" class="edge"><title>19&#45;&gt;29</title>
<path fill="none" stroke="Green" d="M2862.63,-279.001C2916.9,-270.825 2993.98,-258.561 3007.14,-253 3010.52,-251.571 3013.89,-249.93 3017.21,-248.136"/>
<polygon fill="Green" stroke="Green" points="3019.01,-251.14 3025.88,-243.077 3015.48,-245.095 3019.01,-251.14"/>
<text text-anchor="middle" x="2943.64" y="-279.8" font-family="Times New Roman,serif" font-size="14.00">28 PROCESS_FORK</text>
</g>
<!-- 20&#45;&gt;16 -->
<g id="edge22" class="edge"><title>20&#45;&gt;16</title>
<path fill="none" stroke="Black" d="M3029.34,-66.5609C3022.25,-61.5064 3014.71,-56.7574 3007.14,-53 2925.15,-12.3119 2899.66,-0 2808.14,-0 2274.64,-0 2274.64,-0 2274.64,-0 2205.13,-0 2185.43,-14.1364 2127.14,-52 2106.78,-65.2193 2088.12,-85.4353 2075.04,-101.549"/>
<polygon fill="Black" stroke="Black" points="2072.18,-99.5239 2068.74,-109.543 2077.68,-103.859 2072.18,-99.5239"/>
<text text-anchor="middle" x="2533.14" y="-3.8" font-family="Times New Roman,serif" font-size="14.00">21 FILE_CHOWN</text>
</g>
<!-- 20&#45;&gt;16 -->
<g id="edge23" class="edge"><title>20&#45;&gt;16</title>
<path fill="none" stroke="Black" d="M3033.54,-143.642C3023.43,-154.226 3013.51,-163.582 3007.14,-167 2927.86,-209.53 2898.1,-204 2808.14,-204 2274.64,-204 2274.64,-204 2274.64,-204 2207.05,-204 2189.91,-192.043 2127.14,-167 2114.39,-161.915 2101.11,-154.936 2089.54,-148.231"/>
<polygon fill="Black" stroke="Black" points="2091.04,-145.056 2080.66,-142.953 2087.47,-151.073 2091.04,-145.056"/>
<text text-anchor="middle" x="2533.14" y="-207.8" font-family="Times New Roman,serif" font-size="14.00">22 FILE_CHMOD</text>
</g>
<!-- 20&#45;&gt;16 -->
<g id="edge24" class="edge"><title>20&#45;&gt;16</title>
<path fill="none" stroke="Black" d="M3029.32,-115.001C2978.19,-130.111 2887.61,-153 2808.14,-153 2274.64,-153 2274.64,-153 2274.64,-153 2219.18,-153 2156.37,-144.637 2112.37,-137.397"/>
<polygon fill="Black" stroke="Black" points="2112.89,-133.935 2102.45,-135.73 2111.73,-140.838 2112.89,-133.935"/>
<text text-anchor="middle" x="2533.14" y="-156.8" font-family="Times New Roman,serif" font-size="14.00">23 FILE_WRITE</text>
</g>
<!-- 20&#45;&gt;16 -->
<g id="edge25" class="edge"><title>20&#45;&gt;16</title>
<path fill="none" stroke="Black" d="M3029.29,-102C2977.75,-102 2886.37,-102 2808.14,-102 2274.64,-102 2274.64,-102 2274.64,-102 2219.39,-102 2156.79,-109.99 2112.81,-116.936"/>
<polygon fill="Black" stroke="Black" points="2112.2,-113.489 2102.89,-118.536 2113.32,-120.4 2112.2,-113.489"/>
<text text-anchor="middle" x="2533.14" y="-105.8" font-family="Times New Roman,serif" font-size="14.00">24 FILE_RENAME</text>
</g>
<!-- 27 -->
<g id="node16" class="node"><title>27</title>
<ellipse fill="none" stroke="black" cx="3357.03" cy="-375" rx="85.2851" ry="18"/>
<text text-anchor="middle" x="3357.03" y="-371.3" font-family="Times New Roman,serif" font-size="14.00">/usr/bin/monitord.py</text>
</g>
<!-- 26&#45;&gt;27 -->
<g id="edge27" class="edge"><title>26&#45;&gt;27</title>
<path fill="none" stroke="Orange" d="M3116.18,-324.309C3161.61,-333.911 3233.13,-349.025 3286.26,-360.255"/>
<polygon fill="Orange" stroke="Orange" points="3285.78,-363.731 3296.29,-362.375 3287.23,-356.883 3285.78,-363.731"/>
<text text-anchor="middle" x="3189.64" y="-354.8" font-family="Times New Roman,serif" font-size="14.00">26 FILE_CREATE</text>
</g>
<!-- 27&#45;&gt;19 -->
<g id="edge28" class="edge"><title>27&#45;&gt;19</title>
<path fill="none" stroke="Orange" d="M3274.3,-379.33C3207.03,-381.504 3109.4,-381.463 3025.14,-369 2958.89,-359.201 2941.91,-353.87 2880.14,-328 2877.31,-326.816 2874.45,-325.544 2871.59,-324.209"/>
<polygon fill="Orange" stroke="Orange" points="2873,-321 2862.48,-319.753 2869.92,-327.289 2873,-321"/>
<text text-anchor="middle" x="3071.14" y="-381.8" font-family="Times New Roman,serif" font-size="14.00">27 FILE_READ</text>
</g>
<!-- 30 -->
<g id="node18" class="node"><title>30</title>
<ellipse fill="none" stroke="black" cx="3357.03" cy="-207" rx="94.7833" ry="18"/>
<text text-anchor="middle" x="3357.03" y="-203.3" font-family="Times New Roman,serif" font-size="14.00">/tmp/scapy&#45;2.5.0.tar.gz</text>
</g>
<!-- 29&#45;&gt;30 -->
<g id="edge30" class="edge"><title>29&#45;&gt;30</title>
<path fill="none" stroke="Green" d="M3116.18,-207C3152.31,-207 3204.94,-207 3251.7,-207"/>
<polygon fill="Green" stroke="Green" points="3251.88,-210.5 3261.88,-207 3251.88,-203.5 3251.88,-210.5"/>
<text text-anchor="middle" x="3189.64" y="-210.8" font-family="Times New Roman,serif" font-size="14.00">29 FILE_CREATE</text>
</g>
</g>
</svg>
