<?xml version="1.0" encoding="UTF-8" standalone="no"?>
<!DOCTYPE svg PUBLIC "-//W3C//DTD SVG 1.1//EN"
 "http://www.w3.org/Graphics/SVG/1.1/DTD/svg11.dtd">
<!-- Generated by graphviz version 2.38.0 (20140413.2041)
 -->
<!-- Title: case1_split_case3_2 Pages: 1 -->
<svg width="3624pt" height="513pt"
 viewBox="0.00 0.00 3623.53 513.00" xmlns="http://www.w3.org/2000/svg" xmlns:xlink="http://www.w3.org/1999/xlink">
<g id="graph0" class="graph" transform="scale(1 1) rotate(0) translate(4 509)">
<title>case1_split_case3_2</title>
<polygon fill="white" stroke="none" points="-4,4 -4,-509 3619.53,-509 3619.53,4 -4,4"/>
<!-- 0 -->
<g id="node1" class="node"><title>0</title>
<polygon fill="none" stroke="black" points="101.017,-355.5 20.6648,-355.5 -0.00577781,-319.5 80.3468,-319.5 101.017,-355.5"/>
<text text-anchor="middle" x="50.5058" y="-333.8" font-family="Times New Roman,serif" font-size="14.00">ip1&#45;&gt;1</text>
</g>
<!-- 1 -->
<g id="node2" class="node"><title>1</title>
<polygon fill="none" stroke="black" points="339.012,-382.5 249.012,-382.5 249.012,-292.5 339.012,-292.5 339.012,-382.5"/>
<text text-anchor="middle" x="294.012" y="-333.8" font-family="Times New Roman,serif" font-size="14.00">3129410wget</text>
</g>
<!-- 0&#45;&gt;1 -->
<g id="edge1" class="edge"><title>0&#45;&gt;1</title>
<path fill="none" stroke="Red" d="M90.8454,-337.5C131.021,-337.5 193.704,-337.5 238.619,-337.5"/>
<polygon fill="Red" stroke="Red" points="238.773,-341 248.773,-337.5 238.773,-334 238.773,-341"/>
<text text-anchor="middle" x="175.012" y="-341.3" font-family="Times New Roman,serif" font-size="14.00">0 NET_CONNECT</text>
</g>
<!-- 2 -->
<g id="node3" class="node"><title>2</title>
<ellipse fill="none" stroke="black" cx="517.407" cy="-337.5" rx="49.2915" ry="18"/>
<text text-anchor="middle" x="517.407" y="-333.8" font-family="Times New Roman,serif" font-size="14.00">/tmp/socat</text>
</g>
<!-- 1&#45;&gt;2 -->
<g id="edge2" class="edge"><title>1&#45;&gt;2</title>
<path fill="none" stroke="Red" d="M339.017,-337.5C373.021,-337.5 420.41,-337.5 457.655,-337.5"/>
<polygon fill="Red" stroke="Red" points="457.871,-341 467.871,-337.5 457.871,-334 457.871,-341"/>
<text text-anchor="middle" x="403.512" y="-341.3" font-family="Times New Roman,serif" font-size="14.00">1 FILE_WRITE</text>
</g>
<!-- 3 -->
<g id="node4" class="node"><title>3</title>
<polygon fill="none" stroke="black" points="814.803,-384.5 720.803,-384.5 720.803,-290.5 814.803,-290.5 814.803,-384.5"/>
<text text-anchor="middle" x="767.803" y="-333.8" font-family="Times New Roman,serif" font-size="14.00">3129451socat</text>
</g>
<!-- 2&#45;&gt;3 -->
<g id="edge3" class="edge"><title>2&#45;&gt;3</title>
<path fill="none" stroke="Red" d="M566.89,-337.5C608.063,-337.5 667.188,-337.5 710.459,-337.5"/>
<polygon fill="Red" stroke="Red" points="710.542,-341 720.542,-337.5 710.542,-334 710.542,-341"/>
<text text-anchor="middle" x="643.803" y="-341.3" font-family="Times New Roman,serif" font-size="14.00">2 FILE_READ</text>
</g>
<!-- 2&#45;&gt;3 -->
<g id="edge4" class="edge"><title>2&#45;&gt;3</title>
<path fill="none" stroke="Red" d="M554.195,-325.288C564,-322.486 574.71,-319.916 584.803,-318.5 636.739,-311.215 650.903,-310.959 702.803,-318.5 705.453,-318.885 708.147,-319.356 710.854,-319.893"/>
<polygon fill="Red" stroke="Red" points="710.14,-323.32 720.664,-322.097 711.675,-316.49 710.14,-323.32"/>
<text text-anchor="middle" x="643.803" y="-322.3" font-family="Times New Roman,serif" font-size="14.00">3 PROCESS_EXEC</text>
</g>
<!-- 5 -->
<g id="node5" class="node"><title>5</title>
<ellipse fill="none" stroke="black" cx="1080.94" cy="-337.5" rx="137.276" ry="18"/>
<text text-anchor="middle" x="1080.94" y="-333.8" font-family="Times New Roman,serif" font-size="14.00">FILE_FIFO@0@13@2861243164</text>
</g>
<!-- 3&#45;&gt;5 -->
<g id="edge5" class="edge"><title>3&#45;&gt;5</title>
<path fill="none" stroke="Red" d="M815.047,-337.5C846.693,-337.5 890.543,-337.5 933.466,-337.5"/>
<polygon fill="Red" stroke="Red" points="933.473,-341 943.473,-337.5 933.473,-334 933.473,-341"/>
<text text-anchor="middle" x="879.303" y="-341.3" font-family="Times New Roman,serif" font-size="14.00">4 FILE_WRITE</text>
</g>
<!-- 6 -->
<g id="node6" class="node"><title>6</title>
<polygon fill="none" stroke="black" points="1425.08,-380.5 1339.08,-380.5 1339.08,-294.5 1425.08,-294.5 1425.08,-380.5"/>
<text text-anchor="middle" x="1382.08" y="-333.8" font-family="Times New Roman,serif" font-size="14.00">3129452awk</text>
</g>
<!-- 5&#45;&gt;6 -->
<g id="edge6" class="edge"><title>5&#45;&gt;6</title>
<path fill="none" stroke="Blue" d="M1218.38,-337.5C1257.7,-337.5 1298.23,-337.5 1329.01,-337.5"/>
<polygon fill="Blue" stroke="Blue" points="1329.06,-341 1339.06,-337.5 1329.06,-334 1329.06,-341"/>
<text text-anchor="middle" x="1278.58" y="-341.3" font-family="Times New Roman,serif" font-size="14.00">5 FILE_READ</text>
</g>
<!-- 7 -->
<g id="node7" class="node"><title>7</title>
<polygon fill="none" stroke="black" points="1670.08,-505 1593.08,-505 1593.08,-428 1670.08,-428 1670.08,-505"/>
<text text-anchor="middle" x="1631.58" y="-462.8" font-family="Times New Roman,serif" font-size="14.00">3129456sh</text>
</g>
<!-- 6&#45;&gt;7 -->
<g id="edge7" class="edge"><title>6&#45;&gt;7</title>
<path fill="none" stroke="Blue" d="M1425.35,-369.302C1431.19,-373.249 1437.2,-377.09 1443.08,-380.5 1489.05,-407.185 1544.74,-431.835 1583.43,-447.84"/>
<polygon fill="Blue" stroke="Blue" points="1582.31,-451.161 1592.89,-451.719 1584.96,-444.685 1582.31,-451.161"/>
<text text-anchor="middle" x="1503.08" y="-442.3" font-family="Times New Roman,serif" font-size="14.00">6 PROCESS_FORK</text>
</g>
<!-- 8 -->
<g id="node8" class="node"><title>8</title>
<polygon fill="none" stroke="black" points="1670.08,-410 1593.08,-410 1593.08,-333 1670.08,-333 1670.08,-410"/>
<text text-anchor="middle" x="1631.58" y="-367.8" font-family="Times New Roman,serif" font-size="14.00">3129463sh</text>
</g>
<!-- 6&#45;&gt;8 -->
<g id="edge8" class="edge"><title>6&#45;&gt;8</title>
<path fill="none" stroke="Blue" d="M1425.34,-343.306C1469.12,-349.319 1537.37,-358.695 1583,-364.964"/>
<polygon fill="Blue" stroke="Blue" points="1582.57,-368.437 1592.95,-366.33 1583.52,-361.502 1582.57,-368.437"/>
<text text-anchor="middle" x="1503.08" y="-365.3" font-family="Times New Roman,serif" font-size="14.00">7 PROCESS_FORK</text>
</g>
<!-- 9 -->
<g id="node9" class="node"><title>9</title>
<polygon fill="none" stroke="black" points="1670.08,-237 1593.08,-237 1593.08,-160 1670.08,-160 1670.08,-237"/>
<text text-anchor="middle" x="1631.58" y="-194.8" font-family="Times New Roman,serif" font-size="14.00">3129470sh</text>
</g>
<!-- 6&#45;&gt;9 -->
<g id="edge9" class="edge"><title>6&#45;&gt;9</title>
<path fill="none" stroke="Black" d="M1420.31,-294.265C1427.43,-287.444 1435.14,-280.879 1443.08,-275.5 1486.72,-245.92 1543.49,-224.592 1583.08,-211.987"/>
<polygon fill="Black" stroke="Black" points="1584.25,-215.288 1592.76,-208.971 1582.17,-208.605 1584.25,-215.288"/>
<text text-anchor="middle" x="1503.08" y="-279.3" font-family="Times New Roman,serif" font-size="14.00">8 PROCESS_FORK</text>
</g>
<!-- 21 -->
<g id="node15" class="node"><title>21</title>
<polygon fill="none" stroke="black" points="2496.48,-291 2403.48,-291 2403.48,-198 2496.48,-198 2496.48,-291"/>
<text text-anchor="middle" x="2449.98" y="-240.8" font-family="Times New Roman,serif" font-size="14.00">3129672agent</text>
</g>
<!-- 6&#45;&gt;21 -->
<g id="edge19" class="edge"><title>6&#45;&gt;21</title>
<path fill="none" stroke="Orange" d="M1425.33,-328.395C1474.42,-318.627 1557.97,-304.5 1630.58,-304.5 1630.58,-304.5 1630.58,-304.5 2175.04,-304.5 2262.77,-304.5 2285.08,-295.609 2369.98,-273.5 2377.72,-271.484 2385.76,-269.005 2393.62,-266.352"/>
<polygon fill="Orange" stroke="Orange" points="2394.8,-269.648 2403.09,-263.049 2392.5,-263.039 2394.8,-269.648"/>
<text text-anchor="middle" x="1908.59" y="-308.3" font-family="Times New Roman,serif" font-size="14.00">18 PROCESS_FORK</text>
</g>
<!-- 10 -->
<g id="node10" class="node"><title>10</title>
<polygon fill="none" stroke="black" points="1950.09,-240 1867.09,-240 1867.09,-157 1950.09,-157 1950.09,-240"/>
<text text-anchor="middle" x="1908.59" y="-194.8" font-family="Times New Roman,serif" font-size="14.00">3129477sed</text>
</g>
<!-- 9&#45;&gt;10 -->
<g id="edge10" class="edge"><title>9&#45;&gt;10</title>
<path fill="none" stroke="Black" d="M1670.25,-198.5C1718.61,-198.5 1802.75,-198.5 1856.76,-198.5"/>
<polygon fill="Black" stroke="Black" points="1856.81,-202 1866.81,-198.5 1856.81,-195 1856.81,-202"/>
<text text-anchor="middle" x="1763.59" y="-202.3" font-family="Times New Roman,serif" font-size="14.00">9 PROCESS_FORK</text>
</g>
<!-- 17 -->
<g id="node12" class="node"><title>17</title>
<polygon fill="none" stroke="black" points="1953.59,-133.5 1863.59,-133.5 1863.59,-43.5 1953.59,-43.5 1953.59,-133.5"/>
<text text-anchor="middle" x="1908.59" y="-84.8" font-family="Times New Roman,serif" font-size="14.00">3129492wget</text>
</g>
<!-- 9&#45;&gt;17 -->
<g id="edge16" class="edge"><title>9&#45;&gt;17</title>
<path fill="none" stroke="Black" d="M1670.25,-183.436C1717.84,-164.397 1800.07,-131.505 1854.15,-109.874"/>
<polygon fill="Black" stroke="Black" points="1855.59,-113.069 1863.58,-106.105 1852.99,-106.569 1855.59,-113.069"/>
<text text-anchor="middle" x="1763.59" y="-173.3" font-family="Times New Roman,serif" font-size="14.00">15 PROCESS_FORK</text>
</g>
<!-- 11 -->
<g id="node11" class="node"><title>11</title>
<ellipse fill="none" stroke="black" cx="2174.04" cy="-198.5" rx="53.8905" ry="18"/>
<text text-anchor="middle" x="2174.04" y="-194.8" font-family="Times New Roman,serif" font-size="14.00">/etc/crontab</text>
</g>
<!-- 10&#45;&gt;11 -->
<g id="edge12" class="edge"><title>10&#45;&gt;11</title>
<path fill="none" stroke="Black" d="M1950.38,-162.826C1957.7,-156.174 1965.2,-149.204 1972.09,-142.5 1980.43,-134.39 1979.4,-128.096 1990.09,-123.5 2035.82,-103.831 2056.37,-103.814 2102.09,-123.5 2105.3,-124.881 2130.9,-152.381 2150.43,-173.684"/>
<polygon fill="Black" stroke="Black" points="2147.97,-176.177 2157.3,-181.192 2153.13,-171.452 2147.97,-176.177"/>
<text text-anchor="middle" x="2046.09" y="-128.3" font-family="Times New Roman,serif" font-size="14.00">11 FILE_CHOWN</text>
</g>
<!-- 10&#45;&gt;11 -->
<g id="edge13" class="edge"><title>10&#45;&gt;11</title>
<path fill="none" stroke="Black" d="M1950.2,-232.456C1962.3,-240.635 1976.08,-248.237 1990.09,-252.5 2037.71,-266.993 2054.92,-268.409 2102.09,-252.5 2119.82,-246.519 2136.63,-234.142 2149.43,-222.745"/>
<polygon fill="Black" stroke="Black" points="2151.92,-225.214 2156.86,-215.842 2147.15,-220.088 2151.92,-225.214"/>
<text text-anchor="middle" x="2046.09" y="-268.3" font-family="Times New Roman,serif" font-size="14.00">12 FILE_CHMOD</text>
</g>
<!-- 10&#45;&gt;11 -->
<g id="edge14" class="edge"><title>10&#45;&gt;11</title>
<path fill="none" stroke="Black" d="M1950.31,-208.205C1962.98,-210.789 1977.04,-213.216 1990.09,-214.5 2039.63,-219.375 2052.62,-220.009 2102.09,-214.5 2108.35,-213.803 2114.86,-212.77 2121.29,-211.559"/>
<polygon fill="Black" stroke="Black" points="2122.18,-214.951 2131.28,-209.532 2120.78,-208.091 2122.18,-214.951"/>
<text text-anchor="middle" x="2046.09" y="-222.3" font-family="Times New Roman,serif" font-size="14.00">13 FILE_WRITE</text>
</g>
<!-- 11&#45;&gt;10 -->
<g id="edge11" class="edge"><title>11&#45;&gt;10</title>
<path fill="none" stroke="Black" d="M2119.64,-198.5C2073.14,-198.5 2006.19,-198.5 1960.46,-198.5"/>
<polygon fill="Black" stroke="Black" points="1960.18,-195 1950.18,-198.5 1960.18,-202 1960.18,-195"/>
<text text-anchor="middle" x="2046.09" y="-202.3" font-family="Times New Roman,serif" font-size="14.00">10 FILE_READ</text>
</g>
<!-- 11&#45;&gt;10 -->
<g id="edge15" class="edge"><title>11&#45;&gt;10</title>
<path fill="none" stroke="Black" d="M2134.37,-186.187C2124,-183.423 2112.71,-180.897 2102.09,-179.5 2052.74,-173.006 2039.53,-173.744 1990.09,-179.5 1980.35,-180.634 1970.08,-182.514 1960.25,-184.663"/>
<polygon fill="Black" stroke="Black" points="1959.17,-181.32 1950.22,-186.979 1960.75,-188.141 1959.17,-181.32"/>
<text text-anchor="middle" x="2046.09" y="-183.3" font-family="Times New Roman,serif" font-size="14.00">14 FILE_RENAME</text>
</g>
<!-- 20 -->
<g id="node14" class="node"><title>20</title>
<ellipse fill="none" stroke="black" cx="2174.04" cy="-113.5" rx="48.9926" ry="18"/>
<text text-anchor="middle" x="2174.04" y="-109.8" font-family="Times New Roman,serif" font-size="14.00">/tmp/agent</text>
</g>
<!-- 17&#45;&gt;20 -->
<g id="edge18" class="edge"><title>17&#45;&gt;20</title>
<path fill="none" stroke="Orange" d="M1953.88,-85.1865C1993.11,-83.1452 2051.79,-82.2819 2102.09,-90.5 2111.38,-92.0178 2121.12,-94.5286 2130.29,-97.3459"/>
<polygon fill="Orange" stroke="Orange" points="2129.4,-100.734 2139.99,-100.491 2131.56,-94.0756 2129.4,-100.734"/>
<text text-anchor="middle" x="2046.09" y="-94.3" font-family="Times New Roman,serif" font-size="14.00">17 FILE_WRITE</text>
</g>
<!-- 18 -->
<g id="node13" class="node"><title>18</title>
<polygon fill="none" stroke="black" points="1682.1,-106.5 1601.74,-106.5 1581.07,-70.5 1661.43,-70.5 1682.1,-106.5"/>
<text text-anchor="middle" x="1631.58" y="-84.8" font-family="Times New Roman,serif" font-size="14.00">ip2&#45;&gt;2</text>
</g>
<!-- 18&#45;&gt;17 -->
<g id="edge17" class="edge"><title>18&#45;&gt;17</title>
<path fill="none" stroke="Orange" d="M1671.99,-88.5C1719.47,-88.5 1799.51,-88.5 1852.94,-88.5"/>
<polygon fill="Orange" stroke="Orange" points="1853.25,-92.0001 1863.25,-88.5 1853.25,-85.0001 1853.25,-92.0001"/>
<text text-anchor="middle" x="1763.59" y="-92.3" font-family="Times New Roman,serif" font-size="14.00">16 NET_CONNECT</text>
</g>
<!-- 20&#45;&gt;21 -->
<g id="edge20" class="edge"><title>20&#45;&gt;21</title>
<path fill="none" stroke="Orange" d="M2189.23,-130.889C2202.38,-145.821 2223.29,-166.742 2245.98,-178.5 2296.06,-204.448 2316.74,-186.878 2369.98,-205.5 2377.97,-208.295 2386.2,-211.704 2394.19,-215.331"/>
<polygon fill="Orange" stroke="Orange" points="2392.89,-218.588 2403.43,-219.666 2395.86,-212.25 2392.89,-218.588"/>
<text text-anchor="middle" x="2307.98" y="-209.3" font-family="Times New Roman,serif" font-size="14.00">19 FILE_READ</text>
</g>
<!-- 20&#45;&gt;21 -->
<g id="edge21" class="edge"><title>20&#45;&gt;21</title>
<path fill="none" stroke="Orange" d="M2193.44,-130.069C2204.64,-140.953 2218.57,-156.003 2227.98,-171.5 2240.03,-191.328 2227.77,-206.125 2245.98,-220.5 2287.2,-253.037 2348.59,-255.978 2393.06,-252.667"/>
<polygon fill="Orange" stroke="Orange" points="2393.47,-256.145 2403.13,-251.79 2392.87,-249.171 2393.47,-256.145"/>
<text text-anchor="middle" x="2307.98" y="-258.3" font-family="Times New Roman,serif" font-size="14.00">20 PROCESS_EXEC</text>
</g>
<!-- 28 -->
<g id="node18" class="node"><title>28</title>
<polygon fill="none" stroke="black" points="2767.98,-160 2674.98,-160 2674.98,-67 2767.98,-67 2767.98,-160"/>
<text text-anchor="middle" x="2721.48" y="-109.8" font-family="Times New Roman,serif" font-size="14.00">3129680agent</text>
</g>
<!-- 20&#45;&gt;28 -->
<g id="edge31" class="edge"><title>20&#45;&gt;28</title>
<path fill="none" stroke="Orange" d="M2217.01,-104.971C2226.52,-103.106 2236.59,-101.187 2245.98,-99.5 2308.91,-88.1984 2324.25,-81.6276 2387.98,-76.5 2507.59,-66.8764 2539.08,-77.1738 2656.98,-99.5 2659.59,-99.9949 2662.26,-100.517 2664.96,-101.058"/>
<polygon fill="Orange" stroke="Orange" points="2664.26,-104.488 2674.76,-103.079 2665.68,-97.6322 2664.26,-104.488"/>
<text text-anchor="middle" x="2449.98" y="-80.3" font-family="Times New Roman,serif" font-size="14.00">30 FILE_READ</text>
</g>
<!-- 20&#45;&gt;28 -->
<g id="edge32" class="edge"><title>20&#45;&gt;28</title>
<path fill="none" stroke="Orange" d="M2198.34,-97.8693C2211.73,-89.6274 2229.18,-80.0923 2245.98,-74.5 2306.45,-54.3742 2324.4,-58.9553 2387.98,-54.5 2507.54,-46.1216 2544.24,-32.8294 2656.98,-73.5 2659.89,-74.5494 2662.8,-75.748 2665.7,-77.0591"/>
<polygon fill="Orange" stroke="Orange" points="2664.33,-80.2878 2674.85,-81.5848 2667.44,-74.0136 2664.33,-80.2878"/>
<text text-anchor="middle" x="2449.98" y="-58.3" font-family="Times New Roman,serif" font-size="14.00">31 PROCESS_EXEC</text>
</g>
<!-- 20&#45;&gt;28 -->
<g id="edge34" class="edge"><title>20&#45;&gt;28</title>
<path fill="none" stroke="Orange" d="M2216.13,-122.763C2225.87,-124.638 2236.25,-126.376 2245.98,-127.5 2427.44,-148.463 2475.76,-150.407 2656.98,-127.5 2659.62,-127.166 2662.31,-126.776 2665.02,-126.341"/>
<polygon fill="Orange" stroke="Orange" points="2665.63,-129.787 2674.87,-124.599 2664.41,-122.894 2665.63,-129.787"/>
<text text-anchor="middle" x="2449.98" y="-148.3" font-family="Times New Roman,serif" font-size="14.00">33 FILE_READ</text>
</g>
<!-- 26 -->
<g id="node17" class="node"><title>26</title>
<polygon fill="none" stroke="black" points="2767.98,-279 2674.98,-279 2674.98,-186 2767.98,-186 2767.98,-279"/>
<text text-anchor="middle" x="2721.48" y="-228.8" font-family="Times New Roman,serif" font-size="14.00">3129679agent</text>
</g>
<!-- 21&#45;&gt;26 -->
<g id="edge23" class="edge"><title>21&#45;&gt;26</title>
<path fill="none" stroke="Orange" d="M2496.7,-242.464C2542.96,-240.404 2614.58,-237.216 2664.28,-235.002"/>
<polygon fill="Orange" stroke="Orange" points="2664.7,-238.487 2674.54,-234.546 2664.39,-231.494 2664.7,-238.487"/>
<text text-anchor="middle" x="2593.48" y="-245.3" font-family="Times New Roman,serif" font-size="14.00">22 PROCESS_FORK</text>
</g>
<!-- 21&#45;&gt;28 -->
<g id="edge25" class="edge"><title>21&#45;&gt;28</title>
<path fill="none" stroke="Orange" d="M2496.8,-227.825C2507.64,-224 2519.19,-220.024 2529.98,-216.5 2585.99,-198.209 2606.57,-208.988 2656.98,-178.5 2662.47,-175.178 2667.82,-171.271 2672.94,-167.047"/>
<polygon fill="Orange" stroke="Orange" points="2675.55,-169.41 2680.77,-160.189 2670.94,-164.144 2675.55,-169.41"/>
<text text-anchor="middle" x="2593.48" y="-220.3" font-family="Times New Roman,serif" font-size="14.00">24 PROCESS_FORK</text>
</g>
<!-- 24 -->
<g id="node16" class="node"><title>24</title>
<ellipse fill="none" stroke="black" cx="3068.12" cy="-256.5" rx="137.276" ry="18"/>
<text text-anchor="middle" x="3068.12" y="-252.8" font-family="Times New Roman,serif" font-size="14.00">FILE_FIFO@0@13@2861243242</text>
</g>
<!-- 24&#45;&gt;21 -->
<g id="edge22" class="edge"><title>24&#45;&gt;21</title>
<path fill="none" stroke="Orange" d="M2986.33,-270.953C2907.01,-283.24 2782.59,-297.434 2674.98,-287.5 2616.88,-282.136 2551.45,-268.701 2506.37,-258.262"/>
<polygon fill="Orange" stroke="Orange" points="2507.04,-254.825 2496.51,-255.95 2505.45,-261.64 2507.04,-254.825"/>
<text text-anchor="middle" x="2721.48" y="-295.3" font-family="Times New Roman,serif" font-size="14.00">21 FILE_READ</text>
</g>
<!-- 26&#45;&gt;24 -->
<g id="edge24" class="edge"><title>26&#45;&gt;24</title>
<path fill="none" stroke="Orange" d="M2768.25,-235.687C2811.09,-238.67 2877.18,-243.273 2936.33,-247.392"/>
<polygon fill="Orange" stroke="Orange" points="2936.31,-250.899 2946.52,-248.102 2936.79,-243.916 2936.31,-250.899"/>
<text text-anchor="middle" x="2849.48" y="-249.3" font-family="Times New Roman,serif" font-size="14.00">23 FILE_WRITE</text>
</g>
<!-- 28&#45;&gt;20 -->
<g id="edge33" class="edge"><title>28&#45;&gt;20</title>
<path fill="none" stroke="Orange" d="M2674.79,-113.5C2575.92,-113.5 2342.29,-113.5 2233.13,-113.5"/>
<polygon fill="Orange" stroke="Orange" points="2232.96,-110 2222.96,-113.5 2232.96,-117 2232.96,-110"/>
<text text-anchor="middle" x="2449.98" y="-117.3" font-family="Times New Roman,serif" font-size="14.00">32 FILE_REMOVE</text>
</g>
<!-- 31 -->
<g id="node20" class="node"><title>31</title>
<ellipse fill="none" stroke="black" cx="3068.12" cy="-129.5" rx="100.983" ry="18"/>
<text text-anchor="middle" x="3068.12" y="-125.8" font-family="Times New Roman,serif" font-size="14.00">/usr/share/at/batch&#45;job.at</text>
</g>
<!-- 28&#45;&gt;31 -->
<g id="edge28" class="edge"><title>28&#45;&gt;31</title>
<path fill="none" stroke="Orange" d="M2768.25,-115.625C2816.91,-117.884 2895.59,-121.537 2960.01,-124.527"/>
<polygon fill="Orange" stroke="Orange" points="2960.06,-128.034 2970.21,-125.001 2960.39,-121.041 2960.06,-128.034"/>
<text text-anchor="middle" x="2849.48" y="-126.3" font-family="Times New Roman,serif" font-size="14.00">27 FILE_WRITE</text>
</g>
<!-- 34 -->
<g id="node21" class="node"><title>34</title>
<polygon fill="none" stroke="black" points="3114.62,-93 3021.62,-93 3021.62,-0 3114.62,-0 3114.62,-93"/>
<text text-anchor="middle" x="3068.12" y="-42.8" font-family="Times New Roman,serif" font-size="14.00">3129686agent</text>
</g>
<!-- 28&#45;&gt;34 -->
<g id="edge29" class="edge"><title>28&#45;&gt;34</title>
<path fill="none" stroke="Orange" d="M2768.24,-83.8697C2774.05,-81.0067 2780.04,-78.4485 2785.98,-76.5 2861.44,-51.7494 2953.81,-46.3006 3011.57,-45.6422"/>
<polygon fill="Orange" stroke="Orange" points="3011.62,-49.1421 3021.59,-45.5723 3011.57,-42.1423 3011.62,-49.1421"/>
<text text-anchor="middle" x="2849.48" y="-80.3" font-family="Times New Roman,serif" font-size="14.00">28 PROCESS_FORK</text>
</g>
<!-- 29 -->
<g id="node19" class="node"><title>29</title>
<ellipse fill="none" stroke="black" cx="3478.39" cy="-141.5" rx="137.276" ry="18"/>
<text text-anchor="middle" x="3478.39" y="-137.8" font-family="Times New Roman,serif" font-size="14.00">FILE_FIFO@0@13@2861251005</text>
</g>
<!-- 29&#45;&gt;28 -->
<g id="edge26" class="edge"><title>29&#45;&gt;28</title>
<path fill="none" stroke="Orange" d="M3358.21,-150.184C3247.48,-156.969 3078,-164.084 2930.98,-156.5 2866.28,-153.162 2848.6,-158.105 2785.98,-141.5 2783.2,-140.762 2780.38,-139.917 2777.56,-138.993"/>
<polygon fill="Orange" stroke="Orange" points="2778.59,-135.646 2768,-135.579 2776.24,-142.238 2778.59,-135.646"/>
<text text-anchor="middle" x="3068.12" y="-164.3" font-family="Times New Roman,serif" font-size="14.00">25 FILE_READ</text>
</g>
<!-- 31&#45;&gt;28 -->
<g id="edge27" class="edge"><title>31&#45;&gt;28</title>
<path fill="none" stroke="Orange" d="M3007.49,-115.12C2979.06,-108.979 2944.46,-102.535 2912.98,-99.5 2856.8,-94.0833 2842.09,-93.3878 2785.98,-99.5 2783.43,-99.7781 2780.83,-100.117 2778.21,-100.505"/>
<polygon fill="Orange" stroke="Orange" points="2777.35,-97.0997 2768.07,-102.209 2778.51,-104.003 2777.35,-97.0997"/>
<text text-anchor="middle" x="2849.48" y="-103.3" font-family="Times New Roman,serif" font-size="14.00">26 FILE_READ</text>
</g>
<!-- 34&#45;&gt;29 -->
<g id="edge30" class="edge"><title>34&#45;&gt;29</title>
<path fill="none" stroke="Orange" d="M3114.76,-57.1212C3183.92,-73.2124 3316.09,-103.966 3400.32,-123.567"/>
<polygon fill="Orange" stroke="Orange" points="3399.56,-126.984 3410.1,-125.841 3401.15,-120.166 3399.56,-126.984"/>
<text text-anchor="middle" x="3273.26" y="-109.3" font-family="Times New Roman,serif" font-size="14.00">29 FILE_WRITE</text>
</g>
</g>
</svg>
