<?xml version="1.0" encoding="UTF-8" standalone="no"?>
<!DOCTYPE svg PUBLIC "-//W3C//DTD SVG 1.1//EN"
 "http://www.w3.org/Graphics/SVG/1.1/DTD/svg11.dtd">
<!-- Generated by graphviz version 10.0.1 (20240210.2158)
 -->
<!-- Title: case1_1_tmp_split Pages: 1 -->
<svg width="3088pt" height="279pt"
 viewBox="0.00 0.00 3087.84 278.50" xmlns="http://www.w3.org/2000/svg" xmlns:xlink="http://www.w3.org/1999/xlink">
<g id="graph0" class="graph" transform="scale(1 1) rotate(0) translate(4 274.5)">
<title>case1_1_tmp_split</title>
<polygon fill="white" stroke="none" points="-4,4 -4,-274.5 3083.84,-274.5 3083.84,4 -4,4"/>
<!-- 0 -->
<g id="node1" class="node">
<title>0</title>
<ellipse fill="none" stroke="black" cx="44.58" cy="-212.75" rx="44.58" ry="18"/>
<text text-anchor="middle" x="44.58" y="-207.32" font-family="Times New Roman,serif" font-size="14.00">/bin/bash</text>
</g>
<!-- 1 -->
<g id="node2" class="node">
<title>1</title>
<polygon fill="none" stroke="black" points="336.9,-255.62 251.15,-255.62 251.15,-169.88 336.9,-169.88 336.9,-255.62"/>
<text text-anchor="middle" x="294.03" y="-207.32" font-family="Times New Roman,serif" font-size="14.00">6150fluxbox</text>
</g>
<!-- 0&#45;&gt;1 -->
<g id="edge1" class="edge">
<title>0&#45;&gt;1</title>
<path fill="none" stroke="Red" d="M89.53,-212.75C131.44,-212.75 194.63,-212.75 239.46,-212.75"/>
<polygon fill="Red" stroke="Red" points="239.21,-216.25 249.21,-212.75 239.21,-209.25 239.21,-216.25"/>
<text text-anchor="middle" x="170.15" y="-215.2" font-family="Times New Roman,serif" font-size="14.00">0 EVENT_EXECUTE</text>
</g>
<!-- 2 -->
<g id="node3" class="node">
<title>2</title>
<polygon fill="none" stroke="black" points="1000.19,-250.75 613.4,-250.75 513.9,-214.75 900.69,-214.75 1000.19,-250.75"/>
<text text-anchor="middle" x="757.05" y="-227.32" font-family="Times New Roman,serif" font-size="14.00">128.55.12.110&#45;33100&#45;&gt;141.43.176.203&#45;80</text>
</g>
<!-- 1&#45;&gt;2 -->
<g id="edge2" class="edge">
<title>1&#45;&gt;2</title>
<path fill="none" stroke="Blue" d="M337.16,-214.58C380.88,-216.47 452.81,-219.59 524.83,-222.72"/>
<polygon fill="Blue" stroke="Blue" points="524.26,-226.2 534.4,-223.13 524.56,-219.2 524.26,-226.2"/>
<text text-anchor="middle" x="425.4" y="-223.2" font-family="Times New Roman,serif" font-size="14.00">1 EVENT_CONNECT</text>
</g>
<!-- 1&#45;&gt;2 -->
<g id="edge3" class="edge">
<title>1&#45;&gt;2</title>
<path fill="none" stroke="Blue" d="M337.21,-198.61C343.1,-197.12 349.11,-195.84 354.9,-195 416.92,-186 434.83,-180.94 495.9,-195 504.57,-197 505.37,-201.24 513.9,-203.75 524.15,-206.76 534.74,-209.46 545.49,-211.88"/>
<polygon fill="Blue" stroke="Blue" points="544.75,-215.3 555.26,-213.99 546.22,-208.46 544.75,-215.3"/>
<text text-anchor="middle" x="425.4" y="-197.2" font-family="Times New Roman,serif" font-size="14.00">2 EVENT_SENDTO</text>
</g>
<!-- 5 -->
<g id="node4" class="node">
<title>5</title>
<polygon fill="none" stroke="black" points="796.92,-194.62 717.17,-194.62 717.17,-114.88 796.92,-114.88 796.92,-194.62"/>
<text text-anchor="middle" x="757.05" y="-149.32" font-family="Times New Roman,serif" font-size="14.00">6222firefox</text>
</g>
<!-- 1&#45;&gt;5 -->
<g id="edge5" class="edge">
<title>1&#45;&gt;5</title>
<path fill="none" stroke="Black" d="M337.24,-174.78C342.88,-171.25 348.82,-168.19 354.9,-166 474.71,-122.88 627.91,-135.59 705.75,-146.4"/>
<polygon fill="Black" stroke="Black" points="704.78,-149.79 715.18,-147.76 705.78,-142.87 704.78,-149.79"/>
<text text-anchor="middle" x="425.4" y="-168.2" font-family="Times New Roman,serif" font-size="14.00">4 EVENT_CLONE</text>
</g>
<!-- 2&#45;&gt;1 -->
<g id="edge4" class="edge">
<title>2&#45;&gt;1</title>
<path fill="none" stroke="Blue" d="M621.21,-251.22C542.62,-258.09 442.11,-260.13 354.9,-240.75 352.63,-240.24 350.34,-239.64 348.05,-238.96"/>
<polygon fill="Blue" stroke="Blue" points="349.42,-235.74 338.83,-235.78 347.14,-242.35 349.42,-235.74"/>
<text text-anchor="middle" x="425.4" y="-257.2" font-family="Times New Roman,serif" font-size="14.00">3 EVENT_RECVFROM</text>
</g>
<!-- 6 -->
<g id="node5" class="node">
<title>6</title>
<polygon fill="none" stroke="black" points="1927.47,-172.75 1540.69,-172.75 1441.19,-136.75 1827.97,-136.75 1927.47,-172.75"/>
<text text-anchor="middle" x="1684.33" y="-149.32" font-family="Times New Roman,serif" font-size="14.00">128.55.12.110&#45;44354&#45;&gt;146.153.68.151&#45;80</text>
</g>
<!-- 5&#45;&gt;6 -->
<g id="edge6" class="edge">
<title>5&#45;&gt;6</title>
<path fill="none" stroke="Orange" d="M797.21,-154.75C912.14,-154.75 1254.41,-154.75 1478.38,-154.75"/>
<polygon fill="Orange" stroke="Orange" points="1478.1,-158.25 1488.1,-154.75 1478.1,-151.25 1478.1,-158.25"/>
<text text-anchor="middle" x="1216.19" y="-157.2" font-family="Times New Roman,serif" font-size="14.00">5 EVENT_CONNECT</text>
</g>
<!-- 5&#45;&gt;6 -->
<g id="edge7" class="edge">
<title>5&#45;&gt;6</title>
<path fill="none" stroke="Orange" d="M797.36,-152.08C867.36,-147.49 1018.2,-138.25 1145.69,-135 1240.81,-132.58 1345.37,-135.21 1436.79,-139.26"/>
<polygon fill="Orange" stroke="Orange" points="1436.5,-142.75 1446.65,-139.71 1436.82,-135.76 1436.5,-142.75"/>
<text text-anchor="middle" x="1216.19" y="-137.2" font-family="Times New Roman,serif" font-size="14.00">6 EVENT_SENDTO</text>
</g>
<!-- 9 -->
<g id="node6" class="node">
<title>9</title>
<polygon fill="none" stroke="black" points="1256.06,-92.62 1176.31,-92.62 1176.31,-12.88 1256.06,-12.88 1256.06,-92.62"/>
<text text-anchor="middle" x="1216.19" y="-47.33" font-family="Times New Roman,serif" font-size="14.00">6244firefox</text>
</g>
<!-- 5&#45;&gt;9 -->
<g id="edge9" class="edge">
<title>5&#45;&gt;9</title>
<path fill="none" stroke="yellow" d="M797.42,-145.97C880.39,-127.45 1073.1,-84.45 1164.87,-63.98"/>
<polygon fill="yellow" stroke="yellow" points="1165.6,-67.4 1174.6,-61.81 1164.08,-60.57 1165.6,-67.4"/>
<text text-anchor="middle" x="1072.94" y="-97.2" font-family="Times New Roman,serif" font-size="14.00">8 EVENT_CLONE</text>
</g>
<!-- 6&#45;&gt;5 -->
<g id="edge8" class="edge">
<title>6&#45;&gt;5</title>
<path fill="none" stroke="Orange" d="M1515.42,-164.03C1484.74,-165.66 1453,-167.29 1423.19,-168.75 1299.97,-174.77 1269.02,-177.65 1145.69,-174.75 1088.98,-173.42 1074.85,-171.61 1018.19,-168.75 945.33,-165.08 861.01,-160.47 808.59,-157.57"/>
<polygon fill="Orange" stroke="Orange" points="808.96,-154.09 798.78,-157.03 808.57,-161.08 808.96,-154.09"/>
<text text-anchor="middle" x="1216.19" y="-178.2" font-family="Times New Roman,serif" font-size="14.00">7 EVENT_RECVFROM</text>
</g>
<!-- 9&#45;&gt;6 -->
<g id="edge10" class="edge">
<title>9&#45;&gt;6</title>
<path fill="none" stroke="Indigo" d="M1256.37,-61.81C1271.46,-65.27 1288.87,-69.23 1304.69,-72.75 1400.12,-93.99 1509.25,-117.54 1585.75,-133.94"/>
<polygon fill="Indigo" stroke="Indigo" points="1584.81,-137.32 1595.32,-135.99 1586.27,-130.47 1584.81,-137.32"/>
<text text-anchor="middle" x="1363.94" y="-101.2" font-family="Times New Roman,serif" font-size="14.00">9 EVENT_SENDTO</text>
</g>
<!-- 11 -->
<g id="node7" class="node">
<title>11</title>
<ellipse fill="none" stroke="black" cx="1684.33" cy="-52.75" rx="80.01" ry="18"/>
<text text-anchor="middle" x="1684.33" y="-47.33" font-family="Times New Roman,serif" font-size="14.00">/home/admin/clean</text>
</g>
<!-- 9&#45;&gt;11 -->
<g id="edge11" class="edge">
<title>9&#45;&gt;11</title>
<path fill="none" stroke="gray" d="M1256.53,-52.75C1330.19,-52.75 1490.63,-52.75 1592.46,-52.75"/>
<polygon fill="gray" stroke="gray" points="1592.45,-56.25 1602.45,-52.75 1592.45,-49.25 1592.45,-56.25"/>
<text text-anchor="middle" x="1363.94" y="-55.2" font-family="Times New Roman,serif" font-size="14.00">10 EVENT_WRITE</text>
</g>
<!-- 12 -->
<g id="node8" class="node">
<title>12</title>
<polygon fill="none" stroke="black" points="2167.72,-88.5 2096.22,-88.5 2096.22,-17 2167.72,-17 2167.72,-88.5"/>
<text text-anchor="middle" x="2131.97" y="-47.33" font-family="Times New Roman,serif" font-size="14.00">6248clean</text>
</g>
<!-- 11&#45;&gt;12 -->
<g id="edge12" class="edge">
<title>11&#45;&gt;12</title>
<path fill="none" stroke="pink" d="M1764.75,-52.75C1857.74,-52.75 2008.67,-52.75 2084.45,-52.75"/>
<polygon fill="pink" stroke="pink" points="2084.43,-56.25 2094.43,-52.75 2084.43,-49.25 2084.43,-56.25"/>
<text text-anchor="middle" x="2011.85" y="-55.2" font-family="Times New Roman,serif" font-size="14.00">11 EVENT_EXECUTE</text>
</g>
<!-- 13 -->
<g id="node9" class="node">
<title>13</title>
<polygon fill="none" stroke="black" points="2824.59,-89.75 2448.28,-89.75 2351.47,-53.75 2727.79,-53.75 2824.59,-89.75"/>
<text text-anchor="middle" x="2588.03" y="-66.33" font-family="Times New Roman,serif" font-size="14.00">128.55.12.110&#45;45226&#45;&gt;161.116.88.72&#45;80</text>
</g>
<!-- 12&#45;&gt;13 -->
<g id="edge13" class="edge">
<title>12&#45;&gt;13</title>
<path fill="none" stroke="pink" d="M2168.12,-52.29C2208.17,-51.93 2275.56,-51.79 2333.47,-54 2336.22,-54.1 2338.98,-54.21 2341.75,-54.33"/>
<polygon fill="pink" stroke="pink" points="2341.58,-57.82 2351.72,-54.76 2341.88,-50.83 2341.58,-57.82"/>
<text text-anchor="middle" x="2259.6" y="-57.2" font-family="Times New Roman,serif" font-size="14.00">12 EVENT_SENDTO</text>
</g>
<!-- 15 -->
<g id="node10" class="node">
<title>15</title>
<polygon fill="none" stroke="black" points="3079.84,-71.5 3008.34,-71.5 3008.34,0 3079.84,0 3079.84,-71.5"/>
<text text-anchor="middle" x="3044.09" y="-30.32" font-family="Times New Roman,serif" font-size="14.00">6249clean</text>
</g>
<!-- 12&#45;&gt;15 -->
<g id="edge15" class="edge">
<title>12&#45;&gt;15</title>
<path fill="none" stroke="pink" d="M2168.07,-47.75C2211.16,-41.89 2286.51,-32.52 2351.47,-29 2594.13,-15.85 2885.35,-27.71 2996.71,-33.25"/>
<polygon fill="pink" stroke="pink" points="2996.47,-36.75 3006.64,-33.76 2996.83,-29.76 2996.47,-36.75"/>
<text text-anchor="middle" x="2588.03" y="-32.2" font-family="Times New Roman,serif" font-size="14.00">14 EVENT_CLONE</text>
</g>
<!-- 13&#45;&gt;12 -->
<g id="edge14" class="edge">
<title>13&#45;&gt;12</title>
<path fill="none" stroke="pink" d="M2426.47,-82.14C2352.7,-84.05 2264.33,-82.3 2185.72,-69.75 2183.55,-69.4 2181.34,-68.98 2179.13,-68.5"/>
<polygon fill="pink" stroke="pink" points="2180.1,-65.14 2169.55,-66.07 2178.38,-71.92 2180.1,-65.14"/>
<text text-anchor="middle" x="2259.6" y="-85.2" font-family="Times New Roman,serif" font-size="14.00">13 EVENT_RECVFROM</text>
</g>
<!-- 13&#45;&gt;15 -->
<g id="edge16" class="edge">
<title>13&#45;&gt;15</title>
<path fill="none" stroke="pink" d="M2744.34,-59.44C2832.94,-52.41 2937.78,-44.1 2996.75,-39.42"/>
<polygon fill="pink" stroke="pink" points="2996.71,-42.94 3006.41,-38.66 2996.16,-35.96 2996.71,-42.94"/>
<text text-anchor="middle" x="2916.47" y="-54.2" font-family="Times New Roman,serif" font-size="14.00">15 EVENT_RECVFROM</text>
</g>
</g>
</svg>
