<?xml version="1.0" encoding="UTF-8" standalone="no"?>
<!DOCTYPE svg PUBLIC "-//W3C//DTD SVG 1.1//EN"
 "http://www.w3.org/Graphics/SVG/1.1/DTD/svg11.dtd">
<!-- Generated by graphviz version 2.50.0 (0)
 -->
<!-- Title: case1_1__1201 Pages: 1 -->
<svg width="3030pt" height="273pt"
 viewBox="0.00 0.00 3029.86 273.00" xmlns="http://www.w3.org/2000/svg" xmlns:xlink="http://www.w3.org/1999/xlink">
<g id="graph0" class="graph" transform="scale(1 1) rotate(0) translate(4 269)">
<title>case1_1__1201</title>
<polygon fill="white" stroke="transparent" points="-4,4 -4,-269 3025.86,-269 3025.86,4 -4,4"/>
<!-- 0 -->
<g id="node1" class="node">
<title>0</title>
<ellipse fill="none" stroke="black" cx="42.9" cy="-211" rx="42.79" ry="18"/>
<text text-anchor="middle" x="42.9" y="-207.3" font-family="Times New Roman,serif" font-size="14.00">/bin/bash</text>
</g>
<!-- 1 -->
<g id="node2" class="node">
<title>1</title>
<polygon fill="none" stroke="black" points="331.79,-254 245.79,-254 245.79,-168 331.79,-168 331.79,-254"/>
<text text-anchor="middle" x="288.79" y="-207.3" font-family="Times New Roman,serif" font-size="14.00">6150fluxbox</text>
</g>
<!-- 0&#45;&gt;1 -->
<g id="edge1" class="edge">
<title>0&#45;&gt;1</title>
<path fill="none" stroke="Red" d="M85.82,-211C127.27,-211 190.79,-211 235.51,-211"/>
<polygon fill="Red" stroke="Red" points="235.6,-214.5 245.6,-211 235.6,-207.5 235.6,-214.5"/>
<text text-anchor="middle" x="165.79" y="-214.8" font-family="Times New Roman,serif" font-size="14.00">0 EVENT_EXECUTE</text>
</g>
<!-- 2 -->
<g id="node3" class="node">
<title>2</title>
<polygon fill="none" stroke="black" points="981.5,-248 602.14,-248 504.56,-212 883.91,-212 981.5,-248"/>
<text text-anchor="middle" x="743.03" y="-226.3" font-family="Times New Roman,serif" font-size="14.00">128.55.12.110&#45;33100&#45;&gt;141.43.176.203&#45;80</text>
</g>
<!-- 1&#45;&gt;2 -->
<g id="edge2" class="edge">
<title>1&#45;&gt;2</title>
<path fill="none" stroke="Red" d="M331.93,-212.77C375.65,-214.61 447.5,-217.63 518.95,-220.63"/>
<polygon fill="Red" stroke="Red" points="518.89,-224.13 529.03,-221.05 519.18,-217.13 518.89,-224.13"/>
<text text-anchor="middle" x="418.29" y="-221.8" font-family="Times New Roman,serif" font-size="14.00">1 EVENT_CONNECT</text>
</g>
<!-- 1&#45;&gt;2 -->
<g id="edge3" class="edge">
<title>1&#45;&gt;2</title>
<path fill="none" stroke="Red" d="M332.09,-197.45C337.98,-196.03 344,-194.8 349.79,-194 410.1,-185.62 427.53,-180.01 486.79,-194 495.5,-196.05 496.22,-200.46 504.79,-203 513.09,-205.46 521.62,-207.7 530.28,-209.74"/>
<polygon fill="Red" stroke="Red" points="529.58,-213.17 540.11,-211.96 531.12,-206.35 529.58,-213.17"/>
<text text-anchor="middle" x="418.29" y="-197.8" font-family="Times New Roman,serif" font-size="14.00">2 EVENT_SENDTO</text>
</g>
<!-- 3 -->
<g id="node4" class="node">
<title>3</title>
<polygon fill="none" stroke="black" points="783.03,-194 703.03,-194 703.03,-114 783.03,-114 783.03,-194"/>
<text text-anchor="middle" x="743.03" y="-150.3" font-family="Times New Roman,serif" font-size="14.00">6222firefox</text>
</g>
<!-- 1&#45;&gt;3 -->
<g id="edge5" class="edge">
<title>1&#45;&gt;3</title>
<path fill="none" stroke="Blue" d="M331.88,-174.66C337.62,-171.18 343.65,-168.15 349.79,-166 467.08,-124.9 616.38,-136.28 692.51,-146.22"/>
<polygon fill="Blue" stroke="Blue" points="692.38,-149.73 702.76,-147.61 693.32,-142.8 692.38,-149.73"/>
<text text-anchor="middle" x="418.29" y="-169.8" font-family="Times New Roman,serif" font-size="14.00">4 EVENT_CLONE</text>
</g>
<!-- 2&#45;&gt;1 -->
<g id="edge4" class="edge">
<title>2&#45;&gt;1</title>
<path fill="none" stroke="Red" d="M600.39,-247.51C525.19,-253.06 431.65,-253.97 349.79,-237 347.12,-236.45 344.43,-235.77 341.73,-234.99"/>
<polygon fill="Red" stroke="Red" points="342.62,-231.6 332.03,-231.81 340.44,-238.25 342.62,-231.6"/>
<text text-anchor="middle" x="418.29" y="-253.8" font-family="Times New Roman,serif" font-size="14.00">3 EVENT_RECVFROM</text>
</g>
<!-- 4 -->
<g id="node5" class="node">
<title>4</title>
<polygon fill="none" stroke="black" points="1888.97,-172 1509.61,-172 1412.03,-136 1791.38,-136 1888.97,-172"/>
<text text-anchor="middle" x="1650.5" y="-150.3" font-family="Times New Roman,serif" font-size="14.00">128.55.12.110&#45;44354&#45;&gt;146.153.68.151&#45;80</text>
</g>
<!-- 3&#45;&gt;4 -->
<g id="edge6" class="edge">
<title>3&#45;&gt;4</title>
<path fill="none" stroke="Blue" d="M783.22,-154C896.75,-154 1231.58,-154 1450.17,-154"/>
<polygon fill="Blue" stroke="Blue" points="1450.49,-157.5 1460.49,-154 1450.49,-150.5 1450.49,-157.5"/>
<text text-anchor="middle" x="1192.76" y="-157.8" font-family="Times New Roman,serif" font-size="14.00">5 EVENT_CONNECT</text>
</g>
<!-- 3&#45;&gt;4 -->
<g id="edge7" class="edge">
<title>3&#45;&gt;4</title>
<path fill="none" stroke="Blue" d="M783.14,-151.4C852.03,-146.96 999.55,-138.11 1124.26,-135 1218.34,-132.65 1321.86,-135.28 1411.95,-139.25"/>
<polygon fill="Blue" stroke="Blue" points="1411.88,-142.75 1422.02,-139.71 1412.19,-135.76 1411.88,-142.75"/>
<text text-anchor="middle" x="1192.76" y="-138.8" font-family="Times New Roman,serif" font-size="14.00">6 EVENT_SENDTO</text>
</g>
<!-- 5 -->
<g id="node6" class="node">
<title>5</title>
<polygon fill="none" stroke="black" points="1232.76,-93 1152.76,-93 1152.76,-13 1232.76,-13 1232.76,-93"/>
<text text-anchor="middle" x="1192.76" y="-49.3" font-family="Times New Roman,serif" font-size="14.00">6244firefox</text>
</g>
<!-- 3&#45;&gt;5 -->
<g id="edge9" class="edge">
<title>3&#45;&gt;5</title>
<path fill="none" stroke="Blue" d="M783.37,-145.13C865.15,-126.68 1053.3,-84.23 1142.78,-64.05"/>
<polygon fill="Blue" stroke="Blue" points="1143.69,-67.43 1152.67,-61.82 1142.14,-60.6 1143.69,-67.43"/>
<text text-anchor="middle" x="1052.76" y="-97.8" font-family="Times New Roman,serif" font-size="14.00">8 EVENT_CLONE</text>
</g>
<!-- 4&#45;&gt;3 -->
<g id="edge8" class="edge">
<title>4&#45;&gt;3</title>
<path fill="none" stroke="Blue" d="M1486.13,-163.38C1455.6,-165.01 1423.96,-166.63 1394.26,-168 1218.89,-176.11 1174.62,-176.32 999.26,-168 927.72,-164.61 844.95,-159.93 793.54,-156.93"/>
<polygon fill="Blue" stroke="Blue" points="793.56,-153.43 783.37,-156.34 793.15,-160.42 793.56,-153.43"/>
<text text-anchor="middle" x="1192.76" y="-177.8" font-family="Times New Roman,serif" font-size="14.00">7 EVENT_RECVFROM</text>
</g>
<!-- 5&#45;&gt;4 -->
<g id="edge10" class="edge">
<title>5&#45;&gt;4</title>
<path fill="none" stroke="Blue" d="M1232.92,-61.71C1247.47,-64.94 1264.12,-68.64 1279.26,-72 1374.3,-93.08 1483.06,-117.17 1557.99,-133.75"/>
<polygon fill="Blue" stroke="Blue" points="1557.36,-137.2 1567.88,-135.94 1558.87,-130.36 1557.36,-137.2"/>
<text text-anchor="middle" x="1336.76" y="-99.8" font-family="Times New Roman,serif" font-size="14.00">9 EVENT_SENDTO</text>
</g>
<!-- 6 -->
<g id="node7" class="node">
<title>6</title>
<ellipse fill="none" stroke="black" cx="1650.5" cy="-53" rx="79.09" ry="18"/>
<text text-anchor="middle" x="1650.5" y="-49.3" font-family="Times New Roman,serif" font-size="14.00">/home/admin/clean</text>
</g>
<!-- 5&#45;&gt;6 -->
<g id="edge11" class="edge">
<title>5&#45;&gt;6</title>
<path fill="none" stroke="Black" d="M1233.01,-53C1305.44,-53 1461.77,-53 1560.95,-53"/>
<polygon fill="Black" stroke="Black" points="1560.96,-56.5 1570.96,-53 1560.96,-49.5 1560.96,-56.5"/>
<text text-anchor="middle" x="1336.76" y="-56.8" font-family="Times New Roman,serif" font-size="14.00">10 EVENT_WRITE</text>
</g>
<!-- 7 -->
<g id="node8" class="node">
<title>7</title>
<polygon fill="none" stroke="black" points="2126.73,-89 2054.73,-89 2054.73,-17 2126.73,-17 2126.73,-89"/>
<text text-anchor="middle" x="2090.73" y="-49.3" font-family="Times New Roman,serif" font-size="14.00">6248clean</text>
</g>
<!-- 6&#45;&gt;7 -->
<g id="edge12" class="edge">
<title>6&#45;&gt;7</title>
<path fill="none" stroke="Black" d="M1729.84,-53C1821.36,-53 1969.69,-53 2044.1,-53"/>
<polygon fill="Black" stroke="Black" points="2044.52,-56.5 2054.52,-53 2044.52,-49.5 2044.52,-56.5"/>
<text text-anchor="middle" x="1971.73" y="-56.8" font-family="Times New Roman,serif" font-size="14.00">11 EVENT_EXECUTE</text>
</g>
<!-- 8 -->
<g id="node9" class="node">
<title>8</title>
<polygon fill="none" stroke="black" points="2769.92,-89 2401.46,-89 2306.67,-53 2675.14,-53 2769.92,-89"/>
<text text-anchor="middle" x="2538.3" y="-67.3" font-family="Times New Roman,serif" font-size="14.00">128.55.12.110&#45;45226&#45;&gt;161.116.88.72&#45;80</text>
</g>
<!-- 7&#45;&gt;8 -->
<g id="edge13" class="edge">
<title>7&#45;&gt;8</title>
<path fill="none" stroke="Orange" d="M2126.98,-52.51C2166.4,-52.11 2232.17,-51.92 2288.73,-54 2292.99,-54.16 2297.28,-54.33 2301.61,-54.51"/>
<polygon fill="Orange" stroke="Orange" points="2301.61,-58.01 2311.75,-54.95 2301.92,-51.02 2301.61,-58.01"/>
<text text-anchor="middle" x="2216.73" y="-57.8" font-family="Times New Roman,serif" font-size="14.00">12 EVENT_SENDTO</text>
</g>
<!-- 9 -->
<g id="node10" class="node">
<title>9</title>
<polygon fill="none" stroke="black" points="3021.86,-72 2949.86,-72 2949.86,0 3021.86,0 3021.86,-72"/>
<text text-anchor="middle" x="2985.86" y="-32.3" font-family="Times New Roman,serif" font-size="14.00">6249clean</text>
</g>
<!-- 7&#45;&gt;9 -->
<g id="edge15" class="edge">
<title>7&#45;&gt;9</title>
<path fill="none" stroke="Orange" d="M2127.01,-47.84C2169.52,-41.91 2243.17,-32.54 2306.73,-29 2544.74,-15.76 2830.45,-27.84 2939.53,-33.47"/>
<polygon fill="Orange" stroke="Orange" points="2939.36,-36.97 2949.52,-34 2939.72,-29.98 2939.36,-36.97"/>
<text text-anchor="middle" x="2538.3" y="-32.8" font-family="Times New Roman,serif" font-size="14.00">14 EVENT_CLONE</text>
</g>
<!-- 8&#45;&gt;7 -->
<g id="edge14" class="edge">
<title>8&#45;&gt;7</title>
<path fill="none" stroke="Orange" d="M2378.91,-80.52C2307.06,-82.19 2221.23,-80.49 2144.73,-69 2142.06,-68.6 2139.34,-68.09 2136.61,-67.51"/>
<polygon fill="Orange" stroke="Orange" points="2137.3,-64.08 2126.76,-65.11 2135.65,-70.88 2137.3,-64.08"/>
<text text-anchor="middle" x="2216.73" y="-83.8" font-family="Times New Roman,serif" font-size="14.00">13 EVENT_RECVFROM</text>
</g>
<!-- 8&#45;&gt;9 -->
<g id="edge16" class="edge">
<title>8&#45;&gt;9</title>
<path fill="none" stroke="Orange" d="M2691.39,-59.05C2778.49,-52.21 2881.67,-44.11 2939.57,-39.56"/>
<polygon fill="Orange" stroke="Orange" points="2940.15,-43.02 2949.84,-38.75 2939.6,-36.04 2940.15,-43.02"/>
<text text-anchor="middle" x="2859.86" y="-55.8" font-family="Times New Roman,serif" font-size="14.00">15 EVENT_RECVFROM</text>
</g>
</g>
</svg>
