<?xml version="1.0" encoding="UTF-8" standalone="no"?>
<!DOCTYPE svg PUBLIC "-//W3C//DTD SVG 1.1//EN"
 "http://www.w3.org/Graphics/SVG/1.1/DTD/svg11.dtd">
<!-- Generated by graphviz version 2.50.0 (0)
 -->
<!-- Title: case1_2__1201 Pages: 1 -->
<svg width="3046pt" height="277pt"
 viewBox="0.00 0.00 3045.86 277.00" xmlns="http://www.w3.org/2000/svg" xmlns:xlink="http://www.w3.org/1999/xlink">
<g id="graph0" class="graph" transform="scale(1 1) rotate(0) translate(4 273)">
<title>case1_2__1201</title>
<polygon fill="white" stroke="transparent" points="-4,4 -4,-273 3041.86,-273 3041.86,4 -4,4"/>
<!-- 0 -->
<g id="node1" class="node">
<title>0</title>
<ellipse fill="none" stroke="black" cx="42.9" cy="-215" rx="42.79" ry="18"/>
<text text-anchor="middle" x="42.9" y="-211.3" font-family="Times New Roman,serif" font-size="14.00">/bin/bash</text>
</g>
<!-- 1 -->
<g id="node2" class="node">
<title>1</title>
<polygon fill="none" stroke="black" points="331.79,-258 245.79,-258 245.79,-172 331.79,-172 331.79,-258"/>
<text text-anchor="middle" x="288.79" y="-211.3" font-family="Times New Roman,serif" font-size="14.00">8063fluxbox</text>
</g>
<!-- 0&#45;&gt;1 -->
<g id="edge1" class="edge">
<title>0&#45;&gt;1</title>
<path fill="none" stroke="Red" d="M85.82,-215C127.27,-215 190.79,-215 235.51,-215"/>
<polygon fill="Red" stroke="Red" points="235.6,-218.5 245.6,-215 235.6,-211.5 235.6,-218.5"/>
<text text-anchor="middle" x="165.79" y="-218.8" font-family="Times New Roman,serif" font-size="14.00">0 EVENT_EXECUTE</text>
</g>
<!-- 2 -->
<g id="node3" class="node">
<title>2</title>
<polygon fill="none" stroke="black" points="981.5,-252 602.14,-252 504.56,-216 883.91,-216 981.5,-252"/>
<text text-anchor="middle" x="743.03" y="-230.3" font-family="Times New Roman,serif" font-size="14.00">128.55.12.110&#45;33157&#45;&gt;141.43.176.203&#45;80</text>
</g>
<!-- 1&#45;&gt;2 -->
<g id="edge2" class="edge">
<title>1&#45;&gt;2</title>
<path fill="none" stroke="Red" d="M331.93,-216.77C375.65,-218.61 447.5,-221.63 518.95,-224.63"/>
<polygon fill="Red" stroke="Red" points="518.89,-228.13 529.03,-225.05 519.18,-221.13 518.89,-228.13"/>
<text text-anchor="middle" x="418.29" y="-225.8" font-family="Times New Roman,serif" font-size="14.00">1 EVENT_CONNECT</text>
</g>
<!-- 1&#45;&gt;2 -->
<g id="edge3" class="edge">
<title>1&#45;&gt;2</title>
<path fill="none" stroke="Red" d="M332.09,-201.45C337.98,-200.03 344,-198.8 349.79,-198 410.1,-189.62 427.53,-184.01 486.79,-198 495.5,-200.05 496.22,-204.46 504.79,-207 513.09,-209.46 521.62,-211.7 530.28,-213.74"/>
<polygon fill="Red" stroke="Red" points="529.58,-217.17 540.11,-215.96 531.12,-210.35 529.58,-217.17"/>
<text text-anchor="middle" x="418.29" y="-201.8" font-family="Times New Roman,serif" font-size="14.00">2 EVENT_SENDTO</text>
</g>
<!-- 3 -->
<g id="node4" class="node">
<title>3</title>
<polygon fill="none" stroke="black" points="783.03,-198 703.03,-198 703.03,-118 783.03,-118 783.03,-198"/>
<text text-anchor="middle" x="743.03" y="-154.3" font-family="Times New Roman,serif" font-size="14.00">8130firefox</text>
</g>
<!-- 1&#45;&gt;3 -->
<g id="edge5" class="edge">
<title>1&#45;&gt;3</title>
<path fill="none" stroke="Blue" d="M331.88,-178.66C337.62,-175.18 343.65,-172.15 349.79,-170 467.08,-128.9 616.38,-140.28 692.51,-150.22"/>
<polygon fill="Blue" stroke="Blue" points="692.38,-153.73 702.76,-151.61 693.32,-146.8 692.38,-153.73"/>
<text text-anchor="middle" x="418.29" y="-173.8" font-family="Times New Roman,serif" font-size="14.00">4 EVENT_CLONE</text>
</g>
<!-- 2&#45;&gt;1 -->
<g id="edge4" class="edge">
<title>2&#45;&gt;1</title>
<path fill="none" stroke="Red" d="M600.39,-251.51C525.19,-257.06 431.65,-257.97 349.79,-241 347.12,-240.45 344.43,-239.77 341.73,-238.99"/>
<polygon fill="Red" stroke="Red" points="342.62,-235.6 332.03,-235.81 340.44,-242.25 342.62,-235.6"/>
<text text-anchor="middle" x="418.29" y="-257.8" font-family="Times New Roman,serif" font-size="14.00">3 EVENT_RECVFROM</text>
</g>
<!-- 4 -->
<g id="node5" class="node">
<title>4</title>
<polygon fill="none" stroke="black" points="1888.97,-176 1509.61,-176 1412.03,-140 1791.38,-140 1888.97,-176"/>
<text text-anchor="middle" x="1650.5" y="-154.3" font-family="Times New Roman,serif" font-size="14.00">128.55.12.110&#45;44411&#45;&gt;146.153.68.151&#45;80</text>
</g>
<!-- 3&#45;&gt;4 -->
<g id="edge6" class="edge">
<title>3&#45;&gt;4</title>
<path fill="none" stroke="Blue" d="M783.22,-158C896.75,-158 1231.58,-158 1450.17,-158"/>
<polygon fill="Blue" stroke="Blue" points="1450.49,-161.5 1460.49,-158 1450.49,-154.5 1450.49,-161.5"/>
<text text-anchor="middle" x="1192.76" y="-161.8" font-family="Times New Roman,serif" font-size="14.00">5 EVENT_CONNECT</text>
</g>
<!-- 3&#45;&gt;4 -->
<g id="edge7" class="edge">
<title>3&#45;&gt;4</title>
<path fill="none" stroke="Blue" d="M783.14,-155.4C852.03,-150.96 999.55,-142.11 1124.26,-139 1218.34,-136.65 1321.86,-139.28 1411.95,-143.25"/>
<polygon fill="Blue" stroke="Blue" points="1411.88,-146.75 1422.02,-143.71 1412.19,-139.76 1411.88,-146.75"/>
<text text-anchor="middle" x="1192.76" y="-142.8" font-family="Times New Roman,serif" font-size="14.00">6 EVENT_SENDTO</text>
</g>
<!-- 5 -->
<g id="node6" class="node">
<title>5</title>
<polygon fill="none" stroke="black" points="1232.76,-97 1152.76,-97 1152.76,-17 1232.76,-17 1232.76,-97"/>
<text text-anchor="middle" x="1192.76" y="-53.3" font-family="Times New Roman,serif" font-size="14.00">8183firefox</text>
</g>
<!-- 3&#45;&gt;5 -->
<g id="edge9" class="edge">
<title>3&#45;&gt;5</title>
<path fill="none" stroke="Blue" d="M783.37,-149.13C865.15,-130.68 1053.3,-88.23 1142.78,-68.05"/>
<polygon fill="Blue" stroke="Blue" points="1143.69,-71.43 1152.67,-65.82 1142.14,-64.6 1143.69,-71.43"/>
<text text-anchor="middle" x="1052.76" y="-101.8" font-family="Times New Roman,serif" font-size="14.00">8 EVENT_CLONE</text>
</g>
<!-- 4&#45;&gt;3 -->
<g id="edge8" class="edge">
<title>4&#45;&gt;3</title>
<path fill="none" stroke="Blue" d="M1486.13,-167.38C1455.6,-169.01 1423.96,-170.63 1394.26,-172 1218.89,-180.11 1174.62,-180.32 999.26,-172 927.72,-168.61 844.95,-163.93 793.54,-160.93"/>
<polygon fill="Blue" stroke="Blue" points="793.56,-157.43 783.37,-160.34 793.15,-164.42 793.56,-157.43"/>
<text text-anchor="middle" x="1192.76" y="-181.8" font-family="Times New Roman,serif" font-size="14.00">7 EVENT_RECVFROM</text>
</g>
<!-- 5&#45;&gt;4 -->
<g id="edge10" class="edge">
<title>5&#45;&gt;4</title>
<path fill="none" stroke="Blue" d="M1232.92,-65.71C1247.47,-68.94 1264.12,-72.64 1279.26,-76 1374.3,-97.08 1483.06,-121.17 1557.99,-137.75"/>
<polygon fill="Blue" stroke="Blue" points="1557.36,-141.2 1567.88,-139.94 1558.87,-134.36 1557.36,-141.2"/>
<text text-anchor="middle" x="1336.76" y="-103.8" font-family="Times New Roman,serif" font-size="14.00">9 EVENT_SENDTO</text>
</g>
<!-- 6 -->
<g id="node7" class="node">
<title>6</title>
<ellipse fill="none" stroke="black" cx="1650.5" cy="-57" rx="83.69" ry="18"/>
<text text-anchor="middle" x="1650.5" y="-53.3" font-family="Times New Roman,serif" font-size="14.00">/home/admin/profile</text>
</g>
<!-- 5&#45;&gt;6 -->
<g id="edge11" class="edge">
<title>5&#45;&gt;6</title>
<path fill="none" stroke="Black" d="M1233.01,-57C1304.3,-57 1456.83,-57 1556.19,-57"/>
<polygon fill="Black" stroke="Black" points="1556.23,-60.5 1566.23,-57 1556.23,-53.5 1556.23,-60.5"/>
<text text-anchor="middle" x="1336.76" y="-60.8" font-family="Times New Roman,serif" font-size="14.00">10 EVENT_WRITE</text>
</g>
<!-- 7 -->
<g id="node8" class="node">
<title>7</title>
<polygon fill="none" stroke="black" points="2134.73,-97 2054.73,-97 2054.73,-17 2134.73,-17 2134.73,-97"/>
<text text-anchor="middle" x="2094.73" y="-53.3" font-family="Times New Roman,serif" font-size="14.00">8187profile</text>
</g>
<!-- 6&#45;&gt;7 -->
<g id="edge12" class="edge">
<title>6&#45;&gt;7</title>
<path fill="none" stroke="Black" d="M1734.42,-57C1825.67,-57 1969.32,-57 2044.36,-57"/>
<polygon fill="Black" stroke="Black" points="2044.48,-60.5 2054.48,-57 2044.48,-53.5 2044.48,-60.5"/>
<text text-anchor="middle" x="1971.73" y="-60.8" font-family="Times New Roman,serif" font-size="14.00">11 EVENT_EXECUTE</text>
</g>
<!-- 8 -->
<g id="node9" class="node">
<title>8</title>
<polygon fill="none" stroke="black" points="2777.92,-93 2409.46,-93 2314.67,-57 2683.14,-57 2777.92,-93"/>
<text text-anchor="middle" x="2546.3" y="-71.3" font-family="Times New Roman,serif" font-size="14.00">128.55.12.110&#45;45668&#45;&gt;161.116.88.72&#45;80</text>
</g>
<!-- 7&#45;&gt;8 -->
<g id="edge13" class="edge">
<title>7&#45;&gt;8</title>
<path fill="none" stroke="Orange" d="M2135.03,-56.46C2175.56,-56.08 2240.59,-55.94 2296.73,-58 2300.99,-58.16 2305.28,-58.33 2309.61,-58.51"/>
<polygon fill="Orange" stroke="Orange" points="2309.61,-62.01 2319.75,-58.95 2309.92,-55.02 2309.61,-62.01"/>
<text text-anchor="middle" x="2224.73" y="-61.8" font-family="Times New Roman,serif" font-size="14.00">12 EVENT_SENDTO</text>
</g>
<!-- 9 -->
<g id="node10" class="node">
<title>9</title>
<polygon fill="none" stroke="black" points="3037.86,-80 2957.86,-80 2957.86,0 3037.86,0 3037.86,-80"/>
<text text-anchor="middle" x="2997.86" y="-36.3" font-family="Times New Roman,serif" font-size="14.00">8188profile</text>
</g>
<!-- 7&#45;&gt;9 -->
<g id="edge15" class="edge">
<title>7&#45;&gt;9</title>
<path fill="none" stroke="Orange" d="M2134.79,-51.42C2178.51,-45.47 2251.52,-36.45 2314.73,-33 2551.54,-20.06 2835.25,-31.65 2947.59,-37.31"/>
<polygon fill="Orange" stroke="Orange" points="2947.44,-40.8 2957.6,-37.82 2947.79,-33.81 2947.44,-40.8"/>
<text text-anchor="middle" x="2546.3" y="-36.8" font-family="Times New Roman,serif" font-size="14.00">14 EVENT_CLONE</text>
</g>
<!-- 8&#45;&gt;7 -->
<g id="edge14" class="edge">
<title>8&#45;&gt;7</title>
<path fill="none" stroke="Orange" d="M2385.11,-83.86C2313.67,-85.33 2228.66,-83.65 2152.73,-73 2150.19,-72.64 2147.61,-72.21 2145.01,-71.7"/>
<polygon fill="Orange" stroke="Orange" points="2145.51,-68.23 2135,-69.5 2144.01,-75.07 2145.51,-68.23"/>
<text text-anchor="middle" x="2224.73" y="-86.8" font-family="Times New Roman,serif" font-size="14.00">13 EVENT_RECVFROM</text>
</g>
<!-- 8&#45;&gt;9 -->
<g id="edge16" class="edge">
<title>8&#45;&gt;9</title>
<path fill="none" stroke="Orange" d="M2699.5,-63.15C2785.77,-56.43 2888.01,-48.47 2947.35,-43.85"/>
<polygon fill="Orange" stroke="Orange" points="2947.87,-47.32 2957.57,-43.06 2947.33,-40.35 2947.87,-47.32"/>
<text text-anchor="middle" x="2867.86" y="-59.8" font-family="Times New Roman,serif" font-size="14.00">15 EVENT_RECVFROM</text>
</g>
</g>
</svg>
