<?xml version="1.0" encoding="UTF-8" standalone="no"?>
<!DOCTYPE svg PUBLIC "-//W3C//DTD SVG 1.1//EN"
 "http://www.w3.org/Graphics/SVG/1.1/DTD/svg11.dtd">
<!-- Generated by graphviz version 2.50.0 (0)
 -->
<!-- Title: case4__1201 Pages: 1 -->
<svg width="2030pt" height="1204pt"
 viewBox="0.00 0.00 2030.47 1203.64" xmlns="http://www.w3.org/2000/svg" xmlns:xlink="http://www.w3.org/1999/xlink">
<g id="graph0" class="graph" transform="scale(1 1) rotate(0) translate(4 1199.64)">
<title>case4__1201</title>
<polygon fill="white" stroke="transparent" points="-4,4 -4,-1199.64 2026.47,-1199.64 2026.47,4 -4,4"/>
<!-- 0 -->
<g id="node1" class="node">
<title>0</title>
<ellipse fill="none" stroke="black" cx="132.59" cy="-737.55" rx="132.68" ry="18"/>
<text text-anchor="middle" x="132.59" y="-733.85" font-family="Times New Roman,serif" font-size="14.00">/usr/lib/thunderbird/thunderbird.sh</text>
</g>
<!-- 1 -->
<g id="node2" class="node">
<title>1</title>
<polygon fill="none" stroke="black" points="486.18,-780.55 400.18,-780.55 400.18,-694.55 486.18,-694.55 486.18,-780.55"/>
<text text-anchor="middle" x="443.18" y="-733.85" font-family="Times New Roman,serif" font-size="14.00">5850fluxbox</text>
</g>
<!-- 0&#45;&gt;1 -->
<g id="edge1" class="edge">
<title>0&#45;&gt;1</title>
<path fill="none" stroke="Red" d="M265.35,-737.55C309.15,-737.55 355.42,-737.55 389.64,-737.55"/>
<polygon fill="Red" stroke="Red" points="389.85,-741.05 399.85,-737.55 389.85,-734.05 389.85,-741.05"/>
<text text-anchor="middle" x="332.68" y="-741.35" font-family="Times New Roman,serif" font-size="14.00">0 EVENT_READ</text>
</g>
<!-- 2 -->
<g id="node3" class="node">
<title>2</title>
<ellipse fill="none" stroke="black" cx="961.15" cy="-1155.55" rx="254.55" ry="18"/>
<text text-anchor="middle" x="961.15" y="-1151.85" font-family="Times New Roman,serif" font-size="14.00">/home/admin/.thunderbird/pu7u3e84.default/ImapMail/128.55.12.73</text>
</g>
<!-- 1&#45;&gt;2 -->
<g id="edge2" class="edge">
<title>1&#45;&gt;2</title>
<path fill="none" stroke="Red" d="M444.35,-780.56C445.69,-871.74 454.29,-1079.85 504.18,-1125.55 608.39,-1221 788.34,-1198.14 888.18,-1175.4"/>
<polygon fill="Red" stroke="Red" points="889.23,-1178.75 898.17,-1173.06 887.64,-1171.93 889.23,-1178.75"/>
<text text-anchor="middle" x="561.18" y="-1184.35" font-family="Times New Roman,serif" font-size="14.00">1 EVENT_OPEN</text>
</g>
<!-- 3 -->
<g id="node4" class="node">
<title>3</title>
<ellipse fill="none" stroke="black" cx="961.15" cy="-1079.55" rx="211.76" ry="18"/>
<text text-anchor="middle" x="961.15" y="-1075.85" font-family="Times New Roman,serif" font-size="14.00">/home/admin/.thunderbird/pu7u3e84.default/panacea.dat</text>
</g>
<!-- 1&#45;&gt;3 -->
<g id="edge3" class="edge">
<title>1&#45;&gt;3</title>
<path fill="none" stroke="Red" d="M444.75,-780.75C446.91,-866.99 457.03,-1055.65 504.18,-1095.55 527.65,-1115.41 690.44,-1105.29 814.88,-1094.25"/>
<polygon fill="Red" stroke="Red" points="815.25,-1097.73 824.9,-1093.35 814.63,-1090.76 815.25,-1097.73"/>
<text text-anchor="middle" x="561.18" y="-1110.35" font-family="Times New Roman,serif" font-size="14.00">2 EVENT_OPEN</text>
</g>
<!-- 1&#45;&gt;3 -->
<g id="edge5" class="edge">
<title>1&#45;&gt;3</title>
<path fill="none" stroke="Red" d="M445.87,-780.55C449.94,-859.3 463.21,-1021.85 504.18,-1057.55 513.9,-1066.02 631.67,-1071.57 745.07,-1074.97"/>
<polygon fill="Red" stroke="Red" points="745.23,-1078.47 755.32,-1075.27 745.43,-1071.48 745.23,-1078.47"/>
<text text-anchor="middle" x="561.18" y="-1073.35" font-family="Times New Roman,serif" font-size="14.00">4 EVENT_WRITE</text>
</g>
<!-- 4 -->
<g id="node5" class="node">
<title>4</title>
<ellipse fill="none" stroke="black" cx="961.15" cy="-965.55" rx="308.95" ry="18"/>
<text text-anchor="middle" x="961.15" y="-961.85" font-family="Times New Roman,serif" font-size="14.00">/home/admin/.thunderbird/pu7u3e84.default/ImapMail/128.55.12.73/INBOX&#45;1.msf</text>
</g>
<!-- 1&#45;&gt;4 -->
<g id="edge6" class="edge">
<title>1&#45;&gt;4</title>
<path fill="none" stroke="Red" d="M448.49,-780.78C455.79,-844.06 472.93,-957.06 504.18,-981.55 526.88,-999.34 671.35,-991.71 791.69,-981.82"/>
<polygon fill="Red" stroke="Red" points="792.1,-985.3 801.77,-980.98 791.52,-978.32 792.1,-985.3"/>
<text text-anchor="middle" x="561.18" y="-995.35" font-family="Times New Roman,serif" font-size="14.00">5 EVENT_OPEN</text>
</g>
<!-- 1&#45;&gt;4 -->
<g id="edge8" class="edge">
<title>1&#45;&gt;4</title>
<path fill="none" stroke="Red" d="M450.79,-780.77C460.05,-835.02 478.66,-923.42 504.18,-943.55 517.67,-954.19 574.36,-960.14 643.43,-963.37"/>
<polygon fill="Red" stroke="Red" points="643.56,-966.88 653.71,-963.82 643.87,-959.88 643.56,-966.88"/>
<text text-anchor="middle" x="561.18" y="-964.35" font-family="Times New Roman,serif" font-size="14.00">7 EVENT_WRITE</text>
</g>
<!-- 5 -->
<g id="node6" class="node">
<title>5</title>
<ellipse fill="none" stroke="black" cx="961.15" cy="-870.55" rx="324.94" ry="18"/>
<text text-anchor="middle" x="961.15" y="-866.85" font-family="Times New Roman,serif" font-size="14.00">/home/admin/.thunderbird/pu7u3e84.default/ImapMail/128.55.12.73/msgFilterRules.dat</text>
</g>
<!-- 1&#45;&gt;5 -->
<g id="edge9" class="edge">
<title>1&#45;&gt;5</title>
<path fill="none" stroke="Red" d="M451.62,-780.55C459.29,-810.52 474.51,-848.43 504.18,-867.55 520.94,-878.35 595.14,-881.11 678.98,-880.49"/>
<polygon fill="Red" stroke="Red" points="679.01,-883.99 688.98,-880.4 678.95,-876.99 679.01,-883.99"/>
<text text-anchor="middle" x="561.18" y="-883.35" font-family="Times New Roman,serif" font-size="14.00">8 EVENT_OPEN</text>
</g>
<!-- 6 -->
<g id="node7" class="node">
<title>6</title>
<ellipse fill="none" stroke="black" cx="961.15" cy="-775.55" rx="292.45" ry="18"/>
<text text-anchor="middle" x="961.15" y="-771.85" font-family="Times New Roman,serif" font-size="14.00">/home/admin/.thunderbird/pu7u3e84.default/ImapMail/128.55.12.73/INBOX&#45;1</text>
</g>
<!-- 1&#45;&gt;6 -->
<g id="edge11" class="edge">
<title>1&#45;&gt;6</title>
<path fill="none" stroke="Red" d="M484.79,-780.79C490.86,-785.16 497.37,-788.94 504.18,-791.55 559.41,-812.74 705.41,-803.76 817.47,-792.59"/>
<polygon fill="Red" stroke="Red" points="817.92,-796.07 827.51,-791.58 817.21,-789.1 817.92,-796.07"/>
<text text-anchor="middle" x="561.18" y="-807.35" font-family="Times New Roman,serif" font-size="14.00">10 EVENT_OPEN</text>
</g>
<!-- 1&#45;&gt;6 -->
<g id="edge12" class="edge">
<title>1&#45;&gt;6</title>
<path fill="none" stroke="Red" d="M486.22,-749.96C492.21,-751.38 498.32,-752.63 504.18,-753.55 556.52,-761.69 612.61,-767.09 666.93,-770.61"/>
<polygon fill="Red" stroke="Red" points="666.85,-774.11 677.05,-771.24 667.29,-767.12 666.85,-774.11"/>
<text text-anchor="middle" x="561.18" y="-770.35" font-family="Times New Roman,serif" font-size="14.00">11 EVENT_WRITE</text>
</g>
<!-- 7 -->
<g id="node8" class="node">
<title>7</title>
<ellipse fill="none" stroke="black" cx="961.15" cy="-661.55" rx="296.25" ry="18"/>
<text text-anchor="middle" x="961.15" y="-657.85" font-family="Times New Roman,serif" font-size="14.00">/home/admin/.thunderbird/pu7u3e84.default/ImapMail/128.55.12.73/Sent&#45;1.msf</text>
</g>
<!-- 1&#45;&gt;7 -->
<g id="edge14" class="edge">
<title>1&#45;&gt;7</title>
<path fill="none" stroke="Red" d="M486.32,-719.07C492.24,-716.95 498.3,-715.03 504.18,-713.55 578.85,-694.71 662.14,-682.69 736.89,-675.02"/>
<polygon fill="Red" stroke="Red" points="737.31,-678.49 746.91,-674.01 736.61,-671.53 737.31,-678.49"/>
<text text-anchor="middle" x="561.18" y="-717.35" font-family="Times New Roman,serif" font-size="14.00">13 EVENT_OPEN</text>
</g>
<!-- 1&#45;&gt;7 -->
<g id="edge16" class="edge">
<title>1&#45;&gt;7</title>
<path fill="none" stroke="Red" d="M473.96,-694.48C482.56,-685.26 492.76,-676.75 504.18,-671.55 543.72,-653.53 633.18,-649.13 722.47,-649.97"/>
<polygon fill="Red" stroke="Red" points="722.47,-653.47 732.51,-650.09 722.55,-646.47 722.47,-653.47"/>
<text text-anchor="middle" x="561.18" y="-675.35" font-family="Times New Roman,serif" font-size="14.00">15 EVENT_WRITE</text>
</g>
<!-- 8 -->
<g id="node9" class="node">
<title>8</title>
<ellipse fill="none" stroke="black" cx="961.15" cy="-547.55" rx="280.25" ry="18"/>
<text text-anchor="middle" x="961.15" y="-543.85" font-family="Times New Roman,serif" font-size="14.00">/home/admin/.thunderbird/pu7u3e84.default/ImapMail/128.55.12.73/Sent&#45;1</text>
</g>
<!-- 1&#45;&gt;8 -->
<g id="edge17" class="edge">
<title>1&#45;&gt;8</title>
<path fill="none" stroke="Red" d="M449.38,-694.2C455.97,-659.73 470.82,-613.32 504.18,-588.55 522.88,-574.66 620.05,-564.89 719.92,-558.39"/>
<polygon fill="Red" stroke="Red" points="720.15,-561.88 729.9,-557.75 719.7,-554.89 720.15,-561.88"/>
<text text-anchor="middle" x="561.18" y="-592.35" font-family="Times New Roman,serif" font-size="14.00">16 EVENT_OPEN</text>
</g>
<!-- 1&#45;&gt;8 -->
<g id="edge19" class="edge">
<title>1&#45;&gt;8</title>
<path fill="none" stroke="Red" d="M444.15,-694.15C446.74,-649.21 458.56,-580.98 504.18,-547.55 523.74,-533.21 629.06,-532.6 733.55,-535.86"/>
<polygon fill="Red" stroke="Red" points="733.55,-539.36 743.66,-536.19 733.77,-532.36 733.55,-539.36"/>
<text text-anchor="middle" x="561.18" y="-551.35" font-family="Times New Roman,serif" font-size="14.00">18 EVENT_WRITE</text>
</g>
<!-- 9 -->
<g id="node10" class="node">
<title>9</title>
<ellipse fill="none" stroke="black" cx="961.15" cy="-466.55" rx="312.74" ry="18"/>
<text text-anchor="middle" x="961.15" y="-462.85" font-family="Times New Roman,serif" font-size="14.00">/home/admin/.thunderbird/pu7u3e84.default/ImapMail/128.55.12.73/Archives&#45;1.msf</text>
</g>
<!-- 1&#45;&gt;9 -->
<g id="edge20" class="edge">
<title>1&#45;&gt;9</title>
<path fill="none" stroke="Red" d="M448.1,-694.41C455.04,-628.89 471.88,-509.06 504.18,-482.55 545.33,-448.76 668.99,-446.05 777.16,-451.09"/>
<polygon fill="Red" stroke="Red" points="777.09,-454.59 787.25,-451.58 777.43,-447.6 777.09,-454.59"/>
<text text-anchor="middle" x="561.18" y="-486.35" font-family="Times New Roman,serif" font-size="14.00">19 EVENT_OPEN</text>
</g>
<!-- 10 -->
<g id="node11" class="node">
<title>10</title>
<ellipse fill="none" stroke="black" cx="961.15" cy="-401.55" rx="126.18" ry="18"/>
<text text-anchor="middle" x="961.15" y="-397.85" font-family="Times New Roman,serif" font-size="14.00">/home/admin/Documents/tcexec</text>
</g>
<!-- 1&#45;&gt;10 -->
<g id="edge22" class="edge">
<title>1&#45;&gt;10</title>
<path fill="none" stroke="Red" d="M445.2,-694.4C448.17,-611.72 459.7,-435.85 504.18,-398.55 529.24,-377.53 711.99,-384.9 838.38,-392.76"/>
<polygon fill="Red" stroke="Red" points="838.32,-396.27 848.52,-393.4 838.76,-389.28 838.32,-396.27"/>
<text text-anchor="middle" x="561.18" y="-402.35" font-family="Times New Roman,serif" font-size="14.00">21 EVENT_OPEN</text>
</g>
<!-- 11 -->
<g id="node12" class="node">
<title>11</title>
<polygon fill="none" stroke="black" points="1014.65,-365.05 907.65,-365.05 907.65,-258.05 1014.65,-258.05 1014.65,-365.05"/>
<text text-anchor="middle" x="961.15" y="-307.85" font-family="Times New Roman,serif" font-size="14.00">5861thunderbird</text>
</g>
<!-- 1&#45;&gt;11 -->
<g id="edge23" class="edge">
<title>1&#45;&gt;11</title>
<path fill="none" stroke="Red" d="M444.86,-694.48C447.21,-606.39 457.67,-410.14 504.18,-365.55 610.04,-264.04 799.26,-280.55 897.34,-297.87"/>
<polygon fill="Red" stroke="Red" points="896.93,-301.35 907.4,-299.7 898.19,-294.46 896.93,-301.35"/>
<text text-anchor="middle" x="561.18" y="-369.35" font-family="Times New Roman,serif" font-size="14.00">22 EVENT_CLONE</text>
</g>
<!-- 15 -->
<g id="node16" class="node">
<title>15</title>
<polygon fill="none" stroke="black" points="1014.65,-175.05 907.65,-175.05 907.65,-68.05 1014.65,-68.05 1014.65,-175.05"/>
<text text-anchor="middle" x="961.15" y="-117.85" font-family="Times New Roman,serif" font-size="14.00">5885thunderbird</text>
</g>
<!-- 1&#45;&gt;15 -->
<g id="edge30" class="edge">
<title>1&#45;&gt;15</title>
<path fill="none" stroke="Black" d="M444.38,-694.48C445.69,-594.17 454.08,-348.76 504.18,-286.55 602.06,-164.99 797.29,-132.96 897.55,-124.54"/>
<polygon fill="Black" stroke="Black" points="897.84,-128.03 907.53,-123.75 897.29,-121.05 897.84,-128.03"/>
<text text-anchor="middle" x="561.18" y="-290.35" font-family="Times New Roman,serif" font-size="14.00">29 EVENT_CLONE</text>
</g>
<!-- 3&#45;&gt;1 -->
<g id="edge4" class="edge">
<title>3&#45;&gt;1</title>
<path fill="none" stroke="Red" d="M818.61,-1066.2C693.42,-1053.11 527.12,-1032.02 504.18,-1010.55 472.77,-981.15 456.09,-861.55 448.8,-790.77"/>
<polygon fill="Red" stroke="Red" points="452.27,-790.3 447.79,-780.7 445.3,-791 452.27,-790.3"/>
<text text-anchor="middle" x="561.18" y="-1042.35" font-family="Times New Roman,serif" font-size="14.00">3 EVENT_READ</text>
</g>
<!-- 4&#45;&gt;1 -->
<g id="edge7" class="edge">
<title>4&#45;&gt;1</title>
<path fill="none" stroke="Red" d="M800.83,-950.14C678.77,-937.01 527.41,-917.33 504.18,-898.55 471.74,-872.32 456.84,-826.7 449.99,-790.7"/>
<polygon fill="Red" stroke="Red" points="453.43,-790.07 448.26,-780.83 446.54,-791.28 453.43,-790.07"/>
<text text-anchor="middle" x="561.18" y="-928.35" font-family="Times New Roman,serif" font-size="14.00">6 EVENT_READ</text>
</g>
<!-- 5&#45;&gt;1 -->
<g id="edge10" class="edge">
<title>5&#45;&gt;1</title>
<path fill="none" stroke="Red" d="M754.04,-856.65C643.95,-847.83 526.51,-835.65 504.18,-822.55 490.63,-814.6 479.36,-802.24 470.39,-789.39"/>
<polygon fill="Red" stroke="Red" points="473.24,-787.36 464.82,-780.92 467.39,-791.2 473.24,-787.36"/>
<text text-anchor="middle" x="561.18" y="-846.35" font-family="Times New Roman,serif" font-size="14.00">9 EVENT_READ</text>
</g>
<!-- 6&#45;&gt;1 -->
<g id="edge13" class="edge">
<title>6&#45;&gt;1</title>
<path fill="none" stroke="Red" d="M849.56,-758.9C782.74,-749.68 695.77,-739.18 618.18,-734.55 567.6,-731.53 554.83,-733.28 504.18,-734.55 501.67,-734.61 499.1,-734.69 496.51,-734.78"/>
<polygon fill="Red" stroke="Red" points="496.31,-731.28 486.45,-735.17 496.58,-738.28 496.31,-731.28"/>
<text text-anchor="middle" x="561.18" y="-738.35" font-family="Times New Roman,serif" font-size="14.00">12 EVENT_READ</text>
</g>
<!-- 7&#45;&gt;1 -->
<g id="edge15" class="edge">
<title>7&#45;&gt;1</title>
<path fill="none" stroke="Red" d="M880.59,-644.15C767.09,-621.15 565.61,-587.61 504.18,-624.55 482.19,-637.77 467.83,-662.06 458.69,-684.74"/>
<polygon fill="Red" stroke="Red" points="455.33,-683.74 455.08,-694.33 461.88,-686.2 455.33,-683.74"/>
<text text-anchor="middle" x="561.18" y="-628.35" font-family="Times New Roman,serif" font-size="14.00">14 EVENT_READ</text>
</g>
<!-- 8&#45;&gt;1 -->
<g id="edge18" class="edge">
<title>8&#45;&gt;1</title>
<path fill="none" stroke="Red" d="M850.24,-530.97C724.07,-513.13 530.98,-489.91 504.18,-510.55 476.85,-531.59 459.44,-623.99 450.77,-684.22"/>
<polygon fill="Red" stroke="Red" points="447.27,-683.94 449.35,-694.33 454.2,-684.91 447.27,-683.94"/>
<text text-anchor="middle" x="561.18" y="-514.35" font-family="Times New Roman,serif" font-size="14.00">17 EVENT_READ</text>
</g>
<!-- 9&#45;&gt;1 -->
<g id="edge21" class="edge">
<title>9&#45;&gt;1</title>
<path fill="none" stroke="Red" d="M827.21,-450.24C763.99,-443.28 687.3,-435.97 618.18,-432.55 567.57,-430.04 543.31,-400.36 504.18,-432.55 466.18,-463.79 451.87,-605.23 446.78,-684.05"/>
<polygon fill="Red" stroke="Red" points="443.28,-684.08 446.15,-694.28 450.26,-684.51 443.28,-684.08"/>
<text text-anchor="middle" x="561.18" y="-436.35" font-family="Times New Roman,serif" font-size="14.00">20 EVENT_READ</text>
</g>
<!-- 12 -->
<g id="node13" class="node">
<title>12</title>
<polygon fill="none" stroke="black" points="1975.92,-424.55 1607.45,-424.55 1512.67,-388.55 1881.13,-388.55 1975.92,-424.55"/>
<text text-anchor="middle" x="1744.29" y="-402.85" font-family="Times New Roman,serif" font-size="14.00">128.55.12.110&#45;43073&#45;&gt;128.55.12.73&#45;143</text>
</g>
<!-- 11&#45;&gt;12 -->
<g id="edge24" class="edge">
<title>11&#45;&gt;12</title>
<path fill="none" stroke="Blue" d="M1014.72,-309.38C1083.18,-309.13 1203.81,-317.79 1286.12,-374.55 1298.61,-383.16 1290.89,-396.13 1304.12,-403.55 1417.85,-467.32 1575.62,-447.23 1667.84,-426.86"/>
<polygon fill="Blue" stroke="Blue" points="1668.67,-430.26 1677.65,-424.63 1667.13,-423.43 1668.67,-430.26"/>
<text text-anchor="middle" x="1376.12" y="-447.35" font-family="Times New Roman,serif" font-size="14.00">23 EVENT_SENDTO</text>
</g>
<!-- 13 -->
<g id="node14" class="node">
<title>13</title>
<polygon fill="none" stroke="black" points="1975.92,-348.55 1607.45,-348.55 1512.67,-312.55 1881.13,-312.55 1975.92,-348.55"/>
<text text-anchor="middle" x="1744.29" y="-326.85" font-family="Times New Roman,serif" font-size="14.00">128.55.12.110&#45;43074&#45;&gt;128.55.12.73&#45;143</text>
</g>
<!-- 11&#45;&gt;13 -->
<g id="edge26" class="edge">
<title>11&#45;&gt;13</title>
<path fill="none" stroke="Blue" d="M1014.85,-314.67C1081.99,-318.49 1201.63,-324.8 1304.12,-327.55 1384.81,-329.71 1473.88,-330.6 1550.59,-330.89"/>
<polygon fill="Blue" stroke="Blue" points="1550.83,-334.39 1560.84,-330.93 1550.86,-327.39 1550.83,-334.39"/>
<text text-anchor="middle" x="1376.12" y="-333.35" font-family="Times New Roman,serif" font-size="14.00">25 EVENT_SENDTO</text>
</g>
<!-- 14 -->
<g id="node15" class="node">
<title>14</title>
<polygon fill="none" stroke="black" points="1975.92,-262.55 1607.45,-262.55 1512.67,-226.55 1881.13,-226.55 1975.92,-262.55"/>
<text text-anchor="middle" x="1744.29" y="-240.85" font-family="Times New Roman,serif" font-size="14.00">128.55.12.110&#45;43075&#45;&gt;128.55.12.73&#45;143</text>
</g>
<!-- 11&#45;&gt;14 -->
<g id="edge28" class="edge">
<title>11&#45;&gt;14</title>
<path fill="none" stroke="Blue" d="M1014.92,-307.02C1129.73,-297.17 1406.12,-273.47 1583.49,-258.25"/>
<polygon fill="Blue" stroke="Blue" points="1584.05,-261.72 1593.71,-257.38 1583.45,-254.74 1584.05,-261.72"/>
<text text-anchor="middle" x="1376.12" y="-285.35" font-family="Times New Roman,serif" font-size="14.00">27 EVENT_SENDTO</text>
</g>
<!-- 12&#45;&gt;11 -->
<g id="edge25" class="edge">
<title>12&#45;&gt;11</title>
<path fill="none" stroke="Blue" d="M1595.26,-388.54C1423.41,-367.64 1147.88,-334.13 1024.92,-319.18"/>
<polygon fill="Blue" stroke="Blue" points="1025.27,-315.7 1014.92,-317.96 1024.42,-322.65 1025.27,-315.7"/>
<text text-anchor="middle" x="1376.12" y="-373.35" font-family="Times New Roman,serif" font-size="14.00">24 EVENT_RECVFROM</text>
</g>
<!-- 13&#45;&gt;11 -->
<g id="edge27" class="edge">
<title>13&#45;&gt;11</title>
<path fill="none" stroke="Blue" d="M1526.58,-312.54C1500.16,-310.9 1473.54,-309.49 1448.12,-308.55 1296.15,-302.89 1117.27,-306.69 1024.71,-309.43"/>
<polygon fill="Blue" stroke="Blue" points="1024.56,-305.93 1014.67,-309.73 1024.77,-312.93 1024.56,-305.93"/>
<text text-anchor="middle" x="1376.12" y="-312.35" font-family="Times New Roman,serif" font-size="14.00">26 EVENT_RECVFROM</text>
</g>
<!-- 14&#45;&gt;11 -->
<g id="edge29" class="edge">
<title>14&#45;&gt;11</title>
<path fill="none" stroke="Blue" d="M1549.17,-240.41C1472.66,-240.55 1384.11,-242.92 1304.12,-250.55 1205.76,-259.93 1093.23,-282.29 1024.95,-297.17"/>
<polygon fill="Blue" stroke="Blue" points="1023.81,-293.84 1014.8,-299.4 1025.32,-300.67 1023.81,-293.84"/>
<text text-anchor="middle" x="1376.12" y="-254.35" font-family="Times New Roman,serif" font-size="14.00">28 EVENT_RECVFROM</text>
</g>
<!-- 16 -->
<g id="node17" class="node">
<title>16</title>
<ellipse fill="none" stroke="black" cx="1744.29" cy="-187.55" rx="241.56" ry="18"/>
<text text-anchor="middle" x="1744.29" y="-183.85" font-family="Times New Roman,serif" font-size="14.00">/home/admin/.thunderbird/pu7u3e84.default/downloads.json.tmp</text>
</g>
<!-- 15&#45;&gt;16 -->
<g id="edge31" class="edge">
<title>15&#45;&gt;16</title>
<path fill="none" stroke="Black" d="M1014.9,-132.05C1081.84,-144.88 1201.02,-166.04 1304.12,-175.55 1365,-181.16 1430.82,-184.44 1492.51,-186.29"/>
<polygon fill="Black" stroke="Black" points="1492.68,-189.79 1502.77,-186.58 1492.88,-182.8 1492.68,-189.79"/>
<text text-anchor="middle" x="1376.12" y="-187.35" font-family="Times New Roman,serif" font-size="14.00">30 EVENT_OPEN</text>
</g>
<!-- 15&#45;&gt;16 -->
<g id="edge32" class="edge">
<title>15&#45;&gt;16</title>
<path fill="none" stroke="Black" d="M1014.69,-124.76C1103.87,-130.35 1290.55,-142.6 1448.12,-156.55 1497.47,-160.91 1551.4,-166.37 1599.5,-171.49"/>
<polygon fill="Black" stroke="Black" points="1599.35,-175 1609.67,-172.58 1600.1,-168.03 1599.35,-175"/>
<text text-anchor="middle" x="1376.12" y="-160.35" font-family="Times New Roman,serif" font-size="14.00">31 EVENT_WRITE</text>
</g>
<!-- 17 -->
<g id="node18" class="node">
<title>17</title>
<ellipse fill="none" stroke="black" cx="1744.29" cy="-121.55" rx="220.96" ry="18"/>
<text text-anchor="middle" x="1744.29" y="-117.85" font-family="Times New Roman,serif" font-size="14.00">/home/admin/.thunderbird/pu7u3e84.default/crashes/events</text>
</g>
<!-- 15&#45;&gt;17 -->
<g id="edge33" class="edge">
<title>15&#45;&gt;17</title>
<path fill="none" stroke="Black" d="M1014.92,-121.55C1115.44,-121.55 1339.83,-121.55 1513.17,-121.55"/>
<polygon fill="Black" stroke="Black" points="1513.21,-125.05 1523.21,-121.55 1513.21,-118.05 1513.21,-125.05"/>
<text text-anchor="middle" x="1376.12" y="-125.35" font-family="Times New Roman,serif" font-size="14.00">32 EVENT_OPEN</text>
</g>
<!-- 18 -->
<g id="node19" class="node">
<title>18</title>
<ellipse fill="none" stroke="black" cx="1744.29" cy="-45.55" rx="278.35" ry="18"/>
<text text-anchor="middle" x="1744.29" y="-41.85" font-family="Times New Roman,serif" font-size="14.00">/home/admin/.thunderbird/pu7u3e84.default/crashes/store.json.mozlz4.tmp</text>
</g>
<!-- 15&#45;&gt;18 -->
<g id="edge34" class="edge">
<title>15&#45;&gt;18</title>
<path fill="none" stroke="Black" d="M1014.92,-116.41C1128.87,-105.33 1401.95,-78.76 1579.46,-61.49"/>
<polygon fill="Black" stroke="Black" points="1579.8,-64.97 1589.42,-60.52 1579.13,-58 1579.8,-64.97"/>
<text text-anchor="middle" x="1376.12" y="-91.35" font-family="Times New Roman,serif" font-size="14.00">33 EVENT_OPEN</text>
</g>
<!-- 15&#45;&gt;18 -->
<g id="edge36" class="edge">
<title>15&#45;&gt;18</title>
<path fill="none" stroke="Black" d="M1014.73,-108.3C1081.5,-92.16 1200.51,-65.67 1304.12,-54.55 1353.35,-49.26 1405.85,-46.08 1456.8,-44.27"/>
<polygon fill="Black" stroke="Black" points="1457.1,-47.76 1466.97,-43.92 1456.86,-40.76 1457.1,-47.76"/>
<text text-anchor="middle" x="1376.12" y="-58.35" font-family="Times New Roman,serif" font-size="14.00">35 EVENT_WRITE</text>
</g>
<!-- 18&#45;&gt;15 -->
<g id="edge35" class="edge">
<title>18&#45;&gt;15</title>
<path fill="none" stroke="Black" d="M1668.28,-28.2C1580.51,-10.44 1431.03,11.88 1304.12,-8.55 1203.21,-24.79 1091.74,-66.36 1024.34,-94.29"/>
<polygon fill="Black" stroke="Black" points="1022.6,-91.22 1014.72,-98.31 1025.3,-97.68 1022.6,-91.22"/>
<text text-anchor="middle" x="1376.12" y="-12.35" font-family="Times New Roman,serif" font-size="14.00">34 EVENT_READ</text>
</g>
</g>
</svg>
