<?xml version="1.0" encoding="UTF-8" standalone="no"?>
<!DOCTYPE svg PUBLIC "-//W3C//DTD SVG 1.1//EN"
 "http://www.w3.org/Graphics/SVG/1.1/DTD/svg11.dtd">
<!-- Generated by graphviz version 10.0.1 (20240210.2158)
 -->
<!-- Title: case4_tmp_split Pages: 1 -->
<svg width="2081pt" height="1233pt"
 viewBox="0.00 0.00 2081.20 1233.39" xmlns="http://www.w3.org/2000/svg" xmlns:xlink="http://www.w3.org/1999/xlink">
<g id="graph0" class="graph" transform="scale(1 1) rotate(0) translate(4 1229.39)">
<title>case4_tmp_split</title>
<polygon fill="white" stroke="none" points="-4,4 -4,-1229.39 2077.2,-1229.39 2077.2,4 -4,4"/>
<!-- 0 -->
<g id="node1" class="node">
<title>0</title>
<ellipse fill="none" stroke="black" cx="137.89" cy="-754.64" rx="137.89" ry="18"/>
<text text-anchor="middle" x="137.89" y="-749.21" font-family="Times New Roman,serif" font-size="14.00">/usr/lib/thunderbird/thunderbird.sh</text>
</g>
<!-- 1 -->
<g id="node2" class="node">
<title>1</title>
<polygon fill="none" stroke="black" points="498.03,-797.51 412.28,-797.51 412.28,-711.76 498.03,-711.76 498.03,-797.51"/>
<text text-anchor="middle" x="455.15" y="-749.21" font-family="Times New Roman,serif" font-size="14.00">5850fluxbox</text>
</g>
<!-- 0&#45;&gt;1 -->
<g id="edge1" class="edge">
<title>0&#45;&gt;1</title>
<path fill="none" stroke="Red" d="M276.25,-754.64C320.38,-754.64 366.66,-754.64 400.96,-754.64"/>
<polygon fill="Red" stroke="Red" points="400.59,-758.14 410.59,-754.64 400.59,-751.14 400.59,-758.14"/>
<text text-anchor="middle" x="344.03" y="-757.09" font-family="Times New Roman,serif" font-size="14.00">0 EVENT_READ</text>
</g>
<!-- 2 -->
<g id="node3" class="node">
<title>2</title>
<ellipse fill="none" stroke="black" cx="982.28" cy="-1183.64" rx="260.14" ry="18"/>
<text text-anchor="middle" x="982.28" y="-1178.21" font-family="Times New Roman,serif" font-size="14.00">/home/admin/.thunderbird/pu7u3e84.default/ImapMail/128.55.12.73</text>
</g>
<!-- 1&#45;&gt;2 -->
<g id="edge2" class="edge">
<title>1&#45;&gt;2</title>
<path fill="none" stroke="Red" d="M456.1,-797.81C456.97,-891 464.64,-1106.42 516.03,-1153.64 622.02,-1251.03 805.26,-1227.59 907.28,-1204.19"/>
<polygon fill="Red" stroke="Red" points="908,-1207.62 916.93,-1201.92 906.4,-1200.81 908,-1207.62"/>
<text text-anchor="middle" x="574.15" y="-1212.09" font-family="Times New Roman,serif" font-size="14.00">1 EVENT_OPEN</text>
</g>
<!-- 3 -->
<g id="node4" class="node">
<title>3</title>
<ellipse fill="none" stroke="black" cx="982.28" cy="-1105.64" rx="218.73" ry="18"/>
<text text-anchor="middle" x="982.28" y="-1100.21" font-family="Times New Roman,serif" font-size="14.00">/home/admin/.thunderbird/pu7u3e84.default/panacea.dat</text>
</g>
<!-- 1&#45;&gt;3 -->
<g id="edge3" class="edge">
<title>1&#45;&gt;3</title>
<path fill="none" stroke="Red" d="M456.49,-797.69C458.18,-885.68 467.46,-1081.33 516.03,-1122.64 539.88,-1142.92 705.3,-1132.42 832.18,-1120.98"/>
<polygon fill="Red" stroke="Red" points="832.41,-1124.47 842.05,-1120.08 831.77,-1117.5 832.41,-1124.47"/>
<text text-anchor="middle" x="574.15" y="-1136.09" font-family="Times New Roman,serif" font-size="14.00">2 EVENT_OPEN</text>
</g>
<!-- 1&#45;&gt;3 -->
<g id="edge5" class="edge">
<title>1&#45;&gt;3</title>
<path fill="none" stroke="Red" d="M457.59,-797.9C461.25,-878.48 473.87,-1046.74 516.03,-1083.64 525.81,-1092.2 643.16,-1097.71 757.54,-1101.08"/>
<polygon fill="Red" stroke="Red" points="757.34,-1104.57 767.44,-1101.36 757.54,-1097.58 757.34,-1104.57"/>
<text text-anchor="middle" x="574.15" y="-1098.09" font-family="Times New Roman,serif" font-size="14.00">4 EVENT_WRITE</text>
</g>
<!-- 6 -->
<g id="node5" class="node">
<title>6</title>
<ellipse fill="none" stroke="black" cx="982.28" cy="-988.64" rx="315.53" ry="18"/>
<text text-anchor="middle" x="982.28" y="-983.21" font-family="Times New Roman,serif" font-size="14.00">/home/admin/.thunderbird/pu7u3e84.default/ImapMail/128.55.12.73/INBOX&#45;1.msf</text>
</g>
<!-- 1&#45;&gt;6 -->
<g id="edge6" class="edge">
<title>1&#45;&gt;6</title>
<path fill="none" stroke="blue" d="M460.11,-797.77C467.04,-862.57 483.81,-980.2 516.03,-1005.64 539.15,-1023.9 686.89,-1015.84 809.78,-1005.52"/>
<polygon fill="blue" stroke="blue" points="810.03,-1009.01 819.7,-1004.68 809.44,-1002.04 810.03,-1009.01"/>
<text text-anchor="middle" x="574.15" y="-1018.09" font-family="Times New Roman,serif" font-size="14.00">5 EVENT_OPEN</text>
</g>
<!-- 1&#45;&gt;6 -->
<g id="edge8" class="edge">
<title>1&#45;&gt;6</title>
<path fill="none" stroke="blue" d="M462.32,-797.68C471.26,-853.35 489.68,-945.7 516.03,-966.64 529.63,-977.44 586.49,-983.47 656.04,-986.72"/>
<polygon fill="blue" stroke="blue" points="655.65,-990.2 665.8,-987.15 655.96,-983.21 655.65,-990.2"/>
<text text-anchor="middle" x="574.15" y="-987.09" font-family="Times New Roman,serif" font-size="14.00">7 EVENT_WRITE</text>
</g>
<!-- 9 -->
<g id="node6" class="node">
<title>9</title>
<ellipse fill="none" stroke="black" cx="982.28" cy="-890.64" rx="332" ry="18"/>
<text text-anchor="middle" x="982.28" y="-885.21" font-family="Times New Roman,serif" font-size="14.00">/home/admin/.thunderbird/pu7u3e84.default/ImapMail/128.55.12.73/msgFilterRules.dat</text>
</g>
<!-- 1&#45;&gt;9 -->
<g id="edge9" class="edge">
<title>1&#45;&gt;9</title>
<path fill="none" stroke="blue" d="M462.93,-797.96C470.29,-828.99 485.39,-868.68 516.03,-888.64 533.47,-900 612.31,-902.54 700.27,-901.51"/>
<polygon fill="blue" stroke="blue" points="700.14,-905.02 710.09,-901.38 700.05,-898.02 700.14,-905.02"/>
<text text-anchor="middle" x="574.15" y="-903.09" font-family="Times New Roman,serif" font-size="14.00">8 EVENT_OPEN</text>
</g>
<!-- 11 -->
<g id="node7" class="node">
<title>11</title>
<ellipse fill="none" stroke="black" cx="982.28" cy="-793.64" rx="299.06" ry="18"/>
<text text-anchor="middle" x="982.28" y="-788.21" font-family="Times New Roman,serif" font-size="14.00">/home/admin/.thunderbird/pu7u3e84.default/ImapMail/128.55.12.73/INBOX&#45;1</text>
</g>
<!-- 1&#45;&gt;11 -->
<g id="edge11" class="edge">
<title>1&#45;&gt;11</title>
<path fill="none" stroke="blue" d="M494.42,-797.88C501.08,-803.08 508.35,-807.61 516.03,-810.64 572.51,-832.93 722.95,-823.2 837.6,-811.36"/>
<polygon fill="blue" stroke="blue" points="837.85,-814.85 847.43,-810.33 837.12,-807.89 837.85,-814.85"/>
<text text-anchor="middle" x="574.15" y="-826.09" font-family="Times New Roman,serif" font-size="14.00">10 EVENT_OPEN</text>
</g>
<!-- 1&#45;&gt;11 -->
<g id="edge12" class="edge">
<title>1&#45;&gt;11</title>
<path fill="none" stroke="blue" d="M498.4,-767.93C504.28,-769.4 510.27,-770.7 516.03,-771.64 567.81,-780.1 623.23,-785.68 677.12,-789.31"/>
<polygon fill="blue" stroke="blue" points="676.88,-792.8 687.08,-789.95 677.33,-785.81 676.88,-792.8"/>
<text text-anchor="middle" x="574.15" y="-788.09" font-family="Times New Roman,serif" font-size="14.00">11 EVENT_WRITE</text>
</g>
<!-- 14 -->
<g id="node8" class="node">
<title>14</title>
<ellipse fill="none" stroke="black" cx="982.28" cy="-676.64" rx="303.06" ry="18"/>
<text text-anchor="middle" x="982.28" y="-671.21" font-family="Times New Roman,serif" font-size="14.00">/home/admin/.thunderbird/pu7u3e84.default/ImapMail/128.55.12.73/Sent&#45;1.msf</text>
</g>
<!-- 1&#45;&gt;14 -->
<g id="edge14" class="edge">
<title>1&#45;&gt;14</title>
<path fill="none" stroke="black" d="M498.5,-735.45C504.31,-733.32 510.26,-731.38 516.03,-729.89 590.86,-710.54 674.28,-698.22 749.59,-690.38"/>
<polygon fill="black" stroke="black" points="749.54,-693.9 759.13,-689.41 748.83,-686.94 749.54,-693.9"/>
<text text-anchor="middle" x="574.15" y="-732.09" font-family="Times New Roman,serif" font-size="14.00">13 EVENT_OPEN</text>
</g>
<!-- 1&#45;&gt;14 -->
<g id="edge16" class="edge">
<title>1&#45;&gt;14</title>
<path fill="none" stroke="black" d="M483.98,-711.58C492.89,-701.3 503.7,-691.65 516.03,-685.89 557.35,-666.58 652.73,-662.51 746.44,-663.98"/>
<polygon fill="black" stroke="black" points="746.28,-667.48 756.34,-664.16 746.4,-660.48 746.28,-667.48"/>
<text text-anchor="middle" x="574.15" y="-688.09" font-family="Times New Roman,serif" font-size="14.00">15 EVENT_WRITE</text>
</g>
<!-- 17 -->
<g id="node9" class="node">
<title>17</title>
<ellipse fill="none" stroke="black" cx="982.28" cy="-559.64" rx="286.59" ry="18"/>
<text text-anchor="middle" x="982.28" y="-554.21" font-family="Times New Roman,serif" font-size="14.00">/home/admin/.thunderbird/pu7u3e84.default/ImapMail/128.55.12.73/Sent&#45;1</text>
</g>
<!-- 1&#45;&gt;17 -->
<g id="edge17" class="edge">
<title>1&#45;&gt;17</title>
<path fill="none" stroke="black" d="M460.81,-711.31C467.08,-675.89 481.74,-627.62 516.03,-601.89 534.98,-587.66 633.59,-577.62 735.18,-570.91"/>
<polygon fill="black" stroke="black" points="735.35,-574.4 745.1,-570.26 734.9,-567.42 735.35,-574.4"/>
<text text-anchor="middle" x="574.15" y="-604.09" font-family="Times New Roman,serif" font-size="14.00">16 EVENT_OPEN</text>
</g>
<!-- 1&#45;&gt;17 -->
<g id="edge19" class="edge">
<title>1&#45;&gt;17</title>
<path fill="none" stroke="black" d="M455.68,-711.46C457.79,-665.46 469.09,-594.58 516.03,-559.89 535.77,-545.3 641.69,-544.51 747.48,-547.7"/>
<polygon fill="black" stroke="black" points="747.09,-551.19 757.19,-548.01 747.31,-544.2 747.09,-551.19"/>
<text text-anchor="middle" x="574.15" y="-562.09" font-family="Times New Roman,serif" font-size="14.00">18 EVENT_WRITE</text>
</g>
<!-- 20 -->
<g id="node10" class="node">
<title>20</title>
<ellipse fill="none" stroke="black" cx="982.28" cy="-475.64" rx="319.52" ry="18"/>
<text text-anchor="middle" x="982.28" y="-470.21" font-family="Times New Roman,serif" font-size="14.00">/home/admin/.thunderbird/pu7u3e84.default/ImapMail/128.55.12.73/Archives&#45;1.msf</text>
</g>
<!-- 1&#45;&gt;20 -->
<g id="edge20" class="edge">
<title>1&#45;&gt;20</title>
<path fill="none" stroke="yellow" d="M459.78,-711.48C466.38,-644.5 482.86,-520.35 516.03,-492.89 557.19,-458.82 679.92,-455.34 789,-459.94"/>
<polygon fill="yellow" stroke="yellow" points="788.52,-463.42 798.67,-460.37 788.84,-456.43 788.52,-463.42"/>
<text text-anchor="middle" x="574.15" y="-495.09" font-family="Times New Roman,serif" font-size="14.00">19 EVENT_OPEN</text>
</g>
<!-- 22 -->
<g id="node11" class="node">
<title>22</title>
<ellipse fill="none" stroke="black" cx="982.28" cy="-409.64" rx="129.91" ry="18"/>
<text text-anchor="middle" x="982.28" y="-404.21" font-family="Times New Roman,serif" font-size="14.00">/home/admin/Documents/tcexec</text>
</g>
<!-- 1&#45;&gt;22 -->
<g id="edge22" class="edge">
<title>1&#45;&gt;22</title>
<path fill="none" stroke="green" d="M456.95,-711.37C459.52,-627 470.35,-445.37 516.03,-406.89 541.41,-385.51 725.92,-392.71 854.81,-400.61"/>
<polygon fill="green" stroke="green" points="854.22,-404.08 864.42,-401.21 854.65,-397.09 854.22,-404.08"/>
<text text-anchor="middle" x="574.15" y="-409.09" font-family="Times New Roman,serif" font-size="14.00">21 EVENT_OPEN</text>
</g>
<!-- 23 -->
<g id="node12" class="node">
<title>23</title>
<polygon fill="none" stroke="black" points="1036.03,-373.39 928.53,-373.39 928.53,-265.89 1036.03,-265.89 1036.03,-373.39"/>
<text text-anchor="middle" x="982.28" y="-314.21" font-family="Times New Roman,serif" font-size="14.00">5861thunderbird</text>
</g>
<!-- 1&#45;&gt;23 -->
<g id="edge23" class="edge">
<title>1&#45;&gt;23</title>
<path fill="none" stroke="orange" d="M456.61,-711.47C458.52,-621.57 468.16,-418.81 516.03,-372.89 623.93,-269.39 816.92,-287.11 917.05,-305.31"/>
<polygon fill="orange" stroke="orange" points="916.24,-308.72 926.71,-307.13 917.53,-301.84 916.24,-308.72"/>
<text text-anchor="middle" x="574.15" y="-375.09" font-family="Times New Roman,serif" font-size="14.00">22 EVENT_CLONE</text>
</g>
<!-- 30 -->
<g id="node16" class="node">
<title>30</title>
<polygon fill="none" stroke="black" points="1036.03,-178.39 928.53,-178.39 928.53,-70.89 1036.03,-70.89 1036.03,-178.39"/>
<text text-anchor="middle" x="982.28" y="-119.21" font-family="Times New Roman,serif" font-size="14.00">5885thunderbird</text>
</g>
<!-- 1&#45;&gt;30 -->
<g id="edge30" class="edge">
<title>1&#45;&gt;30</title>
<path fill="none" stroke="gray" d="M456.16,-711.59C457.05,-609.4 464.51,-355.97 516.03,-291.89 615.59,-168.06 814.44,-135.86 916.92,-127.53"/>
<polygon fill="gray" stroke="gray" points="917.11,-131.02 926.82,-126.78 916.58,-124.04 917.11,-131.02"/>
<text text-anchor="middle" x="574.15" y="-294.09" font-family="Times New Roman,serif" font-size="14.00">29 EVENT_CLONE</text>
</g>
<!-- 3&#45;&gt;1 -->
<g id="edge4" class="edge">
<title>3&#45;&gt;1</title>
<path fill="none" stroke="Red" d="M834.69,-1091.97C707.18,-1078.72 539.24,-1057.49 516.03,-1035.64 483.79,-1005.3 467.47,-881.94 460.5,-809.14"/>
<polygon fill="Red" stroke="Red" points="464,-809.05 459.6,-799.42 457.03,-809.7 464,-809.05"/>
<text text-anchor="middle" x="574.15" y="-1066.09" font-family="Times New Roman,serif" font-size="14.00">3 EVENT_READ</text>
</g>
<!-- 6&#45;&gt;1 -->
<g id="edge7" class="edge">
<title>6&#45;&gt;1</title>
<path fill="none" stroke="blue" d="M816.79,-972.91C692.55,-959.65 539.52,-939.83 516.03,-920.64 482.7,-893.42 467.92,-846.09 461.37,-808.92"/>
<polygon fill="blue" stroke="blue" points="464.85,-808.56 459.82,-799.23 457.94,-809.66 464.85,-808.56"/>
<text text-anchor="middle" x="574.15" y="-950.09" font-family="Times New Roman,serif" font-size="14.00">6 EVENT_READ</text>
</g>
<!-- 9&#45;&gt;1 -->
<g id="edge10" class="edge">
<title>9&#45;&gt;1</title>
<path fill="none" stroke="blue" d="M761.15,-876.83C651.69,-868.44 538.03,-856.82 516.03,-843.64 501.62,-835.01 489.93,-821.41 480.84,-807.42"/>
<polygon fill="blue" stroke="blue" points="483.92,-805.76 475.74,-799.02 477.94,-809.39 483.92,-805.76"/>
<text text-anchor="middle" x="574.15" y="-866.09" font-family="Times New Roman,serif" font-size="14.00">9 EVENT_READ</text>
</g>
<!-- 11&#45;&gt;1 -->
<g id="edge13" class="edge">
<title>11&#45;&gt;1</title>
<path fill="none" stroke="blue" d="M867.63,-776.58C799.54,-767.22 711.16,-756.59 632.28,-751.89 591.14,-749.44 544.5,-750.33 509.56,-751.72"/>
<polygon fill="blue" stroke="blue" points="509.54,-748.22 499.7,-752.15 509.84,-755.21 509.54,-748.22"/>
<text text-anchor="middle" x="574.15" y="-754.09" font-family="Times New Roman,serif" font-size="14.00">12 EVENT_READ</text>
</g>
<!-- 14&#45;&gt;1 -->
<g id="edge15" class="edge">
<title>14&#45;&gt;1</title>
<path fill="none" stroke="black" d="M900.53,-658.9C784.74,-635.32 578.59,-600.81 516.03,-638.89 493.65,-652.51 479.27,-677.48 470.23,-700.75"/>
<polygon fill="black" stroke="black" points="467.04,-699.26 466.95,-709.85 473.63,-701.63 467.04,-699.26"/>
<text text-anchor="middle" x="574.15" y="-641.09" font-family="Times New Roman,serif" font-size="14.00">14 EVENT_READ</text>
</g>
<!-- 17&#45;&gt;1 -->
<g id="edge18" class="edge">
<title>17&#45;&gt;1</title>
<path fill="none" stroke="black" d="M868.82,-542.66C740.06,-524.43 543.29,-500.76 516.03,-521.89 488.09,-543.55 470.9,-638.51 462.48,-700.25"/>
<polygon fill="black" stroke="black" points="459.05,-699.49 461.2,-709.86 465.99,-700.41 459.05,-699.49"/>
<text text-anchor="middle" x="574.15" y="-524.09" font-family="Times New Roman,serif" font-size="14.00">17 EVENT_READ</text>
</g>
<!-- 20&#45;&gt;1 -->
<g id="edge21" class="edge">
<title>20&#45;&gt;1</title>
<path fill="none" stroke="yellow" d="M841.82,-459.05C778.04,-452.26 701.44,-445.23 632.28,-441.89 580.67,-439.4 555.85,-408.97 516.03,-441.89 477.14,-474.04 463.27,-619.33 458.51,-700.08"/>
<polygon fill="yellow" stroke="yellow" points="455.02,-699.82 457.96,-709.99 462.01,-700.21 455.02,-699.82"/>
<text text-anchor="middle" x="574.15" y="-444.09" font-family="Times New Roman,serif" font-size="14.00">20 EVENT_READ</text>
</g>
<!-- 24 -->
<g id="node13" class="node">
<title>24</title>
<polygon fill="none" stroke="black" points="2022.17,-434.64 1645.86,-434.64 1549.06,-398.64 1925.37,-398.64 2022.17,-434.64"/>
<text text-anchor="middle" x="1785.61" y="-411.21" font-family="Times New Roman,serif" font-size="14.00">128.55.12.110&#45;43073&#45;&gt;128.55.12.73&#45;143</text>
</g>
<!-- 23&#45;&gt;24 -->
<g id="edge24" class="edge">
<title>23&#45;&gt;24</title>
<path fill="none" stroke="orange" d="M1036.45,-316.63C1106.64,-315.37 1231.03,-322.8 1314.28,-382.64 1327.53,-392.16 1318.21,-406.37 1332.28,-414.64 1449.66,-483.64 1615.53,-460.09 1710.37,-437.71"/>
<polygon fill="orange" stroke="orange" points="1710.93,-441.17 1719.82,-435.42 1709.28,-434.37 1710.93,-441.17"/>
<text text-anchor="middle" x="1406.15" y="-459.09" font-family="Times New Roman,serif" font-size="14.00">23 EVENT_SENDTO</text>
</g>
<!-- 26 -->
<g id="node14" class="node">
<title>26</title>
<polygon fill="none" stroke="black" points="2022.17,-356.64 1645.86,-356.64 1549.06,-320.64 1925.37,-320.64 2022.17,-356.64"/>
<text text-anchor="middle" x="1785.61" y="-333.21" font-family="Times New Roman,serif" font-size="14.00">128.55.12.110&#45;43074&#45;&gt;128.55.12.73&#45;143</text>
</g>
<!-- 23&#45;&gt;26 -->
<g id="edge26" class="edge">
<title>23&#45;&gt;26</title>
<path fill="none" stroke="orange" d="M1036.46,-322.96C1104.87,-327.07 1227.37,-333.85 1332.28,-336.64 1415.97,-338.86 1508.4,-339.58 1587.78,-339.66"/>
<polygon fill="orange" stroke="orange" points="1587.38,-343.16 1597.38,-339.67 1587.38,-336.16 1587.38,-343.16"/>
<text text-anchor="middle" x="1406.15" y="-341.09" font-family="Times New Roman,serif" font-size="14.00">25 EVENT_SENDTO</text>
</g>
<!-- 28 -->
<g id="node15" class="node">
<title>28</title>
<polygon fill="none" stroke="black" points="2022.17,-268.64 1645.86,-268.64 1549.06,-232.64 1925.37,-232.64 2022.17,-268.64"/>
<text text-anchor="middle" x="1785.61" y="-245.21" font-family="Times New Roman,serif" font-size="14.00">128.55.12.110&#45;43075&#45;&gt;128.55.12.73&#45;143</text>
</g>
<!-- 23&#45;&gt;28 -->
<g id="edge28" class="edge">
<title>23&#45;&gt;28</title>
<path fill="none" stroke="orange" d="M1036.48,-315.06C1153.57,-304.98 1437.7,-280.51 1620.16,-264.8"/>
<polygon fill="orange" stroke="orange" points="1620.32,-268.3 1629.98,-263.95 1619.72,-261.32 1620.32,-268.3"/>
<text text-anchor="middle" x="1406.15" y="-291.09" font-family="Times New Roman,serif" font-size="14.00">27 EVENT_SENDTO</text>
</g>
<!-- 24&#45;&gt;23 -->
<g id="edge25" class="edge">
<title>24&#45;&gt;23</title>
<path fill="none" stroke="orange" d="M1631.89,-398.15C1455.6,-376.81 1173.81,-342.7 1047.81,-327.45"/>
<polygon fill="orange" stroke="orange" points="1048.33,-323.99 1037.98,-326.26 1047.48,-330.94 1048.33,-323.99"/>
<text text-anchor="middle" x="1406.15" y="-382.09" font-family="Times New Roman,serif" font-size="14.00">24 EVENT_RECVFROM</text>
</g>
<!-- 26&#45;&gt;23 -->
<g id="edge27" class="edge">
<title>26&#45;&gt;23</title>
<path fill="none" stroke="orange" d="M1548.99,-320.14C1525.7,-318.81 1502.41,-317.69 1480.03,-316.89 1324.89,-311.36 1142.34,-314.96 1047.62,-317.59"/>
<polygon fill="orange" stroke="orange" points="1047.64,-314.09 1037.74,-317.87 1047.84,-321.09 1047.64,-314.09"/>
<text text-anchor="middle" x="1406.15" y="-319.09" font-family="Times New Roman,serif" font-size="14.00">26 EVENT_RECVFROM</text>
</g>
<!-- 28&#45;&gt;23 -->
<g id="edge29" class="edge">
<title>28&#45;&gt;23</title>
<path fill="none" stroke="orange" d="M1584.66,-246.36C1505.86,-246.51 1414.66,-248.97 1332.28,-256.89 1232,-266.53 1117.32,-289.49 1047.62,-304.79"/>
<polygon fill="orange" stroke="orange" points="1046.89,-301.37 1037.89,-306.95 1048.41,-308.21 1046.89,-301.37"/>
<text text-anchor="middle" x="1406.15" y="-259.09" font-family="Times New Roman,serif" font-size="14.00">28 EVENT_RECVFROM</text>
</g>
<!-- 31 -->
<g id="node17" class="node">
<title>31</title>
<ellipse fill="none" stroke="black" cx="1785.61" cy="-192.64" rx="250.66" ry="18"/>
<text text-anchor="middle" x="1785.61" y="-187.21" font-family="Times New Roman,serif" font-size="14.00">/home/admin/.thunderbird/pu7u3e84.default/downloads.json.tmp</text>
</g>
<!-- 30&#45;&gt;31 -->
<g id="edge31" class="edge">
<title>30&#45;&gt;31</title>
<path fill="none" stroke="gray" d="M1036.51,-135.44C1104.7,-148.75 1226.72,-170.81 1332.28,-180.64 1394.07,-186.39 1460.81,-189.74 1523.55,-191.61"/>
<polygon fill="gray" stroke="gray" points="1523.2,-195.1 1533.3,-191.89 1523.4,-188.11 1523.2,-195.1"/>
<text text-anchor="middle" x="1406.15" y="-191.09" font-family="Times New Roman,serif" font-size="14.00">30 EVENT_OPEN</text>
</g>
<!-- 30&#45;&gt;31 -->
<g id="edge32" class="edge">
<title>30&#45;&gt;31</title>
<path fill="none" stroke="gray" d="M1036.25,-127.96C1127.12,-133.79 1318.53,-146.58 1480.03,-160.89 1530.39,-165.35 1585.36,-170.88 1634.57,-176.06"/>
<polygon fill="gray" stroke="gray" points="1634.14,-179.54 1644.46,-177.11 1634.88,-172.58 1634.14,-179.54"/>
<text text-anchor="middle" x="1406.15" y="-163.09" font-family="Times New Roman,serif" font-size="14.00">31 EVENT_WRITE</text>
</g>
<!-- 33 -->
<g id="node18" class="node">
<title>33</title>
<ellipse fill="none" stroke="black" cx="1785.61" cy="-124.64" rx="228.71" ry="18"/>
<text text-anchor="middle" x="1785.61" y="-119.21" font-family="Times New Roman,serif" font-size="14.00">/home/admin/.thunderbird/pu7u3e84.default/crashes/events</text>
</g>
<!-- 30&#45;&gt;33 -->
<g id="edge33" class="edge">
<title>30&#45;&gt;33</title>
<path fill="none" stroke="gray" d="M1036.48,-124.64C1138.54,-124.64 1367.51,-124.64 1545.44,-124.64"/>
<polygon fill="gray" stroke="gray" points="1545.31,-128.14 1555.31,-124.64 1545.31,-121.14 1545.31,-128.14"/>
<text text-anchor="middle" x="1406.15" y="-127.09" font-family="Times New Roman,serif" font-size="14.00">32 EVENT_OPEN</text>
</g>
<!-- 34 -->
<g id="node19" class="node">
<title>34</title>
<ellipse fill="none" stroke="black" cx="1785.61" cy="-46.64" rx="287.59" ry="18"/>
<text text-anchor="middle" x="1785.61" y="-41.21" font-family="Times New Roman,serif" font-size="14.00">/home/admin/.thunderbird/pu7u3e84.default/crashes/store.json.mozlz4.tmp</text>
</g>
<!-- 30&#45;&gt;34 -->
<g id="edge34" class="edge">
<title>30&#45;&gt;34</title>
<path fill="none" stroke="gray" d="M1036.48,-119.46C1152.46,-108.17 1432.31,-80.93 1614.93,-63.16"/>
<polygon fill="gray" stroke="gray" points="1615.15,-66.65 1624.77,-62.2 1614.48,-59.68 1615.15,-66.65"/>
<text text-anchor="middle" x="1406.15" y="-92.09" font-family="Times New Roman,serif" font-size="14.00">33 EVENT_OPEN</text>
</g>
<!-- 30&#45;&gt;34 -->
<g id="edge36" class="edge">
<title>30&#45;&gt;34</title>
<path fill="none" stroke="gray" d="M1036.34,-111.19C1104.37,-94.64 1226.21,-67.33 1332.28,-55.89 1382.29,-50.49 1435.6,-47.22 1487.42,-45.34"/>
<polygon fill="gray" stroke="gray" points="1487.41,-48.84 1497.28,-45 1487.17,-41.85 1487.41,-48.84"/>
<text text-anchor="middle" x="1406.15" y="-59.09" font-family="Times New Roman,serif" font-size="14.00">35 EVENT_WRITE</text>
</g>
<!-- 34&#45;&gt;30 -->
<g id="edge35" class="edge">
<title>34&#45;&gt;30</title>
<path fill="none" stroke="gray" d="M1707.34,-28.84C1616.93,-10.63 1462.97,12.22 1332.28,-8.89 1229.18,-25.54 1115.32,-68.18 1046.56,-96.79"/>
<polygon fill="gray" stroke="gray" points="1045.6,-93.4 1037.73,-100.5 1048.3,-99.86 1045.6,-93.4"/>
<text text-anchor="middle" x="1406.15" y="-12.09" font-family="Times New Roman,serif" font-size="14.00">34 EVENT_READ</text>
</g>
</g>
</svg>
