<?xml version="1.0" encoding="UTF-8" standalone="no"?>
<!DOCTYPE svg PUBLIC "-//W3C//DTD SVG 1.1//EN"
 "http://www.w3.org/Graphics/SVG/1.1/DTD/svg11.dtd">
<!-- Generated by graphviz version 10.0.1 (20240210.2158)
 -->
<!-- Title: case2_tmp_split Pages: 1 -->
<svg width="3632pt" height="723pt"
 viewBox="0.00 0.00 3631.58 722.83" xmlns="http://www.w3.org/2000/svg" xmlns:xlink="http://www.w3.org/1999/xlink">
<g id="graph0" class="graph" transform="scale(1 1) rotate(0) translate(4 718.83)">
<title>case2_tmp_split</title>
<polygon fill="white" stroke="none" points="-4,4 -4,-718.83 3627.58,-718.83 3627.58,4 -4,4"/>
<!-- 0 -->
<g id="node1" class="node">
<title>0</title>
<polygon fill="none" stroke="black" points="85.75,-605.96 0,-605.96 0,-520.21 85.75,-520.21 85.75,-605.96"/>
<text text-anchor="middle" x="42.88" y="-557.66" font-family="Times New Roman,serif" font-size="14.00">2188fluxbox</text>
</g>
<!-- 1 -->
<g id="node2" class="node">
<title>1</title>
<polygon fill="none" stroke="black" points="323.75,-438.33 231.25,-438.33 231.25,-345.83 323.75,-345.83 323.75,-438.33"/>
<text text-anchor="middle" x="277.5" y="-386.66" font-family="Times New Roman,serif" font-size="14.00">13557fluxbox</text>
</g>
<!-- 0&#45;&gt;1 -->
<g id="edge1" class="edge">
<title>0&#45;&gt;1</title>
<path fill="none" stroke="Red" d="M86,-532.12C124.1,-504.11 180.43,-462.71 221.96,-432.18"/>
<polygon fill="Red" stroke="Red" points="223.91,-435.09 229.89,-426.35 219.76,-429.45 223.91,-435.09"/>
<text text-anchor="middle" x="158.5" y="-519.53" font-family="Times New Roman,serif" font-size="14.00">0 EVENT_CLONE</text>
</g>
<!-- 34 -->
<g id="node16" class="node">
<title>34</title>
<polygon fill="none" stroke="black" points="2644.87,-648.33 2552.37,-648.33 2552.37,-555.83 2644.87,-555.83 2644.87,-648.33"/>
<text text-anchor="middle" x="2598.62" y="-596.66" font-family="Times New Roman,serif" font-size="14.00">13835fluxbox</text>
</g>
<!-- 0&#45;&gt;34 -->
<g id="edge33" class="edge">
<title>0&#45;&gt;34</title>
<path fill="none" stroke="purple" d="M86.19,-599.15C130.57,-633.2 203.84,-679.08 276.5,-679.08 276.5,-679.08 276.5,-679.08 2121.35,-679.08 2274.62,-679.08 2452.1,-639.75 2540.89,-617.3"/>
<polygon fill="purple" stroke="purple" points="2541.75,-620.7 2550.58,-614.83 2540.02,-613.91 2541.75,-620.7"/>
<text text-anchor="middle" x="1087.82" y="-681.53" font-family="Times New Roman,serif" font-size="14.00">32 EVENT_CLONE</text>
</g>
<!-- 2 -->
<g id="node3" class="node">
<title>2</title>
<ellipse fill="none" stroke="black" cx="732.6" cy="-300.08" rx="158.85" ry="18"/>
<text text-anchor="middle" x="732.6" y="-294.66" font-family="Times New Roman,serif" font-size="14.00">/lib/x86_64&#45;linux&#45;gnu/libpthread&#45;2.15.so</text>
</g>
<!-- 1&#45;&gt;2 -->
<g id="edge2" class="edge">
<title>1&#45;&gt;2</title>
<path fill="none" stroke="Red" d="M305.79,-345.62C315.49,-333.26 327.58,-321.39 341.75,-314.33 434.68,-268.04 556.09,-272.08 638.57,-282.77"/>
<polygon fill="Red" stroke="Red" points="638.06,-286.23 648.44,-284.11 639,-279.29 638.06,-286.23"/>
<text text-anchor="middle" x="396.5" y="-316.53" font-family="Times New Roman,serif" font-size="14.00">1 EVENT_OPEN</text>
</g>
<!-- 4 -->
<g id="node4" class="node">
<title>4</title>
<ellipse fill="none" stroke="black" cx="2120.35" cy="-563.08" rx="62.04" ry="18"/>
<text text-anchor="middle" x="2120.35" y="-557.66" font-family="Times New Roman,serif" font-size="14.00">/dev/urandom</text>
</g>
<!-- 1&#45;&gt;4 -->
<g id="edge4" class="edge">
<title>1&#45;&gt;4</title>
<path fill="none" stroke="Red" d="M324.22,-436.88C329.89,-441.33 335.79,-445.51 341.75,-449.08 393.42,-480.05 410.34,-482.46 469.25,-495.08 776.88,-560.99 1769.72,-563.87 2046.89,-563.35"/>
<polygon fill="Red" stroke="Red" points="2046.5,-566.85 2056.49,-563.33 2046.48,-559.85 2046.5,-566.85"/>
<text text-anchor="middle" x="1087.82" y="-552.53" font-family="Times New Roman,serif" font-size="14.00">3 EVENT_OPEN</text>
</g>
<!-- 1&#45;&gt;4 -->
<g id="edge5" class="edge">
<title>1&#45;&gt;4</title>
<path fill="none" stroke="Red" d="M285.63,-438.46C295.56,-496.72 315.36,-591.92 341.75,-615.08 399.07,-665.39 435.24,-640.08 511.5,-640.08 511.5,-640.08 511.5,-640.08 1857.23,-640.08 1934.15,-640.08 1955.77,-640.18 2028.48,-615.08 2048.88,-608.04 2069.9,-596.35 2086.57,-585.84"/>
<polygon fill="Red" stroke="Red" points="2088.1,-589.02 2094.59,-580.65 2084.29,-583.15 2088.1,-589.02"/>
<text text-anchor="middle" x="1087.82" y="-642.53" font-family="Times New Roman,serif" font-size="14.00">4 EVENT_OPEN</text>
</g>
<!-- 7 -->
<g id="node5" class="node">
<title>7</title>
<ellipse fill="none" stroke="black" cx="2598.62" cy="-91.08" rx="77.51" ry="18"/>
<text text-anchor="middle" x="2598.62" y="-85.66" font-family="Times New Roman,serif" font-size="14.00">/dev/glx_alsa_675</text>
</g>
<!-- 1&#45;&gt;7 -->
<g id="edge8" class="edge">
<title>1&#45;&gt;7</title>
<path fill="none" stroke="Red" d="M292.33,-345.65C319.73,-264.43 389.08,-105.08 511.5,-105.08 511.5,-105.08 511.5,-105.08 1088.82,-105.08 1628.83,-105.08 2277.51,-96.01 2509.68,-92.47"/>
<polygon fill="Red" stroke="Red" points="2509.62,-95.97 2519.57,-92.32 2509.52,-88.97 2509.62,-95.97"/>
<text text-anchor="middle" x="1422.84" y="-107.53" font-family="Times New Roman,serif" font-size="14.00">7 EVENT_OPEN</text>
</g>
<!-- 1&#45;&gt;7 -->
<g id="edge9" class="edge">
<title>1&#45;&gt;7</title>
<path fill="none" stroke="Red" d="M281,-345.59C286.46,-261.76 302.27,-89.99 341.75,-47.08 394.67,10.44 433.33,-1.08 511.5,-1.08 511.5,-1.08 511.5,-1.08 2121.35,-1.08 2275.08,-1.08 2451.94,-46.92 2540.64,-73.17"/>
<polygon fill="Red" stroke="Red" points="2539.49,-76.48 2550.07,-75.99 2541.5,-69.77 2539.49,-76.48"/>
<text text-anchor="middle" x="1422.84" y="-3.53" font-family="Times New Roman,serif" font-size="14.00">8 EVENT_WRITE</text>
</g>
<!-- 11 -->
<g id="node6" class="node">
<title>11</title>
<polygon fill="none" stroke="black" points="555.75,-486.33 469.25,-486.33 469.25,-399.83 555.75,-399.83 555.75,-486.33"/>
<text text-anchor="middle" x="512.5" y="-437.66" font-family="Times New Roman,serif" font-size="14.00">13626firefox</text>
</g>
<!-- 1&#45;&gt;11 -->
<g id="edge10" class="edge">
<title>1&#45;&gt;11</title>
<path fill="none" stroke="Blue" d="M323.98,-402.04C362.35,-410.44 417.35,-422.48 457.87,-431.34"/>
<polygon fill="Blue" stroke="Blue" points="456.89,-434.71 467.41,-433.43 458.39,-427.88 456.89,-434.71"/>
<text text-anchor="middle" x="396.5" y="-431.53" font-family="Times New Roman,serif" font-size="14.00">9 EVENT_CLONE</text>
</g>
<!-- 2&#45;&gt;1 -->
<g id="edge3" class="edge">
<title>2&#45;&gt;1</title>
<path fill="none" stroke="Red" d="M652.85,-316.07C562.02,-334.51 414.95,-364.38 334.86,-380.64"/>
<polygon fill="Red" stroke="Red" points="334.61,-377.12 325.5,-382.54 336,-383.98 334.61,-377.12"/>
<text text-anchor="middle" x="396.5" y="-380.53" font-family="Times New Roman,serif" font-size="14.00">2 EVENT_READ</text>
</g>
<!-- 18 -->
<g id="node10" class="node">
<title>18</title>
<polygon fill="none" stroke="black" points="1894.23,-401.08 1818.23,-401.08 1818.23,-325.08 1894.23,-325.08 1894.23,-401.08"/>
<text text-anchor="middle" x="1856.23" y="-357.66" font-family="Times New Roman,serif" font-size="14.00">13749dash</text>
</g>
<!-- 2&#45;&gt;18 -->
<g id="edge19" class="edge">
<title>2&#45;&gt;18</title>
<path fill="none" stroke="yellow" d="M877.69,-292.52C1061.53,-285.16 1388.88,-279.77 1665.98,-316.08 1714.86,-322.49 1769.37,-336.82 1807.29,-347.98"/>
<polygon fill="yellow" stroke="yellow" points="1805.97,-351.24 1816.56,-350.75 1807.98,-344.53 1805.97,-351.24"/>
<text text-anchor="middle" x="1087.82" y="-291.53" font-family="Times New Roman,serif" font-size="14.00">18 EVENT_READ</text>
</g>
<!-- 4&#45;&gt;1 -->
<g id="edge6" class="edge">
<title>4&#45;&gt;1</title>
<path fill="none" stroke="Red" d="M2070.86,-574.38C2018.48,-585.58 1932.41,-601.08 1857.23,-601.08 511.5,-601.08 511.5,-601.08 511.5,-601.08 419.81,-601.08 347.77,-510.3 309.31,-448.4"/>
<polygon fill="Red" stroke="Red" points="312.4,-446.74 304.21,-440.02 306.42,-450.38 312.4,-446.74"/>
<text text-anchor="middle" x="1087.82" y="-603.53" font-family="Times New Roman,serif" font-size="14.00">5 EVENT_READ</text>
</g>
<!-- 4&#45;&gt;18 -->
<g id="edge24" class="edge">
<title>4&#45;&gt;18</title>
<path fill="none" stroke="green" d="M2103.35,-545.28C2078.56,-517.79 2033.2,-467.87 2028.48,-465.33 1982.34,-440.55 1956.18,-474.56 1912.23,-446.08 1898.92,-437.46 1888.09,-424.36 1879.66,-411.1"/>
<polygon fill="green" stroke="green" points="1882.84,-409.59 1874.73,-402.78 1876.82,-413.16 1882.84,-409.59"/>
<text text-anchor="middle" x="1970.35" y="-467.53" font-family="Times New Roman,serif" font-size="14.00">23 EVENT_READ</text>
</g>
<!-- 4&#45;&gt;34 -->
<g id="edge34" class="edge">
<title>4&#45;&gt;34</title>
<path fill="none" stroke="purple" d="M2171.17,-573.59C2184.46,-576.07 2198.85,-578.46 2212.23,-580.08 2328.5,-594.22 2465.65,-599.31 2540.97,-601.11"/>
<polygon fill="purple" stroke="purple" points="2540.48,-604.6 2550.55,-601.33 2540.64,-597.61 2540.48,-604.6"/>
<text text-anchor="middle" x="2274.85" y="-593.53" font-family="Times New Roman,serif" font-size="14.00">33 EVENT_READ</text>
</g>
<!-- 7&#45;&gt;1 -->
<g id="edge7" class="edge">
<title>7&#45;&gt;1</title>
<path fill="none" stroke="Red" d="M2530.32,-82.32C2438.19,-71.1 2267.55,-53.08 2121.35,-53.08 511.5,-53.08 511.5,-53.08 511.5,-53.08 434.19,-53.08 396.06,-36.06 341.75,-91.08 308.41,-124.86 290.88,-256.86 283.27,-334.39"/>
<polygon fill="Red" stroke="Red" points="279.83,-333.62 282.36,-343.9 286.8,-334.28 279.83,-333.62"/>
<text text-anchor="middle" x="1422.84" y="-55.53" font-family="Times New Roman,serif" font-size="14.00">6 EVENT_READ</text>
</g>
<!-- 11&#45;&gt;4 -->
<g id="edge11" class="edge">
<title>11&#45;&gt;4</title>
<path fill="none" stroke="Blue" d="M555.96,-458.5C561.88,-460.26 567.93,-461.86 573.75,-463.08 720.4,-494 759.97,-484.19 909.44,-495.08 1245.22,-519.56 1329.75,-516.14 1665.98,-533.33 1827.1,-541.57 1867.75,-538.22 2028.48,-552.08 2036.03,-552.74 2043.93,-553.53 2051.77,-554.38"/>
<polygon fill="Blue" stroke="Blue" points="2051.35,-557.86 2061.68,-555.5 2052.14,-550.9 2051.35,-557.86"/>
<text text-anchor="middle" x="1422.84" y="-535.53" font-family="Times New Roman,serif" font-size="14.00">10 EVENT_OPEN</text>
</g>
<!-- 13 -->
<g id="node7" class="node">
<title>13</title>
<polygon fill="none" stroke="black" points="995.94,-486.33 909.44,-486.33 909.44,-399.83 995.94,-399.83 995.94,-486.33"/>
<text text-anchor="middle" x="952.69" y="-437.66" font-family="Times New Roman,serif" font-size="14.00">13747firefox</text>
</g>
<!-- 11&#45;&gt;13 -->
<g id="edge12" class="edge">
<title>11&#45;&gt;13</title>
<path fill="none" stroke="Blue" d="M555.91,-443.08C636.08,-443.08 809.69,-443.08 897.91,-443.08"/>
<polygon fill="Blue" stroke="Blue" points="897.74,-446.58 907.74,-443.08 897.74,-439.58 897.74,-446.58"/>
<text text-anchor="middle" x="732.6" y="-445.53" font-family="Times New Roman,serif" font-size="14.00">11 EVENT_CLONE</text>
</g>
<!-- 14 -->
<g id="node8" class="node">
<title>14</title>
<polygon fill="none" stroke="black" points="1665.98,-483.08 1279.19,-483.08 1179.69,-447.08 1566.48,-447.08 1665.98,-483.08"/>
<text text-anchor="middle" x="1422.84" y="-459.66" font-family="Times New Roman,serif" font-size="14.00">128.55.12.110&#45;38467&#45;&gt;141.43.176.203&#45;80</text>
</g>
<!-- 13&#45;&gt;14 -->
<g id="edge13" class="edge">
<title>13&#45;&gt;14</title>
<path fill="none" stroke="Black" d="M996.13,-417.54C1001.95,-415 1007.98,-412.81 1013.94,-411.33 1077.69,-395.57 1103.73,-380.47 1161.69,-411.33 1174.34,-418.07 1167.44,-430.66 1179.69,-438.08 1181.63,-439.25 1183.59,-440.39 1185.57,-441.49"/>
<polygon fill="Black" stroke="Black" points="1183.81,-444.52 1194.31,-445.99 1187.02,-438.3 1183.81,-444.52"/>
<text text-anchor="middle" x="1087.82" y="-413.53" font-family="Times New Roman,serif" font-size="14.00">12 EVENT_CONNECT</text>
</g>
<!-- 13&#45;&gt;14 -->
<g id="edge14" class="edge">
<title>13&#45;&gt;14</title>
<path fill="none" stroke="Black" d="M996.26,-461.5C1002.11,-463.39 1008.11,-465.01 1013.94,-466.08 1092.27,-480.53 1180.51,-482.08 1254.83,-479.29"/>
<polygon fill="Black" stroke="Black" points="1254.8,-482.8 1264.65,-478.89 1254.52,-475.8 1254.8,-482.8"/>
<text text-anchor="middle" x="1087.82" y="-481.53" font-family="Times New Roman,serif" font-size="14.00">13 EVENT_SENDTO</text>
</g>
<!-- 17 -->
<g id="node9" class="node">
<title>17</title>
<polygon fill="none" stroke="black" points="1475.09,-429.33 1370.59,-429.33 1370.59,-324.83 1475.09,-324.83 1475.09,-429.33"/>
<text text-anchor="middle" x="1422.84" y="-371.66" font-family="Times New Roman,serif" font-size="14.00">13748pass_mgr</text>
</g>
<!-- 13&#45;&gt;17 -->
<g id="edge16" class="edge">
<title>13&#45;&gt;17</title>
<path fill="none" stroke="yellow" d="M981.25,-399.6C990.27,-389.04 1001.29,-379.13 1013.94,-373.33 1126.76,-321.71 1276.2,-342.5 1359.3,-360.77"/>
<polygon fill="yellow" stroke="yellow" points="1358.32,-364.14 1368.85,-362.93 1359.87,-357.31 1358.32,-364.14"/>
<text text-anchor="middle" x="1087.82" y="-375.53" font-family="Times New Roman,serif" font-size="14.00">15 EVENT_CLONE</text>
</g>
<!-- 14&#45;&gt;13 -->
<g id="edge15" class="edge">
<title>14&#45;&gt;13</title>
<path fill="none" stroke="Black" d="M1178.5,-447.12C1172.84,-446.84 1167.24,-446.58 1161.69,-446.33 1109.42,-444.04 1049.7,-443.3 1007.69,-443.09"/>
<polygon fill="Black" stroke="Black" points="1007.87,-439.6 997.85,-443.05 1007.84,-446.6 1007.87,-439.6"/>
<text text-anchor="middle" x="1087.82" y="-448.53" font-family="Times New Roman,serif" font-size="14.00">14 EVENT_RECVFROM</text>
</g>
<!-- 17&#45;&gt;18 -->
<g id="edge17" class="edge">
<title>17&#45;&gt;18</title>
<path fill="none" stroke="yellow" d="M1475.44,-375.41C1559.32,-372.69 1724.11,-367.34 1806.26,-364.67"/>
<polygon fill="yellow" stroke="yellow" points="1806.36,-368.17 1816.24,-364.35 1806.14,-361.18 1806.36,-368.17"/>
<text text-anchor="middle" x="1742.1" y="-370.53" font-family="Times New Roman,serif" font-size="14.00">16 EVENT_CLONE</text>
</g>
<!-- 18&#45;&gt;2 -->
<g id="edge18" class="edge">
<title>18&#45;&gt;2</title>
<path fill="none" stroke="yellow" d="M1838.54,-324.68C1829.59,-308.92 1816.92,-292.26 1800.23,-283.08 1719.91,-238.91 1264.32,-241.23 1013.94,-259.33 952.23,-263.8 883.47,-273.71 829.49,-282.65"/>
<polygon fill="yellow" stroke="yellow" points="828.99,-279.18 819.7,-284.29 830.14,-286.09 828.99,-279.18"/>
<text text-anchor="middle" x="1087.82" y="-262.53" font-family="Times New Roman,serif" font-size="14.00">17 EVENT_OPEN</text>
</g>
<!-- 18&#45;&gt;4 -->
<g id="edge23" class="edge">
<title>18&#45;&gt;4</title>
<path fill="none" stroke="green" d="M1864.72,-401.32C1872.12,-428.75 1886.24,-464.39 1912.23,-485.08 1953.45,-517.9 1979.35,-489.29 2028.48,-508.33 2049.01,-516.29 2070.18,-528.76 2086.92,-539.78"/>
<polygon fill="green" stroke="green" points="2084.72,-542.52 2094.97,-545.22 2088.64,-536.72 2084.72,-542.52"/>
<text text-anchor="middle" x="1970.35" y="-510.53" font-family="Times New Roman,serif" font-size="14.00">22 EVENT_OPEN</text>
</g>
<!-- 21 -->
<g id="node11" class="node">
<title>21</title>
<polygon fill="none" stroke="black" points="2841.76,-376.08 2454.98,-376.08 2355.48,-340.08 2742.26,-340.08 2841.76,-376.08"/>
<text text-anchor="middle" x="2598.62" y="-352.66" font-family="Times New Roman,serif" font-size="14.00">128.55.12.110&#45;49721&#45;&gt;146.153.68.151&#45;80</text>
</g>
<!-- 18&#45;&gt;21 -->
<g id="edge20" class="edge">
<title>18&#45;&gt;21</title>
<path fill="none" stroke="yellow" d="M1885.82,-401.53C1893.5,-409.3 1902.43,-416.48 1912.23,-421.08 1997.75,-461.29 2243.97,-437.75 2337.48,-424.08 2403.33,-414.46 2476.69,-395.02 2528.67,-379.73"/>
<polygon fill="yellow" stroke="yellow" points="2529.39,-383.17 2537.98,-376.96 2527.4,-376.46 2529.39,-383.17"/>
<text text-anchor="middle" x="2120.35" y="-445.53" font-family="Times New Roman,serif" font-size="14.00">19 EVENT_CONNECT</text>
</g>
<!-- 18&#45;&gt;21 -->
<g id="edge21" class="edge">
<title>18&#45;&gt;21</title>
<path fill="none" stroke="yellow" d="M1894.72,-369.82C1900.57,-370.7 1906.55,-371.49 1912.23,-372.08 1971.64,-378.25 1986.77,-376.75 2046.48,-378.08 2172.44,-380.9 2314.54,-375.53 2422.9,-369.66"/>
<polygon fill="yellow" stroke="yellow" points="2422.97,-373.16 2432.76,-369.11 2422.58,-366.17 2422.97,-373.16"/>
<text text-anchor="middle" x="2120.35" y="-380.53" font-family="Times New Roman,serif" font-size="14.00">20 EVENT_SENDTO</text>
</g>
<!-- 26 -->
<g id="node12" class="node">
<title>26</title>
<polygon fill="none" stroke="black" points="2166.6,-211.33 2074.1,-211.33 2074.1,-118.83 2166.6,-118.83 2166.6,-211.33"/>
<text text-anchor="middle" x="2120.35" y="-159.66" font-family="Times New Roman,serif" font-size="14.00">13811gtcache</text>
</g>
<!-- 18&#45;&gt;26 -->
<g id="edge25" class="edge">
<title>18&#45;&gt;26</title>
<path fill="none" stroke="green" d="M1874.69,-324.9C1883.99,-307.59 1896.74,-287.8 1912.23,-273.33 1956.06,-232.4 2018.33,-202.64 2063.13,-184.81"/>
<polygon fill="green" stroke="green" points="2064.37,-188.08 2072.42,-181.19 2061.83,-181.56 2064.37,-188.08"/>
<text text-anchor="middle" x="1970.35" y="-276.53" font-family="Times New Roman,serif" font-size="14.00">24 EVENT_CLONE</text>
</g>
<!-- 31 -->
<g id="node14" class="node">
<title>31</title>
<polygon fill="none" stroke="black" points="2166.6,-322.33 2074.1,-322.33 2074.1,-229.83 2166.6,-229.83 2166.6,-322.33"/>
<text text-anchor="middle" x="2120.35" y="-270.66" font-family="Times New Roman,serif" font-size="14.00">13907gtcache</text>
</g>
<!-- 18&#45;&gt;31 -->
<g id="edge30" class="edge">
<title>18&#45;&gt;31</title>
<path fill="none" stroke="gray" d="M1894.54,-337.34C1900.3,-334 1906.31,-330.87 1912.23,-328.33 1961.09,-307.37 2020.18,-293.5 2062.72,-285.35"/>
<polygon fill="gray" stroke="gray" points="2063.3,-288.81 2072.49,-283.53 2062.02,-281.92 2063.3,-288.81"/>
<text text-anchor="middle" x="1970.35" y="-330.53" font-family="Times New Roman,serif" font-size="14.00">29 EVENT_CLONE</text>
</g>
<!-- 21&#45;&gt;18 -->
<g id="edge22" class="edge">
<title>21&#45;&gt;18</title>
<path fill="none" stroke="yellow" d="M2400.88,-357C2295.72,-356.71 2164.04,-356.83 2046.48,-358.33 1998.68,-358.94 1944.1,-360.39 1905.88,-361.53"/>
<polygon fill="yellow" stroke="yellow" points="1905.97,-358.03 1896.08,-361.83 1906.18,-365.03 1905.97,-358.03"/>
<text text-anchor="middle" x="2120.35" y="-360.53" font-family="Times New Roman,serif" font-size="14.00">21 EVENT_RECVFROM</text>
</g>
<!-- 26&#45;&gt;7 -->
<g id="edge26" class="edge">
<title>26&#45;&gt;7</title>
<path fill="none" stroke="orange" d="M2167.02,-141.67C2181.18,-135.36 2197.05,-129.22 2212.23,-125.33 2311.93,-99.82 2430.34,-92.58 2509.35,-90.88"/>
<polygon fill="orange" stroke="orange" points="2509.27,-94.38 2519.2,-90.69 2509.13,-87.38 2509.27,-94.38"/>
<text text-anchor="middle" x="2274.85" y="-128.53" font-family="Times New Roman,serif" font-size="14.00">25 EVENT_OPEN</text>
</g>
<!-- 26&#45;&gt;7 -->
<g id="edge27" class="edge">
<title>26&#45;&gt;7</title>
<path fill="none" stroke="orange" d="M2167.03,-161.07C2210.87,-156.97 2278.88,-149.96 2337.48,-141.08 2402.93,-131.18 2477.02,-116.6 2529.34,-105.74"/>
<polygon fill="orange" stroke="orange" points="2529.94,-109.19 2539.02,-103.72 2528.51,-102.34 2529.94,-109.19"/>
<text text-anchor="middle" x="2274.85" y="-159.53" font-family="Times New Roman,serif" font-size="14.00">26 EVENT_WRITE</text>
</g>
<!-- 26&#45;&gt;21 -->
<g id="edge29" class="edge">
<title>26&#45;&gt;21</title>
<path fill="none" stroke="orange" d="M2167.09,-189.53C2181.39,-196.81 2197.32,-204.58 2212.23,-211.08 2266.62,-234.8 2295.66,-215.24 2337.48,-257.33 2354.05,-274.01 2337.73,-291.66 2355.48,-307.08 2368.97,-318.81 2384.47,-328.08 2400.98,-335.37"/>
<polygon fill="orange" stroke="orange" points="2399.4,-338.5 2409.98,-339.08 2402.07,-332.03 2399.4,-338.5"/>
<text text-anchor="middle" x="2274.85" y="-260.53" font-family="Times New Roman,serif" font-size="14.00">28 EVENT_SENDTO</text>
</g>
<!-- 29 -->
<g id="node13" class="node">
<title>29</title>
<ellipse fill="none" stroke="black" cx="2598.62" cy="-202.08" rx="61.04" ry="18"/>
<text text-anchor="middle" x="2598.62" y="-196.66" font-family="Times New Roman,serif" font-size="14.00">/var/log/wdev</text>
</g>
<!-- 26&#45;&gt;29 -->
<g id="edge28" class="edge">
<title>26&#45;&gt;29</title>
<path fill="none" stroke="orange" d="M2166.99,-173.59C2181.41,-176.02 2197.45,-178.45 2212.23,-180.08 2321.43,-192.18 2448.81,-197.8 2526.31,-200.29"/>
<polygon fill="orange" stroke="orange" points="2525.76,-203.77 2535.86,-200.58 2525.98,-196.77 2525.76,-203.77"/>
<text text-anchor="middle" x="2274.85" y="-193.53" font-family="Times New Roman,serif" font-size="14.00">27 EVENT_OPEN</text>
</g>
<!-- 31&#45;&gt;21 -->
<g id="edge32" class="edge">
<title>31&#45;&gt;21</title>
<path fill="none" stroke="gray" d="M2166.95,-287.91C2181.38,-291.44 2197.42,-295.14 2212.23,-298.08 2290.09,-313.54 2377.46,-327.42 2449.3,-337.93"/>
<polygon fill="gray" stroke="gray" points="2448.79,-341.4 2459.19,-339.37 2449.8,-334.47 2448.79,-341.4"/>
<text text-anchor="middle" x="2274.85" y="-320.53" font-family="Times New Roman,serif" font-size="14.00">31 EVENT_SENDTO</text>
</g>
<!-- 32 -->
<g id="node15" class="node">
<title>32</title>
<ellipse fill="none" stroke="black" cx="2598.62" cy="-280.08" rx="77.51" ry="18"/>
<text text-anchor="middle" x="2598.62" y="-274.66" font-family="Times New Roman,serif" font-size="14.00">/tmp/memtrace.so</text>
</g>
<!-- 31&#45;&gt;32 -->
<g id="edge31" class="edge">
<title>31&#45;&gt;32</title>
<path fill="none" stroke="gray" d="M2167.02,-276.47C2245.71,-277.13 2408.14,-278.49 2509.47,-279.34"/>
<polygon fill="gray" stroke="gray" points="2509.36,-282.84 2519.39,-279.43 2509.42,-275.84 2509.36,-282.84"/>
<text text-anchor="middle" x="2274.85" y="-280.53" font-family="Times New Roman,serif" font-size="14.00">30 EVENT_WRITE</text>
</g>
<!-- 34&#45;&gt;4 -->
<g id="edge35" class="edge">
<title>34&#45;&gt;4</title>
<path fill="none" stroke="purple" d="M2552.3,-592.56C2500.61,-582.23 2413.4,-566.39 2337.48,-560.33 2281.99,-555.91 2267.89,-559.49 2212.23,-560.33 2206.21,-560.42 2199.97,-560.55 2193.71,-560.7"/>
<polygon fill="purple" stroke="purple" points="2193.87,-557.19 2183.96,-560.94 2194.05,-564.19 2193.87,-557.19"/>
<text text-anchor="middle" x="2274.85" y="-562.53" font-family="Times New Roman,serif" font-size="14.00">34 EVENT_OPEN</text>
</g>
<!-- 37 -->
<g id="node17" class="node">
<title>37</title>
<ellipse fill="none" stroke="black" cx="3308.05" cy="-680.08" rx="303.06" ry="18"/>
<text text-anchor="middle" x="3308.05" y="-674.66" font-family="Times New Roman,serif" font-size="14.00">/home/admin/.thunderbird/pu7u3e84.default/ImapMail/128.55.12.73/Sent&#45;1.msf</text>
</g>
<!-- 34&#45;&gt;37 -->
<g id="edge36" class="edge">
<title>34&#45;&gt;37</title>
<path fill="none" stroke="purple" d="M2645.28,-614.28C2696.92,-627.52 2783.73,-648.1 2859.76,-658.08 2909.68,-664.64 2962.95,-669.29 3014.7,-672.57"/>
<polygon fill="purple" stroke="purple" points="3014.36,-676.05 3024.55,-673.18 3014.79,-669.07 3014.36,-676.05"/>
<text text-anchor="middle" x="2917.14" y="-671.53" font-family="Times New Roman,serif" font-size="14.00">35 EVENT_OPEN</text>
</g>
<!-- 34&#45;&gt;37 -->
<g id="edge38" class="edge">
<title>34&#45;&gt;37</title>
<path fill="none" stroke="purple" d="M2645.26,-606.07C2715.88,-612.34 2855.91,-625.16 2974.51,-638.33 3038.48,-645.44 3109.26,-654.2 3169.02,-661.86"/>
<polygon fill="purple" stroke="purple" points="3168.56,-665.33 3178.93,-663.13 3169.45,-658.39 3168.56,-665.33"/>
<text text-anchor="middle" x="2917.14" y="-640.53" font-family="Times New Roman,serif" font-size="14.00">37 EVENT_WRITE</text>
</g>
<!-- 40 -->
<g id="node18" class="node">
<title>40</title>
<ellipse fill="none" stroke="black" cx="3308.05" cy="-563.08" rx="286.59" ry="18"/>
<text text-anchor="middle" x="3308.05" y="-557.66" font-family="Times New Roman,serif" font-size="14.00">/home/admin/.thunderbird/pu7u3e84.default/ImapMail/128.55.12.73/Sent&#45;1</text>
</g>
<!-- 34&#45;&gt;40 -->
<g id="edge39" class="edge">
<title>34&#45;&gt;40</title>
<path fill="none" stroke="purple" d="M2644.99,-593.51C2696.73,-584.2 2783.98,-569.91 2859.76,-564.33 2912.09,-560.48 2967.96,-558.58 3021.85,-557.86"/>
<polygon fill="purple" stroke="purple" points="3021.84,-561.36 3031.8,-557.74 3021.76,-554.36 3021.84,-561.36"/>
<text text-anchor="middle" x="2917.14" y="-566.53" font-family="Times New Roman,serif" font-size="14.00">38 EVENT_OPEN</text>
</g>
<!-- 34&#45;&gt;40 -->
<g id="edge40" class="edge">
<title>34&#45;&gt;40</title>
<path fill="none" stroke="purple" d="M2645.06,-587.42C2696.5,-571.64 2783.13,-547.59 2859.76,-538.33 2968.98,-525.15 3094.06,-534.09 3184.13,-544.73"/>
<polygon fill="purple" stroke="purple" points="3183.64,-548.2 3193.98,-545.92 3184.48,-541.25 3183.64,-548.2"/>
<text text-anchor="middle" x="2917.14" y="-540.53" font-family="Times New Roman,serif" font-size="14.00">39 EVENT_WRITE</text>
</g>
<!-- 43 -->
<g id="node19" class="node">
<title>43</title>
<ellipse fill="none" stroke="black" cx="3308.05" cy="-485.08" rx="315.53" ry="18"/>
<text text-anchor="middle" x="3308.05" y="-479.66" font-family="Times New Roman,serif" font-size="14.00">/home/admin/.thunderbird/pu7u3e84.default/ImapMail/128.55.12.73/INBOX&#45;1.msf</text>
</g>
<!-- 34&#45;&gt;43 -->
<g id="edge42" class="edge">
<title>34&#45;&gt;43</title>
<path fill="none" stroke="purple" d="M2645.06,-581.89C2696.15,-560.22 2782.13,-526.84 2859.76,-511.33 2904.08,-502.48 2951.31,-496.3 2997.86,-492.02"/>
<polygon fill="purple" stroke="purple" points="2997.88,-495.54 3007.53,-491.17 2997.26,-488.56 2997.88,-495.54"/>
<text text-anchor="middle" x="2917.14" y="-513.53" font-family="Times New Roman,serif" font-size="14.00">41 EVENT_WRITE</text>
</g>
<!-- 37&#45;&gt;34 -->
<g id="edge37" class="edge">
<title>37&#45;&gt;34</title>
<path fill="none" stroke="purple" d="M3161.07,-696.27C3073.21,-702.73 2959.42,-705.31 2859.76,-689.08 2787.14,-677.26 2707.42,-648.02 2655.62,-626.69"/>
<polygon fill="purple" stroke="purple" points="2656.98,-623.46 2646.4,-622.85 2654.29,-629.92 2656.98,-623.46"/>
<text text-anchor="middle" x="2917.14" y="-701.53" font-family="Times New Roman,serif" font-size="14.00">36 EVENT_READ</text>
</g>
<!-- 40&#45;&gt;34 -->
<g id="edge41" class="edge">
<title>40&#45;&gt;34</title>
<path fill="none" stroke="purple" d="M3089.61,-575.07C2939.1,-583.37 2749.72,-593.81 2656.63,-598.94"/>
<polygon fill="purple" stroke="purple" points="2656.52,-595.44 2646.73,-599.49 2656.91,-602.43 2656.52,-595.44"/>
<text text-anchor="middle" x="2917.14" y="-589.53" font-family="Times New Roman,serif" font-size="14.00">40 EVENT_READ</text>
</g>
</g>
</svg>
