<?xml version="1.0" encoding="UTF-8" standalone="no"?>
<!DOCTYPE svg PUBLIC "-//W3C//DTD SVG 1.1//EN"
 "http://www.w3.org/Graphics/SVG/1.1/DTD/svg11.dtd">
<!-- Generated by graphviz version 10.0.1 (20240210.2158)
 -->
<!-- Title: case3_tmp_split Pages: 1 -->
<svg width="2545pt" height="743pt"
 viewBox="0.00 0.00 2544.58 742.75" xmlns="http://www.w3.org/2000/svg" xmlns:xlink="http://www.w3.org/1999/xlink">
<g id="graph0" class="graph" transform="scale(1 1) rotate(0) translate(4 738.75)">
<title>case3_tmp_split</title>
<polygon fill="white" stroke="none" points="-4,4 -4,-738.75 2540.58,-738.75 2540.58,4 -4,4"/>
<!-- 0 -->
<g id="node1" class="node">
<title>0</title>
<polygon fill="none" stroke="black" points="85.75,-481.88 0,-481.88 0,-396.12 85.75,-396.12 85.75,-481.88"/>
<text text-anchor="middle" x="42.88" y="-433.57" font-family="Times New Roman,serif" font-size="14.00">2188fluxbox</text>
</g>
<!-- 1 -->
<g id="node2" class="node">
<title>1</title>
<polygon fill="none" stroke="black" points="317,-481.88 231.25,-481.88 231.25,-396.12 317,-396.12 317,-481.88"/>
<text text-anchor="middle" x="274.12" y="-433.57" font-family="Times New Roman,serif" font-size="14.00">5236fluxbox</text>
</g>
<!-- 0&#45;&gt;1 -->
<g id="edge1" class="edge">
<title>0&#45;&gt;1</title>
<path fill="none" stroke="Red" d="M86.19,-439C123.83,-439 179.06,-439 219.73,-439"/>
<polygon fill="Red" stroke="Red" points="219.54,-442.5 229.54,-439 219.54,-435.5 219.54,-442.5"/>
<text text-anchor="middle" x="158.5" y="-441.45" font-family="Times New Roman,serif" font-size="14.00">0 EVENT_CLONE</text>
</g>
<!-- 2 -->
<g id="node3" class="node">
<title>2</title>
<ellipse fill="none" stroke="black" cx="801.25" cy="-673" rx="315.53" ry="18"/>
<text text-anchor="middle" x="801.25" y="-667.58" font-family="Times New Roman,serif" font-size="14.00">/home/admin/.thunderbird/pu7u3e84.default/ImapMail/128.55.12.73/INBOX&#45;1.msf</text>
</g>
<!-- 1&#45;&gt;2 -->
<g id="edge2" class="edge">
<title>1&#45;&gt;2</title>
<path fill="none" stroke="Red" d="M280.04,-482.37C287.9,-542.94 305.49,-648.04 335,-671 451.93,-761.99 640.16,-723.61 737.48,-694.54"/>
<polygon fill="Red" stroke="Red" points="738.32,-697.94 746.86,-691.67 736.28,-691.25 738.32,-697.94"/>
<text text-anchor="middle" x="393.12" y="-721.45" font-family="Times New Roman,serif" font-size="14.00">1 EVENT_OPEN</text>
</g>
<!-- 4 -->
<g id="node4" class="node">
<title>4</title>
<ellipse fill="none" stroke="black" cx="801.25" cy="-595" rx="332" ry="18"/>
<text text-anchor="middle" x="801.25" y="-589.58" font-family="Times New Roman,serif" font-size="14.00">/home/admin/.thunderbird/pu7u3e84.default/ImapMail/128.55.12.73/msgFilterRules.dat</text>
</g>
<!-- 1&#45;&gt;4 -->
<g id="edge4" class="edge">
<title>1&#45;&gt;4</title>
<path fill="none" stroke="Red" d="M278.95,-482.37C284.7,-518.64 299.07,-568.3 335,-593 352.49,-605.02 434.06,-607.51 524.14,-606.26"/>
<polygon fill="Red" stroke="Red" points="523.99,-609.77 533.93,-606.11 523.88,-602.77 523.99,-609.77"/>
<text text-anchor="middle" x="393.12" y="-608.45" font-family="Times New Roman,serif" font-size="14.00">3 EVENT_OPEN</text>
</g>
<!-- 6 -->
<g id="node5" class="node">
<title>6</title>
<ellipse fill="none" stroke="black" cx="801.25" cy="-498" rx="299.06" ry="18"/>
<text text-anchor="middle" x="801.25" y="-492.57" font-family="Times New Roman,serif" font-size="14.00">/home/admin/.thunderbird/pu7u3e84.default/ImapMail/128.55.12.73/INBOX&#45;1</text>
</g>
<!-- 1&#45;&gt;6 -->
<g id="edge6" class="edge">
<title>1&#45;&gt;6</title>
<path fill="none" stroke="Blue" d="M298.76,-482.3C308.19,-495.25 320.34,-507.89 335,-515 391.84,-542.58 552.76,-530.14 669.44,-516.27"/>
<polygon fill="Blue" stroke="Blue" points="669.58,-519.77 679.09,-515.1 668.74,-512.82 669.58,-519.77"/>
<text text-anchor="middle" x="393.12" y="-533.45" font-family="Times New Roman,serif" font-size="14.00">5 EVENT_OPEN</text>
</g>
<!-- 1&#45;&gt;6 -->
<g id="edge7" class="edge">
<title>1&#45;&gt;6</title>
<path fill="none" stroke="Blue" d="M317.37,-468.63C323.09,-471.58 329.05,-474.16 335,-476 366.97,-485.9 426.89,-491.7 493.36,-495.01"/>
<polygon fill="Blue" stroke="Blue" points="492.85,-498.49 503.01,-495.47 493.19,-491.5 492.85,-498.49"/>
<text text-anchor="middle" x="393.12" y="-493.45" font-family="Times New Roman,serif" font-size="14.00">6 EVENT_WRITE</text>
</g>
<!-- 9 -->
<g id="node6" class="node">
<title>9</title>
<ellipse fill="none" stroke="black" cx="801.25" cy="-402" rx="303.06" ry="18"/>
<text text-anchor="middle" x="801.25" y="-396.57" font-family="Times New Roman,serif" font-size="14.00">/home/admin/.thunderbird/pu7u3e84.default/ImapMail/128.55.12.73/Sent&#45;1.msf</text>
</g>
<!-- 1&#45;&gt;9 -->
<g id="edge9" class="edge">
<title>1&#45;&gt;9</title>
<path fill="none" stroke="Blue" d="M317.34,-425.08C323.22,-423.56 329.22,-422.21 335,-421.25 384.13,-413.08 436.55,-407.73 487.84,-404.31"/>
<polygon fill="Blue" stroke="Blue" points="487.85,-407.82 497.6,-403.69 487.4,-400.83 487.85,-407.82"/>
<text text-anchor="middle" x="393.12" y="-423.45" font-family="Times New Roman,serif" font-size="14.00">8 EVENT_OPEN</text>
</g>
<!-- 11 -->
<g id="node7" class="node">
<title>11</title>
<ellipse fill="none" stroke="black" cx="801.25" cy="-330" rx="286.59" ry="18"/>
<text text-anchor="middle" x="801.25" y="-324.57" font-family="Times New Roman,serif" font-size="14.00">/home/admin/.thunderbird/pu7u3e84.default/ImapMail/128.55.12.73/Sent&#45;1</text>
</g>
<!-- 1&#45;&gt;11 -->
<g id="edge11" class="edge">
<title>1&#45;&gt;11</title>
<path fill="none" stroke="Blue" d="M290.58,-395.84C300.13,-375.87 314.53,-354.01 335,-342.25 352.19,-332.38 424.54,-328.27 507.25,-326.96"/>
<polygon fill="Blue" stroke="Blue" points="507.25,-330.47 517.2,-326.82 507.15,-323.47 507.25,-330.47"/>
<text text-anchor="middle" x="393.12" y="-344.45" font-family="Times New Roman,serif" font-size="14.00">10 EVENT_OPEN</text>
</g>
<!-- 13 -->
<g id="node8" class="node">
<title>13</title>
<ellipse fill="none" stroke="black" cx="801.25" cy="-264" rx="319.52" ry="18"/>
<text text-anchor="middle" x="801.25" y="-258.57" font-family="Times New Roman,serif" font-size="14.00">/home/admin/.thunderbird/pu7u3e84.default/ImapMail/128.55.12.73/Archives&#45;1.msf</text>
</g>
<!-- 1&#45;&gt;13 -->
<g id="edge13" class="edge">
<title>1&#45;&gt;13</title>
<path fill="none" stroke="Blue" d="M278.42,-395.79C283.8,-358.25 297.94,-305.84 335,-279.25 376.57,-249.41 490.86,-245.37 595.75,-248.89"/>
<polygon fill="Blue" stroke="Blue" points="595.54,-252.39 605.67,-249.25 595.8,-245.39 595.54,-252.39"/>
<text text-anchor="middle" x="393.12" y="-281.45" font-family="Times New Roman,serif" font-size="14.00">12 EVENT_OPEN</text>
</g>
<!-- 15 -->
<g id="node9" class="node">
<title>15</title>
<polygon fill="none" stroke="black" points="855,-227.75 747.5,-227.75 747.5,-120.25 855,-120.25 855,-227.75"/>
<text text-anchor="middle" x="801.25" y="-168.57" font-family="Times New Roman,serif" font-size="14.00">5294thunderbird</text>
</g>
<!-- 1&#45;&gt;15 -->
<g id="edge15" class="edge">
<title>1&#45;&gt;15</title>
<path fill="none" stroke="Black" d="M279.53,-395.8C286.95,-332.55 304.23,-219.5 335,-194.25 449.34,-100.42 637.87,-130.36 736.15,-155.08"/>
<polygon fill="Black" stroke="Black" points="735.08,-158.42 745.64,-157.53 736.83,-151.65 735.08,-158.42"/>
<text text-anchor="middle" x="393.12" y="-196.45" font-family="Times New Roman,serif" font-size="14.00">14 EVENT_CLONE</text>
</g>
<!-- 2&#45;&gt;1 -->
<g id="edge3" class="edge">
<title>2&#45;&gt;1</title>
<path fill="none" stroke="Red" d="M566.77,-660.64C460.59,-652.97 354.22,-641.57 335,-626 295.69,-594.16 281.84,-536.4 277.13,-493.47"/>
<polygon fill="Red" stroke="Red" points="280.62,-493.2 276.2,-483.57 273.65,-493.85 280.62,-493.2"/>
<text text-anchor="middle" x="393.12" y="-651.45" font-family="Times New Roman,serif" font-size="14.00">2 EVENT_READ</text>
</g>
<!-- 4&#45;&gt;1 -->
<g id="edge5" class="edge">
<title>4&#45;&gt;1</title>
<path fill="none" stroke="Red" d="M561.05,-582.22C457.47,-574.86 355.14,-564.4 335,-551 314.49,-537.36 300.48,-514.29 291.2,-492.62"/>
<polygon fill="Red" stroke="Red" points="294.54,-491.54 287.58,-483.55 288.04,-494.14 294.54,-491.54"/>
<text text-anchor="middle" x="393.12" y="-573.45" font-family="Times New Roman,serif" font-size="14.00">4 EVENT_READ</text>
</g>
<!-- 6&#45;&gt;1 -->
<g id="edge8" class="edge">
<title>6&#45;&gt;1</title>
<path fill="none" stroke="Blue" d="M667.75,-481.47C602.58,-473.51 522.83,-464.04 451.25,-456.25 410.09,-451.77 363.45,-447.23 328.52,-443.93"/>
<polygon fill="Blue" stroke="Blue" points="328.93,-440.45 318.65,-443 328.28,-447.42 328.93,-440.45"/>
<text text-anchor="middle" x="393.12" y="-458.45" font-family="Times New Roman,serif" font-size="14.00">7 EVENT_READ</text>
</g>
<!-- 9&#45;&gt;1 -->
<g id="edge10" class="edge">
<title>9&#45;&gt;1</title>
<path fill="none" stroke="Blue" d="M731.39,-384.04C638.21,-363.21 468.29,-337.63 335,-387.25 332.3,-388.26 329.63,-389.45 327.02,-390.78"/>
<polygon fill="Blue" stroke="Blue" points="325.35,-387.7 318.54,-395.81 328.92,-393.72 325.35,-387.7"/>
<text text-anchor="middle" x="393.12" y="-389.45" font-family="Times New Roman,serif" font-size="14.00">9 EVENT_READ</text>
</g>
<!-- 11&#45;&gt;1 -->
<g id="edge12" class="edge">
<title>11&#45;&gt;1</title>
<path fill="none" stroke="Blue" d="M649.39,-314.33C523.71,-302.68 361.16,-291.46 335,-308.25 308.66,-325.16 293.76,-356.86 285.41,-384.81"/>
<polygon fill="Blue" stroke="Blue" points="282.1,-383.67 282.82,-394.24 288.85,-385.53 282.1,-383.67"/>
<text text-anchor="middle" x="393.12" y="-310.45" font-family="Times New Roman,serif" font-size="14.00">11 EVENT_READ</text>
</g>
<!-- 13&#45;&gt;1 -->
<g id="edge14" class="edge">
<title>13&#45;&gt;1</title>
<path fill="none" stroke="Blue" d="M557.74,-252.03C527.75,-248.26 497.66,-243.36 469.25,-237 460.91,-235.13 459.66,-231.77 451.25,-230.25 400.41,-221.03 376.26,-199.16 335,-230.25 310.28,-248.88 292.64,-329.48 283.17,-384.9"/>
<polygon fill="Blue" stroke="Blue" points="279.76,-384.03 281.57,-394.47 286.67,-385.18 279.76,-384.03"/>
<text text-anchor="middle" x="393.12" y="-232.45" font-family="Times New Roman,serif" font-size="14.00">13 EVENT_READ</text>
</g>
<!-- 16 -->
<g id="node10" class="node">
<title>16</title>
<polygon fill="none" stroke="black" points="1393,-227.75 1285.5,-227.75 1285.5,-120.25 1393,-120.25 1393,-227.75"/>
<text text-anchor="middle" x="1339.25" y="-168.57" font-family="Times New Roman,serif" font-size="14.00">5295thunderbird</text>
</g>
<!-- 15&#45;&gt;16 -->
<g id="edge16" class="edge">
<title>15&#45;&gt;16</title>
<path fill="none" stroke="Black" d="M855.11,-174C954.11,-174 1167.11,-174 1274.12,-174"/>
<polygon fill="Black" stroke="Black" points="1273.87,-177.5 1283.87,-174 1273.87,-170.5 1273.87,-177.5"/>
<text text-anchor="middle" x="1209.37" y="-176.45" font-family="Times New Roman,serif" font-size="14.00">15 EVENT_CLONE</text>
</g>
<!-- 17 -->
<g id="node11" class="node">
<title>17</title>
<ellipse fill="none" stroke="black" cx="1719.06" cy="-212" rx="173.82" ry="18"/>
<text text-anchor="middle" x="1719.06" y="-206.57" font-family="Times New Roman,serif" font-size="14.00">/home/admin/Downloads/firefox/libplds4.so</text>
</g>
<!-- 16&#45;&gt;17 -->
<g id="edge17" class="edge">
<title>16&#45;&gt;17</title>
<path fill="none" stroke="Black" d="M1393.37,-187.77C1399.29,-189.01 1405.25,-190.12 1411,-191 1453.63,-197.53 1499.91,-202.03 1543.3,-205.14"/>
<polygon fill="Black" stroke="Black" points="1542.83,-208.61 1553.05,-205.81 1543.31,-201.63 1542.83,-208.61"/>
<text text-anchor="middle" x="1469.12" y="-205.45" font-family="Times New Roman,serif" font-size="14.00">16 EVENT_OPEN</text>
</g>
<!-- 19 -->
<g id="node12" class="node">
<title>19</title>
<polygon fill="none" stroke="black" points="1758.94,-174.88 1679.19,-174.88 1679.19,-95.12 1758.94,-95.12 1758.94,-174.88"/>
<text text-anchor="middle" x="1719.06" y="-129.57" font-family="Times New Roman,serif" font-size="14.00">5306firefox</text>
</g>
<!-- 16&#45;&gt;19 -->
<g id="edge19" class="edge">
<title>16&#45;&gt;19</title>
<path fill="none" stroke="Black" d="M1393.27,-149.28C1399.15,-147.27 1405.14,-145.52 1411,-144.25 1499.62,-124.98 1605.99,-127.23 1667.43,-130.91"/>
<polygon fill="Black" stroke="Black" points="1667.02,-134.39 1677.22,-131.54 1667.46,-127.41 1667.02,-134.39"/>
<text text-anchor="middle" x="1469.12" y="-146.45" font-family="Times New Roman,serif" font-size="14.00">18 EVENT_CLONE</text>
</g>
<!-- 17&#45;&gt;16 -->
<g id="edge18" class="edge">
<title>17&#45;&gt;16</title>
<path fill="none" stroke="Black" d="M1594.82,-199.14C1577.82,-195.32 1560.86,-190.39 1545.25,-184 1536.17,-180.29 1536.59,-174.22 1527.25,-171.25 1478.01,-155.58 1462.65,-170.25 1411,-171.25 1408.83,-171.29 1406.63,-171.34 1404.4,-171.4"/>
<polygon fill="Black" stroke="Black" points="1404.58,-167.89 1394.68,-171.68 1404.78,-174.89 1404.58,-167.89"/>
<text text-anchor="middle" x="1469.12" y="-173.45" font-family="Times New Roman,serif" font-size="14.00">17 EVENT_READ</text>
</g>
<!-- 20 -->
<g id="node13" class="node">
<title>20</title>
<polygon fill="none" stroke="black" points="2536.58,-250 2170.74,-250 2076.63,-214 2442.47,-214 2536.58,-250"/>
<text text-anchor="middle" x="2306.6" y="-226.57" font-family="Times New Roman,serif" font-size="14.00">128.55.12.110&#45;38167&#45;&gt;208.75.117.3&#45;80</text>
</g>
<!-- 19&#45;&gt;20 -->
<g id="edge20" class="edge">
<title>19&#45;&gt;20</title>
<path fill="none" stroke="Orange" d="M1759.12,-136.67C1797.59,-140.31 1855.84,-151.45 1892.88,-185 1908.85,-199.46 1893.07,-217.88 1910.88,-230 2007.65,-295.88 2151.04,-274.72 2235.74,-253.36"/>
<polygon fill="Orange" stroke="Orange" points="2236.52,-256.77 2245.32,-250.87 2234.76,-250 2236.52,-256.77"/>
<text text-anchor="middle" x="1984.76" y="-275.45" font-family="Times New Roman,serif" font-size="14.00">19 EVENT_SENDTO</text>
</g>
<!-- 22 -->
<g id="node14" class="node">
<title>22</title>
<polygon fill="none" stroke="black" points="2536.58,-162 2170.74,-162 2076.63,-126 2442.47,-126 2536.58,-162"/>
<text text-anchor="middle" x="2306.6" y="-138.57" font-family="Times New Roman,serif" font-size="14.00">128.55.12.110&#45;38168&#45;&gt;208.75.117.3&#45;80</text>
</g>
<!-- 19&#45;&gt;22 -->
<g id="edge22" class="edge">
<title>19&#45;&gt;22</title>
<path fill="none" stroke="Orange" d="M1759.1,-139.5C1797.62,-143.7 1858.22,-149.66 1910.88,-152 1983.2,-155.22 2063.04,-154.42 2131.88,-152.37"/>
<polygon fill="Orange" stroke="Orange" points="2131.87,-155.87 2141.76,-152.06 2131.65,-148.87 2131.87,-155.87"/>
<text text-anchor="middle" x="1984.76" y="-156.45" font-family="Times New Roman,serif" font-size="14.00">21 EVENT_SENDTO</text>
</g>
<!-- 24 -->
<g id="node15" class="node">
<title>24</title>
<polygon fill="none" stroke="black" points="2536.58,-104 2170.74,-104 2076.63,-68 2442.47,-68 2536.58,-104"/>
<text text-anchor="middle" x="2306.6" y="-80.58" font-family="Times New Roman,serif" font-size="14.00">128.55.12.110&#45;38169&#45;&gt;208.75.117.3&#45;80</text>
</g>
<!-- 19&#45;&gt;24 -->
<g id="edge24" class="edge">
<title>19&#45;&gt;24</title>
<path fill="none" stroke="Orange" d="M1759.09,-129.45C1797.61,-124.13 1858.2,-116.21 1910.88,-111.25 1983.41,-104.42 2063.62,-98.92 2132.68,-94.81"/>
<polygon fill="Orange" stroke="Orange" points="2132.82,-98.31 2142.6,-94.23 2132.41,-91.32 2132.82,-98.31"/>
<text text-anchor="middle" x="1984.76" y="-113.45" font-family="Times New Roman,serif" font-size="14.00">23 EVENT_SENDTO</text>
</g>
<!-- 26 -->
<g id="node16" class="node">
<title>26</title>
<polygon fill="none" stroke="black" points="2536.58,-36 2170.74,-36 2076.63,0 2442.47,0 2536.58,-36"/>
<text text-anchor="middle" x="2306.6" y="-12.57" font-family="Times New Roman,serif" font-size="14.00">128.55.12.110&#45;50742&#45;&gt;208.75.117.2&#45;80</text>
</g>
<!-- 19&#45;&gt;26 -->
<g id="edge26" class="edge">
<title>19&#45;&gt;26</title>
<path fill="none" stroke="Orange" d="M1759.18,-112.6C1796.77,-92.26 1855.82,-63.35 1910.88,-49.25 1976.04,-32.57 2049.04,-24.07 2114.39,-19.94"/>
<polygon fill="Orange" stroke="Orange" points="2114.36,-23.45 2124.14,-19.36 2113.94,-16.46 2114.36,-23.45"/>
<text text-anchor="middle" x="1984.76" y="-52.45" font-family="Times New Roman,serif" font-size="14.00">25 EVENT_SENDTO</text>
</g>
<!-- 20&#45;&gt;19 -->
<g id="edge21" class="edge">
<title>20&#45;&gt;19</title>
<path fill="none" stroke="Orange" d="M2166.92,-213.55C2091.11,-202.98 1995.65,-188.88 1910.88,-174 1862.99,-165.59 1808.69,-154.33 1770.29,-146.06"/>
<polygon fill="Orange" stroke="Orange" points="1771.4,-142.72 1760.89,-144.03 1769.92,-149.56 1771.4,-142.72"/>
<text text-anchor="middle" x="1984.76" y="-198.45" font-family="Times New Roman,serif" font-size="14.00">20 EVENT_RECVFROM</text>
</g>
<!-- 22&#45;&gt;19 -->
<g id="edge23" class="edge">
<title>22&#45;&gt;19</title>
<path fill="none" stroke="Orange" d="M2094.44,-133.29C2082.33,-132.88 2070.32,-132.53 2058.63,-132.25 1992.98,-130.69 1976.55,-131.78 1910.88,-132.25 1863.29,-132.59 1809.03,-133.42 1770.57,-134.07"/>
<polygon fill="Orange" stroke="Orange" points="1770.62,-130.57 1760.68,-134.25 1770.74,-137.57 1770.62,-130.57"/>
<text text-anchor="middle" x="1984.76" y="-134.45" font-family="Times New Roman,serif" font-size="14.00">22 EVENT_RECVFROM</text>
</g>
<!-- 24&#45;&gt;19 -->
<g id="edge25" class="edge">
<title>24&#45;&gt;19</title>
<path fill="none" stroke="Orange" d="M2080.17,-69.81C2024.61,-69.21 1965.41,-71.45 1910.88,-79.25 1861.91,-86.26 1807.95,-102.9 1769.94,-116.19"/>
<polygon fill="Orange" stroke="Orange" points="1768.85,-112.86 1760.6,-119.5 1771.2,-119.46 1768.85,-112.86"/>
<text text-anchor="middle" x="1984.76" y="-81.45" font-family="Times New Roman,serif" font-size="14.00">24 EVENT_RECVFROM</text>
</g>
</g>
</svg>
