<?xml version="1.0" encoding="UTF-8" standalone="no"?>
<!DOCTYPE svg PUBLIC "-//W3C//DTD SVG 1.1//EN"
 "http://www.w3.org/Graphics/SVG/1.1/DTD/svg11.dtd">
<!-- Generated by graphviz version 2.50.0 (0)
 -->
<!-- Title: case3__1201 Pages: 1 -->
<svg width="2495pt" height="726pt"
 viewBox="0.00 0.00 2495.10 726.00" xmlns="http://www.w3.org/2000/svg" xmlns:xlink="http://www.w3.org/1999/xlink">
<g id="graph0" class="graph" transform="scale(1 1) rotate(0) translate(4 722)">
<title>case3__1201</title>
<polygon fill="white" stroke="transparent" points="-4,4 -4,-722 2491.1,-722 2491.1,4 -4,4"/>
<!-- 0 -->
<g id="node1" class="node">
<title>0</title>
<polygon fill="none" stroke="black" points="86,-474 0,-474 0,-388 86,-388 86,-474"/>
<text text-anchor="middle" x="43" y="-427.3" font-family="Times New Roman,serif" font-size="14.00">2188fluxbox</text>
</g>
<!-- 1 -->
<g id="node2" class="node">
<title>1</title>
<polygon fill="none" stroke="black" points="315,-474 229,-474 229,-388 315,-388 315,-474"/>
<text text-anchor="middle" x="272" y="-427.3" font-family="Times New Roman,serif" font-size="14.00">5236fluxbox</text>
</g>
<!-- 0&#45;&gt;1 -->
<g id="edge1" class="edge">
<title>0&#45;&gt;1</title>
<path fill="none" stroke="Red" d="M86.16,-431C123.55,-431 178.31,-431 218.53,-431"/>
<polygon fill="Red" stroke="Red" points="218.68,-434.5 228.68,-431 218.68,-427.5 218.68,-434.5"/>
<text text-anchor="middle" x="157.5" y="-434.8" font-family="Times New Roman,serif" font-size="14.00">0 EVENT_CLONE</text>
</g>
<!-- 2 -->
<g id="node3" class="node">
<title>2</title>
<ellipse fill="none" stroke="black" cx="789.97" cy="-659" rx="308.95" ry="18"/>
<text text-anchor="middle" x="789.97" y="-655.3" font-family="Times New Roman,serif" font-size="14.00">/home/admin/.thunderbird/pu7u3e84.default/ImapMail/128.55.12.73/INBOX&#45;1.msf</text>
</g>
<!-- 1&#45;&gt;2 -->
<g id="edge2" class="edge">
<title>1&#45;&gt;2</title>
<path fill="none" stroke="Red" d="M278.32,-474.31C286.55,-533.24 304.46,-633.92 333,-656 448.06,-745 632.86,-707.78 728,-679.69"/>
<polygon fill="Red" stroke="Red" points="729.2,-682.98 737.76,-676.74 727.18,-676.28 729.2,-682.98"/>
<text text-anchor="middle" x="390" y="-706.8" font-family="Times New Roman,serif" font-size="14.00">1 EVENT_OPEN</text>
</g>
<!-- 3 -->
<g id="node4" class="node">
<title>3</title>
<ellipse fill="none" stroke="black" cx="789.97" cy="-583" rx="324.94" ry="18"/>
<text text-anchor="middle" x="789.97" y="-579.3" font-family="Times New Roman,serif" font-size="14.00">/home/admin/.thunderbird/pu7u3e84.default/ImapMail/128.55.12.73/msgFilterRules.dat</text>
</g>
<!-- 1&#45;&gt;3 -->
<g id="edge4" class="edge">
<title>1&#45;&gt;3</title>
<path fill="none" stroke="Red" d="M277.49,-474.03C283.66,-509.05 298.3,-556.4 333,-580 349.8,-591.43 426.49,-594.17 512.31,-593.36"/>
<polygon fill="Red" stroke="Red" points="512.59,-596.86 522.55,-593.25 512.51,-589.86 512.59,-596.86"/>
<text text-anchor="middle" x="390" y="-595.8" font-family="Times New Roman,serif" font-size="14.00">3 EVENT_OPEN</text>
</g>
<!-- 4 -->
<g id="node5" class="node">
<title>4</title>
<ellipse fill="none" stroke="black" cx="789.97" cy="-488" rx="292.45" ry="18"/>
<text text-anchor="middle" x="789.97" y="-484.3" font-family="Times New Roman,serif" font-size="14.00">/home/admin/.thunderbird/pu7u3e84.default/ImapMail/128.55.12.73/INBOX&#45;1</text>
</g>
<!-- 1&#45;&gt;4 -->
<g id="edge6" class="edge">
<title>1&#45;&gt;4</title>
<path fill="none" stroke="Red" d="M298.22,-474.17C307.52,-486.07 319.21,-497.48 333,-504 388.7,-530.32 545.07,-518.75 659.19,-505.61"/>
<polygon fill="Red" stroke="Red" points="659.88,-509.06 669.41,-504.42 659.07,-502.1 659.88,-509.06"/>
<text text-anchor="middle" x="390" y="-522.8" font-family="Times New Roman,serif" font-size="14.00">5 EVENT_OPEN</text>
</g>
<!-- 1&#45;&gt;4 -->
<g id="edge7" class="edge">
<title>1&#45;&gt;4</title>
<path fill="none" stroke="Red" d="M315.13,-458.86C320.94,-461.72 326.99,-464.22 333,-466 364.94,-475.47 425.06,-481.09 491.42,-484.37"/>
<polygon fill="Red" stroke="Red" points="491.53,-487.88 501.69,-484.86 491.87,-480.89 491.53,-487.88"/>
<text text-anchor="middle" x="390" y="-484.8" font-family="Times New Roman,serif" font-size="14.00">6 EVENT_WRITE</text>
</g>
<!-- 5 -->
<g id="node6" class="node">
<title>5</title>
<ellipse fill="none" stroke="black" cx="789.97" cy="-396" rx="296.25" ry="18"/>
<text text-anchor="middle" x="789.97" y="-392.3" font-family="Times New Roman,serif" font-size="14.00">/home/admin/.thunderbird/pu7u3e84.default/ImapMail/128.55.12.73/Sent&#45;1.msf</text>
</g>
<!-- 1&#45;&gt;5 -->
<g id="edge9" class="edge">
<title>1&#45;&gt;5</title>
<path fill="none" stroke="Red" d="M315.3,-416.86C321.19,-415.32 327.21,-413.96 333,-413 381.35,-404.98 432.97,-399.84 483.45,-396.67"/>
<polygon fill="Red" stroke="Red" points="483.76,-400.15 493.53,-396.06 483.34,-393.17 483.76,-400.15"/>
<text text-anchor="middle" x="390" y="-416.8" font-family="Times New Roman,serif" font-size="14.00">8 EVENT_OPEN</text>
</g>
<!-- 6 -->
<g id="node7" class="node">
<title>6</title>
<ellipse fill="none" stroke="black" cx="789.97" cy="-325" rx="280.25" ry="18"/>
<text text-anchor="middle" x="789.97" y="-321.3" font-family="Times New Roman,serif" font-size="14.00">/home/admin/.thunderbird/pu7u3e84.default/ImapMail/128.55.12.73/Sent&#45;1</text>
</g>
<!-- 1&#45;&gt;6 -->
<g id="edge11" class="edge">
<title>1&#45;&gt;6</title>
<path fill="none" stroke="Red" d="M289.05,-387.84C298.66,-368.42 312.98,-347.35 333,-336 350.15,-326.28 422.94,-322.45 505.5,-321.41"/>
<polygon fill="Red" stroke="Red" points="505.66,-324.91 515.62,-321.3 505.58,-317.91 505.66,-324.91"/>
<text text-anchor="middle" x="390" y="-339.8" font-family="Times New Roman,serif" font-size="14.00">10 EVENT_OPEN</text>
</g>
<!-- 7 -->
<g id="node8" class="node">
<title>7</title>
<ellipse fill="none" stroke="black" cx="789.97" cy="-260" rx="312.74" ry="18"/>
<text text-anchor="middle" x="789.97" y="-256.3" font-family="Times New Roman,serif" font-size="14.00">/home/admin/.thunderbird/pu7u3e84.default/ImapMail/128.55.12.73/Archives&#45;1.msf</text>
</g>
<!-- 1&#45;&gt;7 -->
<g id="edge13" class="edge">
<title>1&#45;&gt;7</title>
<path fill="none" stroke="Red" d="M276.91,-387.99C282.71,-351.63 297.14,-301.51 333,-276 373.14,-247.45 481.88,-242.86 583.1,-245.69"/>
<polygon fill="Red" stroke="Red" points="583.08,-249.2 593.18,-246 583.29,-242.2 583.08,-249.2"/>
<text text-anchor="middle" x="390" y="-279.8" font-family="Times New Roman,serif" font-size="14.00">12 EVENT_OPEN</text>
</g>
<!-- 8 -->
<g id="node9" class="node">
<title>8</title>
<polygon fill="none" stroke="black" points="843.47,-223.5 736.47,-223.5 736.47,-116.5 843.47,-116.5 843.47,-223.5"/>
<text text-anchor="middle" x="789.97" y="-166.3" font-family="Times New Roman,serif" font-size="14.00">5294thunderbird</text>
</g>
<!-- 1&#45;&gt;8 -->
<g id="edge15" class="edge">
<title>1&#45;&gt;8</title>
<path fill="none" stroke="Red" d="M277.89,-387.85C285.79,-326.62 303.53,-219.24 333,-195 445.07,-102.83 629.95,-129.67 726.26,-152.47"/>
<polygon fill="Red" stroke="Red" points="725.6,-155.91 736.14,-154.87 727.25,-149.1 725.6,-155.91"/>
<text text-anchor="middle" x="390" y="-198.8" font-family="Times New Roman,serif" font-size="14.00">14 EVENT_CLONE</text>
</g>
<!-- 2&#45;&gt;1 -->
<g id="edge3" class="edge">
<title>2&#45;&gt;1</title>
<path fill="none" stroke="Red" d="M568.52,-646.42C461.77,-638.42 352.41,-626.6 333,-611 295.13,-580.56 280.98,-525.45 275.79,-484.19"/>
<polygon fill="Red" stroke="Red" points="279.24,-483.57 274.65,-474.02 272.28,-484.35 279.24,-483.57"/>
<text text-anchor="middle" x="390" y="-637.8" font-family="Times New Roman,serif" font-size="14.00">2 EVENT_READ</text>
</g>
<!-- 3&#45;&gt;1 -->
<g id="edge5" class="edge">
<title>3&#45;&gt;1</title>
<path fill="none" stroke="Red" d="M564.21,-570.02C459.53,-562.3 353.47,-551.39 333,-538 313.45,-525.21 299.63,-503.74 290.23,-483.37"/>
<polygon fill="Red" stroke="Red" points="293.41,-481.9 286.22,-474.12 286.99,-484.69 293.41,-481.9"/>
<text text-anchor="middle" x="390" y="-561.8" font-family="Times New Roman,serif" font-size="14.00">4 EVENT_READ</text>
</g>
<!-- 4&#45;&gt;1 -->
<g id="edge8" class="edge">
<title>4&#45;&gt;1</title>
<path fill="none" stroke="Red" d="M661.18,-471.83C596.96,-463.92 517.91,-454.51 447,-447 406.27,-442.69 360.09,-438.47 325.55,-435.45"/>
<polygon fill="Red" stroke="Red" points="325.49,-431.93 315.22,-434.55 324.88,-438.91 325.49,-431.93"/>
<text text-anchor="middle" x="390" y="-450.8" font-family="Times New Roman,serif" font-size="14.00">7 EVENT_READ</text>
</g>
<!-- 5&#45;&gt;1 -->
<g id="edge10" class="edge">
<title>5&#45;&gt;1</title>
<path fill="none" stroke="Red" d="M722.71,-378.46C631.72,-357.72 464.41,-331.7 333,-380 329.92,-381.13 326.89,-382.5 323.93,-384.05"/>
<polygon fill="Red" stroke="Red" points="322.08,-381.08 315.26,-389.19 325.65,-387.1 322.08,-381.08"/>
<text text-anchor="middle" x="390" y="-383.8" font-family="Times New Roman,serif" font-size="14.00">9 EVENT_READ</text>
</g>
<!-- 6&#45;&gt;1 -->
<g id="edge12" class="edge">
<title>6&#45;&gt;1</title>
<path fill="none" stroke="Red" d="M640.57,-309.77C517.51,-298.52 358.69,-287.72 333,-304 307.22,-320.33 292.31,-351.04 283.8,-378.17"/>
<polygon fill="Red" stroke="Red" points="280.38,-377.39 280.95,-387.97 287.1,-379.35 280.38,-377.39"/>
<text text-anchor="middle" x="390" y="-307.8" font-family="Times New Roman,serif" font-size="14.00">11 EVENT_READ</text>
</g>
<!-- 7&#45;&gt;1 -->
<g id="edge14" class="edge">
<title>7&#45;&gt;1</title>
<path fill="none" stroke="Red" d="M578.92,-246.67C540.9,-243.07 501.69,-238.58 465,-233 456.9,-231.77 455.15,-229.89 447,-229 396.64,-223.47 373.61,-198.7 333,-229 309.04,-246.88 291.21,-324.29 281.46,-377.91"/>
<polygon fill="Red" stroke="Red" points="277.98,-377.5 279.67,-387.96 284.87,-378.73 277.98,-377.5"/>
<text text-anchor="middle" x="390" y="-232.8" font-family="Times New Roman,serif" font-size="14.00">13 EVENT_READ</text>
</g>
<!-- 9 -->
<g id="node10" class="node">
<title>9</title>
<polygon fill="none" stroke="black" points="1371.94,-223.5 1264.94,-223.5 1264.94,-116.5 1371.94,-116.5 1371.94,-223.5"/>
<text text-anchor="middle" x="1318.44" y="-166.3" font-family="Times New Roman,serif" font-size="14.00">5295thunderbird</text>
</g>
<!-- 8&#45;&gt;9 -->
<g id="edge16" class="edge">
<title>8&#45;&gt;9</title>
<path fill="none" stroke="Red" d="M843.86,-170C941.52,-170 1149.71,-170 1254.47,-170"/>
<polygon fill="Red" stroke="Red" points="1254.59,-173.5 1264.59,-170 1254.59,-166.5 1254.59,-173.5"/>
<text text-anchor="middle" x="1189.94" y="-173.8" font-family="Times New Roman,serif" font-size="14.00">15 EVENT_CLONE</text>
</g>
<!-- 10 -->
<g id="node11" class="node">
<title>10</title>
<ellipse fill="none" stroke="black" cx="1689.63" cy="-208" rx="167.87" ry="18"/>
<text text-anchor="middle" x="1689.63" y="-204.3" font-family="Times New Roman,serif" font-size="14.00">/home/admin/Downloads/firefox/libplds4.so</text>
</g>
<!-- 9&#45;&gt;10 -->
<g id="edge17" class="edge">
<title>9&#45;&gt;10</title>
<path fill="none" stroke="Red" d="M1372.02,-182.84C1378.04,-184.04 1384.11,-185.13 1389.94,-186 1433.36,-192.49 1480.62,-197.09 1524.47,-200.34"/>
<polygon fill="Red" stroke="Red" points="1524.43,-203.85 1534.65,-201.08 1524.93,-196.87 1524.43,-203.85"/>
<text text-anchor="middle" x="1446.94" y="-201.8" font-family="Times New Roman,serif" font-size="14.00">16 EVENT_OPEN</text>
</g>
<!-- 11 -->
<g id="node12" class="node">
<title>11</title>
<polygon fill="none" stroke="black" points="1729.63,-172 1649.63,-172 1649.63,-92 1729.63,-92 1729.63,-172"/>
<text text-anchor="middle" x="1689.63" y="-128.3" font-family="Times New Roman,serif" font-size="14.00">5306firefox</text>
</g>
<!-- 9&#45;&gt;11 -->
<g id="edge19" class="edge">
<title>9&#45;&gt;11</title>
<path fill="none" stroke="Red" d="M1372.25,-145.05C1378.12,-143.03 1384.09,-141.27 1389.94,-140 1476.01,-121.25 1579.31,-123.85 1639.12,-127.73"/>
<polygon fill="Red" stroke="Red" points="1639.19,-131.25 1649.41,-128.44 1639.67,-124.26 1639.19,-131.25"/>
<text text-anchor="middle" x="1446.94" y="-143.8" font-family="Times New Roman,serif" font-size="14.00">18 EVENT_CLONE</text>
</g>
<!-- 10&#45;&gt;9 -->
<g id="edge18" class="edge">
<title>10&#45;&gt;9</title>
<path fill="none" stroke="Red" d="M1566.85,-195.59C1551.39,-191.91 1536.05,-187.15 1521.94,-181 1512.65,-176.95 1513.53,-170.29 1503.94,-167 1456.02,-150.56 1440.6,-165.92 1389.94,-167 1387.42,-167.05 1384.86,-167.12 1382.26,-167.19"/>
<polygon fill="Red" stroke="Red" points="1382.06,-163.7 1372.18,-167.51 1382.28,-170.69 1382.06,-163.7"/>
<text text-anchor="middle" x="1446.94" y="-170.8" font-family="Times New Roman,serif" font-size="14.00">17 EVENT_READ</text>
</g>
<!-- 12 -->
<g id="node13" class="node">
<title>12</title>
<polygon fill="none" stroke="black" points="2486.99,-245 2129.41,-245 2037.42,-209 2395.01,-209 2486.99,-245"/>
<text text-anchor="middle" x="2262.21" y="-223.3" font-family="Times New Roman,serif" font-size="14.00">128.55.12.110&#45;38167&#45;&gt;208.75.117.3&#45;80</text>
</g>
<!-- 11&#45;&gt;12 -->
<g id="edge20" class="edge">
<title>11&#45;&gt;12</title>
<path fill="none" stroke="Blue" d="M1729.95,-134.11C1766.98,-138.07 1821.92,-149.31 1857.31,-181 1872.75,-194.82 1858.11,-212.46 1875.31,-224 1970.2,-287.68 2109.95,-267.83 2192.66,-247.5"/>
<polygon fill="Blue" stroke="Blue" points="2193.62,-250.86 2202.46,-245.02 2191.91,-244.08 2193.62,-250.86"/>
<text text-anchor="middle" x="1947.31" y="-269.8" font-family="Times New Roman,serif" font-size="14.00">19 EVENT_SENDTO</text>
</g>
<!-- 13 -->
<g id="node14" class="node">
<title>13</title>
<polygon fill="none" stroke="black" points="2486.99,-159 2129.41,-159 2037.42,-123 2395.01,-123 2486.99,-159"/>
<text text-anchor="middle" x="2262.21" y="-137.3" font-family="Times New Roman,serif" font-size="14.00">128.55.12.110&#45;38168&#45;&gt;208.75.117.3&#45;80</text>
</g>
<!-- 11&#45;&gt;13 -->
<g id="edge22" class="edge">
<title>11&#45;&gt;13</title>
<path fill="none" stroke="Blue" d="M1729.83,-136.39C1767.18,-140.33 1824.99,-145.82 1875.31,-148 1945.99,-151.06 2024.01,-150.4 2091.29,-148.58"/>
<polygon fill="Blue" stroke="Blue" points="2091.67,-152.07 2101.56,-148.29 2091.47,-145.07 2091.67,-152.07"/>
<text text-anchor="middle" x="1947.31" y="-153.8" font-family="Times New Roman,serif" font-size="14.00">21 EVENT_SENDTO</text>
</g>
<!-- 14 -->
<g id="node15" class="node">
<title>14</title>
<polygon fill="none" stroke="black" points="2486.99,-102 2129.41,-102 2037.42,-66 2395.01,-66 2486.99,-102"/>
<text text-anchor="middle" x="2262.21" y="-80.3" font-family="Times New Roman,serif" font-size="14.00">128.55.12.110&#45;38169&#45;&gt;208.75.117.3&#45;80</text>
</g>
<!-- 11&#45;&gt;14 -->
<g id="edge24" class="edge">
<title>11&#45;&gt;14</title>
<path fill="none" stroke="Blue" d="M1729.82,-126.44C1767.16,-121.3 1824.97,-113.76 1875.31,-109 1946.67,-102.25 2025.64,-96.78 2093.44,-92.7"/>
<polygon fill="Blue" stroke="Blue" points="2094.02,-96.17 2103.8,-92.08 2093.6,-89.19 2094.02,-96.17"/>
<text text-anchor="middle" x="1947.31" y="-112.8" font-family="Times New Roman,serif" font-size="14.00">23 EVENT_SENDTO</text>
</g>
<!-- 15 -->
<g id="node16" class="node">
<title>15</title>
<polygon fill="none" stroke="black" points="2486.99,-36 2129.41,-36 2037.42,0 2395.01,0 2486.99,-36"/>
<text text-anchor="middle" x="2262.21" y="-14.3" font-family="Times New Roman,serif" font-size="14.00">128.55.12.110&#45;50742&#45;&gt;208.75.117.2&#45;80</text>
</g>
<!-- 11&#45;&gt;15 -->
<g id="edge26" class="edge">
<title>11&#45;&gt;15</title>
<path fill="none" stroke="Blue" d="M1729.89,-109.57C1766.33,-89.94 1822.71,-62.5 1875.31,-49 1939.73,-32.46 2012.01,-24.08 2076.45,-20.02"/>
<polygon fill="Blue" stroke="Blue" points="2076.94,-23.49 2086.72,-19.4 2076.53,-16.51 2076.94,-23.49"/>
<text text-anchor="middle" x="1947.31" y="-52.8" font-family="Times New Roman,serif" font-size="14.00">25 EVENT_SENDTO</text>
</g>
<!-- 12&#45;&gt;11 -->
<g id="edge21" class="edge">
<title>12&#45;&gt;11</title>
<path fill="none" stroke="Blue" d="M2130.56,-208.97C2055.7,-198.24 1960.06,-183.85 1875.31,-169 1829.24,-160.93 1776.99,-150.32 1739.85,-142.54"/>
<polygon fill="Blue" stroke="Blue" points="1740.3,-139.06 1729.79,-140.42 1738.86,-145.91 1740.3,-139.06"/>
<text text-anchor="middle" x="1947.31" y="-194.8" font-family="Times New Roman,serif" font-size="14.00">20 EVENT_RECVFROM</text>
</g>
<!-- 13&#45;&gt;11 -->
<g id="edge23" class="edge">
<title>13&#45;&gt;11</title>
<path fill="none" stroke="Blue" d="M2055.37,-130.09C2043.17,-129.66 2031.08,-129.29 2019.31,-129 1955.33,-127.41 1939.31,-128.48 1875.31,-129 1829.44,-129.37 1777.17,-130.27 1739.97,-130.98"/>
<polygon fill="Blue" stroke="Blue" points="1739.83,-127.48 1729.9,-131.18 1739.96,-134.48 1739.83,-127.48"/>
<text text-anchor="middle" x="1947.31" y="-132.8" font-family="Times New Roman,serif" font-size="14.00">22 EVENT_RECVFROM</text>
</g>
<!-- 14&#45;&gt;11 -->
<g id="edge25" class="edge">
<title>14&#45;&gt;11</title>
<path fill="none" stroke="Blue" d="M2044.1,-68.66C1988.84,-68.03 1929.7,-70.21 1875.31,-78 1828.11,-84.76 1776.13,-100.77 1739.37,-113.61"/>
<polygon fill="Blue" stroke="Blue" points="1738.15,-110.33 1729.89,-116.97 1740.49,-116.93 1738.15,-110.33"/>
<text text-anchor="middle" x="1947.31" y="-81.8" font-family="Times New Roman,serif" font-size="14.00">24 EVENT_RECVFROM</text>
</g>
</g>
</svg>
