<?xml version="1.0" encoding="UTF-8" standalone="no"?>
<!DOCTYPE svg PUBLIC "-//W3C//DTD SVG 1.1//EN"
 "http://www.w3.org/Graphics/SVG/1.1/DTD/svg11.dtd">
<!-- Generated by graphviz version 2.50.0 (0)
 -->
<!-- Title: case2__1201 Pages: 1 -->
<svg width="3568pt" height="713pt"
 viewBox="0.00 0.00 3568.06 713.13" xmlns="http://www.w3.org/2000/svg" xmlns:xlink="http://www.w3.org/1999/xlink">
<g id="graph0" class="graph" transform="scale(1 1) rotate(0) translate(4 709.13)">
<title>case2__1201</title>
<polygon fill="white" stroke="transparent" points="-4,4 -4,-709.13 3564.06,-709.13 3564.06,4 -4,4"/>
<!-- 0 -->
<g id="node1" class="node">
<title>0</title>
<polygon fill="none" stroke="black" points="86,-601.13 0,-601.13 0,-515.13 86,-515.13 86,-601.13"/>
<text text-anchor="middle" x="43" y="-554.43" font-family="Times New Roman,serif" font-size="14.00">2188fluxbox</text>
</g>
<!-- 1 -->
<g id="node2" class="node">
<title>1</title>
<polygon fill="none" stroke="black" points="321,-431.13 229,-431.13 229,-339.13 321,-339.13 321,-431.13"/>
<text text-anchor="middle" x="275" y="-381.43" font-family="Times New Roman,serif" font-size="14.00">13557fluxbox</text>
</g>
<!-- 0&#45;&gt;1 -->
<g id="edge1" class="edge">
<title>0&#45;&gt;1</title>
<path fill="none" stroke="Red" d="M86.19,-526.4C124.04,-497.93 179.77,-456.01 220.7,-425.22"/>
<polygon fill="Red" stroke="Red" points="223.05,-427.84 228.94,-419.03 218.84,-422.24 223.05,-427.84"/>
<text text-anchor="middle" x="157.5" y="-514.93" font-family="Times New Roman,serif" font-size="14.00">0 EVENT_CLONE</text>
</g>
<!-- 15 -->
<g id="node16" class="node">
<title>15</title>
<polygon fill="none" stroke="black" points="2602.38,-642.13 2510.38,-642.13 2510.38,-550.13 2602.38,-550.13 2602.38,-642.13"/>
<text text-anchor="middle" x="2556.38" y="-592.43" font-family="Times New Roman,serif" font-size="14.00">13835fluxbox</text>
</g>
<!-- 0&#45;&gt;15 -->
<g id="edge33" class="edge">
<title>0&#45;&gt;15</title>
<path fill="none" stroke="Black" d="M86.28,-593.89C130.23,-627.32 202.47,-672.13 274,-672.13 274,-672.13 274,-672.13 2089.14,-672.13 2239.42,-672.13 2413.45,-633.19 2500.22,-611.06"/>
<polygon fill="Black" stroke="Black" points="2501.3,-614.4 2510.11,-608.51 2499.56,-607.62 2501.3,-614.4"/>
<text text-anchor="middle" x="1074.67" y="-675.93" font-family="Times New Roman,serif" font-size="14.00">32 EVENT_CLONE</text>
</g>
<!-- 2 -->
<g id="node3" class="node">
<title>2</title>
<ellipse fill="none" stroke="black" cx="724.34" cy="-296.13" rx="155.17" ry="18"/>
<text text-anchor="middle" x="724.34" y="-292.43" font-family="Times New Roman,serif" font-size="14.00">/lib/x86_64&#45;linux&#45;gnu/libpthread&#45;2.15.so</text>
</g>
<!-- 1&#45;&gt;2 -->
<g id="edge2" class="edge">
<title>1&#45;&gt;2</title>
<path fill="none" stroke="Red" d="M303.97,-338.88C313.52,-327.09 325.31,-315.85 339,-309.13 431.68,-263.65 552.63,-268.37 633.88,-279.24"/>
<polygon fill="Red" stroke="Red" points="633.69,-282.75 644.08,-280.67 634.66,-275.82 633.69,-282.75"/>
<text text-anchor="middle" x="392.5" y="-312.93" font-family="Times New Roman,serif" font-size="14.00">1 EVENT_OPEN</text>
</g>
<!-- 3 -->
<g id="node4" class="node">
<title>3</title>
<ellipse fill="none" stroke="black" cx="2088.14" cy="-558.13" rx="59.59" ry="18"/>
<text text-anchor="middle" x="2088.14" y="-554.43" font-family="Times New Roman,serif" font-size="14.00">/dev/urandom</text>
</g>
<!-- 1&#45;&gt;3 -->
<g id="edge4" class="edge">
<title>1&#45;&gt;3</title>
<path fill="none" stroke="Red" d="M308.47,-431.49C348.57,-482.74 421.94,-558.13 506.5,-558.13 506.5,-558.13 506.5,-558.13 1829.64,-558.13 1893.56,-558.13 1966.39,-558.13 2018.25,-558.13"/>
<polygon fill="Red" stroke="Red" points="2018.34,-561.63 2028.34,-558.13 2018.34,-554.63 2018.34,-561.63"/>
<text text-anchor="middle" x="1074.67" y="-561.93" font-family="Times New Roman,serif" font-size="14.00">3 EVENT_OPEN</text>
</g>
<!-- 1&#45;&gt;3 -->
<g id="edge5" class="edge">
<title>1&#45;&gt;3</title>
<path fill="none" stroke="Red" d="M282.87,-431.17C292.62,-489.9 312.28,-586.69 339,-610.13 395.54,-659.73 431.3,-634.13 506.5,-634.13 506.5,-634.13 506.5,-634.13 1829.64,-634.13 1905.29,-634.13 1926.71,-635.01 1998.14,-610.13 2018.39,-603.08 2039.18,-591.24 2055.57,-580.64"/>
<polygon fill="Red" stroke="Red" points="2057.8,-583.36 2064.19,-574.91 2053.92,-577.53 2057.8,-583.36"/>
<text text-anchor="middle" x="1074.67" y="-637.93" font-family="Times New Roman,serif" font-size="14.00">4 EVENT_OPEN</text>
</g>
<!-- 4 -->
<g id="node5" class="node">
<title>4</title>
<ellipse fill="none" stroke="black" cx="2556.38" cy="-90.13" rx="75.29" ry="18"/>
<text text-anchor="middle" x="2556.38" y="-86.43" font-family="Times New Roman,serif" font-size="14.00">/dev/glx_alsa_675</text>
</g>
<!-- 1&#45;&gt;4 -->
<g id="edge8" class="edge">
<title>1&#45;&gt;4</title>
<path fill="none" stroke="Red" d="M290,-338.88C317.4,-258.88 386.2,-103.13 506.5,-103.13 506.5,-103.13 506.5,-103.13 1075.67,-103.13 1606.69,-103.13 2244.85,-94.66 2470.96,-91.39"/>
<polygon fill="Red" stroke="Red" points="2471.14,-94.89 2481.09,-91.25 2471.04,-87.89 2471.14,-94.89"/>
<text text-anchor="middle" x="1402.91" y="-106.93" font-family="Times New Roman,serif" font-size="14.00">7 EVENT_OPEN</text>
</g>
<!-- 1&#45;&gt;4 -->
<g id="edge9" class="edge">
<title>1&#45;&gt;4</title>
<path fill="none" stroke="Red" d="M278.6,-339.11C284.18,-256.6 300.15,-88.17 339,-46.13 391.32,10.48 429.42,-1.13 506.5,-1.13 506.5,-1.13 506.5,-1.13 2089.14,-1.13 2240.5,-1.13 2414.67,-46.95 2501,-72.83"/>
<polygon fill="Red" stroke="Red" points="2500,-76.19 2510.59,-75.73 2502.03,-69.49 2500,-76.19"/>
<text text-anchor="middle" x="1402.91" y="-4.93" font-family="Times New Roman,serif" font-size="14.00">8 EVENT_WRITE</text>
</g>
<!-- 5 -->
<g id="node6" class="node">
<title>5</title>
<polygon fill="none" stroke="black" points="551,-481.63 464,-481.63 464,-394.63 551,-394.63 551,-481.63"/>
<text text-anchor="middle" x="507.5" y="-434.43" font-family="Times New Roman,serif" font-size="14.00">13626firefox</text>
</g>
<!-- 1&#45;&gt;5 -->
<g id="edge10" class="edge">
<title>1&#45;&gt;5</title>
<path fill="none" stroke="Red" d="M321.26,-395.54C359.34,-404.3 413.81,-416.82 453.83,-426.02"/>
<polygon fill="Red" stroke="Red" points="453.15,-429.46 463.68,-428.29 454.71,-422.63 453.15,-429.46"/>
<text text-anchor="middle" x="392.5" y="-426.93" font-family="Times New Roman,serif" font-size="14.00">9 EVENT_CLONE</text>
</g>
<!-- 2&#45;&gt;1 -->
<g id="edge3" class="edge">
<title>2&#45;&gt;1</title>
<path fill="none" stroke="Red" d="M645.35,-311.65C555.64,-329.5 410.57,-358.36 331.58,-374.07"/>
<polygon fill="Red" stroke="Red" points="330.48,-370.73 321.35,-376.11 331.85,-377.59 330.48,-370.73"/>
<text text-anchor="middle" x="392.5" y="-374.93" font-family="Times New Roman,serif" font-size="14.00">2 EVENT_READ</text>
</g>
<!-- 9 -->
<g id="node10" class="node">
<title>9</title>
<polygon fill="none" stroke="black" points="1866.14,-398.63 1791.14,-398.63 1791.14,-323.63 1866.14,-323.63 1866.14,-398.63"/>
<text text-anchor="middle" x="1828.64" y="-357.43" font-family="Times New Roman,serif" font-size="14.00">13749dash</text>
</g>
<!-- 2&#45;&gt;9 -->
<g id="edge19" class="edge">
<title>2&#45;&gt;9</title>
<path fill="none" stroke="Blue" d="M865.75,-288.64C1046.15,-281.32 1368.55,-276.04 1641.14,-313.13 1689.8,-319.75 1744.01,-334.58 1781.39,-346.01"/>
<polygon fill="Blue" stroke="Blue" points="1780.41,-349.37 1790.99,-348.99 1782.48,-342.68 1780.41,-349.37"/>
<text text-anchor="middle" x="1074.67" y="-288.93" font-family="Times New Roman,serif" font-size="14.00">18 EVENT_READ</text>
</g>
<!-- 3&#45;&gt;1 -->
<g id="edge6" class="edge">
<title>3&#45;&gt;1</title>
<path fill="none" stroke="Red" d="M2040.46,-569.23C1989.1,-580.44 1903.98,-596.13 1829.64,-596.13 506.5,-596.13 506.5,-596.13 506.5,-596.13 424.93,-596.13 397.04,-578.44 339,-521.13 316.82,-499.23 301.6,-468.05 291.69,-441.07"/>
<polygon fill="Red" stroke="Red" points="294.89,-439.62 288.27,-431.34 288.28,-441.94 294.89,-439.62"/>
<text text-anchor="middle" x="1074.67" y="-599.93" font-family="Times New Roman,serif" font-size="14.00">5 EVENT_READ</text>
</g>
<!-- 3&#45;&gt;9 -->
<g id="edge24" class="edge">
<title>3&#45;&gt;9</title>
<path fill="none" stroke="Blue" d="M2071.79,-540.37C2048.84,-514 2007.3,-467.07 1998.14,-462.13 1952.92,-437.77 1927.26,-471.05 1884.14,-443.13 1870.61,-434.37 1859.65,-420.93 1851.2,-407.45"/>
<polygon fill="Blue" stroke="Blue" points="1854.1,-405.48 1846.01,-398.63 1848.07,-409.03 1854.1,-405.48"/>
<text text-anchor="middle" x="1941.14" y="-465.93" font-family="Times New Roman,serif" font-size="14.00">23 EVENT_READ</text>
</g>
<!-- 3&#45;&gt;15 -->
<g id="edge34" class="edge">
<title>3&#45;&gt;15</title>
<path fill="none" stroke="Black" d="M2138.41,-568.08C2151.3,-570.38 2165.2,-572.6 2178.14,-574.13 2291.93,-587.63 2426.05,-592.95 2499.79,-594.97"/>
<polygon fill="Black" stroke="Black" points="2500.13,-598.48 2510.22,-595.24 2500.32,-591.48 2500.13,-598.48"/>
<text text-anchor="middle" x="2239.14" y="-587.93" font-family="Times New Roman,serif" font-size="14.00">33 EVENT_READ</text>
</g>
<!-- 4&#45;&gt;1 -->
<g id="edge7" class="edge">
<title>4&#45;&gt;1</title>
<path fill="none" stroke="Red" d="M2490.27,-81.46C2400.27,-70.25 2232.68,-52.13 2089.14,-52.13 506.5,-52.13 506.5,-52.13 506.5,-52.13 430.26,-52.13 392.7,-35.02 339,-89.13 306.08,-122.3 288.49,-252.29 280.82,-328.54"/>
<polygon fill="Red" stroke="Red" points="277.3,-328.63 279.81,-338.92 284.26,-329.31 277.3,-328.63"/>
<text text-anchor="middle" x="1402.91" y="-55.93" font-family="Times New Roman,serif" font-size="14.00">6 EVENT_READ</text>
</g>
<!-- 5&#45;&gt;3 -->
<g id="edge11" class="edge">
<title>5&#45;&gt;3</title>
<path fill="none" stroke="Red" d="M551.19,-452.71C557.12,-454.39 563.18,-455.93 569,-457.13 712.82,-486.84 751.25,-479.84 897.67,-491.13 1385.95,-528.79 1510.26,-504.63 1998.14,-547.13 2006.19,-547.83 2014.64,-548.7 2022.98,-549.64"/>
<polygon fill="Red" stroke="Red" points="2022.75,-553.14 2033.08,-550.82 2023.55,-546.19 2022.75,-553.14"/>
<text text-anchor="middle" x="1402.91" y="-526.93" font-family="Times New Roman,serif" font-size="14.00">10 EVENT_OPEN</text>
</g>
<!-- 6 -->
<g id="node7" class="node">
<title>6</title>
<polygon fill="none" stroke="black" points="984.67,-481.63 897.67,-481.63 897.67,-394.63 984.67,-394.63 984.67,-481.63"/>
<text text-anchor="middle" x="941.17" y="-434.43" font-family="Times New Roman,serif" font-size="14.00">13747firefox</text>
</g>
<!-- 5&#45;&gt;6 -->
<g id="edge12" class="edge">
<title>5&#45;&gt;6</title>
<path fill="none" stroke="Red" d="M551.07,-438.13C630.48,-438.13 800.96,-438.13 887.48,-438.13"/>
<polygon fill="Red" stroke="Red" points="887.6,-441.63 897.6,-438.13 887.6,-434.63 887.6,-441.63"/>
<text text-anchor="middle" x="724.34" y="-441.93" font-family="Times New Roman,serif" font-size="14.00">11 EVENT_CLONE</text>
</g>
<!-- 7 -->
<g id="node8" class="node">
<title>7</title>
<polygon fill="none" stroke="black" points="1641.38,-479.13 1262.02,-479.13 1164.44,-443.13 1543.79,-443.13 1641.38,-479.13"/>
<text text-anchor="middle" x="1402.91" y="-457.43" font-family="Times New Roman,serif" font-size="14.00">128.55.12.110&#45;38467&#45;&gt;141.43.176.203&#45;80</text>
</g>
<!-- 6&#45;&gt;7 -->
<g id="edge13" class="edge">
<title>6&#45;&gt;7</title>
<path fill="none" stroke="Blue" d="M985,-415.6C990.81,-413.35 996.79,-411.43 1002.67,-410.13 1065.18,-396.37 1089.43,-381.51 1146.67,-410.13 1158.6,-416.1 1153.1,-427.5 1164.67,-434.13 1167.55,-435.78 1170.48,-437.35 1173.45,-438.85"/>
<polygon fill="Blue" stroke="Blue" points="1171.97,-442.02 1182.51,-443.13 1174.96,-435.69 1171.97,-442.02"/>
<text text-anchor="middle" x="1074.67" y="-413.93" font-family="Times New Roman,serif" font-size="14.00">12 EVENT_CONNECT</text>
</g>
<!-- 6&#45;&gt;7 -->
<g id="edge14" class="edge">
<title>6&#45;&gt;7</title>
<path fill="none" stroke="Blue" d="M984.82,-458.15C990.71,-460.2 996.76,-461.96 1002.67,-463.13 1080.75,-478.63 1169.13,-479.82 1242.85,-476.42"/>
<polygon fill="Blue" stroke="Blue" points="1243.33,-479.9 1253.15,-475.91 1242.99,-472.91 1243.33,-479.9"/>
<text text-anchor="middle" x="1074.67" y="-480.93" font-family="Times New Roman,serif" font-size="14.00">13 EVENT_SENDTO</text>
</g>
<!-- 8 -->
<g id="node9" class="node">
<title>8</title>
<polygon fill="none" stroke="black" points="1454.41,-424.63 1351.41,-424.63 1351.41,-321.63 1454.41,-321.63 1454.41,-424.63"/>
<text text-anchor="middle" x="1402.91" y="-369.43" font-family="Times New Roman,serif" font-size="14.00">13748pass_mgr</text>
</g>
<!-- 6&#45;&gt;8 -->
<g id="edge16" class="edge">
<title>6&#45;&gt;8</title>
<path fill="none" stroke="Blue" d="M974.02,-394.54C982.34,-386.26 992.01,-378.74 1002.67,-374.13 1114.17,-325.94 1260.12,-343.26 1341.09,-358.98"/>
<polygon fill="Blue" stroke="Blue" points="1340.62,-362.46 1351.11,-360.99 1341.99,-355.6 1340.62,-362.46"/>
<text text-anchor="middle" x="1074.67" y="-377.93" font-family="Times New Roman,serif" font-size="14.00">15 EVENT_CLONE</text>
</g>
<!-- 7&#45;&gt;6 -->
<g id="edge15" class="edge">
<title>7&#45;&gt;6</title>
<path fill="none" stroke="Blue" d="M1170.3,-445.33C1162.33,-444.91 1154.44,-444.51 1146.67,-444.13 1095.16,-441.66 1036.3,-440.06 994.99,-439.14"/>
<polygon fill="Blue" stroke="Blue" points="994.96,-435.64 984.88,-438.92 994.8,-442.64 994.96,-435.64"/>
<text text-anchor="middle" x="1074.67" y="-447.93" font-family="Times New Roman,serif" font-size="14.00">14 EVENT_RECVFROM</text>
</g>
<!-- 8&#45;&gt;9 -->
<g id="edge17" class="edge">
<title>8&#45;&gt;9</title>
<path fill="none" stroke="Blue" d="M1454.6,-371.7C1537.43,-369.35 1700.59,-364.73 1780.83,-362.46"/>
<polygon fill="Blue" stroke="Blue" points="1781.23,-365.95 1791.12,-362.17 1781.03,-358.95 1781.23,-365.95"/>
<text text-anchor="middle" x="1716.14" y="-368.93" font-family="Times New Roman,serif" font-size="14.00">16 EVENT_CLONE</text>
</g>
<!-- 9&#45;&gt;2 -->
<g id="edge18" class="edge">
<title>9&#45;&gt;2</title>
<path fill="none" stroke="Blue" d="M1812.32,-323.5C1803.48,-306.87 1790.59,-288.9 1773.14,-279.13 1694.85,-235.29 1248.74,-238.48 1002.67,-256.13 941.02,-260.56 872.25,-270.44 818.61,-279.28"/>
<polygon fill="Blue" stroke="Blue" points="817.72,-275.88 808.43,-280.97 818.87,-282.78 817.72,-275.88"/>
<text text-anchor="middle" x="1074.67" y="-259.93" font-family="Times New Roman,serif" font-size="14.00">17 EVENT_OPEN</text>
</g>
<!-- 9&#45;&gt;3 -->
<g id="edge23" class="edge">
<title>9&#45;&gt;3</title>
<path fill="none" stroke="Blue" d="M1837.15,-398.73C1844.53,-425.71 1858.53,-460.77 1884.14,-481.13 1924.6,-513.3 1949.99,-485.34 1998.14,-504.13 2018.46,-512.06 2039.39,-524.51 2055.85,-535.46"/>
<polygon fill="Blue" stroke="Blue" points="2054.26,-538.62 2064.5,-541.35 2058.2,-532.83 2054.26,-538.62"/>
<text text-anchor="middle" x="1941.14" y="-507.93" font-family="Times New Roman,serif" font-size="14.00">22 EVENT_OPEN</text>
</g>
<!-- 10 -->
<g id="node11" class="node">
<title>10</title>
<polygon fill="none" stroke="black" points="2794.85,-374.13 2415.49,-374.13 2317.91,-338.13 2697.26,-338.13 2794.85,-374.13"/>
<text text-anchor="middle" x="2556.38" y="-352.43" font-family="Times New Roman,serif" font-size="14.00">128.55.12.110&#45;49721&#45;&gt;146.153.68.151&#45;80</text>
</g>
<!-- 9&#45;&gt;10 -->
<g id="edge20" class="edge">
<title>9&#45;&gt;10</title>
<path fill="none" stroke="Blue" d="M1857.7,-398.67C1865.38,-406.41 1874.33,-413.58 1884.14,-418.13 1968.01,-457.02 2208.63,-434.27 2300.14,-421.13 2365.52,-411.75 2438.38,-392.26 2489.46,-377.06"/>
<polygon fill="Blue" stroke="Blue" points="2490.48,-380.41 2499.06,-374.18 2488.47,-373.7 2490.48,-380.41"/>
<text text-anchor="middle" x="2088.14" y="-442.93" font-family="Times New Roman,serif" font-size="14.00">19 EVENT_CONNECT</text>
</g>
<!-- 9&#45;&gt;10 -->
<g id="edge21" class="edge">
<title>9&#45;&gt;10</title>
<path fill="none" stroke="Blue" d="M1866.2,-367.82C1872.18,-368.73 1878.32,-369.54 1884.14,-370.13 1942.55,-376.04 1957.44,-374.02 2016.14,-375.13 2142.36,-377.52 2174.03,-375.84 2300.14,-370.13 2326.6,-368.94 2354.59,-367.54 2381.96,-366.09"/>
<polygon fill="Blue" stroke="Blue" points="2382.21,-369.58 2392.01,-365.56 2381.84,-362.59 2382.21,-369.58"/>
<text text-anchor="middle" x="2088.14" y="-379.93" font-family="Times New Roman,serif" font-size="14.00">20 EVENT_SENDTO</text>
</g>
<!-- 11 -->
<g id="node12" class="node">
<title>11</title>
<polygon fill="none" stroke="black" points="2134.14,-210.13 2042.14,-210.13 2042.14,-118.13 2134.14,-118.13 2134.14,-210.13"/>
<text text-anchor="middle" x="2088.14" y="-160.43" font-family="Times New Roman,serif" font-size="14.00">13811gtcache</text>
</g>
<!-- 9&#45;&gt;11 -->
<g id="edge25" class="edge">
<title>9&#45;&gt;11</title>
<path fill="none" stroke="Blue" d="M1847.33,-323.34C1856.56,-306.48 1869.08,-287.29 1884.14,-273.13 1927.32,-232.55 1988.49,-202.43 2032.39,-184.26"/>
<polygon fill="Blue" stroke="Blue" points="2033.81,-187.46 2041.75,-180.46 2031.17,-180.98 2033.81,-187.46"/>
<text text-anchor="middle" x="1941.14" y="-276.93" font-family="Times New Roman,serif" font-size="14.00">24 EVENT_CLONE</text>
</g>
<!-- 13 -->
<g id="node14" class="node">
<title>13</title>
<polygon fill="none" stroke="black" points="2134.14,-320.13 2042.14,-320.13 2042.14,-228.13 2134.14,-228.13 2134.14,-320.13"/>
<text text-anchor="middle" x="2088.14" y="-270.43" font-family="Times New Roman,serif" font-size="14.00">13907gtcache</text>
</g>
<!-- 9&#45;&gt;13 -->
<g id="edge30" class="edge">
<title>9&#45;&gt;13</title>
<path fill="none" stroke="Blue" d="M1866.36,-336.17C1872.15,-332.84 1878.2,-329.69 1884.14,-327.13 1932.2,-306.44 1990.25,-292.28 2031.94,-283.84"/>
<polygon fill="Blue" stroke="Blue" points="2032.77,-287.24 2041.9,-281.87 2031.41,-280.38 2032.77,-287.24"/>
<text text-anchor="middle" x="1941.14" y="-330.93" font-family="Times New Roman,serif" font-size="14.00">29 EVENT_CLONE</text>
</g>
<!-- 10&#45;&gt;9 -->
<g id="edge22" class="edge">
<title>10&#45;&gt;9</title>
<path fill="none" stroke="Blue" d="M2363.2,-354.88C2260.26,-354.53 2131.28,-354.59 2016.14,-356.13 1968.63,-356.77 1914.32,-358.32 1876.61,-359.53"/>
<polygon fill="Blue" stroke="Blue" points="1876.32,-356.03 1866.44,-359.86 1876.55,-363.03 1876.32,-356.03"/>
<text text-anchor="middle" x="2088.14" y="-359.93" font-family="Times New Roman,serif" font-size="14.00">21 EVENT_RECVFROM</text>
</g>
<!-- 11&#45;&gt;4 -->
<g id="edge26" class="edge">
<title>11&#45;&gt;4</title>
<path fill="none" stroke="Blue" d="M2134.27,-140.36C2148.01,-134.09 2163.39,-128 2178.14,-124.13 2276.31,-98.42 2393.21,-91.36 2470.58,-89.8"/>
<polygon fill="Blue" stroke="Blue" points="2470.82,-93.29 2480.76,-89.62 2470.7,-86.29 2470.82,-93.29"/>
<text text-anchor="middle" x="2239.14" y="-127.93" font-family="Times New Roman,serif" font-size="14.00">25 EVENT_OPEN</text>
</g>
<!-- 11&#45;&gt;4 -->
<g id="edge27" class="edge">
<title>11&#45;&gt;4</title>
<path fill="none" stroke="Blue" d="M2134.55,-159.7C2177.36,-155.3 2243.28,-147.95 2300.14,-139.13 2364.73,-129.12 2437.93,-114.75 2489.33,-104.16"/>
<polygon fill="Blue" stroke="Blue" points="2490.23,-107.55 2499.31,-102.1 2488.81,-100.7 2490.23,-107.55"/>
<text text-anchor="middle" x="2239.14" y="-158.93" font-family="Times New Roman,serif" font-size="14.00">26 EVENT_WRITE</text>
</g>
<!-- 11&#45;&gt;10 -->
<g id="edge29" class="edge">
<title>11&#45;&gt;10</title>
<path fill="none" stroke="Blue" d="M2134.21,-185.96C2148.22,-192.59 2163.76,-199.8 2178.14,-206.13 2231.77,-229.76 2259.04,-214.37 2300.14,-256.13 2315.54,-271.78 2301.5,-287.81 2318.14,-302.13 2334.31,-316.05 2353.33,-326.58 2373.45,-334.51"/>
<polygon fill="Blue" stroke="Blue" points="2372.49,-337.89 2383.08,-338.09 2374.93,-331.33 2372.49,-337.89"/>
<text text-anchor="middle" x="2239.14" y="-259.93" font-family="Times New Roman,serif" font-size="14.00">28 EVENT_SENDTO</text>
</g>
<!-- 12 -->
<g id="node13" class="node">
<title>12</title>
<ellipse fill="none" stroke="black" cx="2556.38" cy="-199.13" rx="59.59" ry="18"/>
<text text-anchor="middle" x="2556.38" y="-195.43" font-family="Times New Roman,serif" font-size="14.00">/var/log/wdev</text>
</g>
<!-- 11&#45;&gt;12 -->
<g id="edge28" class="edge">
<title>11&#45;&gt;12</title>
<path fill="none" stroke="Blue" d="M2134.32,-171.51C2148.34,-173.59 2163.85,-175.68 2178.14,-177.13 2285.51,-188.08 2410.67,-194.05 2486.41,-196.91"/>
<polygon fill="Blue" stroke="Blue" points="2486.64,-200.42 2496.77,-197.29 2486.9,-193.42 2486.64,-200.42"/>
<text text-anchor="middle" x="2239.14" y="-190.93" font-family="Times New Roman,serif" font-size="14.00">27 EVENT_OPEN</text>
</g>
<!-- 13&#45;&gt;10 -->
<g id="edge32" class="edge">
<title>13&#45;&gt;10</title>
<path fill="none" stroke="Blue" d="M2134.31,-284.82C2148.32,-287.99 2163.84,-291.35 2178.14,-294.13 2259.66,-309.98 2351.6,-325.14 2424.31,-336.51"/>
<polygon fill="Blue" stroke="Blue" points="2424.02,-340.01 2434.44,-338.09 2425.09,-333.09 2424.02,-340.01"/>
<text text-anchor="middle" x="2239.14" y="-317.93" font-family="Times New Roman,serif" font-size="14.00">31 EVENT_SENDTO</text>
</g>
<!-- 14 -->
<g id="node15" class="node">
<title>14</title>
<ellipse fill="none" stroke="black" cx="2556.38" cy="-275.13" rx="75.29" ry="18"/>
<text text-anchor="middle" x="2556.38" y="-271.43" font-family="Times New Roman,serif" font-size="14.00">/tmp/memtrace.so</text>
</g>
<!-- 13&#45;&gt;14 -->
<g id="edge31" class="edge">
<title>13&#45;&gt;14</title>
<path fill="none" stroke="Blue" d="M2134.27,-274.23C2211.85,-274.4 2371.69,-274.74 2470.59,-274.95"/>
<polygon fill="Blue" stroke="Blue" points="2470.85,-278.45 2480.86,-274.97 2470.87,-271.45 2470.85,-278.45"/>
<text text-anchor="middle" x="2239.14" y="-278.93" font-family="Times New Roman,serif" font-size="14.00">30 EVENT_WRITE</text>
</g>
<!-- 15&#45;&gt;3 -->
<g id="edge35" class="edge">
<title>15&#45;&gt;3</title>
<path fill="none" stroke="Black" d="M2510,-586.6C2459.16,-576.45 2374.18,-561.04 2300.14,-555.13 2246.09,-550.82 2232.36,-554.22 2178.14,-555.13 2171.5,-555.25 2164.57,-555.4 2157.65,-555.59"/>
<polygon fill="Black" stroke="Black" points="2157.44,-552.1 2147.54,-555.88 2157.64,-559.09 2157.44,-552.1"/>
<text text-anchor="middle" x="2239.14" y="-558.93" font-family="Times New Roman,serif" font-size="14.00">34 EVENT_OPEN</text>
</g>
<!-- 16 -->
<g id="node17" class="node">
<title>16</title>
<ellipse fill="none" stroke="black" cx="3251.33" cy="-672.13" rx="296.25" ry="18"/>
<text text-anchor="middle" x="3251.33" y="-668.43" font-family="Times New Roman,serif" font-size="14.00">/home/admin/.thunderbird/pu7u3e84.default/ImapMail/128.55.12.73/Sent&#45;1.msf</text>
</g>
<!-- 15&#45;&gt;16 -->
<g id="edge36" class="edge">
<title>15&#45;&gt;16</title>
<path fill="none" stroke="Black" d="M2602.65,-607.98C2653.38,-620.73 2738.28,-640.46 2812.61,-650.13 2862.67,-656.65 2916.19,-661.26 2968.01,-664.52"/>
<polygon fill="Black" stroke="Black" points="2967.81,-668.02 2978,-665.14 2968.23,-661.03 2967.81,-668.02"/>
<text text-anchor="middle" x="2868.61" y="-664.93" font-family="Times New Roman,serif" font-size="14.00">35 EVENT_OPEN</text>
</g>
<!-- 15&#45;&gt;16 -->
<g id="edge38" class="edge">
<title>15&#45;&gt;16</title>
<path fill="none" stroke="Black" d="M2602.65,-600.01C2672.02,-606.04 2808.76,-618.32 2924.61,-631.13 2988.07,-638.15 3058.36,-646.88 3117.35,-654.47"/>
<polygon fill="Black" stroke="Black" points="3117.11,-657.97 3127.47,-655.78 3118,-651.03 3117.11,-657.97"/>
<text text-anchor="middle" x="2868.61" y="-634.93" font-family="Times New Roman,serif" font-size="14.00">37 EVENT_WRITE</text>
</g>
<!-- 17 -->
<g id="node18" class="node">
<title>17</title>
<ellipse fill="none" stroke="black" cx="3251.33" cy="-558.13" rx="280.25" ry="18"/>
<text text-anchor="middle" x="3251.33" y="-554.43" font-family="Times New Roman,serif" font-size="14.00">/home/admin/.thunderbird/pu7u3e84.default/ImapMail/128.55.12.73/Sent&#45;1</text>
</g>
<!-- 15&#45;&gt;17 -->
<g id="edge39" class="edge">
<title>15&#45;&gt;17</title>
<path fill="none" stroke="Black" d="M2602.81,-587.56C2653.69,-578.42 2738.71,-564.55 2812.61,-559.13 2864.59,-555.33 2920.13,-553.49 2973.6,-552.83"/>
<polygon fill="Black" stroke="Black" points="2973.95,-556.33 2983.91,-552.72 2973.87,-549.33 2973.95,-556.33"/>
<text text-anchor="middle" x="2868.61" y="-562.93" font-family="Times New Roman,serif" font-size="14.00">38 EVENT_OPEN</text>
</g>
<!-- 15&#45;&gt;17 -->
<g id="edge40" class="edge">
<title>15&#45;&gt;17</title>
<path fill="none" stroke="Black" d="M2602.42,-581.73C2652.96,-566.39 2737.68,-543.1 2812.61,-534.13 2919.57,-521.33 3042.07,-530.02 3130.23,-540.35"/>
<polygon fill="Black" stroke="Black" points="3129.92,-543.84 3140.26,-541.55 3130.75,-536.89 3129.92,-543.84"/>
<text text-anchor="middle" x="2868.61" y="-537.93" font-family="Times New Roman,serif" font-size="14.00">39 EVENT_WRITE</text>
</g>
<!-- 18 -->
<g id="node19" class="node">
<title>18</title>
<ellipse fill="none" stroke="black" cx="3251.33" cy="-482.13" rx="308.95" ry="18"/>
<text text-anchor="middle" x="3251.33" y="-478.43" font-family="Times New Roman,serif" font-size="14.00">/home/admin/.thunderbird/pu7u3e84.default/ImapMail/128.55.12.73/INBOX&#45;1.msf</text>
</g>
<!-- 15&#45;&gt;18 -->
<g id="edge42" class="edge">
<title>15&#45;&gt;18</title>
<path fill="none" stroke="Black" d="M2602.44,-576.38C2652.65,-555.38 2736.75,-523.17 2812.61,-508.13 2856.79,-499.38 2903.92,-493.28 2950.29,-489.08"/>
<polygon fill="Black" stroke="Black" points="2950.83,-492.55 2960.48,-488.18 2950.21,-485.57 2950.83,-492.55"/>
<text text-anchor="middle" x="2868.61" y="-511.93" font-family="Times New Roman,serif" font-size="14.00">41 EVENT_WRITE</text>
</g>
<!-- 16&#45;&gt;15 -->
<g id="edge37" class="edge">
<title>16&#45;&gt;15</title>
<path fill="none" stroke="Black" d="M3103.02,-687.72C3017.68,-693.54 2908.49,-695.5 2812.61,-680.13 2741.21,-668.69 2662.7,-640.3 2611.87,-619.69"/>
<polygon fill="Black" stroke="Black" points="2612.97,-616.36 2602.39,-615.81 2610.32,-622.84 2612.97,-616.36"/>
<text text-anchor="middle" x="2868.61" y="-693.93" font-family="Times New Roman,serif" font-size="14.00">36 EVENT_READ</text>
</g>
<!-- 17&#45;&gt;15 -->
<g id="edge41" class="edge">
<title>17&#45;&gt;15</title>
<path fill="none" stroke="Black" d="M3037.76,-569.79C2889.97,-577.89 2703.76,-588.11 2612.68,-593.1"/>
<polygon fill="Black" stroke="Black" points="2612.37,-589.61 2602.58,-593.65 2612.75,-596.6 2612.37,-589.61"/>
<text text-anchor="middle" x="2868.61" y="-584.93" font-family="Times New Roman,serif" font-size="14.00">40 EVENT_READ</text>
</g>
</g>
</svg>
