<?xml version="1.0" encoding="UTF-8" standalone="no"?>
<!DOCTYPE svg PUBLIC "-//W3C//DTD SVG 1.1//EN"
 "http://www.w3.org/Graphics/SVG/1.1/DTD/svg11.dtd">
<!-- Generated by graphviz version 10.0.1 (20240210.2158)
 -->
<!-- Title: case1_2_tmp_split Pages: 1 -->
<svg width="3103pt" height="282pt"
 viewBox="0.00 0.00 3102.84 282.25" xmlns="http://www.w3.org/2000/svg" xmlns:xlink="http://www.w3.org/1999/xlink">
<g id="graph0" class="graph" transform="scale(1 1) rotate(0) translate(4 278.25)">
<title>case1_2_tmp_split</title>
<polygon fill="white" stroke="none" points="-4,4 -4,-278.25 3098.84,-278.25 3098.84,4 -4,4"/>
<!-- 0 -->
<g id="node1" class="node">
<title>0</title>
<ellipse fill="none" stroke="black" cx="44.58" cy="-216.5" rx="44.58" ry="18"/>
<text text-anchor="middle" x="44.58" y="-211.07" font-family="Times New Roman,serif" font-size="14.00">/bin/bash</text>
</g>
<!-- 1 -->
<g id="node2" class="node">
<title>1</title>
<polygon fill="none" stroke="black" points="336.9,-259.38 251.15,-259.38 251.15,-173.62 336.9,-173.62 336.9,-259.38"/>
<text text-anchor="middle" x="294.03" y="-211.07" font-family="Times New Roman,serif" font-size="14.00">8063fluxbox</text>
</g>
<!-- 0&#45;&gt;1 -->
<g id="edge1" class="edge">
<title>0&#45;&gt;1</title>
<path fill="none" stroke="Red" d="M89.53,-216.5C131.44,-216.5 194.63,-216.5 239.46,-216.5"/>
<polygon fill="Red" stroke="Red" points="239.21,-220 249.21,-216.5 239.21,-213 239.21,-220"/>
<text text-anchor="middle" x="170.15" y="-218.95" font-family="Times New Roman,serif" font-size="14.00">0 EVENT_EXECUTE</text>
</g>
<!-- 2 -->
<g id="node3" class="node">
<title>2</title>
<polygon fill="none" stroke="black" points="1000.19,-254.5 613.4,-254.5 513.9,-218.5 900.69,-218.5 1000.19,-254.5"/>
<text text-anchor="middle" x="757.05" y="-231.07" font-family="Times New Roman,serif" font-size="14.00">128.55.12.110&#45;33157&#45;&gt;141.43.176.203&#45;80</text>
</g>
<!-- 1&#45;&gt;2 -->
<g id="edge2" class="edge">
<title>1&#45;&gt;2</title>
<path fill="none" stroke="Blue" d="M337.16,-218.33C380.88,-220.22 452.81,-223.34 524.83,-226.47"/>
<polygon fill="Blue" stroke="Blue" points="524.26,-229.95 534.4,-226.88 524.56,-222.95 524.26,-229.95"/>
<text text-anchor="middle" x="425.4" y="-226.95" font-family="Times New Roman,serif" font-size="14.00">1 EVENT_CONNECT</text>
</g>
<!-- 1&#45;&gt;2 -->
<g id="edge3" class="edge">
<title>1&#45;&gt;2</title>
<path fill="none" stroke="Blue" d="M337.21,-202.36C343.1,-200.87 349.11,-199.59 354.9,-198.75 416.92,-189.75 434.83,-184.69 495.9,-198.75 504.57,-200.75 505.37,-204.99 513.9,-207.5 524.15,-210.51 534.74,-213.21 545.49,-215.63"/>
<polygon fill="Blue" stroke="Blue" points="544.75,-219.05 555.26,-217.74 546.22,-212.21 544.75,-219.05"/>
<text text-anchor="middle" x="425.4" y="-200.95" font-family="Times New Roman,serif" font-size="14.00">2 EVENT_SENDTO</text>
</g>
<!-- 5 -->
<g id="node4" class="node">
<title>5</title>
<polygon fill="none" stroke="black" points="796.92,-198.38 717.17,-198.38 717.17,-118.62 796.92,-118.62 796.92,-198.38"/>
<text text-anchor="middle" x="757.05" y="-153.07" font-family="Times New Roman,serif" font-size="14.00">8130firefox</text>
</g>
<!-- 1&#45;&gt;5 -->
<g id="edge5" class="edge">
<title>1&#45;&gt;5</title>
<path fill="none" stroke="Blue" d="M337.24,-178.53C342.88,-175 348.82,-171.94 354.9,-169.75 474.71,-126.63 627.91,-139.34 705.75,-150.15"/>
<polygon fill="Blue" stroke="Blue" points="704.78,-153.54 715.18,-151.51 705.78,-146.62 704.78,-153.54"/>
<text text-anchor="middle" x="425.4" y="-171.95" font-family="Times New Roman,serif" font-size="14.00">4 EVENT_CLONE</text>
</g>
<!-- 2&#45;&gt;1 -->
<g id="edge4" class="edge">
<title>2&#45;&gt;1</title>
<path fill="none" stroke="Blue" d="M621.21,-254.97C542.62,-261.84 442.11,-263.88 354.9,-244.5 352.63,-243.99 350.34,-243.39 348.05,-242.71"/>
<polygon fill="Blue" stroke="Blue" points="349.42,-239.49 338.83,-239.53 347.14,-246.1 349.42,-239.49"/>
<text text-anchor="middle" x="425.4" y="-260.95" font-family="Times New Roman,serif" font-size="14.00">3 EVENT_RECVFROM</text>
</g>
<!-- 6 -->
<g id="node5" class="node">
<title>6</title>
<polygon fill="none" stroke="black" points="1927.47,-176.5 1540.69,-176.5 1441.19,-140.5 1827.97,-140.5 1927.47,-176.5"/>
<text text-anchor="middle" x="1684.33" y="-153.07" font-family="Times New Roman,serif" font-size="14.00">128.55.12.110&#45;44411&#45;&gt;146.153.68.151&#45;80</text>
</g>
<!-- 5&#45;&gt;6 -->
<g id="edge6" class="edge">
<title>5&#45;&gt;6</title>
<path fill="none" stroke="Black" d="M797.21,-158.5C912.14,-158.5 1254.41,-158.5 1478.38,-158.5"/>
<polygon fill="Black" stroke="Black" points="1478.1,-162 1488.1,-158.5 1478.1,-155 1478.1,-162"/>
<text text-anchor="middle" x="1216.19" y="-160.95" font-family="Times New Roman,serif" font-size="14.00">5 EVENT_CONNECT</text>
</g>
<!-- 5&#45;&gt;6 -->
<g id="edge7" class="edge">
<title>5&#45;&gt;6</title>
<path fill="none" stroke="Black" d="M797.36,-155.83C867.36,-151.24 1018.2,-142 1145.69,-138.75 1240.81,-136.33 1345.37,-138.96 1436.79,-143.01"/>
<polygon fill="Black" stroke="Black" points="1436.5,-146.5 1446.65,-143.46 1436.82,-139.51 1436.5,-146.5"/>
<text text-anchor="middle" x="1216.19" y="-140.95" font-family="Times New Roman,serif" font-size="14.00">6 EVENT_SENDTO</text>
</g>
<!-- 9 -->
<g id="node6" class="node">
<title>9</title>
<polygon fill="none" stroke="black" points="1256.06,-96.38 1176.31,-96.38 1176.31,-16.62 1256.06,-16.62 1256.06,-96.38"/>
<text text-anchor="middle" x="1216.19" y="-51.08" font-family="Times New Roman,serif" font-size="14.00">8183firefox</text>
</g>
<!-- 5&#45;&gt;9 -->
<g id="edge9" class="edge">
<title>5&#45;&gt;9</title>
<path fill="none" stroke="Orange" d="M797.42,-149.72C880.39,-131.2 1073.1,-88.2 1164.87,-67.73"/>
<polygon fill="Orange" stroke="Orange" points="1165.6,-71.15 1174.6,-65.56 1164.08,-64.32 1165.6,-71.15"/>
<text text-anchor="middle" x="1072.94" y="-100.95" font-family="Times New Roman,serif" font-size="14.00">8 EVENT_CLONE</text>
</g>
<!-- 6&#45;&gt;5 -->
<g id="edge8" class="edge">
<title>6&#45;&gt;5</title>
<path fill="none" stroke="Black" d="M1515.42,-167.78C1484.74,-169.41 1453,-171.04 1423.19,-172.5 1299.97,-178.52 1269.02,-181.4 1145.69,-178.5 1088.98,-177.17 1074.85,-175.36 1018.19,-172.5 945.33,-168.83 861.01,-164.22 808.59,-161.32"/>
<polygon fill="Black" stroke="Black" points="808.96,-157.84 798.78,-160.78 808.57,-164.83 808.96,-157.84"/>
<text text-anchor="middle" x="1216.19" y="-181.95" font-family="Times New Roman,serif" font-size="14.00">7 EVENT_RECVFROM</text>
</g>
<!-- 9&#45;&gt;6 -->
<g id="edge10" class="edge">
<title>9&#45;&gt;6</title>
<path fill="none" stroke="Orange" d="M1256.37,-65.56C1271.46,-69.02 1288.87,-72.98 1304.69,-76.5 1400.12,-97.74 1509.25,-121.29 1585.75,-137.69"/>
<polygon fill="Orange" stroke="Orange" points="1584.81,-141.07 1595.32,-139.74 1586.27,-134.22 1584.81,-141.07"/>
<text text-anchor="middle" x="1363.94" y="-104.95" font-family="Times New Roman,serif" font-size="14.00">9 EVENT_SENDTO</text>
</g>
<!-- 11 -->
<g id="node7" class="node">
<title>11</title>
<ellipse fill="none" stroke="black" cx="1684.33" cy="-56.5" rx="85" ry="18"/>
<text text-anchor="middle" x="1684.33" y="-51.08" font-family="Times New Roman,serif" font-size="14.00">/home/admin/profile</text>
</g>
<!-- 9&#45;&gt;11 -->
<g id="edge11" class="edge">
<title>9&#45;&gt;11</title>
<path fill="none" stroke="yellow" d="M1256.53,-56.5C1329.1,-56.5 1485.9,-56.5 1587.9,-56.5"/>
<polygon fill="yellow" stroke="yellow" points="1587.62,-60 1597.62,-56.5 1587.62,-53 1587.62,-60"/>
<text text-anchor="middle" x="1363.94" y="-58.95" font-family="Times New Roman,serif" font-size="14.00">10 EVENT_WRITE</text>
</g>
<!-- 12 -->
<g id="node8" class="node">
<title>12</title>
<polygon fill="none" stroke="black" points="2175.22,-96 2096.22,-96 2096.22,-17 2175.22,-17 2175.22,-96"/>
<text text-anchor="middle" x="2135.72" y="-51.08" font-family="Times New Roman,serif" font-size="14.00">8187profile</text>
</g>
<!-- 11&#45;&gt;12 -->
<g id="edge12" class="edge">
<title>11&#45;&gt;12</title>
<path fill="none" stroke="yellow" d="M1769.6,-56.5C1862.42,-56.5 2008.63,-56.5 2084.81,-56.5"/>
<polygon fill="yellow" stroke="yellow" points="2084.46,-60 2094.46,-56.5 2084.46,-53 2084.46,-60"/>
<text text-anchor="middle" x="2011.85" y="-58.95" font-family="Times New Roman,serif" font-size="14.00">11 EVENT_EXECUTE</text>
</g>
<!-- 13 -->
<g id="node9" class="node">
<title>13</title>
<polygon fill="none" stroke="black" points="2832.09,-93.5 2455.78,-93.5 2358.97,-57.5 2735.29,-57.5 2832.09,-93.5"/>
<text text-anchor="middle" x="2595.53" y="-70.08" font-family="Times New Roman,serif" font-size="14.00">128.55.12.110&#45;45668&#45;&gt;161.116.88.72&#45;80</text>
</g>
<!-- 12&#45;&gt;13 -->
<g id="edge13" class="edge">
<title>12&#45;&gt;13</title>
<path fill="none" stroke="purple" d="M2175.52,-56C2216.61,-55.65 2283.39,-55.56 2340.97,-57.75 2343.72,-57.85 2346.48,-57.96 2349.25,-58.08"/>
<polygon fill="purple" stroke="purple" points="2349.08,-61.57 2359.22,-58.51 2349.38,-54.58 2349.08,-61.57"/>
<text text-anchor="middle" x="2267.1" y="-60.95" font-family="Times New Roman,serif" font-size="14.00">12 EVENT_SENDTO</text>
</g>
<!-- 15 -->
<g id="node10" class="node">
<title>15</title>
<polygon fill="none" stroke="black" points="3094.84,-79 3015.84,-79 3015.84,0 3094.84,0 3094.84,-79"/>
<text text-anchor="middle" x="3055.34" y="-34.08" font-family="Times New Roman,serif" font-size="14.00">8188profile</text>
</g>
<!-- 12&#45;&gt;15 -->
<g id="edge15" class="edge">
<title>12&#45;&gt;15</title>
<path fill="none" stroke="gray" d="M2175.57,-51.08C2219.85,-45.2 2294.46,-36.19 2358.97,-32.75 2600.53,-19.88 2889.94,-31.29 3004.32,-36.86"/>
<polygon fill="gray" stroke="gray" points="3003.8,-40.34 3013.97,-37.34 3004.15,-33.35 3003.8,-40.34"/>
<text text-anchor="middle" x="2595.53" y="-35.95" font-family="Times New Roman,serif" font-size="14.00">14 EVENT_CLONE</text>
</g>
<!-- 13&#45;&gt;12 -->
<g id="edge14" class="edge">
<title>13&#45;&gt;12</title>
<path fill="none" stroke="purple" d="M2432.14,-85.23C2358.79,-86.92 2271.26,-85.18 2193.22,-73.5 2191.06,-73.18 2188.86,-72.79 2186.65,-72.35"/>
<polygon fill="purple" stroke="purple" points="2187.61,-68.98 2177.08,-70.12 2186.02,-75.79 2187.61,-68.98"/>
<text text-anchor="middle" x="2267.1" y="-87.95" font-family="Times New Roman,serif" font-size="14.00">13 EVENT_RECVFROM</text>
</g>
<!-- 13&#45;&gt;15 -->
<g id="edge16" class="edge">
<title>13&#45;&gt;15</title>
<path fill="none" stroke="gray" d="M2752.16,-63.26C2839.89,-56.36 2943.67,-48.2 3003.95,-43.46"/>
<polygon fill="gray" stroke="gray" points="3004.21,-46.95 3013.9,-42.68 3003.66,-39.97 3004.21,-46.95"/>
<text text-anchor="middle" x="2923.97" y="-57.95" font-family="Times New Roman,serif" font-size="14.00">15 EVENT_RECVFROM</text>
</g>
</g>
</svg>
