<?xml version="1.0" encoding="UTF-8" standalone="no"?>
<!DOCTYPE svg PUBLIC "-//W3C//DTD SVG 1.1//EN"
 "http://www.w3.org/Graphics/SVG/1.1/DTD/svg11.dtd">
<!-- Generated by graphviz version 10.0.1 (20240210.2158)
 -->
<!-- Title: case1_tmp_split Pages: 1 -->
<svg width="3148pt" height="794pt"
 viewBox="0.00 0.00 3147.84 793.75" xmlns="http://www.w3.org/2000/svg" xmlns:xlink="http://www.w3.org/1999/xlink">
<g id="graph0" class="graph" transform="scale(1 1) rotate(0) translate(4 789.75)">
<title>case1_tmp_split</title>
<polygon fill="white" stroke="none" points="-4,4 -4,-789.75 3143.84,-789.75 3143.84,4 -4,4"/>
<!-- 0 -->
<g id="node1" class="node">
<title>0</title>
<polygon fill="none" stroke="black" points="100.75,-260.38 0,-260.38 0,-159.62 100.75,-159.62 100.75,-260.38"/>
<text text-anchor="middle" x="50.38" y="-204.57" font-family="Times New Roman,serif" font-size="14.00">http&#45;nio&#45;80&#45;exe</text>
</g>
<!-- 1 -->
<g id="node2" class="node">
<title>1</title>
<polygon fill="none" stroke="black" points="266.75,-524.38 184,-524.38 184,-441.62 266.75,-441.62 266.75,-524.38"/>
<text text-anchor="middle" x="225.38" y="-477.57" font-family="Times New Roman,serif" font-size="14.00">295525bash</text>
</g>
<!-- 0&#45;&gt;1 -->
<g id="edge1" class="edge">
<title>0&#45;&gt;1</title>
<path fill="none" stroke="Red" d="M83.51,-260.71C114.47,-309.57 161.07,-383.1 192.08,-432.04"/>
<polygon fill="Red" stroke="Red" points="188.95,-433.64 197.26,-440.21 194.86,-429.89 188.95,-433.64"/>
<text text-anchor="middle" x="142.38" y="-388.45" font-family="Times New Roman,serif" font-size="14.00">0 clone</text>
</g>
<!-- 7 -->
<g id="node8" class="node">
<title>7</title>
<polygon fill="none" stroke="black" points="266.75,-321.38 184,-321.38 184,-238.62 266.75,-238.62 266.75,-321.38"/>
<text text-anchor="middle" x="225.38" y="-274.57" font-family="Times New Roman,serif" font-size="14.00">295536bash</text>
</g>
<!-- 0&#45;&gt;7 -->
<g id="edge7" class="edge">
<title>0&#45;&gt;7</title>
<path fill="none" stroke="Blue" d="M100.95,-230.06C123.53,-239.2 150.25,-250.01 173.04,-259.23"/>
<polygon fill="Blue" stroke="Blue" points="171.56,-262.4 182.14,-262.91 174.18,-255.92 171.56,-262.4"/>
<text text-anchor="middle" x="142.38" y="-257.45" font-family="Times New Roman,serif" font-size="14.00">6 clone</text>
</g>
<!-- 35 -->
<g id="node28" class="node">
<title>35</title>
<polygon fill="none" stroke="black" points="266.75,-214.38 184,-214.38 184,-131.62 266.75,-131.62 266.75,-214.38"/>
<text text-anchor="middle" x="225.38" y="-167.57" font-family="Times New Roman,serif" font-size="14.00">295569bash</text>
</g>
<!-- 0&#45;&gt;35 -->
<g id="edge34" class="edge">
<title>0&#45;&gt;35</title>
<path fill="none" stroke="Green" d="M100.95,-199.4C123.33,-194.61 149.77,-188.96 172.42,-184.11"/>
<polygon fill="Green" stroke="Green" points="173.02,-187.56 182.06,-182.05 171.55,-180.72 173.02,-187.56"/>
<text text-anchor="middle" x="142.38" y="-196.45" font-family="Times New Roman,serif" font-size="14.00">33 clone</text>
</g>
<!-- 38 -->
<g id="node31" class="node">
<title>38</title>
<polygon fill="none" stroke="black" points="266.75,-99.38 184,-99.38 184,-16.62 266.75,-16.62 266.75,-99.38"/>
<text text-anchor="middle" x="225.38" y="-52.58" font-family="Times New Roman,serif" font-size="14.00">295590bash</text>
</g>
<!-- 0&#45;&gt;38 -->
<g id="edge37" class="edge">
<title>0&#45;&gt;38</title>
<path fill="none" stroke="Green" d="M100.95,-166.44C124.25,-145.97 151.95,-121.64 175.19,-101.21"/>
<polygon fill="Green" stroke="Green" points="177.2,-104.1 182.41,-94.87 172.58,-98.85 177.2,-104.1"/>
<text text-anchor="middle" x="142.38" y="-150.45" font-family="Times New Roman,serif" font-size="14.00">36 clone</text>
</g>
<!-- 2 -->
<g id="node3" class="node">
<title>2</title>
<polygon fill="none" stroke="black" points="447.75,-637.75 352.25,-637.75 352.25,-542.25 447.75,-542.25 447.75,-637.75"/>
<text text-anchor="middle" x="400" y="-584.58" font-family="Times New Roman,serif" font-size="14.00">295528base64</text>
</g>
<!-- 1&#45;&gt;2 -->
<g id="edge2" class="edge">
<title>1&#45;&gt;2</title>
<path fill="none" stroke="Red" d="M266.85,-508.09C289.37,-522.05 317.76,-539.64 342.44,-554.94"/>
<polygon fill="Red" stroke="Red" points="340.43,-557.81 350.77,-560.11 344.12,-551.86 340.43,-557.81"/>
<text text-anchor="middle" x="308.38" y="-548.45" font-family="Times New Roman,serif" font-size="14.00">1 clone</text>
</g>
<!-- 3 -->
<g id="node4" class="node">
<title>3</title>
<polygon fill="none" stroke="black" points="441.38,-524.38 358.62,-524.38 358.62,-441.62 441.38,-441.62 441.38,-524.38"/>
<text text-anchor="middle" x="400" y="-477.57" font-family="Times New Roman,serif" font-size="14.00">295529bash</text>
</g>
<!-- 1&#45;&gt;3 -->
<g id="edge3" class="edge">
<title>1&#45;&gt;3</title>
<path fill="none" stroke="Red" d="M266.85,-483C290.7,-483 321.13,-483 346.78,-483"/>
<polygon fill="Red" stroke="Red" points="346.67,-486.5 356.67,-483 346.67,-479.5 346.67,-486.5"/>
<text text-anchor="middle" x="308.38" y="-485.45" font-family="Times New Roman,serif" font-size="14.00">2 clone</text>
</g>
<!-- 4 -->
<g id="node5" class="node">
<title>4</title>
<polygon fill="none" stroke="black" points="819.93,-632 719.93,-632 719.93,-532 819.93,-532 819.93,-632"/>
<text text-anchor="middle" x="769.93" y="-576.58" font-family="Times New Roman,serif" font-size="14.00">295530whoami</text>
</g>
<!-- 3&#45;&gt;4 -->
<g id="edge4" class="edge">
<title>3&#45;&gt;4</title>
<path fill="none" stroke="Red" d="M441.86,-496.31C467.2,-504.4 500.49,-514.72 530.25,-523 590.72,-539.82 660.47,-556.78 708.89,-568.17"/>
<polygon fill="Red" stroke="Red" points="707.8,-571.51 718.33,-570.39 709.39,-564.7 707.8,-571.51"/>
<text text-anchor="middle" x="490.12" y="-518.45" font-family="Times New Roman,serif" font-size="14.00">3 clone</text>
</g>
<!-- 5 -->
<g id="node6" class="node">
<title>5</title>
<polygon fill="none" stroke="black" points="800.81,-513.88 739.06,-513.88 739.06,-452.12 800.81,-452.12 800.81,-513.88"/>
<text text-anchor="middle" x="769.93" y="-477.57" font-family="Times New Roman,serif" font-size="14.00">ipconfig</text>
</g>
<!-- 3&#45;&gt;5 -->
<g id="edge5" class="edge">
<title>3&#45;&gt;5</title>
<path fill="none" stroke="Red" d="M441.78,-483C512.32,-483 656.36,-483 727.41,-483"/>
<polygon fill="Red" stroke="Red" points="727.06,-486.5 737.06,-483 727.06,-479.5 727.06,-486.5"/>
<text text-anchor="middle" x="490.12" y="-485.45" font-family="Times New Roman,serif" font-size="14.00">4 clone</text>
</g>
<!-- 6 -->
<g id="node7" class="node">
<title>6</title>
<polygon fill="none" stroke="black" points="787.93,-434 751.93,-434 751.93,-398 787.93,-398 787.93,-434"/>
<text text-anchor="middle" x="769.93" y="-410.57" font-family="Times New Roman,serif" font-size="14.00">arp</text>
</g>
<!-- 3&#45;&gt;6 -->
<g id="edge6" class="edge">
<title>3&#45;&gt;6</title>
<path fill="none" stroke="Red" d="M441.81,-468.21C466.99,-459.63 500.13,-449.31 530.25,-443 605.06,-427.34 695.08,-420.26 740.2,-417.51"/>
<polygon fill="Red" stroke="Red" points="740.39,-421 750.17,-416.93 739.99,-414.01 740.39,-421"/>
<text text-anchor="middle" x="490.12" y="-461.45" font-family="Times New Roman,serif" font-size="14.00">5 clone</text>
</g>
<!-- 8 -->
<g id="node9" class="node">
<title>8</title>
<polygon fill="none" stroke="black" points="438.75,-423.75 361.25,-423.75 361.25,-346.25 438.75,-346.25 438.75,-423.75"/>
<text text-anchor="middle" x="400" y="-379.57" font-family="Times New Roman,serif" font-size="14.00">295537curl</text>
</g>
<!-- 7&#45;&gt;8 -->
<g id="edge8" class="edge">
<title>7&#45;&gt;8</title>
<path fill="none" stroke="Blue" d="M266.85,-304.62C292.03,-319.94 324.55,-339.72 351.03,-355.82"/>
<polygon fill="Blue" stroke="Blue" points="349.2,-358.8 359.56,-361.01 352.83,-352.82 349.2,-358.8"/>
<text text-anchor="middle" x="308.38" y="-343.45" font-family="Times New Roman,serif" font-size="14.00">7 clone</text>
</g>
<!-- 10 -->
<g id="node11" class="node">
<title>10</title>
<polygon fill="none" stroke="black" points="447.75,-327.75 352.25,-327.75 352.25,-232.25 447.75,-232.25 447.75,-327.75"/>
<text text-anchor="middle" x="400" y="-274.57" font-family="Times New Roman,serif" font-size="14.00">295538chmod</text>
</g>
<!-- 7&#45;&gt;10 -->
<g id="edge10" class="edge">
<title>7&#45;&gt;10</title>
<path fill="none" stroke="Blue" d="M266.85,-280C288.87,-280 316.5,-280 340.8,-280"/>
<polygon fill="Blue" stroke="Blue" points="340.54,-283.5 350.54,-280 340.54,-276.5 340.54,-283.5"/>
<text text-anchor="middle" x="308.38" y="-282.45" font-family="Times New Roman,serif" font-size="14.00">9 clone</text>
</g>
<!-- 9 -->
<g id="node10" class="node">
<title>9</title>
<ellipse fill="none" stroke="black" cx="769.93" cy="-332" rx="64.54" ry="18"/>
<text text-anchor="middle" x="769.93" y="-326.57" font-family="Times New Roman,serif" font-size="14.00">./sandcat&#45;linux</text>
</g>
<!-- 8&#45;&gt;9 -->
<g id="edge9" class="edge">
<title>8&#45;&gt;9</title>
<path fill="none" stroke="Blue" d="M438.99,-379.53C500.76,-370.63 623.83,-352.9 700.96,-341.79"/>
<polygon fill="Blue" stroke="Blue" points="701.09,-345.31 710.49,-340.42 700.09,-338.38 701.09,-345.31"/>
<text text-anchor="middle" x="490.12" y="-376.45" font-family="Times New Roman,serif" font-size="14.00">8 write</text>
</g>
<!-- 12 -->
<g id="node12" class="node">
<title>12</title>
<polygon fill="none" stroke="black" points="1176.37,-376.75 1086.87,-376.75 1086.87,-287.25 1176.37,-287.25 1176.37,-376.75"/>
<text text-anchor="middle" x="1131.62" y="-326.57" font-family="Times New Roman,serif" font-size="14.00">sandcat&#45;linux</text>
</g>
<!-- 9&#45;&gt;12 -->
<g id="edge12" class="edge">
<title>9&#45;&gt;12</title>
<path fill="none" stroke="Blue" d="M834.82,-332C903.19,-332 1010.53,-332 1075.38,-332"/>
<polygon fill="Blue" stroke="Blue" points="1075.06,-335.5 1085.06,-332 1075.06,-328.5 1075.06,-335.5"/>
<text text-anchor="middle" x="1048.24" y="-334.45" font-family="Times New Roman,serif" font-size="14.00">11 read</text>
</g>
<!-- 10&#45;&gt;9 -->
<g id="edge11" class="edge">
<title>10&#45;&gt;9</title>
<path fill="none" stroke="Blue" d="M447.97,-286.64C512.01,-295.69 627.13,-311.96 700.69,-322.35"/>
<polygon fill="Blue" stroke="Blue" points="699.79,-325.76 710.18,-323.7 700.77,-318.83 699.79,-325.76"/>
<text text-anchor="middle" x="490.12" y="-297.45" font-family="Times New Roman,serif" font-size="14.00">10 write</text>
</g>
<!-- 13 -->
<g id="node13" class="node">
<title>13</title>
<polygon fill="none" stroke="black" points="1520.45,-637.62 1451.2,-637.62 1451.2,-568.38 1520.45,-568.38 1520.45,-637.62"/>
<text text-anchor="middle" x="1485.83" y="-597.58" font-family="Times New Roman,serif" font-size="14.00">295554sh</text>
</g>
<!-- 12&#45;&gt;13 -->
<g id="edge13" class="edge">
<title>12&#45;&gt;13</title>
<path fill="none" stroke="Black" d="M1148.33,-376.88C1167.33,-424.62 1203.88,-498.91 1259.62,-541 1312.84,-581.18 1390.61,-595.32 1439.44,-600.3"/>
<polygon fill="Black" stroke="Black" points="1439.11,-603.79 1449.39,-601.22 1439.75,-596.81 1439.11,-603.79"/>
<text text-anchor="middle" x="1217.99" y="-525.45" font-family="Times New Roman,serif" font-size="14.00">12 clone</text>
</g>
<!-- 24 -->
<g id="node21" class="node">
<title>24</title>
<ellipse fill="none" stroke="black" cx="1485.83" cy="-305" rx="226.21" ry="18"/>
<text text-anchor="middle" x="1485.83" y="-299.57" font-family="Times New Roman,serif" font-size="14.00">/usr/tomcat/apache&#45;tomcat&#45;8.5.76/bin/sqltool_amd64_upx</text>
</g>
<!-- 12&#45;&gt;24 -->
<g id="edge23" class="edge">
<title>12&#45;&gt;24</title>
<path fill="none" stroke="Black" d="M1176.51,-328.64C1210.46,-326.03 1259.85,-322.25 1309.19,-318.46"/>
<polygon fill="Black" stroke="Black" points="1309.17,-321.98 1318.87,-317.72 1308.63,-315 1309.17,-321.98"/>
<text text-anchor="middle" x="1217.99" y="-328.45" font-family="Times New Roman,serif" font-size="14.00">22 write</text>
</g>
<!-- 25 -->
<g id="node22" class="node">
<title>25</title>
<polygon fill="none" stroke="black" points="1520.45,-410.62 1451.2,-410.62 1451.2,-341.38 1520.45,-341.38 1520.45,-410.62"/>
<text text-anchor="middle" x="1485.83" y="-370.57" font-family="Times New Roman,serif" font-size="14.00">295605sh</text>
</g>
<!-- 12&#45;&gt;25 -->
<g id="edge24" class="edge">
<title>12&#45;&gt;25</title>
<path fill="none" stroke="Black" d="M1176.68,-342.67C1182.6,-343.9 1188.62,-345.05 1194.37,-346 1280.71,-360.19 1382.67,-368.89 1439.93,-373.04"/>
<polygon fill="Black" stroke="Black" points="1439.38,-376.51 1449.6,-373.73 1439.88,-369.53 1439.38,-376.51"/>
<text text-anchor="middle" x="1217.99" y="-355.45" font-family="Times New Roman,serif" font-size="14.00">23 clone</text>
</g>
<!-- 30 -->
<g id="node25" class="node">
<title>30</title>
<polygon fill="none" stroke="black" points="1520.45,-261.62 1451.2,-261.62 1451.2,-192.38 1520.45,-192.38 1520.45,-261.62"/>
<text text-anchor="middle" x="1485.83" y="-221.57" font-family="Times New Roman,serif" font-size="14.00">295654sh</text>
</g>
<!-- 12&#45;&gt;30 -->
<g id="edge29" class="edge">
<title>12&#45;&gt;30</title>
<path fill="none" stroke="Orange" d="M1176.71,-311.93C1182.63,-309.31 1188.64,-306.69 1194.37,-304.25 1223.13,-292.01 1229.78,-287.31 1259.62,-278 1321,-258.84 1393.88,-243.67 1439.75,-235.01"/>
<polygon fill="Orange" stroke="Orange" points="1440.13,-238.5 1449.32,-233.22 1438.85,-231.62 1440.13,-238.5"/>
<text text-anchor="middle" x="1217.99" y="-306.45" font-family="Times New Roman,serif" font-size="14.00">28 clone</text>
</g>
<!-- 14 -->
<g id="node14" class="node">
<title>14</title>
<polygon fill="none" stroke="black" points="1916.67,-737.38 1827.92,-737.38 1827.92,-648.62 1916.67,-648.62 1916.67,-737.38"/>
<text text-anchor="middle" x="1872.29" y="-687.58" font-family="Times New Roman,serif" font-size="14.00">295555mkdir</text>
</g>
<!-- 13&#45;&gt;14 -->
<g id="edge14" class="edge">
<title>13&#45;&gt;14</title>
<path fill="none" stroke="Black" d="M1520.95,-610.99C1587.73,-626.62 1736.21,-661.38 1816.77,-680.24"/>
<polygon fill="Black" stroke="Black" points="1815.66,-683.57 1826.2,-682.44 1817.26,-676.76 1815.66,-683.57"/>
<text text-anchor="middle" x="1753.67" y="-670.45" font-family="Times New Roman,serif" font-size="14.00">13 clone</text>
</g>
<!-- 15 -->
<g id="node15" class="node">
<title>15</title>
<polygon fill="none" stroke="black" points="1915.54,-557.25 1829.04,-557.25 1829.04,-470.75 1915.54,-470.75 1915.54,-557.25"/>
<text text-anchor="middle" x="1872.29" y="-508.57" font-family="Times New Roman,serif" font-size="14.00">295556unzip</text>
</g>
<!-- 13&#45;&gt;15 -->
<g id="edge15" class="edge">
<title>13&#45;&gt;15</title>
<path fill="none" stroke="Black" d="M1520.95,-595.1C1588,-579.58 1737.38,-545 1817.72,-526.4"/>
<polygon fill="Black" stroke="Black" points="1818.15,-529.89 1827.11,-524.23 1816.57,-523.07 1818.15,-529.89"/>
<text text-anchor="middle" x="1753.67" y="-547.45" font-family="Times New Roman,serif" font-size="14.00">14 clone</text>
</g>
<!-- 19 -->
<g id="node18" class="node">
<title>19</title>
<polygon fill="none" stroke="black" points="1899.79,-630.5 1844.79,-630.5 1844.79,-575.5 1899.79,-575.5 1899.79,-630.5"/>
<text text-anchor="middle" x="1872.29" y="-597.58" font-family="Times New Roman,serif" font-size="14.00">chmod</text>
</g>
<!-- 13&#45;&gt;19 -->
<g id="edge18" class="edge">
<title>13&#45;&gt;19</title>
<path fill="none" stroke="Black" d="M1520.95,-603C1592.64,-603 1758.49,-603 1833.38,-603"/>
<polygon fill="Black" stroke="Black" points="1833.07,-606.5 1843.07,-603 1833.07,-599.5 1833.07,-606.5"/>
<text text-anchor="middle" x="1753.67" y="-605.45" font-family="Times New Roman,serif" font-size="14.00">17 clone</text>
</g>
<!-- 21 -->
<g id="node19" class="node">
<title>21</title>
<polygon fill="none" stroke="black" points="2692,-725.38 2609.25,-725.38 2609.25,-642.62 2692,-642.62 2692,-725.38"/>
<text text-anchor="middle" x="2650.62" y="-678.58" font-family="Times New Roman,serif" font-size="14.00">295558main</text>
</g>
<!-- 13&#45;&gt;21 -->
<g id="edge20" class="edge">
<title>13&#45;&gt;21</title>
<path fill="none" stroke="Black" d="M1520.69,-624.75C1575.67,-658.62 1688.94,-722.55 1795.29,-746 2093.74,-811.81 2463.58,-732 2597.86,-697.96"/>
<polygon fill="Black" stroke="Black" points="2598.71,-701.36 2607.53,-695.48 2596.97,-694.58 2598.71,-701.36"/>
<text text-anchor="middle" x="1990.92" y="-772.45" font-family="Times New Roman,serif" font-size="14.00">19 clone</text>
</g>
<!-- 18 -->
<g id="node17" class="node">
<title>18</title>
<ellipse fill="none" stroke="black" cx="2282.27" cy="-603" rx="191.78" ry="18"/>
<text text-anchor="middle" x="2282.27" y="-597.58" font-family="Times New Roman,serif" font-size="14.00">/usr/tomcat/apache&#45;tomcat&#45;8.5.76/bin/fscan/main</text>
</g>
<!-- 15&#45;&gt;18 -->
<g id="edge17" class="edge">
<title>15&#45;&gt;18</title>
<path fill="none" stroke="Black" d="M1915.8,-523.27C1981.1,-537.52 2107.52,-565.1 2193.16,-583.78"/>
<polygon fill="Black" stroke="Black" points="2192.19,-587.15 2202.7,-585.86 2193.68,-580.31 2192.19,-587.15"/>
<text text-anchor="middle" x="1990.92" y="-544.45" font-family="Times New Roman,serif" font-size="14.00">16 write</text>
</g>
<!-- 16 -->
<g id="node16" class="node">
<title>16</title>
<ellipse fill="none" stroke="black" cx="1485.83" cy="-514" rx="205.75" ry="18"/>
<text text-anchor="middle" x="1485.83" y="-508.57" font-family="Times New Roman,serif" font-size="14.00">/usr/tomcat/apache&#45;tomcat&#45;8.5.76/bin/fscan&#45;main.zip</text>
</g>
<!-- 16&#45;&gt;15 -->
<g id="edge16" class="edge">
<title>16&#45;&gt;15</title>
<path fill="none" stroke="Black" d="M1692,-514C1738.42,-514 1783.83,-514 1817.33,-514"/>
<polygon fill="Black" stroke="Black" points="1817.15,-517.5 1827.15,-514 1817.15,-510.5 1817.15,-517.5"/>
<text text-anchor="middle" x="1753.67" y="-516.45" font-family="Times New Roman,serif" font-size="14.00">15 read</text>
</g>
<!-- 18&#45;&gt;21 -->
<g id="edge21" class="edge">
<title>18&#45;&gt;21</title>
<path fill="none" stroke="Black" d="M2359.62,-619.88C2431.09,-635.68 2535.89,-658.86 2598,-672.59"/>
<polygon fill="Black" stroke="Black" points="2597.08,-675.97 2607.6,-674.71 2598.59,-669.13 2597.08,-675.97"/>
<text text-anchor="middle" x="2570.62" y="-672.45" font-family="Times New Roman,serif" font-size="14.00">20 read</text>
</g>
<!-- 19&#45;&gt;18 -->
<g id="edge19" class="edge">
<title>19&#45;&gt;18</title>
<path fill="none" stroke="Black" d="M1900.06,-603C1937.29,-603 2008.12,-603 2078.71,-603"/>
<polygon fill="Black" stroke="Black" points="2078.52,-606.5 2088.52,-603 2078.52,-599.5 2078.52,-606.5"/>
<text text-anchor="middle" x="1990.92" y="-605.45" font-family="Times New Roman,serif" font-size="14.00">18 write</text>
</g>
<!-- 23 -->
<g id="node20" class="node">
<title>23</title>
<ellipse fill="none" stroke="black" cx="2956.04" cy="-684" rx="183.8" ry="18"/>
<text text-anchor="middle" x="2956.04" y="-678.58" font-family="Times New Roman,serif" font-size="14.00">/usr/tomcat/apache&#45;tomcat&#45;8.5.76/bin/result.txt</text>
</g>
<!-- 21&#45;&gt;23 -->
<g id="edge22" class="edge">
<title>21&#45;&gt;23</title>
<path fill="none" stroke="Black" d="M2692.23,-684C2711.01,-684 2734.81,-684 2760.39,-684"/>
<polygon fill="Black" stroke="Black" points="2760.34,-687.5 2770.34,-684 2760.34,-680.5 2760.34,-687.5"/>
<text text-anchor="middle" x="2732.12" y="-686.45" font-family="Times New Roman,serif" font-size="14.00">21 write</text>
</g>
<!-- 26 -->
<g id="node23" class="node">
<title>26</title>
<polygon fill="none" stroke="black" points="1949.29,-453 1795.29,-453 1795.29,-299 1949.29,-299 1949.29,-453"/>
<text text-anchor="middle" x="1872.29" y="-370.57" font-family="Times New Roman,serif" font-size="14.00">295606sqltool_amd64_u</text>
</g>
<!-- 24&#45;&gt;26 -->
<g id="edge26" class="edge">
<title>24&#45;&gt;26</title>
<path fill="none" stroke="Black" d="M1631.81,-319.12C1658.6,-322.66 1686.25,-326.92 1712.04,-332 1735.61,-336.64 1760.8,-342.95 1784.02,-349.35"/>
<polygon fill="Black" stroke="Black" points="1782.87,-352.66 1793.44,-351.98 1784.75,-345.92 1782.87,-352.66"/>
<text text-anchor="middle" x="1753.67" y="-348.45" font-family="Times New Roman,serif" font-size="14.00">25 read</text>
</g>
<!-- 31 -->
<g id="node26" class="node">
<title>31</title>
<polygon fill="none" stroke="black" points="1949.29,-281 1795.29,-281 1795.29,-127 1949.29,-127 1949.29,-281"/>
<text text-anchor="middle" x="1872.29" y="-198.57" font-family="Times New Roman,serif" font-size="14.00">295652sqltool_amd64_u</text>
</g>
<!-- 24&#45;&gt;31 -->
<g id="edge31" class="edge">
<title>24&#45;&gt;31</title>
<path fill="none" stroke="Orange" d="M1621.67,-290.22C1651.72,-285.39 1683.21,-279.11 1712.04,-271 1736.08,-264.24 1761.33,-254.79 1784.45,-245.12"/>
<polygon fill="Orange" stroke="Orange" points="1785.69,-248.4 1793.52,-241.26 1782.95,-241.96 1785.69,-248.4"/>
<text text-anchor="middle" x="1753.67" y="-266.45" font-family="Times New Roman,serif" font-size="14.00">30 read</text>
</g>
<!-- 25&#45;&gt;26 -->
<g id="edge25" class="edge">
<title>25&#45;&gt;26</title>
<path fill="none" stroke="Black" d="M1520.95,-376C1579.31,-376 1700.05,-376 1783.34,-376"/>
<polygon fill="Black" stroke="Black" points="1783.32,-379.5 1793.32,-376 1783.32,-372.5 1783.32,-379.5"/>
<text text-anchor="middle" x="1753.67" y="-378.45" font-family="Times New Roman,serif" font-size="14.00">24 clone</text>
</g>
<!-- 28 -->
<g id="node24" class="node">
<title>28</title>
<polygon fill="none" stroke="black" points="2532,-395 2134.74,-395 2032.54,-359 2429.8,-359 2532,-395"/>
<text text-anchor="middle" x="2282.27" y="-371.57" font-family="Times New Roman,serif" font-size="14.00">192.168.0.155&#45;50330&#45;&gt;192.168.0.244&#45;1433</text>
</g>
<!-- 26&#45;&gt;28 -->
<g id="edge27" class="edge">
<title>26&#45;&gt;28</title>
<path fill="none" stroke="Black" d="M1949.55,-376.19C1984.03,-376.27 2026.65,-376.38 2069.72,-376.48"/>
<polygon fill="Black" stroke="Black" points="2069.45,-379.98 2079.46,-376.51 2069.47,-372.98 2069.45,-379.98"/>
<text text-anchor="middle" x="1990.92" y="-378.45" font-family="Times New Roman,serif" font-size="14.00">26 write</text>
</g>
<!-- 28&#45;&gt;26 -->
<g id="edge28" class="edge">
<title>28&#45;&gt;26</title>
<path fill="none" stroke="Black" d="M2150.85,-358.5C2094.34,-353.04 2027.47,-350 1967.29,-356.25 1965.23,-356.46 1963.16,-356.7 1961.06,-356.97"/>
<polygon fill="Black" stroke="Black" points="1960.69,-353.48 1951.28,-358.35 1961.67,-360.41 1960.69,-353.48"/>
<text text-anchor="middle" x="1990.92" y="-358.45" font-family="Times New Roman,serif" font-size="14.00">27 read</text>
</g>
<!-- 30&#45;&gt;31 -->
<g id="edge30" class="edge">
<title>30&#45;&gt;31</title>
<path fill="none" stroke="Orange" d="M1520.95,-224.96C1579.37,-221.46 1700.3,-214.23 1783.59,-209.25"/>
<polygon fill="Orange" stroke="Orange" points="1783.55,-212.76 1793.32,-208.66 1783.13,-205.77 1783.55,-212.76"/>
<text text-anchor="middle" x="1753.67" y="-214.45" font-family="Times New Roman,serif" font-size="14.00">29 clone</text>
</g>
<!-- 33 -->
<g id="node27" class="node">
<title>33</title>
<polygon fill="none" stroke="black" points="2532,-223 2134.74,-223 2032.54,-187 2429.8,-187 2532,-223"/>
<text text-anchor="middle" x="2282.27" y="-199.57" font-family="Times New Roman,serif" font-size="14.00">192.168.0.155&#45;50338&#45;&gt;192.168.0.244&#45;1433</text>
</g>
<!-- 31&#45;&gt;33 -->
<g id="edge32" class="edge">
<title>31&#45;&gt;33</title>
<path fill="none" stroke="Orange" d="M1949.55,-204.19C1984.03,-204.27 2026.65,-204.38 2069.72,-204.48"/>
<polygon fill="Orange" stroke="Orange" points="2069.45,-207.98 2079.46,-204.51 2069.47,-200.98 2069.45,-207.98"/>
<text text-anchor="middle" x="1990.92" y="-206.45" font-family="Times New Roman,serif" font-size="14.00">31 write</text>
</g>
<!-- 33&#45;&gt;31 -->
<g id="edge33" class="edge">
<title>33&#45;&gt;31</title>
<path fill="none" stroke="Orange" d="M2150.85,-186.5C2094.34,-181.04 2027.47,-178 1967.29,-184.25 1965.23,-184.46 1963.16,-184.7 1961.06,-184.97"/>
<polygon fill="Orange" stroke="Orange" points="1960.69,-181.48 1951.28,-186.35 1961.67,-188.41 1960.69,-181.48"/>
<text text-anchor="middle" x="1990.92" y="-186.45" font-family="Times New Roman,serif" font-size="14.00">32 read</text>
</g>
<!-- 36 -->
<g id="node29" class="node">
<title>36</title>
<polygon fill="none" stroke="black" points="447.75,-213.75 352.25,-213.75 352.25,-118.25 447.75,-118.25 447.75,-213.75"/>
<text text-anchor="middle" x="400" y="-160.57" font-family="Times New Roman,serif" font-size="14.00">295571base64</text>
</g>
<!-- 35&#45;&gt;36 -->
<g id="edge35" class="edge">
<title>35&#45;&gt;36</title>
<path fill="none" stroke="Green" d="M266.85,-171.36C288.87,-170.47 316.5,-169.35 340.8,-168.36"/>
<polygon fill="Green" stroke="Green" points="340.7,-171.87 350.55,-167.96 340.41,-164.87 340.7,-171.87"/>
<text text-anchor="middle" x="308.38" y="-172.45" font-family="Times New Roman,serif" font-size="14.00">34 clone</text>
</g>
<!-- 37 -->
<g id="node30" class="node">
<title>37</title>
<ellipse fill="none" stroke="black" cx="769.93" cy="-166" rx="239.68" ry="18"/>
<text text-anchor="middle" x="769.93" y="-160.57" font-family="Times New Roman,serif" font-size="14.00">/usr/tomcat/apache&#45;tomcat&#45;8.5.76/webapps/ROOT/logout.jsp</text>
</g>
<!-- 36&#45;&gt;37 -->
<g id="edge36" class="edge">
<title>36&#45;&gt;37</title>
<path fill="none" stroke="Green" d="M447.97,-166C467.55,-166 491.91,-166 518.39,-166"/>
<polygon fill="Green" stroke="Green" points="518.35,-169.5 528.35,-166 518.35,-162.5 518.35,-169.5"/>
<text text-anchor="middle" x="490.12" y="-168.45" font-family="Times New Roman,serif" font-size="14.00">35 write</text>
</g>
<!-- 39 -->
<g id="node32" class="node">
<title>39</title>
<polygon fill="none" stroke="black" points="450,-100 350,-100 350,0 450,0 450,-100"/>
<text text-anchor="middle" x="400" y="-44.58" font-family="Times New Roman,serif" font-size="14.00">295591whoami</text>
</g>
<!-- 38&#45;&gt;39 -->
<g id="edge38" class="edge">
<title>38&#45;&gt;39</title>
<path fill="none" stroke="Green" d="M266.85,-56.12C288.09,-55.14 314.54,-53.91 338.19,-52.82"/>
<polygon fill="Green" stroke="Green" points="338.2,-56.32 348.03,-52.36 337.88,-49.33 338.2,-56.32"/>
<text text-anchor="middle" x="308.38" y="-58.45" font-family="Times New Roman,serif" font-size="14.00">37 clone</text>
</g>
</g>
</svg>
